<?xml version="1.0" encoding="UTF-8" standalone="no"?>
<!-- Created with Inkscape (http://www.inkscape.org/) -->

<svg
   version="1.1"
   id="svg2"
   xml:space="preserve"
   width="480"
   height="864"
   viewBox="0 0 480 864"
   sodipodi:docname="Astronaut with Suitcase.ai"
   xmlns:inkscape="http://www.inkscape.org/namespaces/inkscape"
   xmlns:sodipodi="http://sodipodi.sourceforge.net/DTD/sodipodi-0.dtd"
   xmlns="http://www.w3.org/2000/svg"
   xmlns:svg="http://www.w3.org/2000/svg"><defs
     id="defs6"><clipPath
       clipPathUnits="userSpaceOnUse"
       id="clipPath16"><path
         d="M 0,648 H 360 V 0 H 0 Z"
         id="path14" /></clipPath><clipPath
       clipPathUnits="userSpaceOnUse"
       id="clipPath324"><path
         d="m 216.745,590.04 h 6.472 v -49.934 h -6.472 z"
         id="path322" /></clipPath><clipPath
       clipPathUnits="userSpaceOnUse"
       id="clipPath380"><path
         d="m 101.248,219.817 h 8.932 v -3.659 h -8.932 z"
         id="path378" /></clipPath></defs><sodipodi:namedview
     id="namedview4"
     pagecolor="#ffffff"
     bordercolor="#666666"
     borderopacity="1.0"
     inkscape:pageshadow="2"
     inkscape:pageopacity="0.0"
     inkscape:pagecheckerboard="0" /><g
     id="g8"
     inkscape:groupmode="layer"
     inkscape:label="Astronaut with Suitcase"
     transform="matrix(1.3333333,0,0,-1.3333333,0,864)"><g
       id="g10"><g
         id="g12"
         clip-path="url(#clipPath16)"><g
           id="g18"
           transform="translate(197.9794,372.4051)"><path
             d="m 0,0 c 0,0 1.952,-28.422 -18.651,-38.214 l -35.391,5.775 c -16.421,15.833 -5.535,42.16 -5.535,42.16 l -0.008,0.305 c -0.041,20.31 17.571,51.209 17.571,51.209 C -7.126,32.505 7.183,34.157 7.183,34.157 7.542,21.199 6.189,7.298 -0.11,0.525 L 0,0"
             style="fill:#dc7038;fill-opacity:1;fill-rule:nonzero;stroke:#aa5625;stroke-width:1;stroke-linecap:butt;stroke-linejoin:miter;stroke-miterlimit:10;stroke-dasharray:none;stroke-opacity:1"
             id="path20" /></g><g
           id="g22"
           transform="translate(212.2023,415.9638)"><path
             d="M 0,0 4.161,104.819 C -9.088,101.522 -13.422,93.509 -13.422,93.509 L -62.806,30.496 c -5.48,-6.332 43.826,-44.008 59.761,-39.717 l 2.782,8.939 z"
             style="fill:#d23c27;fill-opacity:1;fill-rule:nonzero;stroke:none"
             id="path24" /></g><g
           id="g26"
           transform="translate(212.2023,415.9638)"><path
             d="M 0,0 4.161,104.819 C -9.088,101.522 -13.422,93.509 -13.422,93.509 L -62.806,30.496 c -5.48,-6.332 43.826,-44.008 59.761,-39.717 l 2.782,8.939 z"
             style="fill:none;stroke:#a53a23;stroke-width:1;stroke-linecap:butt;stroke-linejoin:miter;stroke-miterlimit:10;stroke-dasharray:none;stroke-opacity:1"
             id="path28" /></g><g
           id="g30"
           transform="translate(213.9065,460.8337)"><path
             d="M 0,0 C 0,0 -7.798,7.519 -9.287,16.642"
             style="fill:none;stroke:#a6391d;stroke-width:1;stroke-linecap:butt;stroke-linejoin:miter;stroke-miterlimit:10;stroke-dasharray:none;stroke-opacity:1"
             id="path32" /></g><g
           id="g34"
           transform="translate(210.7411,443.7131)"><path
             d="M 0,0 C 0,0 -4.907,-0.212 -5.741,-8.203"
             style="fill:none;stroke:#a6391d;stroke-width:1;stroke-linecap:butt;stroke-linejoin:miter;stroke-miterlimit:10;stroke-dasharray:none;stroke-opacity:1"
             id="path36" /></g><g
           id="g38"
           transform="translate(194.8278,379.916)"><path
             d="M 0,0 C 2.128,-1.695 3.5,-3.863 4.264,-6.373"
             style="fill:none;stroke:#aa5617;stroke-width:1;stroke-linecap:butt;stroke-linejoin:miter;stroke-miterlimit:10;stroke-dasharray:none;stroke-opacity:1"
             id="path40" /></g><g
           id="g42"
           transform="translate(295.7623,50.2663)"><path
             d="m 0,0 c 0,0 30.383,8.17 31.915,-16.851 1.532,-25.021 -68.681,-18.383 -68.681,-18.383 0,0 -12.511,2.553 -6.638,24.255 5.872,21.702 5.106,21.192 5.106,21.192 L -4.085,7.66 3.574,-6.894"
             style="fill:#efe8cc;fill-opacity:1;fill-rule:nonzero;stroke:#b2af9c;stroke-width:1;stroke-linecap:round;stroke-linejoin:round;stroke-miterlimit:10;stroke-dasharray:none;stroke-opacity:1"
             id="path44" /></g><g
           id="g46"
           transform="translate(188.1028,57.1599)"><path
             d="m 0,0 c -2.383,4.085 4.766,21.787 4.766,21.787 l 33.362,-1.702 c 0,0 9.191,-43.574 -6.468,-42.894 C 16,-22.128 5.106,-23.149 5.106,-23.149 -19.146,-7.142 -3.175,16.686 2.043,14.638"
             style="fill:#efe8cc;fill-opacity:1;fill-rule:nonzero;stroke:#b2af9c;stroke-width:1;stroke-linecap:butt;stroke-linejoin:miter;stroke-miterlimit:10;stroke-dasharray:none;stroke-opacity:1"
             id="path48" /></g><g
           id="g50"
           transform="translate(187.9196,257.9297)"><path
             d="m 0,0 c 0,0 -18.847,-75.142 -13.316,-91.441 l -7.345,-50.437 c 0,0 -1.172,-29.979 21.664,-38.329 22.836,-8.35 38.722,-3.126 38.722,-3.126 0,0 8.151,4.047 11.476,16.23 l 7.344,50.436 c 9.95,14.045 13.316,91.442 13.316,91.442 l 0.344,2.402 c 2.647,18.803 4.207,37.34 4.88,46.164 l 0.147,2.112 c 0,0 -44.818,8.236 -67.994,22.592 0,0 -22.021,-96.462 -8.729,-102.239"
             style="fill:#dc7038;fill-opacity:1;fill-rule:nonzero;stroke:#aa5625;stroke-width:1;stroke-linecap:butt;stroke-linejoin:miter;stroke-miterlimit:10;stroke-dasharray:none;stroke-opacity:1"
             id="path52" /></g><g
           id="g54"
           transform="translate(235.8542,119.2968)"><path
             d="M 0,0 C 0,0 -35.736,-10.787 -51.111,20.497"
             style="fill:none;stroke:#aa5617;stroke-width:1;stroke-linecap:butt;stroke-linejoin:miter;stroke-miterlimit:10;stroke-dasharray:none;stroke-opacity:1"
             id="path56" /></g><g
           id="g58"
           transform="translate(233.5597,204.5622)"><path
             d="M 0,0 C 0,0 -3.468,-14.048 -31.06,-10.662"
             style="fill:none;stroke:#aa5617;stroke-width:1;stroke-linecap:butt;stroke-linejoin:miter;stroke-miterlimit:10;stroke-dasharray:none;stroke-opacity:1"
             id="path60" /></g><g
           id="g62"
           transform="translate(332.367,251.4024)"><path
             d="m 0,0 c 0,0 10.129,-85.848 0,-102.926 v -56.77 c 0,0 -4.092,-33.232 -34.911,-38.77 -30.819,-5.539 -50.2,2.769 -50.2,2.769 0,0 -9.69,5.769 -11.676,19.731 v 56.771 c -10.129,17.077 0,102.925 0,102.925 l 0.007,2.704 c 0.117,21.149 1.578,41.832 2.361,51.666 l 0.206,2.352 c 0,0 58.966,1.883 91.341,13.986 0,0 10.218,-109.856 -7.892,-114.09"
             style="fill:#dc7038;fill-opacity:1;fill-rule:nonzero;stroke:#aa5625;stroke-width:1;stroke-linecap:butt;stroke-linejoin:miter;stroke-miterlimit:10;stroke-dasharray:none;stroke-opacity:1"
             id="path64" /></g><g
           id="g66"
           transform="translate(242.625,95.2092)"><path
             d="M 0,0 C 0,0 43.779,-18.4 69.316,15.021"
             style="fill:none;stroke:#aa5617;stroke-width:1;stroke-linecap:butt;stroke-linejoin:miter;stroke-miterlimit:10;stroke-dasharray:none;stroke-opacity:1"
             id="path68" /></g><g
           id="g70"
           transform="translate(293.4203,436.8596)"><path
             d="M 0,0 C 0,0 -35.657,-6.691 -76.95,-0.123"
             style="fill:#d23c27;fill-opacity:1;fill-rule:nonzero;stroke:#a53a23;stroke-width:1;stroke-linecap:butt;stroke-linejoin:miter;stroke-miterlimit:10;stroke-dasharray:none;stroke-opacity:1"
             id="path72" /></g><g
           id="g74"
           transform="translate(243.9807,290.1631)"><path
             d="M 0,0 C 0.717,0.756 0.973,4.432 1.001,8.978"
             style="fill:none;stroke:#b2af9c;stroke-width:1;stroke-linecap:round;stroke-linejoin:round;stroke-miterlimit:10;stroke-dasharray:none;stroke-opacity:1"
             id="path76" /></g><g
           id="g78"
           transform="translate(301.7339,511.0695)"><path
             d="m 0,0 c -0.009,-1.14 40.582,-41.014 32.277,-69.153 -8.306,-28.139 -1.287,-152.445 -1.287,-152.445 0,0 -139.79,-2.719 -142.831,5.597 -3.041,8.316 7.838,53.658 7.838,53.658 0,0 4.239,90.114 -1.17,108.684 -5.41,18.569 10.411,66.513 26.203,70.965 C -63.178,21.758 0,0 0,0"
             style="fill:#d23c27;fill-opacity:1;fill-rule:nonzero;stroke:none"
             id="path80" /></g><g
           id="g82"
           transform="translate(301.7339,511.0695)"><path
             d="m 0,0 c -0.009,-1.14 40.582,-41.014 32.277,-69.153 -8.306,-28.139 -1.287,-152.445 -1.287,-152.445 0,0 -139.79,-2.719 -142.831,5.597 -3.041,8.316 7.838,53.658 7.838,53.658 0,0 4.239,90.114 -1.17,108.684 -5.41,18.569 10.411,66.513 26.203,70.965 C -63.178,21.758 0,0 0,0 Z"
             style="fill:none;stroke:#a53a23;stroke-width:1;stroke-linecap:butt;stroke-linejoin:miter;stroke-miterlimit:10;stroke-dasharray:none;stroke-opacity:1"
             id="path84" /></g><g
           id="g86"
           transform="translate(334.713,456.8011)"><path
             d="m 0,0 c -0.486,-0.723 -1.866,-2.341 -5.137,-3.723 0,0 -3.558,-2.628 -3.905,-3.686 -0.346,-1.059 -0.638,-0.748 -0.638,-0.748 0,0 -0.603,2.481 0.474,4.069 1.077,1.587 -0.693,0.711 -0.693,0.711 L -13.111,-9.8 c 0,0 -1.46,-1.989 -1.514,0.694 -0.055,2.682 0.492,7.353 0.492,7.353 0,0 -0.821,4.398 -1.898,0.238 -1.076,-4.161 -0.656,-10.438 -0.656,-10.438 0,0 -0.073,-4.963 -1.825,-1.368 0,0 -2.117,7.061 -4.142,7.262 -2.026,0.201 -1.697,-1.715 -1.697,-1.715 l 3.759,-5.639 c 0,0 1.624,-4.361 -1.898,-1.423 0,0 -2.901,4.398 -8.777,5.803 -5.876,1.405 -3.011,-3.048 -3.011,-3.048 0,0 6.679,-0.255 8.339,-3.594 0,0 3.23,-2.664 0.073,-3.194 0,0 -2.299,0.365 -3.138,0.73 -0.84,0.365 -10.292,-0.401 -10.292,-0.401 0,0 -4.781,-3.102 -7.846,-0.657 -3.066,2.445 -4.562,7.171 -4.562,7.171 0,0 -1.88,7.591 3.595,11.678 5.474,4.088 4.799,6.478 4.799,6.478 0,0 0.438,4.927 9.543,3.723 9.105,-1.205 12.39,-13.23 12.39,-13.23 0,0 1.314,-4.744 1.934,0 0.621,4.745 -0.967,7.774 -0.967,7.774 0,0 -4.343,2.737 -3.503,8.211 0.839,5.474 0.602,8.54 4.051,9.799 0,0 6.368,0.109 9.196,0.803 0.336,0.082 0.672,0.126 1.004,0.138"
             style="fill:#efe8cc;fill-opacity:1;fill-rule:nonzero;stroke:#b5956a;stroke-width:1;stroke-linecap:butt;stroke-linejoin:miter;stroke-miterlimit:10;stroke-dasharray:none;stroke-opacity:1"
             id="path88" /></g><g
           id="g90"
           transform="translate(308.2389,432.2256)"><path
             d="m 0,0 c 0,0 -3.805,-0.301 0.397,-3.038 h 1.752 c 0,0 5.46,-0.041 2.463,-2.546 -2.997,-2.504 -7.5,-4.612 -7.5,-4.612 0,0 -7.116,-4.146 -1.642,-4.68 5.474,-0.534 8.786,5.857 8.786,5.857 0,0 3.86,5.009 1.423,-2.258 -2.436,-7.267 -3.175,-7.869 -1.915,-9.032 1.259,-1.164 4.023,6.049 4.023,6.049 0,0 -0.246,6.911 1.916,6.555 2.162,-0.356 0.739,-8.526 0.739,-8.526 l -0.109,-9.197 c 0,0 -1.109,-9.922 -7.527,-12.098 -6.419,-2.176 -6.747,-1.095 -9.922,2.724 0,0 -8.65,-3.969 -13.084,7.609 -4.434,11.578 -1.464,17.777 -1.464,17.777 0,0 1.441,2.79 2.751,2.782 0.023,-10e-4 0.045,-0.002 0.068,-0.003 l -0.069,0.407 c 0,0 -1.122,6.942 4.9,8.981 6.022,2.039 9.142,1.423 9.142,1.423 0,0 9.895,-0.671 10.962,-2.929 C 7.158,-1.013 0.26,0 0.26,0 Z"
             style="fill:#efe8cc;fill-opacity:1;fill-rule:nonzero;stroke:none"
             id="path92" /></g><g
           id="g94"
           transform="translate(308.2389,432.2256)"><path
             d="m 0,0 c 0,0 -3.805,-0.301 0.397,-3.038 h 1.752 c 0,0 5.46,-0.041 2.463,-2.546 -2.997,-2.504 -7.5,-4.612 -7.5,-4.612 0,0 -7.116,-4.146 -1.642,-4.68 5.474,-0.534 8.786,5.857 8.786,5.857 0,0 3.86,5.009 1.423,-2.258 -2.436,-7.267 -3.175,-7.869 -1.915,-9.032 1.259,-1.164 4.023,6.049 4.023,6.049 0,0 -0.246,6.911 1.916,6.555 2.162,-0.356 0.739,-8.526 0.739,-8.526 l -0.109,-9.197 c 0,0 -1.109,-9.922 -7.527,-12.098 -6.419,-2.176 -6.747,-1.095 -9.922,2.724 0,0 -8.65,-3.969 -13.084,7.609 -4.434,11.578 -1.464,17.777 -1.464,17.777 0,0 1.441,2.79 2.751,2.782 0.023,-10e-4 0.045,-0.002 0.068,-0.003 l -0.069,0.407 c 0,0 -1.122,6.942 4.9,8.981 6.022,2.039 9.142,1.423 9.142,1.423 0,0 9.895,-0.671 10.962,-2.929 C 7.158,-1.013 0.26,0 0.26,0 Z"
             style="fill:none;stroke:#b5956a;stroke-width:1;stroke-linecap:butt;stroke-linejoin:miter;stroke-miterlimit:10;stroke-dasharray:none;stroke-opacity:1"
             id="path96" /></g><g
           id="g98"
           transform="translate(334.7128,453.9807)"><path
             d="m 0,0 c -14.719,-8.708 -16.785,-20.482 -16.785,-20.482 0,0 -0.164,-6.268 3.778,-1.273 0,0 2.599,11.317 13.007,19.116"
             style="fill:#efe8cc;fill-opacity:1;fill-rule:nonzero;stroke:#b5956a;stroke-width:1;stroke-linecap:round;stroke-linejoin:round;stroke-miterlimit:10;stroke-dasharray:none;stroke-opacity:1"
             id="path100" /></g><g
           id="g102"
           transform="translate(333.7188,440.8648)"><path
             d="m 0,0 c -1.197,-0.344 -2.075,-0.664 -2.075,-0.664 -7.664,-5.2 0,3.613 0,3.613 0,0 1.231,1.336 3.03,2.716"
             style="fill:#efe8cc;fill-opacity:1;fill-rule:nonzero;stroke:#b5956a;stroke-width:1;stroke-linecap:round;stroke-linejoin:round;stroke-miterlimit:10;stroke-dasharray:none;stroke-opacity:1"
             id="path104" /></g><g
           id="g106"
           transform="translate(332.3599,433.8734)"><path
             d="M 0,0 C -2.821,-0.085 -0.906,1.679 0.47,2.728"
             style="fill:#efe8cc;fill-opacity:1;fill-rule:nonzero;stroke:#b5956a;stroke-width:1;stroke-linecap:round;stroke-linejoin:round;stroke-miterlimit:10;stroke-dasharray:none;stroke-opacity:1"
             id="path108" /></g><g
           id="g110"
           transform="translate(331.456,424.9651)"><path
             d="M 0,0 C -0.602,0.207 -1.25,0.38 -1.947,0.51 -6.802,1.418 -2.436,3.635 0.378,4.801"
             style="fill:#efe8cc;fill-opacity:1;fill-rule:nonzero;stroke:#b5956a;stroke-width:1;stroke-linecap:round;stroke-linejoin:round;stroke-miterlimit:10;stroke-dasharray:none;stroke-opacity:1"
             id="path112" /></g><g
           id="g114"
           transform="translate(330.8221,417.6381)"><path
             d="M 0,0 C -0.592,1.099 -1.258,2.09 -1.258,2.09 -2.601,4.9 -1.219,4.326 0.217,3.315"
             style="fill:#efe8cc;fill-opacity:1;fill-rule:nonzero;stroke:#b5956a;stroke-width:1;stroke-linecap:round;stroke-linejoin:round;stroke-miterlimit:10;stroke-dasharray:none;stroke-opacity:1"
             id="path116" /></g><g
           id="g118"
           transform="translate(330.0175,390.7183)"><path
             d="m 0,0 c -4.163,-0.48 -11.867,0.373 -8.61,14.339 l -0.055,0.383 c 0,0 -1.259,9.689 0,16.203 1.259,6.515 2.299,0.11 2.299,0.11 l 0.876,-7.5 c 2.135,-4.434 2.354,-0.492 2.354,-0.492 0,0 -1.752,11.879 0,6.842 1.752,-5.036 3.339,-5.529 3.339,-5.529 0.164,-0.082 0.313,-0.148 0.447,-0.198"
             style="fill:#efe8cc;fill-opacity:1;fill-rule:nonzero;stroke:#b5956a;stroke-width:1;stroke-linecap:round;stroke-linejoin:round;stroke-miterlimit:10;stroke-dasharray:none;stroke-opacity:1"
             id="path120" /></g><g
           id="g122"
           transform="translate(295.1088,358.0227)"><path
             d="m 0,0 c 0,0 -2.061,-4.471 -1.909,0.312 0.152,4.782 2.207,7.516 2.207,7.516 0,0 4.727,2.001 4.781,7.539 0.054,5.538 0.782,8.525 -2.419,10.324 0,0 -6.267,1.134 -8.947,2.274 -2.679,1.14 -5.839,-0.433 -5.839,-0.433 0,0 -3.939,-2.722 -5.566,-6.117 -1.626,-3.395 -1.299,-4.336 -1.299,-4.336 0,0 -4.538,-4.621 -1.722,-9.888 0,0 0.622,-2.394 4.629,-4.916 0,0 3.089,-3.167 3.26,-4.267 0.172,-1.1 0.51,-0.841 0.51,-0.841 0,0 0.994,2.352 0.187,4.092 -0.806,1.74 0.799,0.591 0.799,0.591 l 2.135,-6.857 c 0,0 1.12,-2.198 1.606,0.44 0.487,2.639 0.699,7.337 0.699,7.337 0,0 1.519,4.208 1.911,-0.072 0.392,-4.279 -1.033,-10.406 -1.033,-10.406 0,0 -0.728,-4.911 1.58,-1.645 0,0 3.227,6.628 5.258,6.5 2.032,-0.128 1.399,-1.966 1.399,-1.966 l -4.619,-4.959 c 0,0 -2.305,-4.043 1.644,-1.711 0,0 3.572,3.873 9.597,4.312 6.025,0.44 2.481,-3.492 2.481,-3.492 0,0 -6.633,0.824 -8.81,-2.204 0,0 -3.617,-2.109 -0.586,-3.14 0,0 2.328,-0.01 3.215,0.215 0.887,0.225 10.092,-2.055 10.092,-2.055 0,0 4.218,-3.832 7.638,-1.913 3.42,1.919 5.658,6.343 5.658,6.343 0,0 3.078,7.188 -1.666,12.104 -4.744,4.917 -3.692,7.167 -3.692,7.167 0,0 0.361,4.933 -8.819,5.212 C 5.179,11.339 0,0 0,0"
             style="fill:#efe8cc;fill-opacity:1;fill-rule:nonzero;stroke:none"
             id="path124" /></g><g
           id="g126"
           transform="translate(295.1088,358.0227)"><path
             d="m 0,0 c 0,0 -2.061,-4.471 -1.909,0.312 0.152,4.782 2.207,7.516 2.207,7.516 0,0 4.727,2.001 4.781,7.539 0.054,5.538 0.782,8.525 -2.419,10.324 0,0 -6.267,1.134 -8.947,2.274 -2.679,1.14 -5.839,-0.433 -5.839,-0.433 0,0 -3.939,-2.722 -5.566,-6.117 -1.626,-3.395 -1.299,-4.336 -1.299,-4.336 0,0 -4.538,-4.621 -1.722,-9.888 0,0 0.622,-2.394 4.629,-4.916 0,0 3.089,-3.167 3.26,-4.267 0.172,-1.1 0.51,-0.841 0.51,-0.841 0,0 0.994,2.352 0.187,4.092 -0.806,1.74 0.799,0.591 0.799,0.591 l 2.135,-6.857 c 0,0 1.12,-2.198 1.606,0.44 0.487,2.639 0.699,7.337 0.699,7.337 0,0 1.519,4.208 1.911,-0.072 0.392,-4.279 -1.033,-10.406 -1.033,-10.406 0,0 -0.728,-4.911 1.58,-1.645 0,0 3.227,6.628 5.258,6.5 2.032,-0.128 1.399,-1.966 1.399,-1.966 l -4.619,-4.959 c 0,0 -2.305,-4.043 1.644,-1.711 0,0 3.572,3.873 9.597,4.312 6.025,0.44 2.481,-3.492 2.481,-3.492 0,0 -6.633,0.824 -8.81,-2.204 0,0 -3.617,-2.109 -0.586,-3.14 0,0 2.328,-0.01 3.215,0.215 0.887,0.225 10.092,-2.055 10.092,-2.055 0,0 4.218,-3.832 7.638,-1.913 3.42,1.919 5.658,6.343 5.658,6.343 0,0 3.078,7.188 -1.666,12.104 -4.744,4.917 -3.692,7.167 -3.692,7.167 0,0 0.361,4.933 -8.819,5.212 C 5.179,11.339 0,0 0,0 Z"
             style="fill:none;stroke:#b5956a;stroke-width:1;stroke-linecap:butt;stroke-linejoin:miter;stroke-miterlimit:10;stroke-dasharray:none;stroke-opacity:1"
             id="path128" /></g><g
           id="g130"
           transform="translate(311.8495,326.3587)"><path
             d="m 0,0 c 0,0 2.762,6.394 -2.852,9.377 -5.615,2.983 -8.793,2.878 -8.793,2.878 0,0 -9.874,0.933 -11.291,-1.124 -1.418,-2.056 5.553,-2.168 5.553,-2.168 l 0.257,-0.042 c 0,0 3.706,-0.91 -0.882,-2.935 l -1.729,0.283 c 0,0 -5.395,0.839 -2.841,-2.116 2.554,-2.954 6.658,-5.76 6.658,-5.76 0,0 6.356,-5.239 0.867,-4.884 -5.489,0.356 -7.727,7.197 -7.727,7.197 0,0 -3.002,5.565 -1.769,-1.999 1.233,-7.565 1.865,-8.278 0.435,-9.224 -1.43,-0.945 -2.996,6.619 -2.996,6.619 0,0 1.357,6.781 -0.834,6.778 -2.192,-0.002 -2.104,-8.295 -2.104,-8.295 l -1.374,-9.094 c 0,0 -0.505,-9.971 5.479,-13.153 5.984,-3.182 6.483,-2.168 10.231,1.089 0,0 7.897,-5.311 14.139,5.401 6.242,10.712 4.31,17.309 4.31,17.309 0,0 -0.973,2.986 -2.267,3.188 -0.022,0.004 -0.045,0.006 -0.067,0.008 z"
             style="fill:#efe8cc;fill-opacity:1;fill-rule:nonzero;stroke:none"
             id="path132" /></g><g
           id="g134"
           transform="translate(311.8495,326.3587)"><path
             d="m 0,0 c 0,0 2.762,6.394 -2.852,9.377 -5.615,2.983 -8.793,2.878 -8.793,2.878 0,0 -9.874,0.933 -11.291,-1.124 -1.418,-2.056 5.553,-2.168 5.553,-2.168 l 0.257,-0.042 c 0,0 3.706,-0.91 -0.882,-2.935 l -1.729,0.283 c 0,0 -5.395,0.839 -2.841,-2.116 2.554,-2.954 6.658,-5.76 6.658,-5.76 0,0 6.356,-5.239 0.867,-4.884 -5.489,0.356 -7.727,7.197 -7.727,7.197 0,0 -3.002,5.565 -1.769,-1.999 1.233,-7.565 1.865,-8.278 0.435,-9.224 -1.43,-0.945 -2.996,6.619 -2.996,6.619 0,0 1.357,6.781 -0.834,6.778 -2.192,-0.002 -2.104,-8.295 -2.104,-8.295 l -1.374,-9.094 c 0,0 -0.505,-9.971 5.479,-13.153 5.984,-3.182 6.483,-2.168 10.231,1.089 0,0 7.897,-5.311 14.139,5.401 6.242,10.712 4.31,17.309 4.31,17.309 0,0 -0.973,2.986 -2.267,3.188 -0.022,0.004 -0.045,0.006 -0.067,0.008 z"
             style="fill:none;stroke:#b5956a;stroke-width:1;stroke-linecap:butt;stroke-linejoin:miter;stroke-miterlimit:10;stroke-dasharray:none;stroke-opacity:1"
             id="path136" /></g><g
           id="g138"
           transform="translate(289.276,515.1748)"><path
             d="m 0,0 c 3.373,-8.503 1.504,-12.196 1.504,-12.196 0,0 -3.388,-7.019 -10.945,-0.696 l -0.278,0.245 c 0,0 -13.557,0.214 -1.601,-2.538 11.957,-2.751 6.762,-15.832 6.762,-15.832 0,0 7.909,-16.589 -9.947,-17.209 l -0.321,-0.071 c 0,0 -14.019,-8.127 -13.775,11.151 l -0.135,0.363 c 0,0 -3.311,9.193 -3.481,15.825 -0.169,6.633 2.222,0.601 2.222,0.601 l 2.466,-7.136 c 3.038,-3.872 2.405,0.024 2.405,0.024 0,0 -4.262,11.226 -1.47,6.683 2.793,-4.542 4.449,-4.682 4.449,-4.682 4.036,-1.019 -1.641,4.403 -1.641,4.403 -3.357,4.306 3.7,0.253 3.7,0.253 6.566,-5.898 5.15,0.852 5.15,0.852 0,0 -3.291,4.713 -10.138,4.497 -6.846,-0.217 3.089,5.836 3.089,5.836 7.923,1.182 6.577,1.951 6.577,1.951 0,0 0.426,4.69 -6.712,1.719 -7.137,-2.972 -1.228,3.036 -1.228,3.036 0,0 5.63,0.398 5.667,4.049 0.038,3.652 -8.471,-1.751 -8.471,-1.751 -6.368,-6.725 -0.776,3.529 -0.776,3.529 0,0 1.113,1.908 2.843,3.841"
             style="fill:#efe8cc;fill-opacity:1;fill-rule:nonzero;stroke:#b5956a;stroke-width:1;stroke-linecap:round;stroke-linejoin:round;stroke-miterlimit:10;stroke-dasharray:none;stroke-opacity:1"
             id="path140" /></g><g
           id="g142"
           transform="translate(265.9359,367.2108)"><path
             d="m 0,0 c 21.049,-13.267 20.284,-30.04 20.284,-30.04 0,0 -1.202,-6.154 -3.963,-0.421 0,0 -0.13,19.56 -18.555,29.497 0,0 1.599,-7.927 -3.744,-6.737 0,0 -3.011,-0.675 -0.87,5.914 0,0 -4.534,-7.01 -6.924,-2.383 -2.391,4.627 5.062,7.117 5.062,7.117 0,0 -6.506,2.01 -4.402,5.916 2.104,3.906 6.252,0.626 6.252,0.626 l 1.697,-2.453 c 0,0 0.854,8.615 4.782,4.094 3.928,-4.52 -0.798,-5.599 -0.798,-5.599 0,0 4.038,2.017 4.511,-1.397 C 3.806,0.719 0.326,0.205 0.326,0.205 Z"
             style="fill:#efe8cc;fill-opacity:1;fill-rule:nonzero;stroke:none"
             id="path144" /></g><g
           id="g146"
           transform="translate(265.9359,367.2108)"><path
             d="m 0,0 c 21.049,-13.267 20.284,-30.04 20.284,-30.04 0,0 -1.202,-6.154 -3.963,-0.421 0,0 -0.13,19.56 -18.555,29.497 0,0 1.599,-7.927 -3.744,-6.737 0,0 -3.011,-0.675 -0.87,5.914 0,0 -4.534,-7.01 -6.924,-2.383 -2.391,4.627 5.062,7.117 5.062,7.117 0,0 -6.506,2.01 -4.402,5.916 2.104,3.906 6.252,0.626 6.252,0.626 l 1.697,-2.453 c 0,0 0.854,8.615 4.782,4.094 3.928,-4.52 -0.798,-5.599 -0.798,-5.599 0,0 4.038,2.017 4.511,-1.397 C 3.806,0.719 0.326,0.205 0.326,0.205 Z"
             style="fill:none;stroke:#b5956a;stroke-width:1;stroke-linecap:round;stroke-linejoin:round;stroke-miterlimit:10;stroke-dasharray:none;stroke-opacity:1"
             id="path148" /></g><g
           id="g150"
           transform="translate(264.2056,298.89)"><path
             d="m 0,0 c 0,0 14.769,-6.668 12.576,12.487 l 0.098,0.375 c 0,0 2.364,9.48 1.862,16.096 -0.502,6.616 -2.271,0.373 -2.271,0.373 l -1.732,-7.349 c -2.63,-4.16 -2.395,-0.219 -2.395,-0.219 0,0 3.105,11.599 0.786,6.797 C 6.606,23.759 4.972,23.452 4.972,23.452 1.06,22.03 6.159,27.998 6.159,27.998 9.064,32.622 2.453,27.876 2.453,27.876 c -5.936,-6.532 -5.21,0.327 -5.21,0.327 0,0 2.798,5.022 9.631,5.499 6.833,0.477 -3.663,5.493 -3.663,5.493 -8.002,0.375 -6.741,1.276 -6.741,1.276 0,0 -0.898,4.623 6.504,2.389 7.401,-2.234 0.914,3.145 0.914,3.145 0,0 -5.641,-0.174 -6.047,3.455 -0.407,3.629 8.604,-0.885 8.604,-0.885 7.016,-6.046 0.415,3.589 0.415,3.589 0,0 -6.657,9.147 -12.056,6.299 -5.399,-2.847 -6.727,-2.418 -6.727,-2.418 0,0 -4.975,-0.13 -7.619,-9.17 -2.643,-9.04 -0.356,-12.611 -0.356,-12.611 0,0 4.081,-6.641 10.959,0.415 l 0.252,0.272 c 0,0 13.466,1.583 1.849,-2.363 -11.616,-3.947 -5.126,-16.436 -5.126,-16.436 0,0 -6.189,-17.304 11.638,-16.114 z"
             style="fill:#efe8cc;fill-opacity:1;fill-rule:nonzero;stroke:none"
             id="path152" /></g><g
           id="g154"
           transform="translate(264.2056,298.89)"><path
             d="m 0,0 c 0,0 14.769,-6.668 12.576,12.487 l 0.098,0.375 c 0,0 2.364,9.48 1.862,16.096 -0.502,6.616 -2.271,0.373 -2.271,0.373 l -1.732,-7.349 c -2.63,-4.16 -2.395,-0.219 -2.395,-0.219 0,0 3.105,11.599 0.786,6.797 C 6.606,23.759 4.972,23.452 4.972,23.452 1.06,22.03 6.159,27.998 6.159,27.998 9.064,32.622 2.453,27.876 2.453,27.876 c -5.936,-6.532 -5.21,0.327 -5.21,0.327 0,0 2.798,5.022 9.631,5.499 6.833,0.477 -3.663,5.493 -3.663,5.493 -8.002,0.375 -6.741,1.276 -6.741,1.276 0,0 -0.898,4.623 6.504,2.389 7.401,-2.234 0.914,3.145 0.914,3.145 0,0 -5.641,-0.174 -6.047,3.455 -0.407,3.629 8.604,-0.885 8.604,-0.885 7.016,-6.046 0.415,3.589 0.415,3.589 0,0 -6.657,9.147 -12.056,6.299 -5.399,-2.847 -6.727,-2.418 -6.727,-2.418 0,0 -4.975,-0.13 -7.619,-9.17 -2.643,-9.04 -0.356,-12.611 -0.356,-12.611 0,0 4.081,-6.641 10.959,0.415 l 0.252,0.272 c 0,0 13.466,1.583 1.849,-2.363 -11.616,-3.947 -5.126,-16.436 -5.126,-16.436 0,0 -6.189,-17.304 11.638,-16.114 z"
             style="fill:none;stroke:#b5956a;stroke-width:1;stroke-linecap:round;stroke-linejoin:round;stroke-miterlimit:10;stroke-dasharray:none;stroke-opacity:1"
             id="path156" /></g><g
           id="g158"
           transform="translate(246.6693,526.6246)"><path
             d="m 0,0 c 0.113,-0.023 -0.011,-0.237 -0.015,-0.367 -0.11,-4.296 1.714,-10.317 1.714,-10.317 0,0 1.047,-4.852 -1.47,-1.744 0,0 -3.654,6.402 -5.672,6.141 C -7.462,-6.548 -6.71,-8.34 -6.71,-8.34 l 4.933,-4.646 c 0,0 2.566,-3.883 -1.528,-1.815 0,0 -3.818,3.631 -9.859,3.675 -6.041,0.044 -2.246,-3.648 -2.246,-3.648 0,0 6.564,1.257 8.935,-1.622 0,0 3.747,-1.867 0.791,-3.095 0,0 -2.323,-0.162 -3.223,0.004 -0.9,0.166 -9.936,-2.711 -9.936,-2.711 0,0 -3.958,-4.1 -7.496,-2.409 -3.538,1.691 -6.061,5.958 -6.061,5.958 0,0 -3.543,6.972 0.869,12.188 2.405,2.843 3.143,4.783 3.318,5.96 0,0 4.928,5.272 28.213,0.501"
             style="fill:#efe8cc;fill-opacity:1;fill-rule:nonzero;stroke:none"
             id="path160" /></g><g
           id="g162"
           transform="translate(246.6693,526.6246)"><path
             d="m 0,0 c 0.113,-0.023 -0.011,-0.237 -0.015,-0.367 -0.11,-4.296 1.714,-10.317 1.714,-10.317 0,0 1.047,-4.852 -1.47,-1.744 0,0 -3.654,6.402 -5.672,6.141 C -7.462,-6.548 -6.71,-8.34 -6.71,-8.34 l 4.933,-4.646 c 0,0 2.566,-3.883 -1.528,-1.815 0,0 -3.818,3.631 -9.859,3.675 -6.041,0.044 -2.246,-3.648 -2.246,-3.648 0,0 6.564,1.257 8.935,-1.622 0,0 3.747,-1.867 0.791,-3.095 0,0 -2.323,-0.162 -3.223,0.004 -0.9,0.166 -9.936,-2.711 -9.936,-2.711 0,0 -3.958,-4.1 -7.496,-2.409 -3.538,1.691 -6.061,5.958 -6.061,5.958 0,0 -3.543,6.972 0.869,12.188 2.405,2.843 3.143,4.783 3.318,5.96 0,0 4.928,5.272 28.213,0.501 z"
             style="fill:none;stroke:#b5956a;stroke-width:1;stroke-linecap:butt;stroke-linejoin:miter;stroke-miterlimit:10;stroke-dasharray:none;stroke-opacity:1"
             id="path164" /></g><g
           id="g166"
           transform="translate(252.8569,525.0346)"><path
             d="m 0,0 -1.49,-6.19 c 0,0 -0.974,-2.266 -1.632,0.335 -0.522,2.062 -0.957,5.429 -1.114,6.734"
             style="fill:#efe8cc;fill-opacity:1;fill-rule:nonzero;stroke:#b5956a;stroke-width:1;stroke-linecap:butt;stroke-linejoin:miter;stroke-miterlimit:10;stroke-dasharray:none;stroke-opacity:1"
             id="path168" /></g><g
           id="g170"
           transform="translate(241.6788,501.4369)"><path
             d="m 0,0 c 0,0 -3.639,-1.151 1.072,-2.87 l 1.706,0.394 c 0,0 5.329,1.192 2.974,-1.924 -2.355,-3.116 -6.267,-6.184 -6.267,-6.184 0,0 -5.998,-5.645 -0.544,-4.93 5.453,0.714 7.239,7.687 7.239,7.687 0,0 2.631,5.75 1.896,-1.879 -0.735,-7.629 -1.32,-8.383 0.169,-9.232 1.489,-0.849 2.557,6.8 2.557,6.8 0,0 -1.799,6.678 0.388,6.819 2.187,0.141 2.642,-8.14 2.642,-8.14 l 1.967,-8.985 c 0,0 1.157,-9.916 -4.606,-13.483 -5.762,-3.567 -6.326,-2.588 -10.28,0.416 0,0 -7.532,-5.816 -14.462,4.464 -6.93,10.28 -5.435,16.99 -5.435,16.99 0,0 0.775,3.042 2.053,3.329 0.023,0.005 0.045,0.01 0.068,0.013 l -0.16,0.381 c 0,0 -2.657,6.51 2.75,9.855 5.407,3.344 8.585,3.447 8.585,3.447 0,0 9.791,1.578 11.34,-0.382 C 7.202,0.627 0.253,0.059 0.253,0.059 Z"
             style="fill:#efe8cc;fill-opacity:1;fill-rule:nonzero;stroke:none"
             id="path172" /></g><g
           id="g174"
           transform="translate(241.6788,501.4369)"><path
             d="m 0,0 c 0,0 -3.639,-1.151 1.072,-2.87 l 1.706,0.394 c 0,0 5.329,1.192 2.974,-1.924 -2.355,-3.116 -6.267,-6.184 -6.267,-6.184 0,0 -5.998,-5.645 -0.544,-4.93 5.453,0.714 7.239,7.687 7.239,7.687 0,0 2.631,5.75 1.896,-1.879 -0.735,-7.629 -1.32,-8.383 0.169,-9.232 1.489,-0.849 2.557,6.8 2.557,6.8 0,0 -1.799,6.678 0.388,6.819 2.187,0.141 2.642,-8.14 2.642,-8.14 l 1.967,-8.985 c 0,0 1.157,-9.916 -4.606,-13.483 -5.762,-3.567 -6.326,-2.588 -10.28,0.416 0,0 -7.532,-5.816 -14.462,4.464 -6.93,10.28 -5.435,16.99 -5.435,16.99 0,0 0.775,3.042 2.053,3.329 0.023,0.005 0.045,0.01 0.068,0.013 l -0.16,0.381 c 0,0 -2.657,6.51 2.75,9.855 5.407,3.344 8.585,3.447 8.585,3.447 0,0 9.791,1.578 11.34,-0.382 C 7.202,0.627 0.253,0.059 0.253,0.059 Z"
             style="fill:none;stroke:#b5956a;stroke-width:1;stroke-linecap:butt;stroke-linejoin:miter;stroke-miterlimit:10;stroke-dasharray:none;stroke-opacity:1"
             id="path176" /></g><g
           id="g178"
           transform="translate(258.3892,524.0418)"><path
             d="m 0,0 c -8.044,-10.131 -7.557,-19.18 -7.557,-19.18 0,0 1.253,-6.144 3.966,-0.389 0,0 -0.015,9.593 6.276,18.808"
             style="fill:#efe8cc;fill-opacity:1;fill-rule:nonzero;stroke:#b5956a;stroke-width:1;stroke-linecap:round;stroke-linejoin:round;stroke-miterlimit:10;stroke-dasharray:none;stroke-opacity:1"
             id="path180" /></g><g
           id="g182"
           transform="translate(256.2921,524.4733)"><path
             d="M 0,0 C 3.026,-0.732 6.082,-1.517 9.103,-2.327"
             style="fill:none;stroke:#a53a23;stroke-width:1;stroke-linecap:butt;stroke-linejoin:miter;stroke-miterlimit:10;stroke-dasharray:none;stroke-opacity:1"
             id="path184" /></g><g
           id="g186"
           transform="translate(248.6161,526.2213)"><path
             d="M 0,0 C 2.509,-0.531 5.081,-1.12 7.676,-1.748"
             style="fill:none;stroke:#a53a23;stroke-width:1;stroke-linecap:butt;stroke-linejoin:miter;stroke-miterlimit:10;stroke-dasharray:none;stroke-opacity:1"
             id="path188" /></g><g
           id="g190"
           transform="translate(199.2678,424.7833)"><path
             d="m 0,0 c 1.306,-1.126 2.351,-2.094 2.351,-2.094 0,0 4.037,-1.928 1.31,1.394 C 2.66,0.52 1.309,1.745 0,2.807"
             style="fill:#efe8cc;fill-opacity:1;fill-rule:nonzero;stroke:#b5956a;stroke-width:1;stroke-linecap:butt;stroke-linejoin:miter;stroke-miterlimit:10;stroke-dasharray:none;stroke-opacity:1"
             id="path192" /></g><g
           id="g194"
           transform="translate(198.4435,445.9909)"><path
             d="m 0,0 c 1.73,2.49 4.442,6.921 4.442,6.921 0,0 0.312,5.691 4.094,6.726 3.782,1.036 8.482,-0.54 8.482,-0.54 0,0 7.24,-2.955 7.316,-9.787 0.076,-6.831 2.405,-7.694 2.405,-7.694 0,0 3.722,-3.258 -2.617,-9.904 -6.339,-6.647 -17.989,-2.214 -17.989,-2.214 0,0 -4.607,1.735 -1.14,-1.562 3.467,-3.297 6.85,-3.8 6.85,-3.8 0,0 4.77,1.896 8.698,-2.009 3.928,-3.904 6.545,-5.519 5.529,-9.047 0,0 -3.664,-5.21 -4.771,-7.903 -1.106,-2.694 -4.461,-3.793 -4.461,-3.793 0,0 -4.715,-0.829 -8.258,0.445 -3.542,1.274 -3.97,2.174 -3.97,2.174 0,0 -1.742,0.027 -3.655,0.852"
             style="fill:#efe8cc;fill-opacity:1;fill-rule:nonzero;stroke:#b5956a;stroke-width:1;stroke-linecap:butt;stroke-linejoin:miter;stroke-miterlimit:10;stroke-dasharray:none;stroke-opacity:1"
             id="path196" /></g><g
           id="g198"
           transform="translate(198.6513,437.4076)"><path
             d="m 0,0 c 1.944,0.371 4.663,1.268 7.183,3.416 4.598,3.918 -0.687,4.228 -0.687,4.228 0,0 -3.127,-3.959 -6.358,-4.587"
             style="fill:#d23d27;fill-opacity:1;fill-rule:nonzero;stroke:#b5956a;stroke-width:1;stroke-linecap:butt;stroke-linejoin:miter;stroke-miterlimit:10;stroke-dasharray:none;stroke-opacity:1"
             id="path200" /></g><g
           id="g202"
           transform="translate(199.147,431.8752)"><path
             d="M 0,0 C 1.709,-0.329 3.413,-0.437 4.015,0.237 5.371,1.755 3.629,2.619 3.629,2.619 l -3.687,0.156"
             style="fill:#d23d27;fill-opacity:1;fill-rule:nonzero;stroke:#b5956a;stroke-width:1;stroke-linecap:butt;stroke-linejoin:miter;stroke-miterlimit:10;stroke-dasharray:none;stroke-opacity:1"
             id="path204" /></g><g
           id="g206"
           transform="translate(195.5181,469.3231)"><path
             d="m 0,0 c 0.066,-0.105 0.096,-0.161 0.096,-0.161 0,0 1.405,-2.809 0.626,-3.862 C 0.708,-4.041 0.694,-4.059 0.679,-4.076 l 0.37,-0.185 c 0,0 6.269,-3.184 4.368,-9.251 -1.049,-3.346 -2.23,-5.503 -3.078,-6.765"
             style="fill:#efe8cc;fill-opacity:1;fill-rule:nonzero;stroke:#b5956a;stroke-width:1;stroke-linecap:butt;stroke-linejoin:miter;stroke-miterlimit:10;stroke-dasharray:none;stroke-opacity:1"
             id="path208" /></g><g
           id="g210"
           transform="translate(190.7967,312.2417)"><path
             d="m 0,0 c 0.328,-0.066 0.911,0.185 1.896,1.007 0,0 2.902,4.398 8.777,5.803 5.876,1.405 3.011,-3.048 3.011,-3.048 0,0 -6.679,-0.255 -8.339,-3.594 0,0 -3.23,-2.664 -0.073,-3.194 0,0 2.299,0.365 3.138,0.73 0.84,0.365 10.292,-0.401 10.292,-0.401 0,0 4.781,-3.102 7.846,-0.657 3.066,2.445 4.562,7.171 4.562,7.171 0,0 1.88,7.591 -3.595,11.679 -5.474,4.087 -4.799,6.477 -4.799,6.477 0,0 -0.438,4.927 -9.543,3.723 C 8.051,25.018 4.771,20.917 2.882,17.458"
             style="fill:#efe8cc;fill-opacity:1;fill-rule:nonzero;stroke:#b5956a;stroke-width:1;stroke-linecap:butt;stroke-linejoin:miter;stroke-miterlimit:10;stroke-dasharray:none;stroke-opacity:1"
             id="path212" /></g><g
           id="g214"
           transform="translate(192.3603,321.8469)"><path
             d="M 0,0 C 0.165,0.1 0.331,0.162 0.497,0.179 2.522,0.38 2.194,-1.536 2.194,-1.536 L -1.169,-6.58"
             style="fill:#d23d27;fill-opacity:1;fill-rule:nonzero;stroke:#b5956a;stroke-width:1;stroke-linecap:butt;stroke-linejoin:miter;stroke-miterlimit:10;stroke-dasharray:none;stroke-opacity:1"
             id="path216" /></g><g
           id="g218"
           transform="translate(291.6497,523.7078)"><path
             d="m 0,0 -50.696,19.879 v 6.255 L 0,22.932 v -2.323 z"
             style="fill:#dc7038;fill-opacity:1;fill-rule:nonzero;stroke:none"
             id="path220" /></g><g
           id="g222"
           transform="translate(291.6497,523.7078)"><path
             d="m 0,0 -50.696,19.879 v 6.255 L 0,22.932 V 20.609 0"
             style="fill:none;stroke:#aa5625;stroke-width:1;stroke-linecap:butt;stroke-linejoin:miter;stroke-miterlimit:10;stroke-dasharray:none;stroke-opacity:1"
             id="path224" /></g><g
           id="g226"
           transform="translate(219.1984,290.4163)"><path
             d="m 0,0 c -0.258,2.427 -0.857,3.677 -0.857,3.677 0,0 -1.441,2.79 -2.751,2.781 -0.023,0 -0.046,-0.001 -0.069,-0.003 l 0.07,0.408 c 0,0 1.121,6.942 -4.901,8.981 -6.021,2.039 -9.141,1.423 -9.141,1.423 0,0 -9.895,-0.671 -10.963,-2.929 -1.067,-2.258 5.83,-1.245 5.83,-1.245 h 0.26 c 0,0 3.805,-0.301 -0.396,-3.038 h -1.752 c 0,0 -5.461,-0.041 -2.464,-2.546 2.998,-2.504 7.5,-4.612 7.5,-4.612 0,0 1.13,-0.658 2.143,-1.484"
             style="fill:#efe8cc;fill-opacity:1;fill-rule:nonzero;stroke:#b5956a;stroke-width:1;stroke-linecap:butt;stroke-linejoin:miter;stroke-miterlimit:10;stroke-dasharray:none;stroke-opacity:1"
             id="path228" /></g><g
           id="g230"
           transform="translate(199.2678,424.7833)"><path
             d="m 0,0 c 1.306,-1.126 2.351,-2.094 2.351,-2.094 0,0 4.037,-1.928 1.31,1.394 C 2.66,0.52 1.309,1.745 0,2.807"
             style="fill:#d23d27;fill-opacity:1;fill-rule:nonzero;stroke:#b5956a;stroke-width:1;stroke-linecap:butt;stroke-linejoin:miter;stroke-miterlimit:10;stroke-dasharray:none;stroke-opacity:1"
             id="path232" /></g><g
           id="g234"
           transform="translate(265.3947,522.146)"><path
             d="m 0,0 c 18.865,-5.059 36.339,-11.077 36.339,-11.077 -0.009,-1.14 40.582,-41.013 32.277,-69.152 -8.306,-28.14 -1.287,-152.445 -1.287,-152.445 0,0 -139.789,-2.72 -142.831,5.596 -3.041,8.317 7.838,53.659 7.838,53.659 0,0 4.24,90.114 -1.17,108.683 -5.41,18.57 10.411,66.514 26.203,70.966 5.017,1.414 14.816,0.183 25.852,-2.155"
             style="fill:none;stroke:#a53a23;stroke-width:1;stroke-linecap:butt;stroke-linejoin:miter;stroke-miterlimit:10;stroke-dasharray:none;stroke-opacity:1"
             id="path236" /></g><g
           id="g238"
           transform="translate(312.9937,289.919)"><path
             d="m 0,0 c 0.028,4.508 -0.17,9.872 -0.367,14.096 -0.397,8.485 5.233,12.211 5.233,12.211 l 20.339,-0.238 c 0,0 12.726,-7.413 12.726,-26.285 0,-18.872 -16.176,-24.514 -16.176,-24.514 l -0.276,-0.108 c -6.404,-6.894 -14.71,-0.95 -14.71,-0.95 0,0 -1.353,0.931 -1.628,2.191 l -0.409,0.001 c -4.259,-0.035 -8.445,1.022 -11.098,6.207 l -0.119,0.2 c -2.13,0.99 -3.836,3.055 -4.16,7.022 -0.972,11.894 10.109,10.228 10.109,10.228 z"
             style="fill:#efe8cc;fill-opacity:1;fill-rule:nonzero;stroke:none"
             id="path240" /></g><g
           id="g242"
           transform="translate(312.9937,289.919)"><path
             d="m 0,0 c 0.028,4.508 -0.17,9.872 -0.367,14.096 -0.397,8.485 5.233,12.211 5.233,12.211 l 20.339,-0.238 c 0,0 12.726,-7.413 12.726,-26.285 0,-18.872 -16.176,-24.514 -16.176,-24.514 l -0.276,-0.108 c -6.404,-6.894 -14.71,-0.95 -14.71,-0.95 0,0 -1.353,0.931 -1.628,2.191 l -0.409,0.001 c -4.259,-0.035 -8.445,1.022 -11.098,6.207 l -0.119,0.2 c -2.13,0.99 -3.836,3.055 -4.16,7.022 -0.972,11.894 10.109,10.228 10.109,10.228 z"
             style="fill:none;stroke:#b2af9c;stroke-width:1;stroke-linecap:butt;stroke-linejoin:miter;stroke-miterlimit:10;stroke-dasharray:none;stroke-opacity:1"
             id="path244" /></g><g
           id="g246"
           transform="translate(306.509,272.7299)"><path
             d="m 0,0 c 4.258,-1.979 10.209,0.333 10.209,0.333 0,0 6.873,3.2 10.032,20.882"
             style="fill:none;stroke:#b2af9c;stroke-width:1;stroke-linecap:round;stroke-linejoin:round;stroke-miterlimit:10;stroke-dasharray:none;stroke-opacity:1"
             id="path248" /></g><g
           id="g250"
           transform="translate(317.726,266.3229)"><path
             d="m 0,0 c 5.476,0.045 10.651,2.687 11.332,3.509 0,0 5.577,4.618 8.651,18.767"
             style="fill:none;stroke:#b2af9c;stroke-width:1;stroke-linecap:round;stroke-linejoin:round;stroke-miterlimit:10;stroke-dasharray:none;stroke-opacity:1"
             id="path252" /></g><g
           id="g254"
           transform="translate(346.269,288.5987)"><path
             d="m 0,0 c 0,0 -4.416,-13.945 -10.91,-22.463 -0.291,-0.381 -0.586,-0.732 -0.886,-1.055"
             style="fill:none;stroke:#b2af9c;stroke-width:1;stroke-linecap:round;stroke-linejoin:round;stroke-miterlimit:10;stroke-dasharray:none;stroke-opacity:1"
             id="path256" /></g><g
           id="g258"
           transform="translate(225.6981,528.3759)"><path
             d="m 0,0 c -1.811,-0.607 1.937,4.329 1.937,4.329 0,0 -0.342,5.582 2.05,11.734 2.393,6.152 24.038,-1.405 24.038,-1.405 0,0 57.646,-23.658 51.152,-29.126 L 72,-23.444 c 0,0 -0.456,-1.738 -5.354,2.423 C 61.747,-16.861 17.658,5.924 0,0"
             style="fill:#d23c27;fill-opacity:1;fill-rule:nonzero;stroke:none"
             id="path260" /></g><g
           id="g262"
           transform="translate(225.6981,528.3759)"><path
             d="m 0,0 c -1.811,-0.607 1.937,4.329 1.937,4.329 0,0 -0.342,5.582 2.05,11.734 2.393,6.152 24.038,-1.405 24.038,-1.405 0,0 57.646,-23.658 51.152,-29.126 L 72,-23.444 c 0,0 -0.456,-1.738 -5.354,2.423 C 61.747,-16.861 17.658,5.924 0,0 Z"
             style="fill:none;stroke:#a53a23;stroke-width:1;stroke-linecap:butt;stroke-linejoin:miter;stroke-miterlimit:10;stroke-dasharray:none;stroke-opacity:1"
             id="path264" /></g><g
           id="g266"
           transform="translate(261.4753,192.936)"><path
             d="M 0,0 C 0,0 1.823,-16.745 37.809,-17.473"
             style="fill:none;stroke:#aa5617;stroke-width:1;stroke-linecap:butt;stroke-linejoin:miter;stroke-miterlimit:10;stroke-dasharray:none;stroke-opacity:1"
             id="path268" /></g><g
           id="g270"
           transform="translate(272.5756,421.7166)"><path
             d="m 0,0 c 0.657,-22.653 3.359,-47.149 11.156,-59.719 l -0.083,-0.907 -0.108,-0.593 c 0,0 -2.386,-33.24 20.93,-45.07 l 40.187,6.132 c 18.727,18.245 6.536,49.262 6.536,49.262 l 0.01,0.356 C 78.797,-26.761 59.003,9.726 59.003,9.726"
             style="fill:#dc7038;fill-opacity:1;fill-rule:nonzero;stroke:#aa5625;stroke-width:1;stroke-linecap:butt;stroke-linejoin:miter;stroke-miterlimit:10;stroke-dasharray:none;stroke-opacity:1"
             id="path272" /></g><g
           id="g274"
           transform="translate(342.5573,314.6186)"><path
             d="m 0,0 -33.167,-5.061 c -1.157,-0.177 -2.237,0.618 -2.413,1.774 l -0.369,2.413 c -0.176,1.156 0.618,2.237 1.774,2.413 L -1.007,6.6 C 0.149,6.777 1.229,5.982 1.406,4.826 L 1.774,2.413 C 1.95,1.257 1.156,0.176 0,0"
             style="fill:#dc7038;fill-opacity:1;fill-rule:nonzero;stroke:none"
             id="path276" /></g><g
           id="g278"
           transform="translate(342.5573,314.6186)"><path
             d="m 0,0 -33.167,-5.061 c -1.157,-0.177 -2.237,0.618 -2.413,1.774 l -0.369,2.413 c -0.176,1.156 0.618,2.237 1.774,2.413 L -1.007,6.6 C 0.149,6.777 1.229,5.982 1.406,4.826 L 1.774,2.413 C 1.95,1.257 1.156,0.176 0,0 Z"
             style="fill:none;stroke:#aa5625;stroke-width:1;stroke-linecap:butt;stroke-linejoin:miter;stroke-miterlimit:10;stroke-dasharray:none;stroke-opacity:1"
             id="path280" /></g><g
           id="g282"
           transform="translate(328.0884,481.9811)"><path
             d="m 0,0 c 0,0 -19.768,34.39 -55.944,11.663 0,0 -21.506,-10.861 -11.561,-45.828 l 4.643,-34.405 c -0.05,3.868 55.168,17.977 75.129,11.589 0,0 -5.068,52.094 -12.267,56.981"
             style="fill:#d23c27;fill-opacity:1;fill-rule:nonzero;stroke:none"
             id="path284" /></g><g
           id="g286"
           transform="translate(328.0884,481.9811)"><path
             d="m 0,0 c 0,0 -19.768,34.39 -55.944,11.663 0,0 -21.506,-10.861 -11.561,-45.828 l 4.643,-34.405 c -0.05,3.868 55.168,17.977 75.129,11.589 0,0 -5.068,52.094 -12.267,56.981 z"
             style="fill:none;stroke:#a53a23;stroke-width:1;stroke-linecap:butt;stroke-linejoin:miter;stroke-miterlimit:10;stroke-dasharray:none;stroke-opacity:1"
             id="path288" /></g><g
           id="g290"
           transform="translate(225.2964,536.1484)"><path
             d="M 0,0 88.013,10.774 84.297,39.947 -3.716,29.173 Z"
             style="fill:#efe8cc;fill-opacity:1;fill-rule:nonzero;stroke:none"
             id="path292" /></g><g
           id="g294"
           transform="translate(225.2964,536.1484)"><path
             d="M 0,0 88.013,10.774 84.297,39.947 -3.716,29.173 Z"
             style="fill:none;stroke:#efe8cc;stroke-width:1;stroke-linecap:butt;stroke-linejoin:miter;stroke-miterlimit:10;stroke-dasharray:none;stroke-opacity:1"
             id="path296" /></g><g
           id="g298"
           transform="translate(318.7763,551.915)"><path
             d="m 0,0 -2.949,24.601 -0.038,0.091 -2.311,19.501 c -0.175,1.459 -0.496,2.87 -0.908,4.249 l -0.335,1.284 c 0,0 -12.781,38.78 -52.337,33.942 l 0.227,0.027 c -39.555,-4.838 -42.803,-45.578 -42.803,-45.578 l -0.011,-0.622 c -0.109,-1.67 -0.092,-3.355 0.111,-5.051 l 2.349,-19.592 2.949,-24.601"
             style="fill:#efe8cc;fill-opacity:1;fill-rule:nonzero;stroke:#b2af9c;stroke-width:1;stroke-linecap:butt;stroke-linejoin:miter;stroke-miterlimit:10;stroke-dasharray:none;stroke-opacity:1"
             id="path300" /></g><g
           id="g302"
           transform="translate(272.0454,535.322)"><path
             d="m 0,0 c -28.075,-3.02 -40.05,-2.033 -45.164,-1.388 -4.101,0.518 -3.774,3.001 -3.774,3.001 l -0.387,3.231 c 0,0 17.258,-2.339 48.057,1.758 l 0.916,0.112 c 30.876,3.447 47.083,9.879 47.083,9.879 l 0.387,-3.231 c 0,0 0.905,-2.333 -2.955,-3.823 -4.814,-1.86 -16.21,-5.706 -44.187,-9.542"
             style="fill:#efe8cc;fill-opacity:1;fill-rule:nonzero;stroke:#b2af9c;stroke-width:1;stroke-linecap:butt;stroke-linejoin:miter;stroke-miterlimit:10;stroke-dasharray:none;stroke-opacity:1"
             id="path304" /></g><g
           id="g306"
           transform="translate(317.1099,565.5812)"><path
             d="m 0,0 c -15.504,1.995 -19.867,6.57 -20.311,8.897 l -2.941,18.764 c -1.417,9.044 1.836,17.866 8.502,25.125 0.477,1.491 -1.383,1.967 -1.383,1.967 -7.738,-8.08 -11.711,-17.985 -10.149,-27.957 l 3.174,-20.253 c 0,0 3.78,-7.47 23.387,-9.328 C 0.55,-3.08 1.495,-0.192 0,0"
             style="fill:#efe8cc;fill-opacity:1;fill-rule:nonzero;stroke:none"
             id="path308" /></g><g
           id="g310"
           transform="translate(317.1099,565.5812)"><path
             d="m 0,0 c -15.504,1.995 -19.867,6.57 -20.311,8.897 l -2.941,18.764 c -1.417,9.044 1.836,17.866 8.502,25.125 0.477,1.491 -1.383,1.967 -1.383,1.967 -7.738,-8.08 -11.711,-17.985 -10.149,-27.957 l 3.174,-20.253 c 0,0 3.78,-7.47 23.387,-9.328 C 0.55,-3.08 1.495,-0.192 0,0 Z"
             style="fill:none;stroke:#b2af9c;stroke-width:1;stroke-linecap:butt;stroke-linejoin:miter;stroke-miterlimit:10;stroke-dasharray:none;stroke-opacity:1"
             id="path312" /></g><g
           id="g314"
           transform="translate(317.1099,565.5812)"><path
             d="m 0,0 c -15.504,1.995 -19.867,6.57 -20.311,8.897 l -2.941,18.764 c -1.417,9.044 1.836,17.866 8.502,25.125 l 0.286,0.012 C -7.61,44.358 -4.875,36.06 -4.875,36.06 l 0.335,-1.284 c 0.412,-1.379 0.733,-2.79 0.908,-4.25 l 2.312,-19.5 0.037,-0.091 1.644,-13.71"
             style="fill:#2a190c;fill-opacity:1;fill-rule:nonzero;stroke:#a9a695;stroke-width:1;stroke-linecap:butt;stroke-linejoin:miter;stroke-miterlimit:10;stroke-dasharray:none;stroke-opacity:1"
             id="path316" /></g><g
           id="g318"><g
             id="g320" /><g
             id="g332"><g
               clip-path="url(#clipPath324)"
               opacity="0.559998"
               id="g330"><g
                 transform="translate(217.3218,590.0321)"
                 id="g328"><path
                   d="M 0,0 -0.01,-0.622 C -0.12,-2.292 -0.103,-3.977 0.1,-5.674 L 2.449,-25.265 5.398,-49.866"
                   style="fill:#efe8cc;fill-opacity:1;fill-rule:nonzero;stroke:#b2af9c;stroke-width:1;stroke-linecap:butt;stroke-linejoin:miter;stroke-miterlimit:10;stroke-dasharray:none;stroke-opacity:1"
                   id="path326" /></g></g></g></g><g
           id="g334"
           transform="translate(167.6668,304.2146)"><path
             d="M 0,0 C 3.217,0 3.223,5 0,5 -3.217,5 -3.223,0 0,0"
             style="fill:#efe8cc;fill-opacity:1;fill-rule:nonzero;stroke:none"
             id="path336" /></g><g
           id="g338"
           transform="translate(170.5179,312.3423)"><path
             d="M 0,0 C 3.217,0 3.223,5 0,5 -3.217,5 -3.223,0 0,0"
             style="fill:#efe8cc;fill-opacity:1;fill-rule:nonzero;stroke:none"
             id="path340" /></g><g
           id="g342"
           transform="translate(174.7171,293.8304)"><path
             d="m 0,0 -27.92,-89.11 -8.634,2.705 27.921,89.11 1.361,4.271 1.417,4.522 c 0.509,1.624 -0.953,3.529 -3.265,4.253 l -19.802,6.206 c -2.313,0.724 -4.6,-0.005 -5.109,-1.629 l -1.417,-4.522 -1.522,-4.541 -27.716,-88.46 -8.634,2.705 27.717,88.46 0.421,1.516 3.424,10.926 c 1.147,3.66 4.966,5.721 8.531,4.604 L -0.575,20.783 C 2.989,19.666 4.949,15.794 3.802,12.134 L 0.378,1.208 Z"
             style="fill:#470000;fill-opacity:1;fill-rule:nonzero;stroke:none"
             id="path344" /></g><g
           id="g346"
           transform="translate(174.7171,293.8304)"><path
             d="m 0,0 -27.92,-89.11 -8.634,2.705 27.921,89.11 1.361,4.271 1.417,4.522 c 0.509,1.624 -0.953,3.529 -3.265,4.253 l -19.802,6.206 c -2.313,0.724 -4.6,-0.005 -5.109,-1.629 l -1.417,-4.522 -1.522,-4.541 -27.716,-88.46 -8.634,2.705 27.717,88.46 0.421,1.516 3.424,10.926 c 1.147,3.66 4.966,5.721 8.531,4.604 L -0.575,20.783 C 2.989,19.666 4.949,15.794 3.802,12.134 L 0.378,1.208 Z"
             style="fill:none;stroke:#350000;stroke-width:1;stroke-linecap:butt;stroke-linejoin:miter;stroke-miterlimit:10;stroke-dasharray:none;stroke-opacity:1"
             id="path348" /></g><g
           id="g350"
           transform="translate(168.8622,305.3283)"><path
             d="M 0,0 C 0.509,1.624 -0.953,3.529 -3.265,4.253"
             style="fill:none;stroke:#350000;stroke-width:1;stroke-linecap:butt;stroke-linejoin:miter;stroke-miterlimit:10;stroke-dasharray:none;stroke-opacity:1"
             id="path352" /></g><g
           id="g354"
           transform="translate(178.4098,310.8315)"><path
             d="M 0,0 C 0.003,1.341 -0.106,2.893 -0.36,4.692 -2.403,19.16 -4.615,20.011 -4.615,20.011 l -27.745,2.213 c 0,0 -14.041,-10.471 -8.936,-23.362 l 0.851,-1.83 c 1.83,-7.021 5.818,-6.721 5.818,-6.721 0,0 4.905,-5.917 7.927,-4.726 v 0.17 c 4.955,-4.387 9.699,-4.122 13.726,-1.699 l 3.071,9.402 -0.606,0.351 c -4.405,6.272 -0.756,10.234 1.065,11.674 0.514,0.407 0.882,0.613 0.882,0.613"
             style="fill:#efe8cc;fill-opacity:1;fill-rule:nonzero;stroke:#b2af9c;stroke-width:1;stroke-linecap:butt;stroke-linejoin:miter;stroke-miterlimit:10;stroke-dasharray:none;stroke-opacity:1"
             id="path356" /></g><g
           id="g358"
           transform="translate(161.17,293.0807)"><path
             d="M 0,0 C 0.937,0.077 1.483,0.592 1.8,1.177 2.273,2.047 1.947,3.132 1.097,3.64 -1.124,4.968 -5.883,8.652 -6.822,16.23"
             style="fill:none;stroke:#b2af9c;stroke-width:1;stroke-linecap:round;stroke-linejoin:round;stroke-miterlimit:10;stroke-dasharray:none;stroke-opacity:1"
             id="path360" /></g><g
           id="g362"
           transform="translate(151.7895,296.5729)"><path
             d="m 0,0 c 0.996,-1.063 2.155,-1.933 3.494,-2.454 1.641,-0.638 2.74,-0.842 3.461,-0.783"
             style="fill:none;stroke:#b2af9c;stroke-width:1;stroke-linecap:round;stroke-linejoin:round;stroke-miterlimit:10;stroke-dasharray:none;stroke-opacity:1"
             id="path364" /></g><g
           id="g366"
           transform="translate(147.0711,308.0763)"><path
             d="M 0,0 C 0,0 1.353,-7.734 5.484,-12.142"
             style="fill:none;stroke:#b2af9c;stroke-width:1;stroke-linecap:round;stroke-linejoin:round;stroke-miterlimit:10;stroke-dasharray:none;stroke-opacity:1"
             id="path368" /></g><g
           id="g370"
           transform="translate(143.1684,308.4996)"><path
             d="M 0,0 C 0,0 0.811,-6.224 1.508,-7.996"
             style="fill:none;stroke:#b2af9c;stroke-width:1;stroke-linecap:round;stroke-linejoin:round;stroke-miterlimit:10;stroke-dasharray:none;stroke-opacity:1"
             id="path372" /></g><g
           id="g374"><g
             id="g376" /><g
             id="g388"><g
               clip-path="url(#clipPath380)"
               opacity="0.449997"
               id="g386"><g
                 transform="translate(110.0309,216.635)"
                 id="g384"><path
                   d="M 0,0 -8.633,2.705"
                   style="fill:#470000;fill-opacity:1;fill-rule:nonzero;stroke:#350000;stroke-width:1;stroke-linecap:butt;stroke-linejoin:miter;stroke-miterlimit:10;stroke-dasharray:none;stroke-opacity:1"
                   id="path382" /></g></g></g></g><g
           id="g390"
           transform="translate(164.7732,292.5444)"><path
             d="m 0,0 2.672,8.262 1.417,4.522"
             style="fill:none;stroke:#350000;stroke-width:1;stroke-linecap:butt;stroke-linejoin:miter;stroke-miterlimit:10;stroke-dasharray:none;stroke-opacity:1"
             id="path392" /></g><g
           id="g394"
           transform="translate(169.8796,315.9274)"><path
             d="M 0,0 4.262,-1.314 C 7.827,-2.431 9.787,-6.303 8.64,-9.963"
             style="fill:#470000;fill-opacity:1;fill-rule:nonzero;stroke:#350000;stroke-width:1;stroke-linecap:butt;stroke-linejoin:miter;stroke-miterlimit:10;stroke-dasharray:none;stroke-opacity:1"
             id="path396" /></g><g
           id="g398"
           transform="translate(177.2025,327.7603)"><path
             d="m 0,0 -33.113,5.403 c -1.155,0.189 -1.938,1.277 -1.749,2.431 l 0.393,2.41 c 0.188,1.154 1.277,1.937 2.431,1.749 L 1.075,6.59 C 2.23,6.401 3.013,5.313 2.824,4.158 L 2.431,1.749 C 2.243,0.595 1.154,-0.188 0,0"
             style="fill:#dc7038;fill-opacity:1;fill-rule:nonzero;stroke:none"
             id="path400" /></g><g
           id="g402"
           transform="translate(177.2025,327.7603)"><path
             d="m 0,0 -33.113,5.403 c -1.155,0.189 -1.938,1.277 -1.749,2.431 l 0.393,2.41 c 0.188,1.154 1.277,1.937 2.431,1.749 L 1.075,6.59 C 2.23,6.401 3.013,5.313 2.824,4.158 L 2.431,1.749 C 2.243,0.595 1.154,-0.188 0,0 Z"
             style="fill:none;stroke:#aa5625;stroke-width:1;stroke-linecap:butt;stroke-linejoin:miter;stroke-miterlimit:10;stroke-dasharray:none;stroke-opacity:1"
             id="path404" /></g><g
           id="g406"
           transform="translate(118.7061,46.054)"><path
             d="m 0,0 -80.815,24.987 c -13.81,4.27 -21.545,18.927 -17.275,32.737 l 37.649,121.767 c 4.27,13.811 18.927,21.545 32.737,17.275 l 80.815,-24.987 c 13.811,-4.27 21.545,-18.927 17.275,-32.737 L 32.737,17.275 C 28.467,3.464 13.81,-4.27 0,0"
             style="fill:#a9493b;fill-opacity:1;fill-rule:nonzero;stroke:none"
             id="path408" /></g><g
           id="g410"
           transform="translate(118.7061,46.054)"><path
             d="m 0,0 -80.815,24.987 c -13.81,4.27 -21.545,18.927 -17.275,32.737 l 37.649,121.767 c 4.27,13.811 18.927,21.545 32.737,17.275 l 80.815,-24.987 c 13.811,-4.27 21.545,-18.927 17.275,-32.737 L 32.737,17.275 C 28.467,3.464 13.81,-4.27 0,0 Z"
             style="fill:none;stroke:#a53a23;stroke-width:1;stroke-linecap:butt;stroke-linejoin:miter;stroke-miterlimit:10;stroke-dasharray:none;stroke-opacity:1"
             id="path412" /></g><g
           id="g414"
           transform="translate(113.0337,53.9953)"><path
             d="m 0,0 -80.815,24.987 c -13.81,4.27 -21.545,18.927 -17.275,32.737 l 37.649,121.767 c 4.27,13.811 18.927,21.545 32.737,17.275 l 80.815,-24.987 c 13.811,-4.27 21.545,-18.927 17.275,-32.737 L 32.737,17.275 C 28.467,3.464 13.81,-4.27 0,0"
             style="fill:#c75748;fill-opacity:1;fill-rule:nonzero;stroke:none"
             id="path416" /></g><g
           id="g418"
           transform="translate(113.0337,53.9953)"><path
             d="m 0,0 -80.815,24.987 c -13.81,4.27 -21.545,18.927 -17.275,32.737 l 37.649,121.767 c 4.27,13.811 18.927,21.545 32.737,17.275 l 80.815,-24.987 c 13.811,-4.27 21.545,-18.927 17.275,-32.737 L 32.737,17.275 C 28.467,3.464 13.81,-4.27 0,0 Z"
             style="fill:none;stroke:#a53a23;stroke-width:1;stroke-linecap:butt;stroke-linejoin:miter;stroke-miterlimit:10;stroke-dasharray:none;stroke-opacity:1"
             id="path420" /></g><g
           id="g422"
           transform="translate(41.6453,63.4539)"><path
             d="m 0,0 c 0,-6.479 -5.252,-11.731 -11.731,-11.731 -6.479,0 -11.731,5.252 -11.731,11.731 0,6.479 5.252,11.731 11.731,11.731 C -5.252,11.731 0,6.479 0,0"
             style="fill:#2a190c;fill-opacity:1;fill-rule:nonzero;stroke:none"
             id="path424" /></g><g
           id="g426"
           transform="translate(41.6453,63.4539)"><path
             d="m 0,0 c 0,-6.479 -5.252,-11.731 -11.731,-11.731 -6.479,0 -11.731,5.252 -11.731,11.731 0,6.479 5.252,11.731 11.731,11.731 C -5.252,11.731 0,6.479 0,0 Z"
             style="fill:none;stroke:#000000;stroke-width:1;stroke-linecap:butt;stroke-linejoin:miter;stroke-miterlimit:10;stroke-dasharray:none;stroke-opacity:1"
             id="path428" /></g><g
           id="g430"
           transform="translate(33.4758,63.4539)"><path
             d="m 0,0 c 0,-1.967 -1.594,-3.561 -3.561,-3.561 -1.967,0 -3.562,1.594 -3.562,3.561 0,1.967 1.595,3.561 3.562,3.561 C -1.594,3.561 0,1.967 0,0"
             style="fill:#b2af9c;fill-opacity:1;fill-rule:nonzero;stroke:none"
             id="path432" /></g><g
           id="g434"
           transform="translate(33.4758,63.4539)"><path
             d="m 0,0 c 0,-1.967 -1.594,-3.561 -3.561,-3.561 -1.967,0 -3.562,1.594 -3.562,3.561 0,1.967 1.595,3.561 3.562,3.561 C -1.594,3.561 0,1.967 0,0 Z"
             style="fill:none;stroke:#9b9989;stroke-width:1;stroke-linecap:butt;stroke-linejoin:miter;stroke-miterlimit:10;stroke-dasharray:none;stroke-opacity:1"
             id="path436" /></g><g
           id="g438"
           transform="translate(135.0574,35.4764)"><path
             d="m 0,0 c 0,-6.479 -5.252,-11.731 -11.731,-11.731 -6.479,0 -11.731,5.252 -11.731,11.731 0,6.479 5.252,11.731 11.731,11.731 C -5.252,11.731 0,6.479 0,0"
             style="fill:#2a190c;fill-opacity:1;fill-rule:nonzero;stroke:none"
             id="path440" /></g><g
           id="g442"
           transform="translate(135.0574,35.4764)"><path
             d="m 0,0 c 0,-6.479 -5.252,-11.731 -11.731,-11.731 -6.479,0 -11.731,5.252 -11.731,11.731 0,6.479 5.252,11.731 11.731,11.731 C -5.252,11.731 0,6.479 0,0 Z"
             style="fill:none;stroke:#000000;stroke-width:1;stroke-linecap:butt;stroke-linejoin:miter;stroke-miterlimit:10;stroke-dasharray:none;stroke-opacity:1"
             id="path444" /></g><g
           id="g446"
           transform="translate(126.8879,35.4764)"><path
             d="m 0,0 c 0,-1.967 -1.594,-3.561 -3.561,-3.561 -1.967,0 -3.562,1.594 -3.562,3.561 0,1.967 1.595,3.561 3.562,3.561 C -1.594,3.561 0,1.967 0,0"
             style="fill:#b2af9c;fill-opacity:1;fill-rule:nonzero;stroke:none"
             id="path448" /></g><g
           id="g450"
           transform="translate(126.8879,35.4764)"><path
             d="m 0,0 c 0,-1.967 -1.594,-3.561 -3.561,-3.561 -1.967,0 -3.562,1.594 -3.562,3.561 0,1.967 1.595,3.561 3.562,3.561 C -1.594,3.561 0,1.967 0,0 Z"
             style="fill:none;stroke:#9b9989;stroke-width:1;stroke-linecap:butt;stroke-linejoin:miter;stroke-miterlimit:10;stroke-dasharray:none;stroke-opacity:1"
             id="path452" /></g><g
           id="g454"
           transform="translate(119.7653,40.7757)"><path
             d="m 0,0 c 0,-6.479 -5.252,-11.731 -11.731,-11.731 -6.479,0 -11.731,5.252 -11.731,11.731 0,6.479 5.252,11.731 11.731,11.731 C -5.252,11.731 0,6.479 0,0"
             style="fill:#2a190c;fill-opacity:1;fill-rule:nonzero;stroke:none"
             id="path456" /></g><g
           id="g458"
           transform="translate(119.7653,40.7757)"><path
             d="m 0,0 c 0,-6.479 -5.252,-11.731 -11.731,-11.731 -6.479,0 -11.731,5.252 -11.731,11.731 0,6.479 5.252,11.731 11.731,11.731 C -5.252,11.731 0,6.479 0,0 Z"
             style="fill:none;stroke:#000000;stroke-width:1;stroke-linecap:butt;stroke-linejoin:miter;stroke-miterlimit:10;stroke-dasharray:none;stroke-opacity:1"
             id="path460" /></g><g
           id="g462"
           transform="translate(111.5957,40.7757)"><path
             d="m 0,0 c 0,-1.967 -1.594,-3.561 -3.561,-3.561 -1.967,0 -3.562,1.594 -3.562,3.561 0,1.967 1.595,3.561 3.562,3.561 C -1.594,3.561 0,1.967 0,0"
             style="fill:#b2af9c;fill-opacity:1;fill-rule:nonzero;stroke:none"
             id="path464" /></g><g
           id="g466"
           transform="translate(111.5957,40.7757)"><path
             d="m 0,0 c 0,-1.967 -1.594,-3.561 -3.561,-3.561 -1.967,0 -3.562,1.594 -3.562,3.561 0,1.967 1.595,3.561 3.562,3.561 C -1.594,3.561 0,1.967 0,0 Z"
             style="fill:none;stroke:#9b9989;stroke-width:1;stroke-linecap:butt;stroke-linejoin:miter;stroke-miterlimit:10;stroke-dasharray:none;stroke-opacity:1"
             id="path468" /></g><g
           id="g470"
           transform="translate(26.8731,74.5792)"><path
             d="m 0,0 c 0,-6.479 -5.252,-11.731 -11.731,-11.731 -6.479,0 -11.731,5.252 -11.731,11.731 0,6.479 5.252,11.731 11.731,11.731 C -5.252,11.731 0,6.479 0,0"
             style="fill:#2a190c;fill-opacity:1;fill-rule:nonzero;stroke:none"
             id="path472" /></g><g
           id="g474"
           transform="translate(26.8731,74.5792)"><path
             d="m 0,0 c 0,-6.479 -5.252,-11.731 -11.731,-11.731 -6.479,0 -11.731,5.252 -11.731,11.731 0,6.479 5.252,11.731 11.731,11.731 C -5.252,11.731 0,6.479 0,0 Z"
             style="fill:none;stroke:#000000;stroke-width:1;stroke-linecap:butt;stroke-linejoin:miter;stroke-miterlimit:10;stroke-dasharray:none;stroke-opacity:1"
             id="path476" /></g><g
           id="g478"
           transform="translate(18.7036,74.5792)"><path
             d="m 0,0 c 0,-1.967 -1.594,-3.561 -3.561,-3.561 -1.967,0 -3.562,1.594 -3.562,3.561 0,1.967 1.595,3.561 3.562,3.561 C -1.594,3.561 0,1.967 0,0"
             style="fill:#b2af9c;fill-opacity:1;fill-rule:nonzero;stroke:none"
             id="path480" /></g><g
           id="g482"
           transform="translate(18.7036,74.5792)"><path
             d="m 0,0 c 0,-1.967 -1.594,-3.561 -3.561,-3.561 -1.967,0 -3.562,1.594 -3.562,3.561 0,1.967 1.595,3.561 3.562,3.561 C -1.594,3.561 0,1.967 0,0 Z"
             style="fill:none;stroke:#9b9989;stroke-width:1;stroke-linecap:butt;stroke-linejoin:miter;stroke-miterlimit:10;stroke-dasharray:none;stroke-opacity:1"
             id="path484" /></g></g></g></g></svg>
