<?xml version="1.0" encoding="utf-8"?>
<!-- Generator: Adobe Illustrator 27.1.1, SVG Export Plug-In . SVG Version: 6.00 Build 0)  -->
<svg version="1.1" id="Layer_1" xmlns="http://www.w3.org/2000/svg" xmlns:xlink="http://www.w3.org/1999/xlink" x="0px" y="0px"
	 viewBox="0 0 864 936" style="enable-background:new 0 0 864 936;" xml:space="preserve">
<style type="text/css">
	.st0{fill:#984C1E;}
	.st1{fill:#B35923;}
	.st2{fill:#C26024;}
	.st3{fill:#FFF1E7;}
	.st4{fill:#DC7038;stroke:#AA5626;stroke-miterlimit:10;}
	.st5{fill:none;stroke:#AA5517;stroke-miterlimit:10;}
	.st6{fill:#D23C27;stroke:#A53A23;stroke-miterlimit:10;}
	.st7{fill:#EFE8CC;stroke:#B5956A;stroke-miterlimit:10;}
	.st8{fill:#EFE8CC;stroke:#B5956A;stroke-linecap:round;stroke-linejoin:round;stroke-miterlimit:10;}
	.st9{fill:none;stroke:#3D52A4;stroke-linecap:round;stroke-linejoin:round;stroke-miterlimit:10;}
	.st10{fill:none;stroke:#B5956A;stroke-linecap:round;stroke-linejoin:round;stroke-miterlimit:10;}
	.st11{fill:none;stroke:#B5956A;stroke-miterlimit:10;}
	.st12{fill:#EFE8CC;stroke:#EFE8CC;stroke-miterlimit:10;}
	.st13{fill:none;stroke:#A8A694;stroke-miterlimit:10;}
	.st14{fill:none;stroke:#A5391D;stroke-miterlimit:10;}
	.st15{fill:none;stroke:#82C341;stroke-linecap:round;stroke-linejoin:round;stroke-miterlimit:10;}
	.st16{fill:#EFE8CC;stroke:#B1AE9C;stroke-miterlimit:10;}
	.st17{fill:#DC7038;stroke:#A5391D;stroke-miterlimit:10;}
	.st18{fill:#2B190D;}
	.st19{fill:none;stroke:#B1AE9B;stroke-miterlimit:10;}
	.st20{fill:#B1AE9C;}
	.st21{fill:#FFF1E8;stroke:#2B190D;stroke-width:4;stroke-miterlimit:10;}
</style>
<path class="st0" d="M830.16,264.84H37.04V66.18c0-26.55,21.52-48.06,48.06-48.06h693.08c28.71,0,51.98,23.27,51.98,51.98V264.84z"
	/>
<rect x="37.04" y="264.84" class="st1" width="793.13" height="285.92"/>
<rect x="37.04" y="549.22" class="st2" width="793.13" height="272.52"/>
<g>
	<g>
		<path class="st3" d="M640.73,198.91c3.22,0,3.22-5,0-5C637.52,193.91,637.51,198.91,640.73,198.91L640.73,198.91z"/>
	</g>
</g>
<g>
	<g>
		<path class="st3" d="M703.85,471.6c3.22,0,3.22-5,0-5C700.64,466.6,700.63,471.6,703.85,471.6L703.85,471.6z"/>
	</g>
</g>
<g>
	<g>
		<path class="st3" d="M179.97,422.57c3.22,0,3.22-5,0-5C176.75,417.57,176.74,422.57,179.97,422.57L179.97,422.57z"/>
	</g>
</g>
<g>
	<g>
		<path class="st3" d="M202.06,211.17c3.22,0,3.22-5,0-5C198.84,206.17,198.84,211.17,202.06,211.17L202.06,211.17z"/>
	</g>
</g>
<g>
	<g>
		<path class="st3" d="M284.11,428.7c3.22,0,3.22-5,0-5C280.9,423.7,280.89,428.7,284.11,428.7L284.11,428.7z"/>
	</g>
</g>
<g>
	<g>
		<path class="st3" d="M176.81,643.17c3.22,0,3.22-5,0-5C173.59,638.17,173.59,643.17,176.81,643.17L176.81,643.17z"/>
	</g>
</g>
<g>
	<g>
		<path class="st3" d="M741.73,575.77c3.22,0,3.22-5,0-5C738.51,570.77,738.5,575.77,741.73,575.77L741.73,575.77z"/>
	</g>
</g>
<g>
	<g>
		<path class="st3" d="M748.04,336.79c3.22,0,3.22-5,0-5C744.82,331.79,744.81,336.79,748.04,336.79L748.04,336.79z"/>
	</g>
</g>
<g>
	<g>
		<path class="st3" d="M609.18,376.62c3.22,0,3.22-5,0-5C605.96,371.62,605.95,376.62,609.18,376.62L609.18,376.62z"/>
	</g>
</g>
<g>
	<g>
		<path class="st3" d="M599.71,220.36c3.22,0,3.22-5,0-5C596.49,215.36,596.48,220.36,599.71,220.36L599.71,220.36z"/>
	</g>
</g>
<g>
	<g>
		<path class="st3" d="M773.28,159.08c3.22,0,3.22-5,0-5C770.07,154.08,770.06,159.08,773.28,159.08L773.28,159.08z"/>
	</g>
</g>
<g>
	<g>
		<path class="st3" d="M486.09,324.53c3.22,0,3.22-5,0-5C482.88,319.53,482.87,324.53,486.09,324.53L486.09,324.53z"/>
	</g>
</g>
<g>
	<g>
		<path class="st3" d="M239.93,330.66c3.22,0,3.22-5,0-5C236.71,325.66,236.71,330.66,239.93,330.66L239.93,330.66z"/>
	</g>
</g>
<g>
	<g>
		<path class="st3" d="M157.87,91.68c3.22,0,3.22-5,0-5C154.66,86.68,154.65,91.68,157.87,91.68L157.87,91.68z"/>
	</g>
</g>
<g>
	<g>
		<path class="st3" d="M422.97,61.04c3.22,0,3.22-5,0-5C419.76,56.04,419.75,61.04,422.97,61.04L422.97,61.04z"/>
	</g>
</g>
<g>
	<g>
		<path class="st3" d="M135.78,303.08c3.22,0,3.22-5,0-5C132.57,298.08,132.56,303.08,135.78,303.08L135.78,303.08z"/>
	</g>
</g>
<g>
	<g>
		<path class="st3" d="M492.41,612.53c3.22,0,3.22-5,0-5C489.19,607.53,489.18,612.53,492.41,612.53L492.41,612.53z"/>
	</g>
</g>
<g>
	<g>
		<path class="st3" d="M757.5,633.98c3.22,0,3.22-5,0-5C754.29,628.98,754.28,633.98,757.5,633.98L757.5,633.98z"/>
	</g>
</g>
<g>
	<g>
		<path class="st3" d="M675.45,177.47c3.22,0,3.22-5,0-5C672.23,172.47,672.23,177.47,675.45,177.47L675.45,177.47z"/>
	</g>
</g>
<g>
	<g>
		<path class="st3" d="M375.64,152.96c3.22,0,3.22-5,0-5C372.42,147.96,372.41,152.96,375.64,152.96L375.64,152.96z"/>
	</g>
</g>
<g>
	<g>
		<path class="st3" d="M492.41,168.28c3.22,0,3.22-5,0-5C489.19,163.28,489.18,168.28,492.41,168.28L492.41,168.28z"/>
	</g>
</g>
<g>
	<g>
		<path class="st3" d="M325.14,244.87c3.22,0,3.22-5,0-5C321.92,239.87,321.92,244.87,325.14,244.87L325.14,244.87z"/>
	</g>
</g>
<g>
	<g>
		<path class="st3" d="M222.57,24.28c3.22,0,3.22-5,0-5C219.35,19.28,219.35,24.28,222.57,24.28L222.57,24.28z"/>
	</g>
</g>
<g>
	<g>
		<path class="st3" d="M56.62,106.74c3.22,0,3.22-5,0-5C53.4,101.74,53.4,106.74,56.62,106.74L56.62,106.74z"/>
	</g>
</g>
<g>
	<g>
		<path class="st3" d="M707.01,692.19c3.22,0,3.22-5,0-5C703.79,687.19,703.79,692.19,707.01,692.19L707.01,692.19z"/>
	</g>
</g>
<g>
	<g>
		<path class="st3" d="M157.87,581.89c3.22,0,3.22-5,0-5C154.66,576.89,154.65,581.89,157.87,581.89L157.87,581.89z"/>
	</g>
</g>
<g>
	<g>
		<path class="st3" d="M82.13,229.55c3.22,0,3.22-5,0-5C78.91,224.55,78.91,229.55,82.13,229.55L82.13,229.55z"/>
	</g>
</g>
<g>
	<g>
		<path class="st3" d="M189.43,324.53c3.22,0,3.22-5,0-5C186.22,319.53,186.21,324.53,189.43,324.53L189.43,324.53z"/>
	</g>
</g>
<g>
	<g>
		<path class="st3" d="M126.32,548.19c3.22,0,3.22-5,0-5C123.1,543.19,123.09,548.19,126.32,548.19L126.32,548.19z"/>
	</g>
</g>
<g>
	<g>
		<path class="st3" d="M274.64,618.66c3.22,0,3.22-5,0-5C271.43,613.66,271.42,618.66,274.64,618.66L274.64,618.66z"/>
	</g>
</g>
<g>
	<g>
		<path class="st3" d="M239.93,477.72c3.22,0,3.22-5,0-5C236.71,472.72,236.71,477.72,239.93,477.72L239.93,477.72z"/>
	</g>
</g>
<g>
	<g>
		<path class="st3" d="M179.97,511.42c3.22,0,3.22-5,0-5C176.75,506.42,176.74,511.42,179.97,511.42L179.97,511.42z"/>
	</g>
</g>
<g>
	<g>
		<path class="st3" d="M224.15,171.34c3.22,0,3.22-5,0-5C220.93,166.34,220.93,171.34,224.15,171.34L224.15,171.34z"/>
	</g>
</g>
<g>
	<g>
		<path class="st3" d="M154.72,385.81c3.22,0,3.22-5,0-5C151.5,380.81,151.5,385.81,154.72,385.81L154.72,385.81z"/>
	</g>
</g>
<g>
	<g>
		<path class="st3" d="M617.07,283.17c3.22,0,3.22-5,0-5C613.85,278.17,613.84,283.17,617.07,283.17L617.07,283.17z"/>
	</g>
</g>
<g>
	<g>
		<path class="st3" d="M724.37,217.3c3.22,0,3.22-5,0-5C721.15,212.3,721.14,217.3,724.37,217.3L724.37,217.3z"/>
	</g>
</g>
<g>
	<g>
		<path class="st3" d="M557.85,92.49c3.22,0,3.22-5,0-5C554.63,87.49,554.62,92.49,557.85,92.49L557.85,92.49z"/>
	</g>
</g>
<g>
	<g>
		<path class="st3" d="M505.5,22.49c3.22,0,3.22-5,0-5C502.28,17.49,502.28,22.49,505.5,22.49L505.5,22.49z"/>
	</g>
</g>
<g>
	<g>
		<path class="st3" d="M380.89,410.83c3.22,0,3.22-5,0-5C377.68,405.83,377.67,410.83,380.89,410.83L380.89,410.83z"/>
	</g>
</g>
<g>
	<g>
		<path class="st3" d="M352.49,300.53c3.22,0,3.22-5,0-5C349.27,295.53,349.27,300.53,352.49,300.53L352.49,300.53z"/>
	</g>
</g>
<g>
	<g>
		<path class="st3" d="M437.7,254.57c3.22,0,3.22-5,0-5C434.48,249.57,434.48,254.57,437.7,254.57L437.7,254.57z"/>
	</g>
</g>
<g>
	<g>
		<path class="st3" d="M434.55,397.04c3.22,0,3.22-5,0-5C431.33,392.04,431.32,397.04,434.55,397.04L434.55,397.04z"/>
	</g>
</g>
<g>
	<g>
		<path class="st3" d="M532.38,403.17c3.22,0,3.22-5,0-5C529.16,398.17,529.16,403.17,532.38,403.17L532.38,403.17z"/>
	</g>
</g>
<g>
	<g>
		<path class="st3" d="M584.45,484.36c3.22,0,3.22-5,0-5C581.24,479.36,581.23,484.36,584.45,484.36L584.45,484.36z"/>
	</g>
</g>
<g>
	<g>
		<path class="st3" d="M680.71,401.64c3.22,0,3.22-5,0-5C677.49,396.64,677.49,401.64,680.71,401.64L680.71,401.64z"/>
	</g>
</g>
<g>
	<g>
		<path class="st3" d="M756.45,505.81c3.22,0,3.22-5,0-5C753.24,500.81,753.23,505.81,756.45,505.81L756.45,505.81z"/>
	</g>
</g>
<g>
	<g>
		<path class="st3" d="M808.17,515c3.22,0,3.22-5,0-5C804.95,510,804.95,515,808.17,515L808.17,515z"/>
	</g>
</g>
<g>
	<g>
		<path class="st3" d="M775.39,384.79c3.22,0,3.22-5,0-5C772.17,379.79,772.17,384.79,775.39,384.79L775.39,384.79z"/>
	</g>
</g>
<g>
	<g>
		<path class="st3" d="M800.27,299c3.22,0,3.22-5,0-5C797.06,294,797.05,299,800.27,299L800.27,299z"/>
	</g>
</g>
<g>
	<g>
		<path class="st3" d="M786.06,188.7c3.22,0,3.22-5,0-5C782.85,183.7,782.84,188.7,786.06,188.7L786.06,188.7z"/>
	</g>
</g>
<g>
	<g>
		<path class="st3" d="M688.6,92.19c3.22,0,3.22-5,0-5C685.38,87.19,685.38,92.19,688.6,92.19L688.6,92.19z"/>
	</g>
</g>
<g>
	<g>
		<path class="st3" d="M728.05,52.36c3.22,0,3.22-5,0-5C724.83,47.36,724.83,52.36,728.05,52.36L728.05,52.36z"/>
	</g>
</g>
<g>
	<g>
		<path class="st3" d="M812.99,134.62c3.22,0,3.22-5,0-5C809.78,129.62,809.77,134.62,812.99,134.62L812.99,134.62z"/>
	</g>
</g>
<g>
	<g>
		<path class="st3" d="M783.28,155c3.22,0,3.22-5,0-5C780.06,150,780.06,155,783.28,155L783.28,155z"/>
	</g>
</g>
<g>
	<g>
		<path class="st3" d="M459.79,139.68c3.22,0,3.22-5,0-5C456.58,134.68,456.57,139.68,459.79,139.68L459.79,139.68z"/>
	</g>
</g>
<g>
	<g>
		<path class="st3" d="M560.78,125.89c3.22,0,3.22-5,0-5C557.57,120.89,557.56,125.89,560.78,125.89L560.78,125.89z"/>
	</g>
</g>
<g>
	<g>
		<path class="st3" d="M477.15,113.64c3.22,0,3.22-5,0-5C473.93,108.64,473.93,113.64,477.15,113.64L477.15,113.64z"/>
	</g>
</g>
<g>
	<g>
		<path class="st3" d="M281.48,87.6c3.22,0,3.22-5,0-5C278.27,82.6,278.26,87.6,281.48,87.6L281.48,87.6z"/>
	</g>
</g>
<g>
	<g>
		<path class="st3" d="M208.9,150.4c3.22,0,3.22-5,0-5C205.68,145.4,205.67,150.4,208.9,150.4L208.9,150.4z"/>
	</g>
</g>
<g>
	<g>
		<path class="st3" d="M150.51,147.34c3.22,0,3.22-5,0-5C147.29,142.34,147.29,147.34,150.51,147.34L150.51,147.34z"/>
	</g>
</g>
<g>
	<g>
		<path class="st3" d="M87.39,124.36c3.22,0,3.22-5,0-5C84.17,119.36,84.17,124.36,87.39,124.36L87.39,124.36z"/>
	</g>
</g>
<g>
	<g>
		<path class="st3" d="M128.42,43.17c3.22,0,3.22-5,0-5C125.2,38.17,125.2,43.17,128.42,43.17L128.42,43.17z"/>
	</g>
</g>
<g>
	<g>
		<path class="st3" d="M354.07,508.87c3.22,0,3.22-5,0-5C350.85,503.87,350.85,508.87,354.07,508.87L354.07,508.87z"/>
	</g>
</g>
<g>
	<g>
		<path class="st3" d="M518.18,444.53c3.22,0,3.22-5,0-5C514.96,439.53,514.96,444.53,518.18,444.53L518.18,444.53z"/>
	</g>
</g>
<g>
	<g>
		<path class="st3" d="M469.26,594.66c3.22,0,3.22-5,0-5C466.04,589.66,466.04,594.66,469.26,594.66L469.26,594.66z"/>
	</g>
</g>
<g>
	<g>
		<path class="st3" d="M328.82,527.25c3.22,0,3.22-5,0-5C325.6,522.25,325.6,527.25,328.82,527.25L328.82,527.25z"/>
	</g>
</g>
<g>
	<g>
		<path class="st3" d="M503.98,510.4c3.22,0,3.22-5,0-5C500.76,505.4,500.75,510.4,503.98,510.4L503.98,510.4z"/>
	</g>
</g>
<g>
	<g>
		<path class="st3" d="M455.06,564.02c3.22,0,3.22-5,0-5C451.84,559.02,451.84,564.02,455.06,564.02L455.06,564.02z"/>
	</g>
</g>
<g>
	<g>
		<path class="st3" d="M346.18,574.74c3.22,0,3.22-5,0-5C342.96,569.74,342.96,574.74,346.18,574.74L346.18,574.74z"/>
	</g>
</g>
<g>
	<g>
		<path class="st3" d="M268.86,551.77c3.22,0,3.22-5,0-5C265.64,546.77,265.64,551.77,268.86,551.77L268.86,551.77z"/>
	</g>
</g>
<g>
	<g>
		<path class="st3" d="M302,663.6c3.22,0,3.22-5,0-5C298.78,658.6,298.77,663.6,302,663.6L302,663.6z"/>
	</g>
</g>
<g>
	<g>
		<path class="st3" d="M537.11,622.23c3.22,0,3.22-5,0-5C533.9,617.23,533.89,622.23,537.11,622.23L537.11,622.23z"/>
	</g>
</g>
<g>
	<g>
		<path class="st3" d="M560.78,573.21c3.22,0,3.22-5,0-5C557.57,568.21,557.56,573.21,560.78,573.21L560.78,573.21z"/>
	</g>
</g>
<g>
	<g>
		<path class="st3" d="M598.66,542.57c3.22,0,3.22-5,0-5C595.44,537.57,595.43,542.57,598.66,542.57L598.66,542.57z"/>
	</g>
</g>
<g>
	<g>
		<path class="st3" d="M666.51,580.87c3.22,0,3.22-5,0-5C663.29,575.87,663.29,580.87,666.51,580.87L666.51,580.87z"/>
	</g>
</g>
<g>
	<g>
		<path class="st3" d="M631.79,675.85c3.22,0,3.22-5,0-5C628.58,670.85,628.57,675.85,631.79,675.85L631.79,675.85z"/>
	</g>
</g>
<g>
	<g>
		<path class="st3" d="M467.68,660.53c3.22,0,3.22-5,0-5C464.47,655.53,464.46,660.53,467.68,660.53L467.68,660.53z"/>
	</g>
</g>
<g>
	<g>
		<path class="st3" d="M587.61,668.19c3.22,0,3.22-5,0-5C584.39,663.19,584.39,668.19,587.61,668.19L587.61,668.19z"/>
	</g>
</g>
<g>
	<g>
		<path class="st3" d="M409.3,674.32c3.22,0,3.22-5,0-5C406.08,669.32,406.08,674.32,409.3,674.32L409.3,674.32z"/>
	</g>
</g>
<g>
	<g>
		<path class="st3" d="M404.56,614.57c3.22,0,3.22-5,0-5C401.35,609.57,401.34,614.57,404.56,614.57L404.56,614.57z"/>
	</g>
</g>
<g>
	<g>
		<path class="st3" d="M186.8,686.57c3.22,0,3.22-5,0-5C183.59,681.57,183.58,686.57,186.8,686.57L186.8,686.57z"/>
	</g>
</g>
<g>
	<g>
		<path class="st3" d="M286.22,709.55c3.22,0,3.22-5,0-5C283,704.55,282.99,709.55,286.22,709.55L286.22,709.55z"/>
	</g>
</g>
<g>
	<g>
		<path class="st3" d="M88.97,666.66c3.22,0,3.22-5,0-5C85.75,661.66,85.75,666.66,88.97,666.66L88.97,666.66z"/>
	</g>
</g>
<g>
	<g>
		<path class="st3" d="M63.72,502.74c3.22,0,3.22-5,0-5C60.5,497.74,60.5,502.74,63.72,502.74L63.72,502.74z"/>
	</g>
</g>
<g>
	<g>
		<path class="st3" d="M163.13,593.13c3.22,0,3.22-5,0-5C159.92,588.13,159.91,593.13,163.13,593.13L163.13,593.13z"/>
	</g>
</g>
<g>
	<g>
		<path class="st3" d="M81.08,367.94c3.22,0,3.22-5,0-5C77.86,362.94,77.86,367.94,81.08,367.94L81.08,367.94z"/>
	</g>
</g>
<g>
	<g>
		<path class="st3" d="M248.35,367.94c3.22,0,3.22-5,0-5C245.13,362.94,245.12,367.94,248.35,367.94L248.35,367.94z"/>
	</g>
</g>
<g>
	<g>
		<path class="st3" d="M368.27,377.13c3.22,0,3.22-5,0-5C365.05,372.13,365.05,377.13,368.27,377.13L368.27,377.13z"/>
	</g>
</g>
<path class="st4" d="M626.71,653.99c0,0-73.5,7.04-89.81,63.86l29.74,88.04c47.43,35.29,110.14-3.69,110.14-3.69l0.78-0.11
	c134.34,7.3,141.81-180.68,90.35-190.55c-88.22-77.04-56.9,9.62-56.9,9.62c-33.28,4.57-68.25,13.91-82.9,32.88L626.71,653.99"/>
<path class="st5" d="M677.47,802.05c-16.8,2.75-31.55,0.3-41.16-10.97"/>
<path class="st6" d="M180.82,388.2c2.97-1.19,6.14-2.3,9.51-3.32l122.85-30.73l17.74-4.07l-0.03,1.61
	c-0.02,4.53,0.45,10.67,2.57,16.47l16.13,59.61l0.06,0.36c0.82,2.61,3.25,4.4,5.99,4.4l3.04-0.71l60.16-30.74l4.9,4.01l4.9-4.01
	l60.23,30.71l0.18,0.09c0.91,0.49,1.75,0.65,2.78,0.65c2.74,0,5.13-1.66,5.95-4.27l0.04-0.13l16.13-59.61
	c1.95-5.32,2.51-10.95,2.57-15.33c0,0-0.58-1.83,2.58-1.77l11.92,2.73l122.85,30.73c4.85,1.47,9.27,3.13,13.3,4.92l-0.14,0.65v39.1
	c0,0-23.26,59.37-20.91,91.47c2.35,32.1-11.98,138.77-11.98,138.77l-0.67,0.19l1.42,125.05c-1.97-1.22-4.32-1.99-6.8-2.3
	c-25.34-3.17-50.7-6.51-76.25-7.28c-27.14-0.82-54.36-0.31-81.51-0.61c-54.4-0.6-108.79-1.68-163.18-2.12
	c-30.32-0.25-60.63-0.28-90.95,0.06c-2.73,0.03-4.99,0.79-6.79,2.02l1.31-114.81"/>
<path class="st7" d="M368.04,567.21c0,0,3.4,12.3,5.01,0c1.61-12.3-2.51-20.15-2.51-20.15s-11.25-7.09-9.08-21.28
	c2.18-14.19,1.56-22.13,10.5-25.39c0,0,16.5-0.28,23.83-2.08c7.33-1.8,14.75,3.55,14.75,3.55s8.94,8.61,11.68,17.97
	c2.74,9.36,1.51,11.63,1.51,11.63s9.68,13.71,0.27,26.01c0,0-2.59,5.86-13.89,10.64c0,0-9.22,6.81-10.12,9.55s-1.66,1.94-1.66,1.94
	s-1.56-6.43,1.23-10.55c2.79-4.11-1.8-1.84-1.8-1.84l-8.32,16.65c0,0-3.78,5.15-3.93-1.8s1.28-19.06,1.28-19.06
	s-2.13-11.4-4.92-0.61s-1.7,27.05-1.7,27.05s-0.19,12.86-4.73,3.55c0,0-5.49-18.3-10.73-18.82c-5.25-0.52-4.4,4.45-4.4,4.45
	l9.74,14.61c0,0,4.21,11.3-4.92,3.69c0,0-7.52-11.4-22.75-15.04s-7.8,7.9-7.8,7.9s17.31,0.66,21.61,9.32c0,0,8.37,6.9,0.19,8.28
	c0,0-5.96-0.95-8.13-1.89c-2.18-0.95-26.67,1.04-26.67,1.04s-12.39,8.04-20.33,1.7c-7.94-6.34-11.82-18.58-11.82-18.58
	s-4.87-19.67,9.32-30.27c14.19-10.59,12.44-16.79,12.44-16.79s1.13-12.77,24.73-9.65S368.04,567.21,368.04,567.21z"/>
<path class="st7" d="M354.83,622.15c0,0-9.86,0.78,1.03,7.87h4.54c0,0,14.15,0.11,6.38,6.6c-7.77,6.49-19.44,11.95-19.44,11.95
	s-18.44,10.75-4.26,12.13c14.19,1.38,22.77-15.18,22.77-15.18s10-12.98,3.69,5.85c-6.31,18.83-8.23,20.39-4.97,23.41
	c3.26,3.01,10.43-15.68,10.43-15.68s-0.64-17.91,4.97-16.99c5.6,0.92,1.92,22.1,1.92,22.1l-0.28,23.83c0,0-2.87,25.71-19.51,31.35
	c-16.63,5.64-17.49,2.84-25.71-7.06c0,0-22.42,10.29-33.91-19.72c-11.49-30.01-3.79-46.07-3.79-46.07s3.73-7.23,7.13-7.21
	c0.06,0,0.12,0,0.18,0.01l-0.18-1.06c0,0-2.91-17.99,12.7-23.27c15.61-5.28,23.69-3.69,23.69-3.69s25.64,1.74,28.41,7.59
	c2.77,5.85-15.11,3.23-15.11,3.23H354.83z"/>
<path class="st8" d="M448.18,554.29c-60.72,21.7-68.24,64.56-68.24,64.56s-0.43,16.24,9.79,3.3c0,0,11.35-49.41,63.56-64.16
	c0,0-8.51,19.15,5.67,19.15c0,0,7.24,3.4,5.53-14.47c0,0,7.52,20.29,16.17,9.93c8.65-10.36-8.8-20.85-8.8-20.85
	s17.59-1.42,14.47-12.48c-3.12-11.07-15.46-5.11-15.46-5.11l-5.67,5.25c0,0,2.7-22.27-9.79-13.05c-12.48,9.22-1.13,14.61-1.13,14.61
	s-9.08-7.38-12.2,0.99c-3.12,8.37,5.39,11.63,5.39,11.63L448.18,554.29z"/>
<path class="st8" d="M417.61,728.45c0,0-40.01,12.77-28.66-35.89l-0.14-0.99c0,0-3.26-25.11,0-41.99c3.26-16.88,5.96-0.28,5.96-0.28
	l2.27,19.44c5.53,11.49,6.1,1.28,6.1,1.28s-4.54-30.79,0-17.73c4.54,13.05,8.65,14.33,8.65,14.33c9.65,4.82-1.7-12.06-1.7-12.06
	c-6.1-12.77,9.51,1.42,9.51,1.42c13.34,18.58,13.51,0.71,13.51,0.71s-5.71-13.76-23.16-17.02c-17.45-3.26,11.07-13.05,11.07-13.05
	c20.71,1.42,17.73-1.28,17.73-1.28s3.69-11.63-16.03-8.09c-19.72,3.55-1.42-8.37-1.42-8.37s14.47,2.13,16.6-7.09
	c2.13-9.22-22.42-0.28-22.42-0.28c-19.86,13.48,0-9.36,0-9.36s19.86-21.56,32.91-12.63c13.05,8.94,16.6,8.23,16.6,8.23
	s12.77,1.82,16.88,25.88c4.11,24.06-2.84,32.57-2.84,32.57s-12.48,15.88-28.09-4.33l-0.57-0.78c0,0-34.2-8.09-5.47,5.53
	c28.73,13.62,8.3,43.84,8.3,43.84s10.78,46.39-34.76,38.02H417.61z"/>
<path class="st7" d="M663.4,399.63c0,0-19.12,15.44-21.45,15.88c-2.33,0.44-7.79,3.02-7.79,3.02c-5.99,5.74,4.82,6.73,4.82,6.73
	c8.43,4.73,23.1-4.48,23.1-4.48S665.51,422.91,663.4,399.63z"/>
<path class="st7" d="M591.09,369.51c-0.73,5.04,1.32,17.29,1.32,17.29s10.62,14.44,5.47,16.83s-14.03-17.18-14.03-17.18
	l-13.19-19.85c0,0-0.46-0.87-1.13-2.39L591.09,369.51z"/>
<path class="st7" d="M610.43,374.35c-4.29,8.01-3.09,17.98-3.09,17.98s-0.95,16.36-6.34-2.76c-2.98-10.58-3.18-15.8-4.33-18.66
	L610.43,374.35z"/>
<path class="st7" d="M664.83,389.11c0.62,0.27-0.74,1.16-1.18,1.74c-9.92,13.16-17.5,16.39-17.5,16.39s-22.17,13.01-27.75,9.73
	c-5.58-3.28,10.67-11.18,10.67-11.18l0.56-0.38c0,0,7.71-6.2-5.28-5.93l-3.75,2.56c0,0-11.75,7.88-8.99-1.85
	c2.76-9.74,9.33-20.82,9.33-20.82s0.41-0.87,0.95-2.17C621.87,377.21,653.34,384.19,664.83,389.11z"/>
<path class="st7" d="M559.75,361.67c0.68,1.5,1.35,3.1,2.01,4.8l0.68,0.74c0,0,16.84,18.91,23.65,34.7
	c6.81,15.79-4.76,3.59-4.76,3.59l-12.82-14.78c-11.04-6.38-5.76,2.38-5.76,2.38s21.09,22.88,9.99,14.65s-15.22-6.96-15.22-6.96
	c-10.69,1.45,8.2,9,8.2,9c12.23,7.11-8.65,4.18-8.65,4.18c-21.49-7.84-11.56,7.02-11.56,7.02s12.47,8.16,28.72,1.02
	c16.26-7.13-1.79,17.02-1.79,17.02c-17.91,10.5-13.93,11.04-13.93,11.04s3.51,11.69,17.8-2.35c14.3-14.04,5.89,6.12,5.89,6.12
	s-13.16,6.39-9.72,15.21c3.44,8.82,18.68-12.39,18.68-12.39c8.82-22.32,5.27,7.74,5.27,7.74s-4.26,29.01-20.08,28.97
	s-18.35,2.55-18.35,2.55s-11.57,5.69-28.53-11.87c-16.95-17.56-16-28.51-16-28.51s1.37-20.15,25.65-12.24l0.91,0.32
	c0,0,32.81-12.58,1.4-7.65s-31.55-31.54-31.55-31.54s-1.94-1.78-4.35-4.75l10.23-38.01c0,0,1.01-8.02,0.77-9.44
	c-0.24-1.42,3.83,0,3.83,0l20.43,4.69l13.21,3.3L559.75,361.67z"/>
<path class="st9" d="M565.9,367.87"/>
<path class="st7" d="M307.16,772.69c7.24,0.06,14.48,0.15,21.71,0.23c0.34-11.63,1.06-18.28-6.36-22.45c0,0-16.24-2.94-23.19-5.89
	c-6.94-2.95-15.13,1.12-15.13,1.12s-10.21,7.05-14.42,15.85c-3.44,7.17-3.51,10.12-3.42,10.96
	C279.95,772.52,293.55,772.58,307.16,772.69z"/>
<path class="st8" d="M240.22,772.56c0.75-2.27,0.07-5.49-4.25-9.92c-9.26-9.49-11.28,5.48-11.68,10.04
	C229.6,772.63,234.91,772.58,240.22,772.56z"/>
<path class="st8" d="M216.21,772.75c2.34-0.03,4.68-0.04,7.02-0.06l-3.78-4.84c0,0-3.08-2.16-6.7-2.72l-0.09,8.13
	C213.74,772.95,214.91,772.76,216.21,772.75z"/>
<path class="st8" d="M633.54,693.89c-1.69,1-2.87,1.79-3.16,2.19c-1.38,1.93-6,5.8-6,5.8c-7.72,3.03-4.09-7.2-4.09-7.2
	c-0.66-8.44,10.37-16.74,13.13-18.68L633.54,693.89z"/>
<path class="st10" d="M485.87,674.56"/>
<path class="st8" d="M637.47,628.65c-6.78-2.46-7.63-5.58-7.63-5.58s-7.54-10.37-26.17,4.44s-9.91,45.92-9.91,45.92
	s3.4,12.3-4.3,2.58c-7.7-9.72-8.21-18.57-8.21-18.57s6.01-11.87-3.15-22.92c-9.16-11.05-12.72-18.18-22.06-16.38
	c0,0-14.3,8.24-21.51,10.47c-7.21,2.23-10.83,10.63-10.83,10.63s-3.24,11.98-0.78,21.42s4.68,10.76,4.68,10.76
	s-1.25,16.74,13.14,22.45c0,0,5.24,3.7,17.39,1.98c0,0,11.41,1.1,13.59,2.99c2.18,1.89,2.42,0.81,2.42,0.81s-1.97-6.32-6.48-8.41
	c-4.51-2.09,0.59-2.51,0.59-2.51l15.7,10c0,0,5.9,2.48,2.44-3.56c-3.45-6.04-10.89-15.69-10.89-15.69s-4.03-10.87,3.9-3.06
	c7.94,7.81,15.37,22.32,15.37,22.32s6.78,10.93,5.88,0.61c0,0-4.71-18.52-0.47-21.66c4.23-3.15,6.06,1.55,6.06,1.55l-0.84,17.54
	c0,0,2.2,11.86,6.11,0.63c0,0,0.59-13.64,11.78-24.59c6.61-6.47,9.16-4.33,10.14-1.5L637.47,628.65z"/>
<path class="st11" d="M634.62,755.1c-1.77-3.04-8.81-14.49-12.58-11.3c-4.33,3.67,9.72,19.94,9.72,19.94l2.75,4.47"/>
<path class="st8" d="M634.5,745.31c-10.33-9.13-3.37-7.44-0.07-6.36L634.5,745.31z"/>
<path class="st8" d="M634.36,732.77c-1.3-0.11-2.59-0.27-3.84-0.46c-10-1.57,2.08-8.94,2.08-8.94l1.4-0.84L634.36,732.77"/>
<path class="st8" d="M634.14,713.66c0,0-15.37,11.88-16.01,5.43c-0.44-4.5,9.7-13,15.87-17.73L634.14,713.66z"/>
<path class="st8" d="M518.38,703.55c63.23-12.61,91.72,20.28,91.72,20.28s8.72,13.71-6.7,7.86c0,0-35.14-36.54-87.5-22.35
	c0,0,17.15,12.05,4.98,19.34c0,0-4.45,6.64-12.19-9.57c0,0,3.98,21.27-8.76,16.83c-12.75-4.43-3.18-22.41-3.18-22.41
	s-15.82,7.83-18.83-3.27s10.64-12.33,10.64-12.33l7.57,1.58c0,0-13.76-17.72,1.68-16.23s8.49,11.95,8.49,11.95s3.99-11,10.97-5.42
	c6.98,5.57,1.36,12.75,1.36,12.75"/>
<path class="st8" d="M594.89,778.69c2.66,0.29,5.32,0.59,7.98,0.91c-0.57-4.01-0.28-9.65-0.28-9.65c-1.33-14.09-7.42,6.1-7.42,6.1
	C595.09,777.01,594.99,777.87,594.89,778.69z"/>
<path class="st8" d="M607.84,780.19c3.4,0.41,6.79,0.83,10.19,1.25c-0.85-0.8-1.53-1.8-1.53-1.8s-11.94-28.74-9.12-15.21
	C609.39,774.07,608.51,778.45,607.84,780.19z"/>
<path class="st8" d="M621.08,775.41c0.33,3.6,0.1,5.49-0.39,6.37c2.47,0.31,4.94,0.62,7.4,0.93c2.5,0.31,4.87,1.1,6.86,2.34
	l-0.05-4.6c-4.04-7.82-10.11-18.44-16.62-25.7c-11.48-12.8-5.26,2.82-5.26,2.82L621.08,775.41z"/>
<path class="st8" d="M521.28,774.95c10.19,0.05,20.38,0.17,30.56,0.47c4.19,0.13,8.37,0.34,12.55,0.59
	c5.65-5.15,15.78-13.59,7.16,0.47c4.16,0.31,8.32,0.69,12.48,1.09c0.66-5.37,3.09-13.45,11.01-20.47c13.29-11.77-16.2-5.5-16.2-5.5
	c-17.04,11.87-15.87,8.02-15.87,8.02s-9.15-8.08,9.59-15.18c18.74-7.1-3.09-7.91-3.09-7.91s-11.32,9.27-17.88,2.45
	c-6.57-6.81,19.08-11.77,19.08-11.77c23.96,1.35-4.81-8.03-4.81-8.03s-28.12-8.28-34.72,6.09c-6.6,14.38-10.01,15.59-10.01,15.59
	s-10.02,8.12-1.17,30.88C520.4,772.86,520.84,773.92,521.28,774.95z"/>
<path class="st9" d="M640.73,787.35"/>
<path class="st8" d="M181.26,426.38c0.75-0.02,1.24-0.04,1.24-0.04c6.32-2.45,1.07-6.28-1.06-7.6L181.26,426.38z"/>
<path class="st8" d="M181.05,409.05c4.83,2.6,7.51,5.28,7.51,5.28c10.48,5.61,4.07-4.61,4.07-4.61l-11.59-11.44L181.05,409.05z"/>
<path class="st8" d="M198.15,384.07c0.82,9.76,3.63,19.9,3.63,19.9s2.42,12.64-3.91,4.43c0,0-9.07-16.81-14.32-16.26
	c-1.13,0.12-1.94,0.43-2.5,0.85v-3.2L198.15,384.07z"/>
<path class="st8" d="M213.94,380.82l-4.21,15.81c0,0-2.66,5.81-4.21-0.97c-0.84-3.67-1.53-8.9-1.99-12.94L213.94,380.82z"/>
<path class="st8" d="M227.57,377.03c0,0-7.65,8.53-7.98,11.4c-0.33,2.87-1.23,2.23-1.23,2.23s-2.83-5.98-0.93-10.58
	c0.11-0.26,0.2-0.5,0.27-0.71L227.57,377.03z"/>
<path class="st11" d="M188.71,387.26c1.45,2.24,3.66,4.77,3.76-0.42"/>
<path class="st8" d="M194.58,471.29c3.19-4.79,4.51-9.49,4.51-9.49s7.17-14.74,4.8,4.99c-2.37,19.72-3.93,21.64-0.13,23.93
	c3.81,2.29,7.04-17.46,7.04-17.46s-4.25-17.41,1.43-17.64c5.67-0.23,6.34,21.25,6.34,21.25l4.54,23.4c0,0,2.39,25.76-12.76,34.65
	c-3.54,2.08-5.53,3.53-7.86,4.43l-0.33-16.92c0,0,0.04-23.08-2.33-27.92l-2.33-11.33L194.58,471.29z"/>
<path class="st8" d="M191.5,460.08c2.33-2.22,4.71-4.69,6.69-7.19c6.29-7.93-7.59-5.17-7.59-5.17l-3.04,0.63L191.5,460.08z"/>
<path class="st8" d="M185.13,441c0,0,18.04-1.04,14.14-6.22c-2.02-2.69-9.86-3.04-16.92-2.75L185.13,441z"/>
<path class="st8" d="M247.75,371.67c-29.21,26.3-30.01,62.41-30.01,62.41c-7.39,14.74-10.25-1.25-10.25-1.25
	s-0.88-29.36,29.35-58.43L247.75,371.67z"/>
<path class="st11" d="M227.94,500.31"/>
<polygon class="st12" points="544.13,315.04 302.63,315.04 303.22,238.83 544.71,238.83 "/>
<path class="st11" d="M126.58,622.62"/>
<path class="st9" d="M675.97,461.18"/>
<path class="st13" d="M544.91,240.24"/>
<line class="st13" x1="302.57" y1="304.45" x2="302.57" y2="240.24"/>
<path class="st14" d="M339.72,327.84l-8.63,17.97c0,0,0.04,1.26-0.09,3.35"/>
<path class="st14" d="M418.84,401.07"/>
<path class="st14" d="M355.65,426.24"/>
<path class="st14" d="M431.96,401.07"/>
<path class="st15" d="M213.94,660.31"/>
<path class="st16" d="M543.46,174.48c0,0-20.22-103.77-120.01-103.77h0.57c-99.79,0-120.01,103.77-120.01,103.77"/>
<path class="st16" d="M422.97,281.42c114.86-1.37,121.94-41.18,121.94-41.18V189.1c0-52.12-53.93-94.38-120.46-94.38h-1.42
	c-66.53,0-120.46,42.25-120.46,94.38v51.14c0,0,7.07,39.81,121.94,41.18"/>
<path class="st17" d="M479.05,327.23c-8.61,21.65-25.41,54.31-54.51,77.21l-1.8-0.16c-29.08-22.87-45.8-55.44-54.36-77.04
	L479.05,327.23z"/>
<path class="st14" d="M507.44,327.23l8.63,17.97c0,0,0.34,4.13,0.45,7.04"/>
<path class="st6" d="M313.18,354.14"/>
<path class="st14" d="M418.84,401.07"/>
<path class="st14" d="M355.65,426.24"/>
<path class="st14" d="M431.96,401.07"/>
<path class="st6" d="M368.38,327.23c8.04,20.32,23.32,50.33,49.3,72.86l1.16,0.98l-60.16,30.74l-3.04,0.71
	c-2.74,0-5.17-1.79-5.99-4.4l-0.06-0.36l-16.13-59.61c-2.12-5.8-2.59-11.94-2.57-16.47l0.03-1.61l0.08-0.92
	c0.13-2.08,0.09-3.35,0.09-3.35l8.63-17.97L368.38,327.23z"/>
<path class="st6" d="M507.44,327.23l8.63,17.97c0,0,0.34,4.13,0.45,7.04l-0.01,0.95c-0.06,4.39-0.62,10.01-2.57,15.33l-16.13,59.61
	l-0.04,0.13c-0.82,2.61-3.21,4.27-5.95,4.27c-1.03,0-1.87-0.16-2.78-0.65l-0.18-0.09l-60.23-30.71l1.37-1.17
	c29.1-22.89,40.44-51.01,49.04-72.67L507.44,327.23z"/>
<path class="st14" d="M491.83,426.24"/>
<path class="st14" d="M415.51,401.07"/>
<path class="st14" d="M355.65,426.24"/>
<path class="st14" d="M431.96,401.07"/>
<path class="st14" d="M491.83,426.24"/>
<path class="st14" d="M415.51,401.07"/>
<path class="st16" d="M423.71,332.42c70.71-1.06,100.19-7.37,112.71-10.64c10.04-2.62,8.49-8.91,8.49-8.91v-8.43
	c0,0-42.21,11.45-120.01,10.6h-2.31c-77.8,0.85-120.01-10.6-120.01-10.6v8.43c0,0-1.55,6.29,8.49,8.91
	c12.53,3.27,42,9.58,112.71,10.64"/>
<line class="st13" x1="544.91" y1="304.45" x2="544.91" y2="240.24"/>
<path class="st14" d="M428.63,401.07"/>
<path class="st14" d="M491.83,426.24"/>
<path class="st14" d="M415.51,401.07"/>
<path class="st15" d="M633.54,660.31"/>
<path class="st14" d="M675.07,506.29"/>
<path class="st14" d="M645.31,545.71"/>
<path class="st15" d="M442.48,772.98"/>
<path class="st13" d="M445.92,124.67"/>
<path class="st9" d="M565.9,367.87"/>
<path class="st8" d="M634.5,768.21l-2.75-4.47c0,0-14.05-16.26-9.72-19.94c3.77-3.19,10.81,8.26,12.58,11.3L634.5,768.21z"/>
<path class="st15" d="M437.14,772.98"/>
<path class="st9" d="M640.73,787.35"/>
<path class="st14" d="M423.34,404.75c-0.56,121.61-0.56,244.8-0.37,367.34"/>
<path class="st11" d="M227.94,500.31"/>
<path class="st11" d="M126.58,622.62"/>
<path class="st9" d="M675.97,461.18"/>
<path class="st14" d="M418.84,401.07"/>
<path class="st14" d="M355.65,426.24"/>
<path class="st14" d="M431.96,401.07"/>
<path class="st15" d="M213.94,660.31"/>
<path class="st14" d="M428.63,401.07"/>
<path class="st14" d="M491.83,426.24"/>
<path class="st14" d="M415.51,401.07"/>
<path class="st15" d="M633.54,660.31"/>
<path class="st15" d="M442.48,772.98"/>
<path class="st13" d="M445.92,124.67"/>
<path class="st15" d="M437.14,772.98"/>
<path class="st11" d="M610.96,730.73"/>
<path class="st8" d="M590.43,514.09c38.42-51.78,20.85-91.59,20.85-91.59s-8.67-13.74-9.97,2.7c0,0,18.02,47.38-17.18,88.66
	c0,0-3.57-20.65-15.36-12.77c0,0-7.91,1.19,3.44,15.11c0,0-17.53-12.69-18.96,0.73c-1.44,13.42,18.9,12.45,18.9,12.45
	s-13.84,10.96-5.09,18.42c8.74,7.47,15.69-4.35,15.69-4.35l1.8-7.52c0,0,10.14,20.02,15.39,5.41c5.25-14.6-7.18-12.78-7.18-12.78
	s11.65,1.09,9.59-7.61c-2.06-8.69-10.95-6.68-10.95-6.68L590.43,514.09z"/>
<path class="st14" d="M664.94,388.83c-3.42-1.42-7.1-2.76-11.08-3.96l-122.85-30.73l-11.92-2.73c-3.17-0.06-2.58,1.77-2.58,1.77
	c-0.06,4.39-0.62,10.01-2.57,15.33l-16.13,59.61l-0.04,0.13c-0.82,2.61-3.21,4.27-5.95,4.27c-1.03,0-1.87-0.16-2.78-0.65l-0.18-0.09
	l-60.23-30.71l-4.9,4.01l-4.9-4.01l-60.16,30.74l-3.04,0.71c-2.74,0-5.17-1.79-5.99-4.4l-0.06-0.36l-16.13-59.61
	c-2.12-5.8-2.59-11.94-2.57-16.47l0.03-1.61l-17.74,4.07l-122.85,30.73"/>
<path class="st7" d="M666.43,430.08l-10.95,32.38c-3.63-2.33-5.82-4.2-5.82-4.2s-9.74-8.24-4.14,2.82c2.32,4.59,5.03,8,7.4,10.41
	c0,0-10.11,30.65-7.14,60.09l-0.02,1.63l-0.03,1.63c-4.2-1.24-9.92-3.42-14.16-6.9c-7.54-6.19-7.8-8.76-7.8-8.76
	s-15.72-5.88-14.88-21.34c0,0-1.16-6.31,5.49-16.62c0,0,3.78-10.82,2.98-13.59s0.28-2.53,0.28-2.53s4.91,4.43,4.92,9.41
	c0.01,4.97,2.52,0.51,2.52,0.51l-2.5-18.44c0,0,0.22-6.39,4.26-0.73c4.03,5.66,9.68,16.47,9.68,16.47s8.18,8.22,4.41-2.26
	c-3.77-10.48-13.83-23.31-13.83-23.31s-7.09-10.73,1.91-5.59c0,0,14.84,12.03,19.47,9.5c4.63-2.53,1.13-6.15,1.13-6.15l-16.28-6.59
	c0,0-9.84-6.97,1.99-5.82c0,0,12.63,5.18,27.26-0.39c1.48-0.56,2.69-1.13,3.65-1.68"/>
<path class="st8" d="M268.84,531.28c0,0-36.33,21.06-35.7-28.9l-0.35-0.94c0,0-8.58-23.82-9.02-41.01s5.76-1.56,5.76-1.56
	l6.39,18.49c7.87,10.03,6.23-0.06,6.23-0.06s-11.05-29.09-3.81-17.32c7.24,11.77,11.53,12.14,11.53,12.14
	c10.46,2.64-4.25-11.41-4.25-11.41c-8.7-11.16,9.59-0.66,9.59-0.66c17.02,15.29,13.35-2.21,13.35-2.21s-8.53-12.21-26.27-11.65
	c-17.74,0.56,8-15.12,8-15.12c20.53-3.06,17.05-5.06,17.05-5.06s1.1-12.15-17.39-4.45s-3.18-7.87-3.18-7.87s14.59-1.03,14.69-10.49
	c0.1-9.46-21.95,4.54-21.95,4.54c-16.5,17.43-2.01-9.14-2.01-9.14s14.77-25.33,29.43-19.4s17.98,4.47,17.98,4.47
	s12.86-0.97,22.05,21.65s4.23,32.42,4.23,32.42s-8.78,18.19-28.36,1.8l-0.72-0.64c0,0-35.14-0.55-4.15,6.58
	c30.99,7.13,17.52,41.03,17.52,41.03s20.49,42.99-25.78,44.6L268.84,531.28z"/>
<g>
	<g>
		<path class="st18" d="M424.02,273.55c-106.41-1.27-112.97-38.15-112.97-38.15v-47.37c0-48.29,49.96-87.43,111.6-87.43
			c2.16,0,2.16,0,2.16,0c61.63,0,111.6,39.15,111.6,87.43v47.37c0,0-6.55,36.88-112.97,38.15"/>
	</g>
</g>
<path class="st4" d="M232.28,653.99c0,0,73.5,7.04,89.81,63.86l-29.74,88.04c-47.43,35.29-110.14-3.69-110.14-3.69l-0.78-0.11
	C47.1,809.39,39.62,621.4,91.09,611.54c88.22-77.04,56.9,9.62,56.9,9.62c33.28,4.57,68.25,13.91,82.9,32.88L232.28,653.99"/>
<path class="st6" d="M180.62,388.49l4.57,38.83c0,0,30.04,56.24,31.46,88.4s28.12,136.41,28.12,136.41l-0.01,0.41l-3.63,25.05
	c-36.64,22.06-186.36-36.63-177.23-56.31l78.07-192.23c0,0,5.39-24.47,38.58-42.31L180.62,388.49z"/>
<path class="st8" d="M219.18,535.47c-7.42,1.52-19.69,0.45-29.38-18.02c-14.92-28.46-9.15-45.31-9.15-45.31s2.86-7.62,6.24-7.99
	c0.06-0.01,0.12-0.01,0.18-0.01l0.08-0.65c0,0-4.14-13.52,4.79-21.81c0,0,9.68,18.12,20.4,50.36l3.7,16.71c0,0,1.09,7.8,0.91,10.75
	S219.18,535.47,219.18,535.47z"/>
<path class="st8" d="M242,646.76c-10.58-1.37-16.63,8.16-23.09,14.7c-7.81,7.91-18.47,10.8-27.27,17.26c0,0,25.62,8.15,52.72-1.15
	l-0.03-26.53L242,646.76z"/>
<path class="st8" d="M219.18,622.76c0,0,12.38,14.78,1.7,27.33c-10.67,12.55-18.43,15.33-18.43,15.33s-22.89,11.68-28.27,8.08
	c-5.38-3.6,11.31-10.53,11.31-10.53l0.58-0.35c0,0,8.06-5.73-4.93-6.23l-3.9,2.33c0,0-12.2,7.18-8.87-2.38
	c3.33-9.56,10.54-20.24,10.54-20.24s10.3-18.69-2.58-12.59s-11.74,24.72-11.74,24.72s-1.91,16.28-6.17-3.13
	c-4.26-19.4-3.42-21.72-7.76-22.63c-4.35-0.91-0.89,18.81-0.89,18.81s9.75,15.04,4.47,17.13s-12.99-17.97-12.99-17.97l-12-20.59
	c0,0-10.74-23.54,0.63-36.92s13.54-11.42,25.69-7.15c0,0,13.95-20.34,39.22-0.5s26.92,37.58,26.92,37.58s0.51,8.12-2.41,9.85
	c-0.05,0.03-0.1,0.06-0.16,0.08"/>
<path class="st11" d="M124.66,621.39"/>
<path class="st14" d="M219.81,540.87c0,0-24.47-13.76-34.16-35.67"/>
<path class="st8" d="M188.6,434.89c-3.2,0.81-6.72,0.83-9.88-1.13c-8.63-5.36-13.91-17.08-13.91-17.08s-2.61-6.93-1.83-15.09
	l10.7-8.69l7.14-4.53l4.4,39.2L188.6,434.89z"/>
<path class="st11" d="M124.66,621.39"/>
<path class="st19" d="M397.29,817.85"/>
<path class="st19" d="M400.76,821.51"/>
<path class="st5" d="M181.53,802.05c16.8,2.75,31.55,0.3,41.16-10.97"/>
<path class="st19" d="M397.29,817.85"/>
<path class="st19" d="M400.76,821.51"/>
<path class="st5" d="M225.75,693.17c-0.39-7.04-2.91-13.19-7.06-18.57"/>
<path class="st5" d="M309.89,738.4"/>
<path class="st8" d="M130.61,661.39c-4.3-5.04-14.2-14.69-10.43-18.76c3.89-4.19,11.03,7.97,12.95,10.57
	c2.47,3.34,10.42,14.96,10.24,5.42c-0.25-13.2-14.53-28.37-22.14-38.09l-0.63-0.78c-15.26-47.58-45.82-17.37-45.82-17.37
	l-7.22,17.77c0,0-2.96,4.15,1.92,8.83c4.88,4.68,8.05,8.34,23.86,16.71S130.61,661.39,130.61,661.39z"/>
<path class="st14" d="M245.24,652.08l-0.41,25.43c-36.64,22.06-189.6-36.6-180.46-56.29l78.07-192.23c0,0,5.35-24.28,38.19-42.1
	l4.58,40.68l11.22,22.92c0,0,18.74,41.75,19.59,58.23c0.85,16.48,3.15,26.74,3.15,26.74S233.12,617.67,245.24,652.08z"/>
<path class="st19" d="M457.51,840.92"/>
<path class="st5" d="M616.11,693.17c0.39-7.04,2.91-13.19,7.06-18.57"/>
<path class="st5" d="M638.52,811.82"/>
<path class="st5" d="M679.69,822.79"/>
<path class="st6" d="M665.92,390.47l-2.49,39.02c0,0-26.99,57.77-26.69,89.96c0.31,32.19-20.76,137-20.76,137l-0.06,0.36l1.85,24.19
	c37.77,20.07,184.14-46.54,173.96-65.71l-88.24-187.78c0,0-6.31-22.76-37.88-38.76L665.92,390.47z"/>
<path class="st8" d="M738.91,503.18c-0.32,3.07,0.45,4.53-0.81,8.31c-10.11,30.5-26.24,38.06-26.24,38.06s-7.47,3.23-10.08,1.06
	c-0.05-0.04-0.09-0.08-0.13-0.12l-0.56,0.84c0,0-9.11,15.86-24.53,10.06c-15.42-5.79-20.67-12.15-20.67-12.15
	s-18.74-17.58-17.18-23.87s13.74,7.07,13.74,7.07l0.52,0.43c0,0,8.12,5.64,4.19-6.74l-3.51-2.88c0,0-10.88-9.04-0.76-9.15
	c10.12-0.1,22.61,3.06,22.61,3.06s21.08,3.36,10.98-6.69c-10.1-10.06-27.24-2.67-27.24-2.67s-15.96,3.71,0.85-6.86
	c16.81-10.58,19.28-10.57,18.67-14.97s-18,5.53-18,5.53s-10.85,14.27-14.6,10c-3.75-4.26,12.51-18.31,12.51-18.31l15.31-18.27
	c0,0,18.51-18.08,34.95-11.91c5.66,2.12,6.62,4.24,8.88,6.1L738.91,503.18z"/>
<path class="st8" d="M651.43,683.07c-0.58,0.05-5.06,0.18-5.6,0.21c2.05-4.92,8.65-15.07,9.65-20.23c1.44-7.41,9.4-11.91,9.4-11.91
	s11.56-4.51,21.21-3.09c9.65,1.43,11.2,3.5,11.2,3.5s16.46-3.03,23.7,10.59C720.98,662.12,683.38,680.12,651.43,683.07z"/>
<path class="st8" d="M732.24,659.29c-0.17-5.77,0.21-11.56,1.1-17.27c4.26,4.69,14.86,12.75,19.5,3.71
	c3.45-6.73-5.48-10.21-10.56-11.93c6.66,0.43,23.17-2.29,15.11-12.81c-4.96-6.47-16.49-1.9-21.94,1.54
	c1.94-5.86,2.91-16.83-4.87-18.69c-12.59-3.02-11.51,12.53-9.13,19.58c-4.89-2.98-14.65-8.13-16.73,0.49
	c-1.73,7.19,7.12,15.34,13.57,10.08c-11.92,5.73-0.28,19.73,8.62,11.47l0.93-0.35c-0.48,5.36-0.69,10.75-0.59,16.13L732.24,659.29z"
	/>
<path class="st20" d="M789.36,903.8H78.13c-22.63,0-40.97-18.34-40.97-40.97v-42.65h793.16v42.65
	C830.33,885.45,811.99,903.8,789.36,903.8z"/>
<path class="st14" d="M635,543.55c0,0,23.7-15.05,32.2-37.45"/>
<path class="st14" d="M630.25,578.93c0,0,12.65,1.36,13.49,22.16"/>
<path class="st14" d="M617.76,681c37.77,20.07,184.14-46.54,173.96-65.71l-88.24-187.78c0,0-6.31-22.76-37.88-38.76"/>
<path class="st18" d="M640.07,872.3H227.2c-4.69,0-8.5-3.81-8.5-8.5V597.08c0-4.69,3.81-8.5,8.5-8.5h412.87c4.69,0,8.5,3.81,8.5,8.5
	V863.8C648.57,868.49,644.76,872.3,640.07,872.3z"/>
<ellipse class="st3" cx="422.6" cy="159.32" rx="35.05" ry="39.72"/>
<path class="st3" d="M451.46,191.25c-6.71,8.53-17.31,13.56-28.54,13.56c-11.25,0-21.87-5.05-28.58-13.6
	c0,0-29.99,16.33-32.48,54.49c0,0,0.47,3.89,4.83,3.89S480,249.67,480,249.67s4.6-1.79,3.97-5.3
	C483.35,240.87,482.18,212.27,451.46,191.25z"/>
<path class="st21" d="M497.16,191.08c0.95-1.29,1.46-2.86,1.46-4.46c0-4.14-3.41-7.55-7.55-7.55c-2.35,0-4.57,1.1-6,2.97
	l-26.4,39.48l-14.46-11.35c-1.37-1.37-3.14-2.13-4.97-2.13c-4.08,0-7.44,3.74-7.44,8.29c0,1.94,0.61,3.83,1.73,5.32l22.79,18.36
	c1.14,0.78,2.56,1.21,4.02,1.21c1.88,0,3.68-0.71,4.9-1.94L497.16,191.08z"/>
</svg>
