<?xml version="1.0" encoding="utf-8"?>
<!-- Generator: Adobe Illustrator 27.1.1, SVG Export Plug-In . SVG Version: 6.00 Build 0)  -->
<svg version="1.1" id="Layer_1" xmlns="http://www.w3.org/2000/svg" xmlns:xlink="http://www.w3.org/1999/xlink" x="0px" y="0px"
	 viewBox="0 0 1008 1008" style="enable-background:new 0 0 1008 1008;" xml:space="preserve">
<style type="text/css">
	.st0{fill:#EFE8CC;stroke:#B1AE9C;stroke-width:4;stroke-linecap:round;stroke-linejoin:round;stroke-miterlimit:10;}
	.st1{fill:#B1AE9C;stroke:#9B9989;stroke-miterlimit:10;}
	.st2{fill:#2B190D;stroke:#A8A694;stroke-width:4;stroke-miterlimit:10;}
	.st3{fill:#2B190D;stroke:#000000;stroke-width:2;stroke-miterlimit:10;}
	.st4{fill:#D23C27;stroke:#A53A23;stroke-width:3;stroke-linecap:round;stroke-linejoin:round;stroke-miterlimit:10;}
	.st5{fill:none;stroke:#2B0000;stroke-width:10;stroke-miterlimit:10;}
	.st6{fill:#DC7038;stroke:#AA5626;stroke-miterlimit:10;}
	.st7{fill:#D23C27;stroke:#A53A23;stroke-miterlimit:10;}
	.st8{fill:none;stroke:#A5391D;stroke-miterlimit:10;}
	.st9{fill:none;stroke:#AA5517;stroke-miterlimit:10;}
	.st10{fill:#EFE8CC;stroke:#B1AE9C;stroke-linecap:round;stroke-linejoin:round;stroke-miterlimit:10;}
	.st11{fill:#EFE8CC;stroke:#B1AE9C;stroke-miterlimit:10;}
	.st12{fill:none;stroke:#B1AE9C;stroke-linecap:round;stroke-linejoin:round;stroke-miterlimit:10;}
	.st13{fill:#EFE8CC;stroke:#B5956A;stroke-miterlimit:10;}
	.st14{fill:#EFE8CC;stroke:#B5956A;stroke-linecap:round;stroke-linejoin:round;stroke-miterlimit:10;}
	.st15{fill:none;stroke:#A53A23;stroke-miterlimit:10;}
	.st16{fill:#D23D27;stroke:#B5956A;stroke-miterlimit:10;}
	.st17{fill:#EFE8CC;stroke:#EFE8CC;stroke-miterlimit:10;}
	.st18{fill:none;stroke:#A8A694;stroke-miterlimit:10;}
	.st19{fill:#2B190D;stroke:#A8A694;stroke-miterlimit:10;}
	.st20{opacity:0.56;fill:#EFE8CC;stroke:#B1AE9C;stroke-miterlimit:10;}
	.st21{fill:#EFE8CC;}
	.st22{fill:#470000;stroke:#350000;stroke-miterlimit:10;}
	.st23{fill:none;stroke:#350000;stroke-miterlimit:10;}
	.st24{opacity:0.45;fill:#470000;stroke:#350000;stroke-miterlimit:10;}
	.st25{fill:#A9493B;stroke:#A53A23;stroke-miterlimit:10;}
	.st26{fill:#C75647;stroke:#A53A23;stroke-miterlimit:10;}
	.st27{fill:#2B190D;stroke:#000000;stroke-miterlimit:10;}
</style>
<path class="st0" d="M666.94,144.81c-306.38,310.98-73.53,572.43-73.53,572.43h147.56c0,0,232.85-261.45-73.53-572.43"/>
<circle class="st1" cx="667.54" cy="428.51" r="83.11"/>
<circle class="st2" cx="667.54" cy="427.36" r="63.57"/>
<polyline class="st3" points="594.41,717.23 565.72,781.29 770.41,781.29 741.72,717.23 "/>
<path class="st4" d="M519.61,387.3c0,0-126.96,129.22-44.18,319.4l65.62-76.6c-36.34-72.65-42.87-154.64-22.26-241.44"/>
<path class="st4" d="M812.85,387.3c0,0,126.96,129.22,44.18,319.4l-65.62-76.6c36.34-72.65,42.87-154.64,22.26-241.44"/>
<path class="st5" d="M986.2,41.53h-82.72c-3.25,0-5.89,2.64-5.89,5.89v725.4c0,3.25,2.64,5.89,5.89,5.89h82.72
	c3.25,0,5.89-2.64,5.89-5.89V47.42C992.09,44.17,989.45,41.53,986.2,41.53z"/>
<path class="st5" d="M406.09,47.23v82.72c0,3.25,2.64,5.89,5.89,5.89h573.81c3.25,0,5.89-2.64,5.89-5.89V47.23
	c0-3.25-2.64-5.89-5.89-5.89H411.98C408.73,41.34,406.09,43.98,406.09,47.23z"/>
<line class="st5" x1="896.83" y1="40" x2="993.34" y2="136.51"/>
<line class="st5" x1="993.34" y1="40" x2="896.83" y2="136.51"/>
<line class="st5" x1="896.83" y1="134" x2="993.34" y2="230.51"/>
<line class="st5" x1="993.34" y1="134" x2="896.83" y2="230.51"/>
<line class="st5" x1="896.83" y1="234" x2="993.34" y2="330.51"/>
<line class="st5" x1="993.34" y1="234" x2="896.83" y2="330.51"/>
<line class="st5" x1="896.83" y1="328" x2="993.34" y2="424.51"/>
<line class="st5" x1="993.34" y1="328" x2="896.83" y2="424.51"/>
<line class="st5" x1="896.83" y1="428" x2="993.34" y2="524.51"/>
<line class="st5" x1="993.34" y1="428" x2="896.83" y2="524.51"/>
<line class="st5" x1="896.83" y1="529" x2="993.34" y2="625.51"/>
<line class="st5" x1="993.34" y1="529" x2="896.83" y2="625.51"/>
<line class="st5" x1="896.83" y1="629" x2="993.34" y2="725.51"/>
<line class="st5" x1="993.34" y1="629" x2="896.83" y2="725.51"/>
<line class="st5" x1="896.83" y1="723" x2="953.28" y2="779.45"/>
<line class="st5" x1="993.34" y1="723" x2="937.3" y2="779.04"/>
<line class="st5" x1="897.22" y1="39.51" x2="800.71" y2="136.02"/>
<line class="st5" x1="897.22" y1="136.02" x2="800.71" y2="39.51"/>
<line class="st5" x1="797.22" y1="39.51" x2="700.71" y2="136.02"/>
<line class="st5" x1="797.22" y1="136.02" x2="700.71" y2="39.51"/>
<line class="st5" x1="703.22" y1="39.51" x2="606.71" y2="136.02"/>
<line class="st5" x1="703.22" y1="136.02" x2="606.71" y2="39.51"/>
<line class="st5" x1="603.22" y1="39.51" x2="506.71" y2="136.02"/>
<line class="st5" x1="603.22" y1="136.02" x2="506.71" y2="39.51"/>
<line class="st5" x1="502.22" y1="39.51" x2="405.71" y2="136.02"/>
<line class="st5" x1="502.22" y1="136.02" x2="405.71" y2="39.51"/>
<path class="st6" d="M206.95,607.12c0,0,1.95,28.42-18.65,38.21l-35.39-5.77c-16.42-15.83-5.54-42.16-5.54-42.16l-0.01-0.3
	c-0.04-20.31,17.57-51.21,17.57-51.21c34.89,28.73,49.2,27.08,49.2,27.08c0.36,12.96-0.99,26.86-7.29,33.63L206.95,607.12"/>
<path class="st7" d="M221.18,563.56l4.16-104.82c-13.25,3.3-17.58,11.31-17.58,11.31l-49.38,63.01
	c-5.48,6.33,43.83,44.01,59.76,39.72l2.78-8.94L221.18,563.56z"/>
<path class="st8" d="M222.88,518.69c0,0-7.8-7.52-9.29-16.64"/>
<path class="st8" d="M219.72,535.81c0,0-4.91,0.21-5.74,8.2"/>
<path class="st9" d="M203.8,599.61c2.13,1.69,3.5,3.86,4.26,6.37"/>
<path class="st10" d="M304.74,929.26c0,0,30.38-8.17,31.91,16.85c1.53,25.02-68.68,18.38-68.68,18.38s-12.51-2.55-6.64-24.26
	c5.87-21.7,5.11-21.19,5.11-21.19l34.21,2.55l7.66,14.55"/>
<path class="st11" d="M197.08,922.36c-2.38-4.09,4.77-21.79,4.77-21.79l33.36,1.7c0,0,9.19,43.57-6.47,42.89
	c-15.66-0.68-26.55,0.34-26.55,0.34c-24.25-16.01-8.28-39.84-3.06-37.79"/>
<path class="st6" d="M196.89,721.59c0,0-18.85,75.14-13.32,91.44l-7.34,50.44c0,0-1.17,29.98,21.66,38.33
	c22.84,8.35,38.72,3.13,38.72,3.13s8.15-4.05,11.48-16.23l7.34-50.44c9.95-14.04,13.32-91.44,13.32-91.44l0.34-2.4
	c2.65-18.8,4.21-37.34,4.88-46.16l0.15-2.11c0,0-44.82-8.24-67.99-22.59c0,0-22.02,96.46-8.73,102.24"/>
<path class="st9" d="M244.83,860.23c0,0-35.74,10.79-51.11-20.5"/>
<path class="st9" d="M242.53,774.96c0,0-3.47,14.05-31.06,10.66"/>
<path class="st6" d="M341.34,728.12c0,0,10.13,85.85,0,102.93v56.77c0,0-4.09,33.23-34.91,38.77s-50.2-2.77-50.2-2.77
	s-9.69-5.77-11.68-19.73v-56.77c-10.13-17.08,0-102.93,0-102.93l0.01-2.7c0.12-21.15,1.58-41.83,2.36-51.67l0.21-2.35
	c0,0,58.97-1.88,91.34-13.99c0,0,10.22,109.86-7.89,114.09"/>
<path class="st9" d="M251.6,884.31c0,0,43.78,18.4,69.32-15.02"/>
<path class="st7" d="M302.4,542.66c0,0-35.66,6.69-76.95,0.12"/>
<path class="st12" d="M252.96,689.36c0.72-0.76,0.97-4.43,1-8.98"/>
<path class="st7" d="M310.71,468.45c-0.01,1.14,40.58,41.01,32.28,69.15c-8.31,28.14-1.29,152.44-1.29,152.44
	s-139.79,2.72-142.83-5.6s7.84-53.66,7.84-53.66s4.24-90.11-1.17-108.68c-5.41-18.57,10.41-66.51,26.2-70.97
	C247.53,446.7,310.71,468.45,310.71,468.45z"/>
<path class="st13" d="M343.69,522.72c-0.49,0.72-1.87,2.34-5.14,3.72c0,0-3.56,2.63-3.9,3.69c-0.35,1.06-0.64,0.75-0.64,0.75
	s-0.6-2.48,0.47-4.07s-0.69-0.71-0.69-0.71l-3.21,6.42c0,0-1.46,1.99-1.51-0.69s0.49-7.35,0.49-7.35s-0.82-4.4-1.9-0.24
	S327,534.68,327,534.68s-0.07,4.96-1.82,1.37c0,0-2.12-7.06-4.14-7.26c-2.03-0.2-1.7,1.72-1.7,1.72l3.76,5.64
	c0,0,1.62,4.36-1.9,1.42c0,0-2.9-4.4-8.78-5.8s-3.01,3.05-3.01,3.05s6.68,0.26,8.34,3.59c0,0,3.23,2.66,0.07,3.19
	c0,0-2.3-0.36-3.14-0.73c-0.84-0.36-10.29,0.4-10.29,0.4s-4.78,3.1-7.85,0.66c-3.07-2.45-4.56-7.17-4.56-7.17s-1.88-7.59,3.59-11.68
	s4.8-6.48,4.8-6.48s0.44-4.93,9.54-3.72c9.11,1.2,12.39,13.23,12.39,13.23s1.31,4.74,1.93,0s-0.97-7.77-0.97-7.77
	s-4.34-2.74-3.5-8.21c0.84-5.47,0.6-8.54,4.05-9.8c0,0,6.37-0.11,9.2-0.8c0.34-0.08,0.67-0.13,1-0.14"/>
<path class="st13" d="M317.21,547.3c0,0-3.8,0.3,0.4,3.04h1.75c0,0,5.46,0.04,2.46,2.55c-3,2.5-7.5,4.61-7.5,4.61
	s-7.12,4.15-1.64,4.68s8.79-5.86,8.79-5.86s3.86-5.01,1.42,2.26c-2.44,7.27-3.18,7.87-1.92,9.03s4.02-6.05,4.02-6.05
	s-0.25-6.91,1.92-6.56c2.16,0.36,0.74,8.53,0.74,8.53l-0.11,9.2c0,0-1.11,9.92-7.53,12.1c-6.42,2.18-6.75,1.09-9.92-2.72
	c0,0-8.65,3.97-13.08-7.61s-1.46-17.78-1.46-17.78s1.44-2.79,2.75-2.78c0.02,0,0.05,0,0.07,0l-0.07-0.41c0,0-1.12-6.94,4.9-8.98
	c6.02-2.04,9.14-1.42,9.14-1.42s9.89,0.67,10.96,2.93s-5.83,1.25-5.83,1.25H317.21z"/>
<path class="st14" d="M343.69,525.54c-14.72,8.71-16.78,20.48-16.78,20.48s-0.16,6.27,3.78,1.27c0,0,2.6-11.32,13.01-19.12"/>
<path class="st14" d="M342.69,538.66c-1.2,0.34-2.07,0.66-2.07,0.66c-7.66,5.2,0-3.61,0-3.61s1.23-1.34,3.03-2.72"/>
<path class="st14" d="M341.34,545.65c-2.82,0.08-0.91-1.68,0.47-2.73"/>
<path class="st14" d="M340.43,554.56c-0.6-0.21-1.25-0.38-1.95-0.51c-4.85-0.91-0.49-3.12,2.32-4.29"/>
<path class="st14" d="M339.8,561.89c-0.59-1.1-1.26-2.09-1.26-2.09c-1.34-2.81,0.04-2.24,1.47-1.23"/>
<path class="st14" d="M338.99,588.81c-4.16,0.48-11.87-0.37-8.61-14.34l-0.05-0.38c0,0-1.26-9.69,0-16.2
	c1.26-6.51,2.3-0.11,2.3-0.11l0.88,7.5c2.13,4.43,2.35,0.49,2.35,0.49s-1.75-11.88,0-6.84s3.34,5.53,3.34,5.53
	c0.16,0.08,0.31,0.15,0.45,0.2"/>
<path class="st13" d="M304.08,621.5c0,0-2.06,4.47-1.91-0.31s2.21-7.52,2.21-7.52s4.73-2,4.78-7.54s0.78-8.53-2.42-10.32
	c0,0-6.27-1.13-8.95-2.27c-2.68-1.14-5.84,0.43-5.84,0.43s-3.94,2.72-5.57,6.12c-1.63,3.4-1.3,4.34-1.3,4.34s-4.54,4.62-1.72,9.89
	c0,0,0.62,2.39,4.63,4.92c0,0,3.09,3.17,3.26,4.27c0.17,1.1,0.51,0.84,0.51,0.84s0.99-2.35,0.19-4.09c-0.81-1.74,0.8-0.59,0.8-0.59
	l2.13,6.86c0,0,1.12,2.2,1.61-0.44s0.7-7.34,0.7-7.34s1.52-4.21,1.91,0.07s-1.03,10.41-1.03,10.41s-0.73,4.91,1.58,1.64
	c0,0,3.23-6.63,5.26-6.5c2.03,0.13,1.4,1.97,1.4,1.97l-4.62,4.96c0,0-2.31,4.04,1.64,1.71c0,0,3.57-3.87,9.6-4.31
	s2.48,3.49,2.48,3.49s-6.63-0.82-8.81,2.2c0,0-3.62,2.11-0.59,3.14c0,0,2.33,0.01,3.22-0.21s10.09,2.05,10.09,2.05
	s4.22,3.83,7.64,1.91c3.42-1.92,5.66-6.34,5.66-6.34s3.08-7.19-1.67-12.1c-4.74-4.92-3.69-7.17-3.69-7.17s0.36-4.93-8.82-5.21
	C309.26,610.16,304.08,621.5,304.08,621.5z"/>
<path class="st13" d="M320.82,653.17c0,0,2.76-6.39-2.85-9.38c-5.61-2.98-8.79-2.88-8.79-2.88s-9.87-0.93-11.29,1.12
	c-1.42,2.06,5.55,2.17,5.55,2.17l0.26,0.04c0,0,3.71,0.91-0.88,2.93l-1.73-0.28c0,0-5.4-0.84-2.84,2.12s6.66,5.76,6.66,5.76
	s6.36,5.24,0.87,4.88c-5.49-0.36-7.73-7.2-7.73-7.2s-3-5.57-1.77,2c1.23,7.56,1.87,8.28,0.44,9.22c-1.43,0.95-3-6.62-3-6.62
	s1.36-6.78-0.83-6.78c-2.19,0-2.1,8.3-2.1,8.3l-1.37,9.09c0,0-0.5,9.97,5.48,13.15c5.98,3.18,6.48,2.17,10.23-1.09
	c0,0,7.9,5.31,14.14-5.4c6.24-10.71,4.31-17.31,4.31-17.31s-0.97-2.99-2.27-3.19c-0.02,0-0.05-0.01-0.07-0.01L320.82,653.17z"/>
<path class="st14" d="M298.25,464.35c3.37,8.5,1.5,12.2,1.5,12.2s-3.39,7.02-10.94,0.7l-0.28-0.25c0,0-13.56-0.21-1.6,2.54
	s6.76,15.83,6.76,15.83s7.91,16.59-9.95,17.21l-0.32,0.07c0,0-14.02,8.13-13.77-11.15l-0.14-0.36c0,0-3.31-9.19-3.48-15.83
	c-0.17-6.63,2.22-0.6,2.22-0.6l2.47,7.14c3.04,3.87,2.4-0.02,2.4-0.02s-4.26-11.23-1.47-6.68s4.45,4.68,4.45,4.68
	c4.04,1.02-1.64-4.4-1.64-4.4c-3.36-4.31,3.7-0.25,3.7-0.25c6.57,5.9,5.15-0.85,5.15-0.85s-3.29-4.71-10.14-4.5
	c-6.85,0.22,3.09-5.84,3.09-5.84c7.92-1.18,6.58-1.95,6.58-1.95s0.43-4.69-6.71-1.72c-7.14,2.97-1.23-3.04-1.23-3.04
	s5.63-0.4,5.67-4.05c0.04-3.65-8.47,1.75-8.47,1.75c-6.37,6.73-0.78-3.53-0.78-3.53s1.11-1.91,2.84-3.84"/>
<path class="st14" d="M274.91,612.31c21.05,13.27,20.28,30.04,20.28,30.04s-1.2,6.15-3.96,0.42c0,0-0.13-19.56-18.55-29.5
	c0,0,1.6,7.93-3.74,6.74c0,0-3.01,0.68-0.87-5.91c0,0-4.53,7.01-6.92,2.38c-2.39-4.63,5.06-7.12,5.06-7.12s-6.51-2.01-4.4-5.92
	c2.1-3.91,6.25-0.63,6.25-0.63l1.7,2.45c0,0,0.85-8.62,4.78-4.09c3.93,4.52-0.8,5.6-0.8,5.6s4.04-2.02,4.51,1.4
	s-3.01,3.93-3.01,3.93L274.91,612.31z"/>
<path class="st14" d="M273.18,680.63c0,0,14.77,6.67,12.58-12.49l0.1-0.37c0,0,2.36-9.48,1.86-16.1c-0.5-6.62-2.27-0.37-2.27-0.37
	l-1.73,7.35c-2.63,4.16-2.39,0.22-2.39,0.22s3.11-11.6,0.79-6.8s-3.95,5.11-3.95,5.11c-3.91,1.42,1.19-4.55,1.19-4.55
	c2.9-4.62-3.71,0.12-3.71,0.12c-5.94,6.53-5.21-0.33-5.21-0.33s2.8-5.02,9.63-5.5c6.83-0.48-3.66-5.49-3.66-5.49
	c-8-0.37-6.74-1.28-6.74-1.28s-0.9-4.62,6.5-2.39c7.4,2.23,0.91-3.15,0.91-3.15s-5.64,0.17-6.05-3.45c-0.41-3.63,8.6,0.89,8.6,0.89
	c7.02,6.05,0.42-3.59,0.42-3.59s-6.66-9.15-12.06-6.3s-6.73,2.42-6.73,2.42s-4.97,0.13-7.62,9.17s-0.36,12.61-0.36,12.61
	s4.08,6.64,10.96-0.42l0.25-0.27c0,0,13.47-1.58,1.85,2.36s-5.13,16.44-5.13,16.44s-6.19,17.3,11.64,16.11L273.18,680.63z"/>
<path class="st13" d="M255.64,452.9c0.11,0.02-0.01,0.24-0.01,0.37c-0.11,4.3,1.71,10.32,1.71,10.32s1.05,4.85-1.47,1.74
	c0,0-3.65-6.4-5.67-6.14c-2.02,0.26-1.27,2.05-1.27,2.05l4.93,4.65c0,0,2.57,3.88-1.53,1.81c0,0-3.82-3.63-9.86-3.67
	c-6.04-0.04-2.25,3.65-2.25,3.65s6.56-1.26,8.93,1.62c0,0,3.75,1.87,0.79,3.09c0,0-2.32,0.16-3.22,0c-0.9-0.17-9.94,2.71-9.94,2.71
	s-3.96,4.1-7.5,2.41c-3.54-1.69-6.06-5.96-6.06-5.96s-3.54-6.97,0.87-12.19c2.4-2.84,3.14-4.78,3.32-5.96
	C227.43,453.4,232.36,448.13,255.64,452.9z"/>
<path class="st13" d="M261.83,454.49l-1.49,6.19c0,0-0.97,2.27-1.63-0.33c-0.52-2.06-0.96-5.43-1.11-6.73"/>
<path class="st13" d="M250.65,478.09c0,0-3.64,1.15,1.07,2.87l1.71-0.39c0,0,5.33-1.19,2.97,1.92s-6.27,6.18-6.27,6.18
	s-6,5.64-0.54,4.93c5.45-0.71,7.24-7.69,7.24-7.69s2.63-5.75,1.9,1.88c-0.73,7.63-1.32,8.38,0.17,9.23c1.49,0.85,2.56-6.8,2.56-6.8
	s-1.8-6.68,0.39-6.82c2.19-0.14,2.64,8.14,2.64,8.14l1.97,8.98c0,0,1.16,9.92-4.61,13.48s-6.33,2.59-10.28-0.42
	c0,0-7.53,5.82-14.46-4.46c-6.93-10.28-5.43-16.99-5.43-16.99s0.78-3.04,2.05-3.33c0.02,0,0.04-0.01,0.07-0.01l-0.16-0.38
	c0,0-2.66-6.51,2.75-9.85c5.41-3.34,8.59-3.45,8.59-3.45s9.79-1.58,11.34,0.38s-5.4,2.53-5.4,2.53L250.65,478.09z"/>
<path class="st14" d="M267.36,455.48c-8.04,10.13-7.56,19.18-7.56,19.18s1.25,6.14,3.97,0.39c0,0-0.02-9.59,6.28-18.81"/>
<path class="st15" d="M265.27,455.05c3.03,0.73,6.08,1.52,9.1,2.33"/>
<path class="st15" d="M257.59,453.3c2.51,0.53,5.08,1.12,7.68,1.75"/>
<path class="st13" d="M208.24,554.74c1.31,1.13,2.35,2.09,2.35,2.09s4.04,1.93,1.31-1.39c-1-1.22-2.35-2.45-3.66-3.51"/>
<path class="st13" d="M207.42,533.53c1.73-2.49,4.44-6.92,4.44-6.92s0.31-5.69,4.09-6.73s8.48,0.54,8.48,0.54s7.24,2.96,7.32,9.79
	c0.08,6.83,2.41,7.69,2.41,7.69s3.72,3.26-2.62,9.9c-6.34,6.65-17.99,2.21-17.99,2.21s-4.61-1.73-1.14,1.56s6.85,3.8,6.85,3.8
	s4.77-1.9,8.7,2.01s6.54,5.52,5.53,9.05c0,0-3.66,5.21-4.77,7.9c-1.11,2.69-4.46,3.79-4.46,3.79s-4.72,0.83-8.26-0.45
	c-3.54-1.27-3.97-2.17-3.97-2.17s-1.74-0.03-3.66-0.85"/>
<path class="st16" d="M207.63,542.12c1.94-0.37,4.66-1.27,7.18-3.42c4.6-3.92-0.69-4.23-0.69-4.23s-3.13,3.96-6.36,4.59"/>
<path class="st16" d="M208.12,547.65c1.71,0.33,3.41,0.44,4.01-0.24c1.36-1.52-0.39-2.38-0.39-2.38l-3.69-0.16"/>
<path class="st13" d="M204.49,510.2c0.07,0.1,0.1,0.16,0.1,0.16s1.4,2.81,0.63,3.86c-0.01,0.02-0.03,0.04-0.04,0.05l0.37,0.18
	c0,0,6.27,3.18,4.37,9.25c-1.05,3.35-2.23,5.5-3.08,6.76"/>
<path class="st13" d="M199.77,667.28c0.33,0.07,0.91-0.18,1.9-1.01c0,0,2.9-4.4,8.78-5.8s3.01,3.05,3.01,3.05s-6.68,0.26-8.34,3.59
	c0,0-3.23,2.66-0.07,3.19c0,0,2.3-0.36,3.14-0.73c0.84-0.36,10.29,0.4,10.29,0.4s4.78,3.1,7.85,0.66c3.07-2.45,4.56-7.17,4.56-7.17
	s1.88-7.59-3.59-11.68c-5.47-4.09-4.8-6.48-4.8-6.48s-0.44-4.93-9.54-3.72c-5.12,0.68-8.4,4.78-10.29,8.24"/>
<path class="st16" d="M201.34,657.68c0.17-0.1,0.33-0.16,0.5-0.18c2.03-0.2,1.7,1.72,1.7,1.72l-3.36,5.04"/>
<polyline class="st6" points="300.62,455.82 249.93,435.94 249.93,429.68 300.62,432.88 300.62,435.21 300.62,455.82 "/>
<path class="st13" d="M228.17,689.11c-0.26-2.43-0.86-3.68-0.86-3.68s-1.44-2.79-2.75-2.78c-0.02,0-0.05,0-0.07,0l0.07-0.41
	c0,0,1.12-6.94-4.9-8.98c-6.02-2.04-9.14-1.42-9.14-1.42s-9.89,0.67-10.96,2.93s5.83,1.25,5.83,1.25h0.26c0,0,3.8,0.3-0.4,3.04
	h-1.75c0,0-5.46,0.04-2.46,2.55c3,2.5,7.5,4.61,7.5,4.61s1.13,0.66,2.14,1.48"/>
<path class="st16" d="M208.24,554.74c1.31,1.13,2.35,2.09,2.35,2.09s4.04,1.93,1.31-1.39c-1-1.22-2.35-2.45-3.66-3.51"/>
<path class="st15" d="M274.37,457.38c18.87,5.06,36.34,11.08,36.34,11.08c-0.01,1.14,40.58,41.01,32.28,69.15
	c-8.31,28.14-1.29,152.44-1.29,152.44s-139.79,2.72-142.83-5.6s7.84-53.66,7.84-53.66s4.24-90.11-1.17-108.68
	c-5.41-18.57,10.41-66.51,26.2-70.97c5.02-1.41,14.82-0.18,25.85,2.15"/>
<path class="st11" d="M321.97,689.6c0.03-4.51-0.17-9.87-0.37-14.1c-0.4-8.48,5.23-12.21,5.23-12.21l20.34,0.24
	c0,0,12.73,7.41,12.73,26.29c0,18.87-16.18,24.51-16.18,24.51l-0.28,0.11c-6.4,6.89-14.71,0.95-14.71,0.95s-1.35-0.93-1.63-2.19
	l-0.41,0c-4.26,0.03-8.45-1.02-11.1-6.21l-0.12-0.2c-2.13-0.99-3.84-3.06-4.16-7.02c-0.97-11.89,10.11-10.23,10.11-10.23
	L321.97,689.6z"/>
<path class="st12" d="M315.48,706.79c4.26,1.98,10.21-0.33,10.21-0.33s6.87-3.2,10.03-20.88"/>
<path class="st12" d="M326.7,713.2c5.48-0.04,10.65-2.69,11.33-3.51c0,0,5.58-4.62,8.65-18.77"/>
<path class="st12" d="M355.24,690.93c0,0-4.42,13.95-10.91,22.46c-0.29,0.38-0.59,0.73-0.89,1.05"/>
<path class="st7" d="M234.67,451.15c-1.81,0.61,1.94-4.33,1.94-4.33s-0.34-5.58,2.05-11.73s24.04,1.41,24.04,1.41
	s57.65,23.66,51.15,29.13l-7.18,8.98c0,0-0.46,1.74-5.35-2.42S252.33,445.22,234.67,451.15z"/>
<path class="st9" d="M270.45,786.59c0,0,1.82,16.75,37.81,17.47"/>
<path class="st6" d="M281.55,557.81c0.66,22.65,3.36,47.15,11.16,59.72l-0.08,0.91l-0.11,0.59c0,0-2.39,33.24,20.93,45.07
	l40.19-6.13c18.73-18.25,6.54-49.26,6.54-49.26l0.01-0.36c0.17-23.78-19.63-60.26-19.63-60.26"/>
<path class="st6" d="M351.53,664.91l-33.17,5.06c-1.16,0.18-2.24-0.62-2.41-1.77l-0.37-2.41c-0.18-1.16,0.62-2.24,1.77-2.41
	l33.17-5.06c1.16-0.18,2.24,0.62,2.41,1.77l0.37,2.41C353.48,663.65,352.69,664.73,351.53,664.91z"/>
<path class="st7" d="M337.06,497.54c0,0-19.77-34.39-55.94-11.66c0,0-21.51,10.86-11.56,45.83l4.64,34.4
	c-0.05-3.87,55.17-17.98,75.13-11.59C349.33,554.52,344.26,502.43,337.06,497.54z"/>
<path class="st8" d="M489.01,714.33"/>
<polygon class="st17" points="234.27,443.38 322.28,432.6 318.57,403.43 230.56,414.2 "/>
<path class="st11" d="M271.81,425.36"/>
<path class="st18" d="M269.31,365.51"/>
<path class="st18" d="M269.31,365.51"/>
<path class="st11" d="M327.75,427.61l-2.95-24.6l-0.04-0.09l-2.31-19.5c-0.17-1.46-0.5-2.87-0.91-4.25l-0.34-1.28
	c0,0-12.78-38.78-52.34-33.94l0.23-0.03c-39.56,4.84-42.8,45.58-42.8,45.58l-0.01,0.62c-0.11,1.67-0.09,3.35,0.11,5.05l2.35,19.59
	l2.95,24.6"/>
<path class="st11" d="M281.02,444.2c-28.08,3.02-40.05,2.03-45.16,1.39c-4.1-0.52-3.77-3-3.77-3l-0.39-3.23
	c0,0,17.26,2.34,48.06-1.76l0.92-0.11c30.88-3.45,47.08-9.88,47.08-9.88l0.39,3.23c0,0,0.9,2.33-2.96,3.82
	c-4.81,1.86-16.21,5.71-44.19,9.54"/>
<path class="st11" d="M326.09,413.94c-15.5-1.99-19.87-6.57-20.31-8.9l-2.94-18.76c-1.42-9.04,1.84-17.87,8.5-25.13
	c0.48-1.49-1.38-1.97-1.38-1.97c-7.74,8.08-11.71,17.98-10.15,27.96l3.17,20.25c0,0,3.78,7.47,23.39,9.33
	C326.64,417.02,327.58,414.14,326.09,413.94z"/>
<path class="st19" d="M326.09,413.94c-15.5-1.99-19.87-6.57-20.31-8.9l-2.94-18.76c-1.42-9.04,1.84-17.87,8.5-25.13l0.29-0.01
	c6.85,8.44,9.59,16.74,9.59,16.74l0.34,1.28c0.41,1.38,0.73,2.79,0.91,4.25l2.31,19.5l0.04,0.09l1.64,13.71"/>
<path class="st20" d="M226.3,389.49l-0.01,0.62c-0.11,1.67-0.09,3.35,0.11,5.05l2.35,19.59l2.95,24.6"/>
<g>
	<g>
		<path class="st21" d="M176.64,675.31c3.22,0,3.22-5,0-5C173.42,670.31,173.42,675.31,176.64,675.31L176.64,675.31z"/>
	</g>
</g>
<g>
	<g>
		<path class="st21" d="M179.49,667.18c3.22,0,3.22-5,0-5C176.28,662.18,176.27,667.18,179.49,667.18L179.49,667.18z"/>
	</g>
</g>
<path class="st22" d="M183.69,685.69l-27.92,89.11l-8.63-2.71l27.92-89.11l1.36-4.27l1.42-4.52c0.51-1.62-0.95-3.53-3.27-4.25
	l-19.8-6.21c-2.31-0.72-4.6,0-5.11,1.63l-1.42,4.52l-1.52,4.54l-27.72,88.46l-8.63-2.71l27.72-88.46l0.42-1.52l3.42-10.93
	c1.15-3.66,4.97-5.72,8.53-4.6l32.65,10.23c3.56,1.12,5.52,4.99,4.38,8.65l-3.42,10.93L183.69,685.69z"/>
<path class="st23" d="M177.84,674.2c0.51-1.62-0.95-3.53-3.27-4.25"/>
<path class="st11" d="M187.39,668.69c0-1.34-0.11-2.89-0.36-4.69c-2.04-14.47-4.26-15.32-4.26-15.32l-27.74-2.21
	c0,0-14.04,10.47-8.94,23.36l0.85,1.83c1.83,7.02,5.82,6.72,5.82,6.72s4.91,5.92,7.93,4.73l0-0.17c4.96,4.39,9.7,4.12,13.73,1.7
	l3.07-9.4l-0.61-0.35c-4.41-6.27-0.76-10.23,1.06-11.67c0.51-0.41,0.88-0.61,0.88-0.61"/>
<path class="st12" d="M170.15,686.44c0.94-0.08,1.48-0.59,1.8-1.18c0.47-0.87,0.15-1.95-0.7-2.46c-2.22-1.33-6.98-5.01-7.92-12.59"
	/>
<path class="st12" d="M160.76,682.95c1,1.06,2.15,1.93,3.49,2.45c1.64,0.64,2.74,0.84,3.46,0.78"/>
<path class="st12" d="M156.05,671.45c0,0,1.35,7.73,5.48,12.14"/>
<path class="st12" d="M152.14,671.02c0,0,0.81,6.22,1.51,8"/>
<line class="st24" x1="119.01" y1="762.89" x2="110.37" y2="760.18"/>
<polyline class="st23" points="173.75,686.98 176.42,678.72 177.84,674.2 "/>
<path class="st22" d="M178.85,663.6l4.26,1.31c3.56,1.12,5.52,4.99,4.38,8.65"/>
<path class="st6" d="M186.18,651.76l-33.11-5.4c-1.15-0.19-1.94-1.28-1.75-2.43l0.39-2.41c0.19-1.15,1.28-1.94,2.43-1.75l33.11,5.4
	c1.15,0.19,1.94,1.28,1.75,2.43l-0.39,2.41C188.42,651.17,187.33,651.95,186.18,651.76z"/>
<path class="st25" d="M127.68,933.47l-80.81-24.99c-13.81-4.27-21.54-18.93-17.27-32.74l37.65-121.77
	c4.27-13.81,18.93-21.54,32.74-17.27l80.81,24.99c13.81,4.27,21.54,18.93,17.27,32.74L160.42,916.2
	C156.15,930.01,141.49,937.74,127.68,933.47z"/>
<path class="st26" d="M122.01,925.53l-80.82-24.99c-13.81-4.27-21.54-18.93-17.27-32.74l37.65-121.77
	c4.27-13.81,18.93-21.54,32.74-17.27l80.82,24.99c13.81,4.27,21.54,18.93,17.27,32.74l-37.65,121.77
	C150.48,922.06,135.82,929.8,122.01,925.53z"/>
<circle class="st27" cx="38.89" cy="916.07" r="11.73"/>
<circle class="st1" cx="38.89" cy="916.07" r="3.56"/>
<circle class="st27" cx="132.3" cy="944.05" r="11.73"/>
<circle class="st1" cx="132.3" cy="944.05" r="3.56"/>
<circle class="st27" cx="117.01" cy="938.75" r="11.73"/>
<circle class="st1" cx="117.01" cy="938.75" r="3.56"/>
<circle class="st27" cx="24.12" cy="904.94" r="11.73"/>
<circle class="st1" cx="24.12" cy="904.94" r="3.56"/>
</svg>
