<?xml version="1.0" encoding="utf-8"?>
<!-- Generator: Adobe Illustrator 27.1.1, SVG Export Plug-In . SVG Version: 6.00 Build 0)  -->
<svg version="1.1" id="Layer_1" xmlns="http://www.w3.org/2000/svg" xmlns:xlink="http://www.w3.org/1999/xlink" x="0px" y="0px"
	 viewBox="0 0 1080 1080" style="enable-background:new 0 0 1080 1080;" xml:space="preserve">
<style type="text/css">
	.st0{fill:#984C1E;}
	.st1{fill:#B35923;}
	.st2{fill:#C26024;}
	.st3{fill:#FFF1E7;}
	.st4{fill:#D23C27;stroke:#A53A23;stroke-width:4;stroke-miterlimit:10;}
	.st5{fill:#EFE8CC;stroke:#B5956A;stroke-width:4;stroke-miterlimit:10;}
	.st6{fill:#EFE8CC;stroke:#B5956A;stroke-width:4;stroke-linecap:round;stroke-linejoin:round;stroke-miterlimit:10;}
	.st7{fill:none;stroke:#3D52A4;stroke-linecap:round;stroke-linejoin:round;stroke-miterlimit:10;}
	.st8{fill:#EFE8CC;stroke:#B5956A;stroke-linecap:round;stroke-linejoin:round;stroke-miterlimit:10;}
	.st9{fill:#EFE8CC;stroke:#EFE8CC;stroke-miterlimit:10;}
	.st10{fill:none;stroke:#A8A694;stroke-miterlimit:10;}
	.st11{fill:none;stroke:#A5391D;stroke-miterlimit:10;}
	.st12{fill:#EFE8CC;stroke:#B1AE9C;stroke-width:4;stroke-miterlimit:10;}
	.st13{fill:#DC7038;stroke:#A5391D;stroke-miterlimit:10;}
	.st14{fill:#D23C27;stroke:#A53A23;stroke-miterlimit:10;}
	.st15{fill:#EFE8CC;stroke:#EFE8CC;stroke-width:4;stroke-linecap:round;stroke-linejoin:round;stroke-miterlimit:10;}
	.st16{fill:none;stroke:#A5391D;stroke-width:4;stroke-miterlimit:10;}
	.st17{fill:#2B190D;}
	.st18{fill:#EFE8CC;stroke:#B1AE9C;stroke-width:4;stroke-linecap:round;stroke-linejoin:round;stroke-miterlimit:10;}
	.st19{fill:#DC7038;stroke:#AA5626;stroke-width:4;stroke-linecap:round;stroke-linejoin:round;stroke-miterlimit:10;}
	.st20{fill:none;stroke:#AA5517;stroke-width:4;stroke-miterlimit:10;}
	.st21{fill:none;stroke:#AA5517;stroke-width:4;stroke-linecap:round;stroke-linejoin:round;stroke-miterlimit:10;}
	.st22{fill:#DC7038;stroke:#AA5626;stroke-width:4;stroke-miterlimit:10;}
	.st23{fill:none;stroke:#FFF1E7;stroke-width:35;stroke-miterlimit:10;}
</style>
<path class="st0" d="M944.97,362.35H151.85V144.92c0-26.55,21.52-48.06,48.06-48.06h693.08c28.71,0,51.98,23.27,51.98,51.98V362.35z
	"/>
<rect x="151.85" y="362.35" class="st1" width="793.13" height="279.82"/>
<rect x="151.85" y="639.54" class="st2" width="793.13" height="260.93"/>
<g>
	<g>
		<path class="st3" d="M755.54,277.65c3.22,0,3.22-5,0-5C752.33,272.65,752.32,277.65,755.54,277.65L755.54,277.65z"/>
	</g>
</g>
<g>
	<g>
		<path class="st3" d="M818.66,550.33c3.22,0,3.22-5,0-5C815.45,545.33,815.44,550.33,818.66,550.33L818.66,550.33z"/>
	</g>
</g>
<g>
	<g>
		<path class="st3" d="M294.78,501.31c3.22,0,3.22-5,0-5C291.56,496.31,291.55,501.31,294.78,501.31L294.78,501.31z"/>
	</g>
</g>
<g>
	<g>
		<path class="st3" d="M316.87,289.9c3.22,0,3.22-5,0-5C313.65,284.9,313.65,289.9,316.87,289.9L316.87,289.9z"/>
	</g>
</g>
<g>
	<g>
		<path class="st3" d="M398.92,507.44c3.22,0,3.22-5,0-5C395.71,502.44,395.7,507.44,398.92,507.44L398.92,507.44z"/>
	</g>
</g>
<g>
	<g>
		<path class="st3" d="M291.62,721.9c3.22,0,3.22-5,0-5C288.4,716.9,288.4,721.9,291.62,721.9L291.62,721.9z"/>
	</g>
</g>
<g>
	<g>
		<path class="st3" d="M856.53,654.5c3.22,0,3.22-5,0-5C853.32,649.5,853.31,654.5,856.53,654.5L856.53,654.5z"/>
	</g>
</g>
<g>
	<g>
		<path class="st3" d="M862.85,415.52c3.22,0,3.22-5,0-5C859.63,410.52,859.62,415.52,862.85,415.52L862.85,415.52z"/>
	</g>
</g>
<g>
	<g>
		<path class="st3" d="M723.98,455.35c3.22,0,3.22-5,0-5C720.77,450.35,720.76,455.35,723.98,455.35L723.98,455.35z"/>
	</g>
</g>
<g>
	<g>
		<path class="st3" d="M714.52,299.09c3.22,0,3.22-5,0-5C711.3,294.09,711.29,299.09,714.52,299.09L714.52,299.09z"/>
	</g>
</g>
<g>
	<g>
		<path class="st3" d="M600.9,403.27c3.22,0,3.22-5,0-5C597.69,398.27,597.68,403.27,600.9,403.27L600.9,403.27z"/>
	</g>
</g>
<g>
	<g>
		<path class="st3" d="M354.74,409.39c3.22,0,3.22-5,0-5C351.52,404.39,351.52,409.39,354.74,409.39L354.74,409.39z"/>
	</g>
</g>
<g>
	<g>
		<path class="st3" d="M272.68,170.41c3.22,0,3.22-5,0-5C269.47,165.41,269.46,170.41,272.68,170.41L272.68,170.41z"/>
	</g>
</g>
<g>
	<g>
		<path class="st3" d="M537.78,139.78c3.22,0,3.22-5,0-5C534.57,134.78,534.56,139.78,537.78,139.78L537.78,139.78z"/>
	</g>
</g>
<g>
	<g>
		<path class="st3" d="M250.59,381.82c3.22,0,3.22-5,0-5C247.38,376.82,247.37,381.82,250.59,381.82L250.59,381.82z"/>
	</g>
</g>
<g>
	<g>
		<path class="st3" d="M607.21,691.27c3.22,0,3.22-5,0-5C604,686.27,603.99,691.27,607.21,691.27L607.21,691.27z"/>
	</g>
</g>
<g>
	<g>
		<path class="st3" d="M872.31,712.71c3.22,0,3.22-5,0-5C869.1,707.71,869.09,712.71,872.31,712.71L872.31,712.71z"/>
	</g>
</g>
<g>
	<g>
		<path class="st3" d="M790.26,256.2c3.22,0,3.22-5,0-5C787.04,251.2,787.04,256.2,790.26,256.2L790.26,256.2z"/>
	</g>
</g>
<g>
	<g>
		<path class="st3" d="M490.44,231.69c3.22,0,3.22-5,0-5C487.23,226.69,487.22,231.69,490.44,231.69L490.44,231.69z"/>
	</g>
</g>
<g>
	<g>
		<path class="st3" d="M607.21,247.01c3.22,0,3.22-5,0-5C604,242.01,603.99,247.01,607.21,247.01L607.21,247.01z"/>
	</g>
</g>
<g>
	<g>
		<path class="st3" d="M439.95,323.61c3.22,0,3.22-5,0-5C436.73,318.61,436.73,323.61,439.95,323.61L439.95,323.61z"/>
	</g>
</g>
<g>
	<g>
		<path class="st3" d="M337.38,103.01c3.22,0,3.22-5,0-5C334.16,98.01,334.16,103.01,337.38,103.01L337.38,103.01z"/>
	</g>
</g>
<g>
	<g>
		<path class="st3" d="M171.43,185.48c3.22,0,3.22-5,0-5C168.21,180.48,168.21,185.48,171.43,185.48L171.43,185.48z"/>
	</g>
</g>
<g>
	<g>
		<path class="st3" d="M821.82,770.92c3.22,0,3.22-5,0-5C818.6,765.92,818.6,770.92,821.82,770.92L821.82,770.92z"/>
	</g>
</g>
<g>
	<g>
		<path class="st3" d="M272.68,660.63c3.22,0,3.22-5,0-5C269.47,655.63,269.46,660.63,272.68,660.63L272.68,660.63z"/>
	</g>
</g>
<g>
	<g>
		<path class="st3" d="M196.94,308.29c3.22,0,3.22-5,0-5C193.72,303.29,193.72,308.29,196.94,308.29L196.94,308.29z"/>
	</g>
</g>
<g>
	<g>
		<path class="st3" d="M304.24,403.27c3.22,0,3.22-5,0-5C301.03,398.27,301.02,403.27,304.24,403.27L304.24,403.27z"/>
	</g>
</g>
<g>
	<g>
		<path class="st3" d="M241.12,626.92c3.22,0,3.22-5,0-5C237.91,621.92,237.9,626.92,241.12,626.92L241.12,626.92z"/>
	</g>
</g>
<g>
	<g>
		<path class="st3" d="M389.45,697.39c3.22,0,3.22-5,0-5C386.24,692.39,386.23,697.39,389.45,697.39L389.45,697.39z"/>
	</g>
</g>
<g>
	<g>
		<path class="st3" d="M354.74,556.46c3.22,0,3.22-5,0-5C351.52,551.46,351.52,556.46,354.74,556.46L354.74,556.46z"/>
	</g>
</g>
<g>
	<g>
		<path class="st3" d="M294.78,590.16c3.22,0,3.22-5,0-5C291.56,585.16,291.55,590.16,294.78,590.16L294.78,590.16z"/>
	</g>
</g>
<g>
	<g>
		<path class="st3" d="M338.96,250.07c3.22,0,3.22-5,0-5C335.74,245.07,335.74,250.07,338.96,250.07L338.96,250.07z"/>
	</g>
</g>
<g>
	<g>
		<path class="st3" d="M269.53,464.54c3.22,0,3.22-5,0-5C266.31,459.54,266.31,464.54,269.53,464.54L269.53,464.54z"/>
	</g>
</g>
<g>
	<g>
		<path class="st3" d="M731.87,361.9c3.22,0,3.22-5,0-5C728.66,356.9,728.65,361.9,731.87,361.9L731.87,361.9z"/>
	</g>
</g>
<g>
	<g>
		<path class="st3" d="M839.18,296.03c3.22,0,3.22-5,0-5C835.96,291.03,835.95,296.03,839.18,296.03L839.18,296.03z"/>
	</g>
</g>
<g>
	<g>
		<path class="st3" d="M672.66,171.22c3.22,0,3.22-5,0-5C669.44,166.22,669.43,171.22,672.66,171.22L672.66,171.22z"/>
	</g>
</g>
<g>
	<g>
		<path class="st3" d="M620.31,101.22c3.22,0,3.22-5,0-5C617.09,96.22,617.09,101.22,620.31,101.22L620.31,101.22z"/>
	</g>
</g>
<g>
	<g>
		<path class="st3" d="M495.7,489.56c3.22,0,3.22-5,0-5C492.49,484.56,492.48,489.56,495.7,489.56L495.7,489.56z"/>
	</g>
</g>
<g>
	<g>
		<path class="st3" d="M467.3,379.27c3.22,0,3.22-5,0-5C464.08,374.27,464.08,379.27,467.3,379.27L467.3,379.27z"/>
	</g>
</g>
<g>
	<g>
		<path class="st3" d="M552.51,333.31c3.22,0,3.22-5,0-5C549.29,328.31,549.29,333.31,552.51,333.31L552.51,333.31z"/>
	</g>
</g>
<g>
	<g>
		<path class="st3" d="M549.36,475.78c3.22,0,3.22-5,0-5C546.14,470.78,546.13,475.78,549.36,475.78L549.36,475.78z"/>
	</g>
</g>
<g>
	<g>
		<path class="st3" d="M647.19,481.9c3.22,0,3.22-5,0-5C643.97,476.9,643.97,481.9,647.19,481.9L647.19,481.9z"/>
	</g>
</g>
<g>
	<g>
		<path class="st3" d="M699.26,563.09c3.22,0,3.22-5,0-5C696.05,558.09,696.04,563.09,699.26,563.09L699.26,563.09z"/>
	</g>
</g>
<g>
	<g>
		<path class="st3" d="M795.52,480.37c3.22,0,3.22-5,0-5C792.3,475.37,792.3,480.37,795.52,480.37L795.52,480.37z"/>
	</g>
</g>
<g>
	<g>
		<path class="st3" d="M871.26,584.54c3.22,0,3.22-5,0-5C868.05,579.54,868.04,584.54,871.26,584.54L871.26,584.54z"/>
	</g>
</g>
<g>
	<g>
		<path class="st3" d="M922.98,593.73c3.22,0,3.22-5,0-5C919.76,588.73,919.76,593.73,922.98,593.73L922.98,593.73z"/>
	</g>
</g>
<g>
	<g>
		<path class="st3" d="M890.2,463.52c3.22,0,3.22-5,0-5C886.98,458.52,886.98,463.52,890.2,463.52L890.2,463.52z"/>
	</g>
</g>
<g>
	<g>
		<path class="st3" d="M915.08,377.73c3.22,0,3.22-5,0-5C911.87,372.73,911.86,377.73,915.08,377.73L915.08,377.73z"/>
	</g>
</g>
<g>
	<g>
		<path class="st3" d="M900.87,267.44c3.22,0,3.22-5,0-5C897.66,262.44,897.65,267.44,900.87,267.44L900.87,267.44z"/>
	</g>
</g>
<g>
	<g>
		<path class="st3" d="M803.41,170.92c3.22,0,3.22-5,0-5C800.19,165.92,800.19,170.92,803.41,170.92L803.41,170.92z"/>
	</g>
</g>
<g>
	<g>
		<path class="st3" d="M842.86,131.09c3.22,0,3.22-5,0-5C839.64,126.09,839.64,131.09,842.86,131.09L842.86,131.09z"/>
	</g>
</g>
<g>
	<g>
		<path class="st3" d="M927.8,213.35c3.22,0,3.22-5,0-5C924.59,208.35,924.58,213.35,927.8,213.35L927.8,213.35z"/>
	</g>
</g>
<g>
	<g>
		<path class="st3" d="M898.09,233.73c3.22,0,3.22-5,0-5C894.87,228.73,894.87,233.73,898.09,233.73L898.09,233.73z"/>
	</g>
</g>
<g>
	<g>
		<path class="st3" d="M574.6,218.41c3.22,0,3.22-5,0-5C571.39,213.41,571.38,218.41,574.6,218.41L574.6,218.41z"/>
	</g>
</g>
<g>
	<g>
		<path class="st3" d="M675.59,204.63c3.22,0,3.22-5,0-5C672.38,199.63,672.37,204.63,675.59,204.63L675.59,204.63z"/>
	</g>
</g>
<g>
	<g>
		<path class="st3" d="M591.96,192.37c3.22,0,3.22-5,0-5C588.74,187.37,588.74,192.37,591.96,192.37L591.96,192.37z"/>
	</g>
</g>
<g>
	<g>
		<path class="st3" d="M396.29,166.33c3.22,0,3.22-5,0-5C393.08,161.33,393.07,166.33,396.29,166.33L396.29,166.33z"/>
	</g>
</g>
<g>
	<g>
		<path class="st3" d="M323.71,229.14c3.22,0,3.22-5,0-5C320.49,224.14,320.48,229.14,323.71,229.14L323.71,229.14z"/>
	</g>
</g>
<g>
	<g>
		<path class="st3" d="M265.32,226.07c3.22,0,3.22-5,0-5C262.1,221.07,262.1,226.07,265.32,226.07L265.32,226.07z"/>
	</g>
</g>
<g>
	<g>
		<path class="st3" d="M202.2,203.09c3.22,0,3.22-5,0-5C198.98,198.09,198.98,203.09,202.2,203.09L202.2,203.09z"/>
	</g>
</g>
<g>
	<g>
		<path class="st3" d="M243.23,121.9c3.22,0,3.22-5,0-5C240.01,116.9,240.01,121.9,243.23,121.9L243.23,121.9z"/>
	</g>
</g>
<g>
	<g>
		<path class="st3" d="M468.88,587.61c3.22,0,3.22-5,0-5C465.66,582.61,465.66,587.61,468.88,587.61L468.88,587.61z"/>
	</g>
</g>
<g>
	<g>
		<path class="st3" d="M632.99,523.27c3.22,0,3.22-5,0-5C629.77,518.27,629.77,523.27,632.99,523.27L632.99,523.27z"/>
	</g>
</g>
<g>
	<g>
		<path class="st3" d="M584.07,673.39c3.22,0,3.22-5,0-5C580.85,668.39,580.85,673.39,584.07,673.39L584.07,673.39z"/>
	</g>
</g>
<g>
	<g>
		<path class="st3" d="M443.63,605.99c3.22,0,3.22-5,0-5C440.41,600.99,440.41,605.99,443.63,605.99L443.63,605.99z"/>
	</g>
</g>
<g>
	<g>
		<path class="st3" d="M618.79,589.14c3.22,0,3.22-5,0-5C615.57,584.14,615.56,589.14,618.79,589.14L618.79,589.14z"/>
	</g>
</g>
<g>
	<g>
		<path class="st3" d="M569.87,642.75c3.22,0,3.22-5,0-5C566.65,637.75,566.65,642.75,569.87,642.75L569.87,642.75z"/>
	</g>
</g>
<g>
	<g>
		<path class="st3" d="M460.99,653.48c3.22,0,3.22-5,0-5C457.77,648.48,457.77,653.48,460.99,653.48L460.99,653.48z"/>
	</g>
</g>
<g>
	<g>
		<path class="st3" d="M383.67,630.5c3.22,0,3.22-5,0-5C380.45,625.5,380.45,630.5,383.67,630.5L383.67,630.5z"/>
	</g>
</g>
<g>
	<g>
		<path class="st3" d="M416.81,742.33c3.22,0,3.22-5,0-5C413.59,737.33,413.58,742.33,416.81,742.33L416.81,742.33z"/>
	</g>
</g>
<g>
	<g>
		<path class="st3" d="M651.92,700.97c3.22,0,3.22-5,0-5C648.71,695.97,648.7,700.97,651.92,700.97L651.92,700.97z"/>
	</g>
</g>
<g>
	<g>
		<path class="st3" d="M675.59,651.95c3.22,0,3.22-5,0-5C672.38,646.95,672.37,651.95,675.59,651.95L675.59,651.95z"/>
	</g>
</g>
<g>
	<g>
		<path class="st3" d="M713.47,621.31c3.22,0,3.22-5,0-5C710.25,616.31,710.24,621.31,713.47,621.31L713.47,621.31z"/>
	</g>
</g>
<g>
	<g>
		<path class="st3" d="M781.32,659.61c3.22,0,3.22-5,0-5C778.1,654.61,778.1,659.61,781.32,659.61L781.32,659.61z"/>
	</g>
</g>
<g>
	<g>
		<path class="st3" d="M746.6,754.58c3.22,0,3.22-5,0-5C743.39,749.58,743.38,754.58,746.6,754.58L746.6,754.58z"/>
	</g>
</g>
<g>
	<g>
		<path class="st3" d="M582.49,739.27c3.22,0,3.22-5,0-5C579.28,734.27,579.27,739.27,582.49,739.27L582.49,739.27z"/>
	</g>
</g>
<g>
	<g>
		<path class="st3" d="M702.42,746.92c3.22,0,3.22-5,0-5C699.2,741.92,699.2,746.92,702.42,746.92L702.42,746.92z"/>
	</g>
</g>
<g>
	<g>
		<path class="st3" d="M524.11,753.05c3.22,0,3.22-5,0-5C520.89,748.05,520.89,753.05,524.11,753.05L524.11,753.05z"/>
	</g>
</g>
<g>
	<g>
		<path class="st3" d="M519.37,693.31c3.22,0,3.22-5,0-5C516.16,688.31,516.15,693.31,519.37,693.31L519.37,693.31z"/>
	</g>
</g>
<g>
	<g>
		<path class="st3" d="M301.61,765.31c3.22,0,3.22-5,0-5C298.4,760.31,298.39,765.31,301.61,765.31L301.61,765.31z"/>
	</g>
</g>
<g>
	<g>
		<path class="st3" d="M401.03,788.29c3.22,0,3.22-5,0-5C397.81,783.29,397.8,788.29,401.03,788.29L401.03,788.29z"/>
	</g>
</g>
<g>
	<g>
		<path class="st3" d="M203.78,745.39c3.22,0,3.22-5,0-5C200.56,740.39,200.56,745.39,203.78,745.39L203.78,745.39z"/>
	</g>
</g>
<g>
	<g>
		<path class="st3" d="M178.53,581.48c3.22,0,3.22-5,0-5C175.31,576.48,175.31,581.48,178.53,581.48L178.53,581.48z"/>
	</g>
</g>
<g>
	<g>
		<path class="st3" d="M277.94,671.86c3.22,0,3.22-5,0-5C274.73,666.86,274.72,671.86,277.94,671.86L277.94,671.86z"/>
	</g>
</g>
<g>
	<g>
		<path class="st3" d="M195.89,446.67c3.22,0,3.22-5,0-5C192.67,441.67,192.67,446.67,195.89,446.67L195.89,446.67z"/>
	</g>
</g>
<g>
	<g>
		<path class="st3" d="M363.15,446.67c3.22,0,3.22-5,0-5C359.94,441.67,359.93,446.67,363.15,446.67L363.15,446.67z"/>
	</g>
</g>
<g>
	<g>
		<path class="st3" d="M483.08,455.86c3.22,0,3.22-5,0-5C479.86,450.86,479.86,455.86,483.08,455.86L483.08,455.86z"/>
	</g>
</g>
<path class="st2" d="M904.17,982.53H192.94c-22.63,0-40.97-18.34-40.97-40.97v-42.65h793.16v42.65
	C945.14,964.19,926.8,982.53,904.17,982.53z"/>
<g>
	<g>
		<path class="st3" d="M909.78,941.16c3.22,0,3.22-5,0-5C906.56,936.16,906.55,941.16,909.78,941.16L909.78,941.16z"/>
	</g>
</g>
<g>
	<g>
		<path class="st3" d="M906.04,797.93c3.22,0,3.22-5,0-5C902.82,792.93,902.82,797.93,906.04,797.93L906.04,797.93z"/>
	</g>
</g>
<g>
	<g>
		<path class="st3" d="M866.04,857.93c3.22,0,3.22-5,0-5C862.82,852.93,862.82,857.93,866.04,857.93L866.04,857.93z"/>
	</g>
</g>
<path class="st4" d="M765.48,746.58c0,0-13.12-37.81-71.53-55.53l-167.67-41.94l-16.27-3.73c-4.32-0.09-3.52,2.41-3.52,2.41
	c-0.08,5.99-0.85,13.66-3.5,20.93l-22.02,81.36l-0.06,0.18c-1.12,3.57-4.38,5.83-8.12,5.83c-1.41,0-2.56-0.22-3.8-0.89l-0.25-0.13
	l-82.2-41.92l-6.68,5.47l-6.68-5.47l-82.1,41.96l-4.14,0.97c-3.74,0-7.06-2.44-8.18-6.01l-0.09-0.49l-22.02-81.36
	c-2.89-7.91-3.54-16.3-3.51-22.48l0.05-2.2l-24.21,5.55l-99.4,24.86c1.98,14.05,2.21,28.4,1.98,42.81
	c-0.77,47.85,0.09,95.7-0.4,143.55c-0.24,23.77-0.87,47.54-0.16,71.3c0.37,12.2,1.08,24.39,2.4,36.53c0.2,1.86,0.45,3.71,0.65,5.57
	c0.02,0.14,0.03,0.26,0.04,0.37c0.02,0.16,0.05,0.34,0.08,0.53c0.41,2.77,0.83,5.53,1.31,8.29c0.51,2.96,1.07,5.92,1.67,8.86
	c14.36-0.09,28.73,0.01,43.08,0.01h453.84c59.17,0,118.29-2.49,177.45-3.01c27.91-0.25,55.81,0.47,83.72,0.59
	c1.27,0.01,2.55,0,3.82,0L765.48,746.58z"/>
<path class="st5" d="M208.44,991.79h62.76c0.63-0.01,1.2-0.01,1.75,0h19.8c0.93-3.44-5.05-8.37-5.05-8.37
	c-5.87-11.81-29.5-12.71-29.5-12.71s-10.13-15.75,10.65-10.78s31.04,20.52,31.04,20.52c12.46,10.39,6.71-5.03,6.71-5.03l-13.3-19.94
	c0,0-1.16-6.78,6-6.07c7.16,0.71,14.65,25.69,14.65,25.69c6.2,12.71,6.45-4.84,6.45-4.84s-1.48-22.2,2.32-36.92s6.71,0.84,6.71,0.84
	s-1.94,16.52-1.74,26.01c0.19,9.49,5.36,2.45,5.36,2.45l11.36-22.72c0,0,6.26-3.1,2.45,2.52s-1.68,14.39-1.68,14.39
	s1.03,1.1,2.26-2.65s13.81-13.04,13.81-13.04c15.43-6.52,18.96-14.52,18.96-14.52c12.83-16.78-0.38-35.5-0.38-35.5
	s1.68-3.1-2.07-15.88c-3.74-12.78-15.94-24.53-15.94-24.53s-10.13-7.29-20.14-4.84c-10,2.45-32.53,2.84-32.53,2.84
	c-12.2,4.45-11.36,15.3-14.33,34.66s12.39,29.04,12.39,29.04s5.62,10.71,3.42,27.49s-6.84,0-6.84,0s-11.62-42.53-43.82-46.79
	c-32.21-4.26-33.76,13.17-33.76,13.17s2.39,8.46-16.97,22.91s-12.71,41.31-12.71,41.31S200.47,982.83,208.44,991.79z"/>
<path class="st6" d="M326.95,991.79h15.51c10.94-21.49,33.67-52.01,77.72-64.46c0,0-11.62,26.14,7.75,26.14
	c0,0,9.87,4.65,7.55-19.75c0,0,10.26,27.69,22.07,13.55c11.81-14.13-12-28.46-12-28.46s24.01-1.94,19.75-17.04
	c-4.26-15.1-21.11-6.97-21.11-6.97l-7.75,7.16c0,0,3.68-30.4-13.36-17.81c-11.99,8.86-7.87,15.12-4.38,18.06
	c-3.92-2.24-10.85-4.73-13.82,3.24c-4.26,11.42,7.36,15.88,7.36,15.88l0.97,0.96C360.12,941.26,336.83,972.08,326.95,991.79z"/>
<path class="st6" d="M360.02,991.79c1.9-0.83,4.67-2.45,8.58-5.1c0,0,33.5-12.2,30.59,0.39c-0.44,1.91-1.27,3.45-2.36,4.71h59.61
	c-7.14-22-20.27-23.88-20.27-23.88s-4.84,0.97-22.65-11.23c-17.81-12.2-44.92,17.23-44.92,17.23s-12.6,14.49-12.02,17.88H360.02z"/>
<path class="st5" d="M706.96,711.19c0,0-26.1,21.07-29.28,21.68c-3.18,0.61-10.63,4.12-10.63,4.12c-8.17,7.84,6.58,9.19,6.58,9.19
	c11.51,6.45,31.53-6.11,31.53-6.11S709.84,742.97,706.96,711.19z"/>
<path class="st5" d="M608.27,670.08c-0.99,6.87,1.8,23.6,1.8,23.6s14.49,19.71,7.46,22.98s-19.15-23.45-19.15-23.45l-18-27.1
	c0,0-0.63-1.19-1.54-3.26L608.27,670.08z"/>
<path class="st5" d="M634.67,676.68c-5.86,10.94-4.22,24.54-4.22,24.54s-1.3,22.33-8.66-3.76c-4.07-14.44-4.34-21.56-5.91-25.47
	L634.67,676.68z"/>
<path class="st5" d="M708.91,696.84c0.85,0.37-1.01,1.59-1.61,2.38c-13.54,17.96-23.88,22.37-23.88,22.37s-30.25,17.75-37.87,13.28
	c-7.62-4.47,14.56-15.26,14.56-15.26l0.76-0.52c0,0,10.52-8.46-7.21-8.09l-5.12,3.49c0,0-16.04,10.76-12.27-2.53
	c3.77-13.29,12.73-28.42,12.73-28.42s0.56-1.18,1.29-2.96C650.28,680.59,693.23,690.13,708.91,696.84z"/>
<path class="st5" d="M565.5,659.38c0.93,2.04,1.84,4.23,2.74,6.56l0.92,1.01c0,0,22.98,25.81,32.28,47.36c9.3,21.55-6.5,4.9-6.5,4.9
	l-17.5-20.17c-15.07-8.71-7.86,3.25-7.86,3.25s28.79,31.23,13.63,20s-20.78-9.51-20.78-9.51c-14.59,1.98,11.19,12.29,11.19,12.29
	c16.7,9.71-11.81,5.71-11.81,5.71c-29.33-10.71-15.78,9.59-15.78,9.59s17.02,11.13,39.2,1.4c22.19-9.74-2.44,23.23-2.44,23.23
	c-24.45,14.32-19.02,15.07-19.02,15.07s4.78,15.95,24.3-3.21c19.51-19.16,8.03,8.35,8.03,8.35s-17.95,8.73-13.26,20.76
	c4.69,12.04,25.5-16.91,25.5-16.91c12.04-30.47,7.2,10.56,7.2,10.56s-5.82,39.59-27.41,39.54s-25.04,3.48-25.04,3.48
	s-15.8,7.77-38.93-16.2c-23.14-23.97-21.84-38.91-21.84-38.91s1.87-27.51,35.01-16.71l1.24,0.44c0,0,44.78-17.17,1.91-10.44
	s-43.06-43.05-43.06-43.05s-2.64-2.43-5.93-6.48l13.97-51.88c0,0,1.38-10.94,1.05-12.88c-0.33-1.94,5.22,0,5.22,0l27.88,6.4
	l18.03,4.51L565.5,659.38z"/>
<path class="st7" d="M573.89,667.84"/>
<path class="st8" d="M129.77,675.51c0.29,2.22,0.55,4.45,0.77,6.69c2.79-3.12,5.82-6.19,9.12-9.16L129.77,675.51z"/>
<polygon class="st9" points="544.69,595.75 214.57,595.75 215.37,491.73 545.49,491.73 "/>
<path class="st6" d="M820.31,846.56c-0.17,4.21,1,6.13-0.38,11.39c-11.12,42.42-32.44,54.12-32.44,54.12s-9.89,5.05-13.64,2.32
	c-0.07-0.05-0.13-0.1-0.19-0.15l-0.69,1.19c0,0-11.03,22.39-32.54,15.84c-21.51-6.55-29.21-14.75-29.21-14.75
	s-27.06-22.32-25.47-31.01c1.59-8.69,19.32,8.44,19.32,8.44l0.75,0.54c0,0,11.56,6.98,5.12-9.55l-5.04-3.61
	c0,0-15.61-11.37-1.83-12.39c13.78-1.02,31.06,2.2,31.06,2.2s29,2.75,14.37-10.07c-14.63-12.82-37.33-1.28-37.33-1.28
	s-21.42,6.44,0.56-9.42c21.98-15.87,25.35-16.07,24.13-22.01c-1.22-5.94-24.03,9.09-24.03,9.09s-13.54,20.37-19.02,14.89
	s15.45-26.03,15.45-26.03l19.27-26.21c0,0,23.64-26.23,46.57-19.26c7.89,2.4,9.38,5.2,12.63,7.53L820.31,846.56z"/>
<path class="st7" d="M724.12,795.2"/>
<path class="st8" d="M811.51,988.77c4.29-0.04,8.59-0.05,12.88-0.05c-1.47-2.2-3.63-3.81-6.69-4.34c-6.27-1.09-9.91,0.95-11.83,4.44
	C807.75,988.82,809.63,988.79,811.51,988.77z"/>
<path class="st10" d="M545.24,493.65"/>
<path class="st11" d="M265.19,613.22l-11.77,24.52c0,0,0.05,1.73-0.13,4.57"/>
<path class="st11" d="M373.18,713.16"/>
<path class="st11" d="M286.93,747.52"/>
<path class="st11" d="M391.09,713.16"/>
<path class="st12" d="M468.23,288.06c-22.62-15.29-51.66-25.8-88.76-25.8h0.78c-136.2,0-163.8,141.63-163.8,141.63l-1.97,89.75
	v87.63"/>
<path class="st12" d="M442.23,535.86c-156.77-1.87-166.42-56.21-166.42-56.21v-69.79c0-71.14,73.61-128.81,164.41-128.81h1.94
	c6.43,0,12.78,0.29,19.02,0.85c0,0,11.81,2.69,11.82,9.52"/>
<path class="st12" d="M440.13,535.86c47.04-0.56,80.84-5.85,105.1-12.97"/>
<path class="st13" d="M455.35,612.38c-11.74,29.55-34.68,74.13-74.4,105.37l-2.45-0.22c-39.68-31.22-62.51-75.66-74.19-105.15
	L455.35,612.38z"/>
<path class="st11" d="M494.1,612.38l11.77,24.52c0,0,0.46,5.64,0.62,9.6"/>
<path class="st14" d="M228.97,649.11"/>
<path class="st11" d="M373.18,713.16"/>
<path class="st11" d="M286.93,747.52"/>
<path class="st11" d="M391.09,713.16"/>
<path class="st4" d="M304.31,612.38c10.98,27.74,31.83,68.7,67.28,99.45l1.59,1.33l-82.1,41.96l-4.14,0.97
	c-3.74,0-7.06-2.44-8.18-6.01l-0.09-0.49l-22.02-81.36c-2.89-7.91-3.54-16.3-3.51-22.48l0.05-2.2l0.1-1.25
	c0.18-2.84,0.13-4.57,0.13-4.57l11.77-24.52L304.31,612.38z"/>
<path class="st4" d="M494.1,612.38l11.77,24.52c0,0,0.46,5.64,0.62,9.6l-0.01,1.29c-0.08,5.99-0.85,13.66-3.5,20.93l-22.02,81.36
	l-0.06,0.18c-1.12,3.57-4.38,5.83-8.12,5.83c-1.41,0-2.56-0.22-3.8-0.89l-0.25-0.13l-82.2-41.92l1.88-1.6
	c39.71-31.24,55.19-69.62,66.93-99.18L494.1,612.38z"/>
<path class="st11" d="M472.79,747.52"/>
<path class="st11" d="M368.63,713.16"/>
<path class="st11" d="M286.93,747.52"/>
<path class="st11" d="M391.09,713.16"/>
<path class="st11" d="M472.79,747.52"/>
<path class="st11" d="M368.63,713.16"/>
<path class="st12" d="M379.82,619.47c96.5-1.45,136.74-10.06,153.83-14.52c13.71-3.58,11.58-12.16,11.58-12.16v-11.51
	c0,0-57.61,15.62-163.8,14.46h-3.15c-106.18,1.16-163.8-14.46-163.8-14.46v11.51c0,0-2.12,8.58,11.58,12.16
	c17.09,4.46,57.33,13.07,153.83,14.52"/>
<line class="st15" x1="545.24" y1="517.82" x2="545.24" y2="514.21"/>
<path class="st12" d="M545.24,581.28v-58.4c0,0,5.49-11.04-1.54-12.01"/>
<path class="st11" d="M386.54,713.16"/>
<path class="st11" d="M472.79,747.52"/>
<path class="st11" d="M368.63,713.16"/>
<path class="st11" d="M682.28,910.57c0,0,30.97-22.56,40.61-53.8"/>
<path class="st11" d="M678.88,959.17c0,0,17.35,0.75,20.31,29.02"/>
<path class="st10" d="M381.93,337.98"/>
<path class="st7" d="M573.89,667.84"/>
<path class="st16" d="M379.31,718.18c-0.46,90.25-0.46,181.25-0.39,271.63"/>
<path class="st7" d="M724.12,795.2"/>
<path class="st11" d="M373.18,713.16"/>
<path class="st11" d="M286.93,747.52"/>
<path class="st11" d="M391.09,713.16"/>
<path class="st11" d="M386.54,713.16"/>
<path class="st11" d="M472.79,747.52"/>
<path class="st11" d="M368.63,713.16"/>
<path class="st10" d="M381.93,337.98"/>
<path class="st8" d="M607.37,867.41c52.44-70.67,28.46-125.01,28.46-125.01s-11.84-18.75-13.61,3.68c0,0,24.6,64.67-23.45,121.01
	c0,0-4.87-28.19-20.97-17.43c0,0-10.79,1.62,4.7,20.62c0,0-23.92-17.32-25.88,1c-1.96,18.31,25.8,16.99,25.8,16.99
	s-18.88,14.95-6.95,25.14c11.93,10.19,21.42-5.93,21.42-5.93l2.46-10.26c0,0,13.84,27.32,21.01,7.38c7.17-19.93-9.8-17.44-9.8-17.44
	s15.9,1.48,13.09-10.38c-2.81-11.86-14.94-9.11-14.94-9.11L607.37,867.41z"/>
<path class="st16" d="M765.48,746.58c0,0-13.12-37.81-71.53-55.53l-167.67-41.94l-16.27-3.73c-4.32-0.09-3.52,2.41-3.52,2.41
	c-0.08,5.99-0.85,13.66-3.5,20.93l-22.02,81.36l-0.06,0.18c-1.12,3.57-4.38,5.83-8.12,5.83c-1.41,0-2.56-0.22-3.8-0.89l-0.25-0.13
	l-82.2-41.92l-6.68,5.47l-6.68-5.47l-82.1,41.96l-4.14,0.97c-3.74,0-7.06-2.44-8.18-6.01l-0.09-0.49l-22.02-81.36
	c-2.89-7.91-3.54-16.3-3.51-22.48l0.05-2.2l-24.21,5.55l-99.4,24.86c1.98,14.05,2.21,28.4,1.98,42.81
	c-0.77,47.85,0.09,95.7-0.4,143.55c-0.24,23.77-0.87,47.54-0.16,71.3c0.37,12.2,1.08,24.39,2.4,36.53c0.2,1.86,0.45,3.71,0.65,5.57
	c0.02,0.14,0.03,0.26,0.04,0.37c0.02,0.16,0.05,0.34,0.08,0.53c0.41,2.77,0.83,5.53,1.31,8.29c0.51,2.96,1.07,5.92,1.67,8.86
	c14.36-0.09,28.73,0.01,43.08,0.01h453.84c59.17,0,118.29-2.49,177.45-3.01c27.91-0.25,55.81,0.47,83.72,0.59
	c1.27,0.01,2.55,0,3.82,0L765.48,746.58z"/>
<path class="st5" d="M711.09,752.75l-14.94,44.19c-4.96-3.18-7.95-5.73-7.95-5.73s-13.29-11.25-5.65,3.85
	c3.17,6.27,6.86,10.91,10.1,14.2c0,0-13.79,41.83-9.74,82.01l-0.02,2.23l-0.04,2.23c-5.73-1.7-13.54-4.67-19.32-9.42
	c-10.29-8.45-10.65-11.96-10.65-11.96s-21.46-8.03-20.31-29.12c0,0-1.59-8.61,7.49-22.68c0,0,5.16-14.77,4.07-18.55
	c-1.1-3.78,0.38-3.46,0.38-3.46s6.7,6.05,6.72,12.84s3.44,0.7,3.44,0.7l-3.41-25.17c0,0,0.3-8.72,5.81-0.99s13.21,22.47,13.21,22.47
	s11.16,11.22,6.02-3.09s-18.88-31.81-18.88-31.81s-9.68-14.65,2.61-7.64c0,0,20.26,16.42,26.58,12.97s1.54-8.39,1.54-8.39
	l-22.22-8.99c0,0-13.44-9.51,2.71-7.94c0,0,17.24,7.07,37.21-0.53c2.03-0.77,3.67-1.54,4.99-2.3"/>
<path class="st6" d="M195.65,874.7c0,0-49.59,28.75-48.72-39.44l-0.48-1.28c0,0-11.71-32.52-12.31-55.98
	c-0.6-23.46,7.86-2.12,7.86-2.12l8.72,25.24c10.74,13.7,8.51-0.09,8.51-0.09s-15.08-39.71-5.2-23.64
	c9.88,16.07,15.74,16.56,15.74,16.56c14.27,3.6-5.8-15.58-5.8-15.58c-11.87-15.23,13.09-0.9,13.09-0.9
	c23.22,20.86,18.22-3.02,18.22-3.02s-11.64-16.67-35.86-15.9c-24.22,0.77,10.92-20.64,10.92-20.64c28.03-4.18,23.26-6.9,23.26-6.9
	s1.51-16.59-23.74-6.08s-4.34-10.74-4.34-10.74s19.91-1.41,20.05-14.32s-29.96,6.19-29.96,6.19c-22.52,23.79-2.74-12.48-2.74-12.48
	s20.15-34.57,40.17-26.48s24.54,6.1,24.54,6.1s17.55-1.32,30.09,29.54c12.54,30.87,5.77,44.25,5.77,44.25s-11.99,24.83-38.71,2.46
	l-0.98-0.87c0,0-47.95-0.75-5.66,8.98c42.29,9.73,23.92,56,23.92,56s27.97,58.68-35.19,60.87L195.65,874.7z"/>
<g>
	<g>
		<path class="st17" d="M442.46,525.12c-146.07-1.74-155.07-52.07-155.07-52.07v-64.66c0-65.91,68.59-119.33,153.19-119.33
			c2.97,0,2.97,0,2.97,0c10.45,0,20.65,0.81,30.51,2.37c0,0,98.62,75.63,71.12,219.45c-22.97,7.7-56.41,13.67-105.05,14.25"/>
	</g>
</g>
<path class="st16" d="M711.09,696.92c-0.24,19.52-0.24,39.52-0.24,59.52c-13,31-22,62-27,96c-3,20,0,39-1,58c-2,27-4,53-6.4,79.51"
	/>
<path class="st18" d="M523.17,618.73c0,0-21.06-12.87-13.47-37.62c7.59-24.75,23.81-26.79,23.81-26.79s15.87-1.28,8.63,16.33
	s25.53,66.34,25.53,66.34s22.77,61.75,19.67,81.65c-3.11,19.9-95.92,55.62-95.92,55.62c-82.47-57.66-70.74-68.89-80.74-74.5
	c-10.01-5.61-19.67-21.43-16.56-32.4s30.71,6.12,30.71,6.12s-21.05-8.42-25.88-25.26s20.7-15.82,20.7-15.82l26.22,18.63
	c0,0-6.21-4.59-24.84-20.67c-18.63-16.07,13.13-22.05,13.13-22.05l42.76,22.05c0,0-80.04-38.23-98.34-59.71
	c-10.15-11.92,5.7-22.15,16.56-18.37c20.67,7.2,137.77,74.31,142.85,72.72"/>
<path class="st19" d="M560.01,958.95l0.54,1.13c5.24,10.4,11.97,21.06,19.68,31.71h53.83c59.17,0,118.29-2.49,177.45-3.01
	c18.02-0.16,36.04,0.08,54.06,0.31c-35.98-55.61-102.55-136.9-129.58-149.84l-0.62-2.09l0,0c0,0-46.62-107.44-131.77-113.74
	l-104.17,72.36C475.6,877.75,560.01,958.95,560.01,958.95z"/>
<path class="st20" d="M560.8,961.54c-9.96-20.99-12.35-41.25-1.21-58.13"/>
<path class="st21" d="M709.37,836.92c9.38-2.16,18.4-1.19,27.03,2.22"/>
<path class="st22" d="M591.43,703.05l-106.29,73.83c-0.96,0.67-1.2,1.99-0.53,2.95l11.06,15.92c0.67,0.96,1.99,1.2,2.95,0.53
	l106.29-73.83c0.96-0.67,1.2-1.99,0.53-2.95l-11.06-15.92C593.71,702.62,592.39,702.38,591.43,703.05z"/>
<g>
	<path class="st3" d="M853.07,277.37L710.98,400.11v30.41c0,6.63-2.44,12.38-7.32,17.25c-4.88,4.88-10.65,7.31-17.29,7.31
		c-6.84,0-12.65-2.44-17.43-7.32c-4.79-4.88-7.18-10.64-7.18-17.29v-40.72c0-8.79,2.54-15.43,7.62-19.92L810,248.36v-17.91
		l-24.61-22.34L654.41,320.29c-5.86,5.1-11.91,7.64-18.15,7.64c-6.05,0-11.62-2.34-16.69-7.03c-5.08-4.69-7.61-10.74-7.61-18.16
		c0-8.01,2.15-13.87,6.45-17.58l151.32-128.44c4.49-3.82,9.95-5.74,16.39-5.74c6.05,0,11.02,1.62,14.93,4.86l50.3,44.08
		c5.64,4.3,8.47,10.46,8.47,18.48v42.25C859.81,268.08,857.56,273.66,853.07,277.37z M685.78,489.94c6.83,0,12.64,2.49,17.43,7.47
		c4.78,4.98,7.18,10.89,7.18,17.72c0,6.84-2.39,12.65-7.18,17.43c-4.79,4.79-10.6,7.18-17.43,7.18c-6.84,0-12.65-2.39-17.43-7.18
		c-4.79-4.78-7.18-10.59-7.18-17.43c0-6.83,2.39-12.74,7.18-17.72C673.13,492.43,678.94,489.94,685.78,489.94z"/>
</g>
<path class="st23" d="M920.31,1000.53H193.73c-22,0-42.53-11.46-53.67-30.43c-0.11-0.2-0.23-0.4-0.35-0.62
	c-3.8-6.75-5.72-14.4-5.72-22.14v-33.82l-0.13,1.61V631.54v1.61"/>
</svg>
