<?xml version="1.0" encoding="utf-8"?>
<!-- Generator: Adobe Illustrator 27.1.1, SVG Export Plug-In . SVG Version: 6.00 Build 0)  -->
<svg version="1.1" id="Layer_1" xmlns="http://www.w3.org/2000/svg" xmlns:xlink="http://www.w3.org/1999/xlink" x="0px" y="0px"
	 viewBox="0 0 792 576" style="enable-background:new 0 0 792 576;" xml:space="preserve">
<style type="text/css">
	.st0{fill:#F9A360;}
	.st1{fill:#D23C27;stroke:#A53A23;stroke-width:4;stroke-miterlimit:10;}
	.st2{fill:#EFE8CC;stroke:#B5956A;stroke-width:4;stroke-miterlimit:10;}
	.st3{fill:#EFE8CC;stroke:#EFE8CC;stroke-width:4;stroke-miterlimit:10;}
	.st4{fill:none;stroke:#A8A694;stroke-width:4;stroke-miterlimit:10;}
	.st5{fill:none;stroke:#A5391D;stroke-width:4;stroke-miterlimit:10;}
	.st6{fill:#EFE8CC;stroke:#B1AE9C;stroke-width:4;stroke-miterlimit:10;}
	.st7{fill:#DC7038;stroke:#A5391D;stroke-width:4;stroke-miterlimit:10;}
	.st8{fill:#2B190D;}
	.st9{fill:#FCCAAA;stroke:#D2987D;stroke-width:6;stroke-miterlimit:10;}
	.st10{fill:#FEDAC0;}
	.st11{fill:none;stroke:#FFF1E8;stroke-width:6;stroke-miterlimit:10;}
	.st12{fill:none;stroke:#FFF1E8;stroke-width:6;stroke-linecap:round;stroke-miterlimit:10;}
	.st13{fill:#FFF1E8;stroke:#2B190D;stroke-width:4;stroke-miterlimit:10;}
	.st14{fill:#FFF1E8;stroke:#2B190D;stroke-width:6;stroke-miterlimit:10;}
	.st15{fill:none;stroke:#984C1E;stroke-width:5;stroke-miterlimit:10;}
</style>
<g>
	<path class="st0" d="M765.5,568.94H26.04c-10.07,0-18.23-8.16-18.23-18.23V25.86c0-10.07,8.16-18.23,18.23-18.23H765.5
		c10.07,0,18.23,8.16,18.23,18.23v524.85C783.73,560.78,775.57,568.94,765.5,568.94z"/>
	<path class="st1" d="M564.42,567.02h118.22l-88.65-22.17l-21.52-4.93c-5.72-0.12-4.66,3.19-4.66,3.19
		C567.72,550,566.94,558.58,564.42,567.02z"/>
	<path class="st1" d="M236.22,567.02c-2.93-9.51-3.64-19.24-3.6-26.61l0.06-2.91l-32.04,7.34L112,567.02H236.22z"/>
	<path class="st2" d="M564.12,567.02h85.36c-1.18-3.05-2.38-5.9-3.59-8.58l-10.42-2.61l-23.85-5.97l-36.89-8.47
		c0,0-7.34-2.56-6.91,0s-1.39,17.04-1.39,17.04L564.12,567.02z"/>
	<polygon class="st3" points="615.42,474.25 181.6,474.25 182.64,336.63 616.47,336.63 	"/>
	<path class="st4" d="M619.08,339.17"/>
	<line class="st4" x1="181.48" y1="455.11" x2="181.48" y2="339.17"/>
	<path class="st5" d="M248.57,497.36l-15.58,32.44c0,0,0.07,2.28-0.17,6.04"/>
	<path class="st6" d="M616.47,220.42c0,0-36.51-187.39-216.71-187.39h1.03c-180.2,0-216.71,187.39-216.71,187.39"/>
	<path class="st6" d="M398.89,413.53c207.41-2.48,220.19-74.37,220.19-74.37v-92.34c0-94.12-97.39-170.42-217.52-170.42H399
		c-120.13,0-217.52,76.3-217.52,170.42v92.34c0,0,12.77,71.89,220.19,74.37"/>
	<path class="st7" d="M463.52,567.02c16.77-25.44,28.66-50.72,36.63-70.77l-199.84,0c7.94,20.05,19.81,45.33,36.57,70.77H463.52z"/>
	<path class="st5" d="M551.43,496.25L567,528.7c0,0,0.6,7.46,0.82,12.71"/>
	<path class="st1" d="M200.65,544.85"/>
	<path class="st1" d="M336.89,567.02c-16.77-25.44-28.64-50.72-36.57-70.77l-51.75,1.11l-15.58,32.44c0,0,0.07,2.28-0.17,6.04
		l-0.14,1.66l-0.06,2.91c-0.04,7.36,0.66,17.1,3.6,26.61H336.89z"/>
	<path class="st1" d="M564.42,567.02c2.51-8.44,3.29-17.02,3.39-23.91l0.01-1.71c-0.21-5.25-0.82-12.71-0.82-12.71l-15.58-32.44
		l-51.27,0c-8.45,21.27-18.39,45.99-34.13,70.77H564.42z"/>
	<path class="st6" d="M400.33,505.64c-127.68-1.92-180.91-13.31-203.53-19.21c-18.13-4.73-15.33-16.08-15.33-16.08v-15.23
		c0,0,76.23,20.67,216.71,19.14h4.17c140.49,1.53,216.71-19.14,216.71-19.14v15.23c0,0,2.81,11.35-15.33,16.08
		c-22.62,5.9-75.85,17.29-203.53,19.21"/>
	<line class="st4" x1="619.08" y1="455.11" x2="619.08" y2="339.17"/>
	<path class="st4" d="M403.01,133.22"/>
	<path class="st4" d="M403.01,133.22"/>
	<path class="st5" d="M564.42,567.02h118.22l-88.65-22.17l-21.52-4.93c-5.72-0.12-4.66,3.19-4.66,3.19
		C567.72,550,566.94,558.58,564.42,567.02z"/>
	<path class="st5" d="M236.22,567.02c-2.93-9.51-3.64-19.24-3.6-26.61l0.06-2.91l-32.04,7.34L112,567.02H236.22z"/>
	<g>
		<g>
			<path class="st8" d="M400.09,401.8c-192.16-2.3-203.99-68.9-203.99-68.9v-85.54c0-87.2,90.22-157.88,201.52-157.88
				c3.91,0,3.91,0,3.91,0c111.3,0,201.52,70.69,201.52,157.88v85.54c0,0-11.83,66.6-203.99,68.9"/>
		</g>
	</g>
	<path class="st9" d="M620.1,360.13c0.11-9.14-6.16-17.05-14.86-18.73c-159.51-30.93-203.69-28.02-203.69-28.02h-0.91
		c0,0-44.22-2.92-203.87,28.05c-8.62,1.67-14.87,9.45-14.86,18.51l0.03,109.48c0,7.44,4.24,14.16,10.81,17.19
		c19.03,8.8,70.76,22.12,209.43,21.87c136.06-0.25,186.8-12.58,205.59-20.98c6.61-2.95,10.93-9.62,11.02-17.06L620.1,360.13z"/>
	<polygon class="st10" points="202.23,364.28 396.52,339.96 601.78,366.28 394.52,348.41 	"/>
	<polygon class="st10" points="196.78,414.25 399.31,387.93 603.23,413.48 399.31,397.99 	"/>
	<polygon class="st10" points="195.65,458.73 401.47,475.77 606.36,458.73 401.47,486.61 	"/>
	<polygon class="st10" points="196.78,443.25 400.32,432.8 603.23,442.48 398.77,441.32 	"/>
	<path class="st11" d="M480.54,152.83L480.54,152.83c-2.51,2.51-6.58,2.51-9.1,0l-36.87-36.87c-2.51-2.51-2.51-6.58,0-9.1l0,0
		c2.51-2.51,6.58-2.51,9.1,0l36.87,36.87C483.06,146.25,483.06,150.32,480.54,152.83z"/>
	<path class="st11" d="M457.51,194.06L457.51,194.06c-2.51,2.51-6.58,2.51-9.1,0l-54.87-54.87c-2.51-2.51-2.51-6.58,0-9.1l0,0
		c2.51-2.51,6.58-2.51,9.1,0l54.87,54.87C460.02,187.47,460.02,191.55,457.51,194.06z"/>
	<line class="st11" x1="422.58" y1="146.54" x2="443.29" y2="126.02"/>
	<line class="st11" x1="440.19" y1="165.9" x2="460.9" y2="145.38"/>
	<path class="st11" d="M445.78,187.6l-75.04,75.04c-7.82,7.82-20.49,7.82-28.31,0l-17.46-17.46c-7.82-7.82-7.82-20.49,0-28.31
		l75.04-75.04"/>
	<path class="st11" d="M342.59,262.43l-10.48,10.48c-1.09,1.09-4.44-0.48-7.47-3.51l-6.77-6.77c-3.03-3.03-4.61-6.38-3.51-7.47
		l10.48-10.48"/>
	<line class="st12" x1="287.58" y1="299.83" x2="321.06" y2="266.64"/>
	<path class="st13" d="M405.37,206.19c3.59,1.94,4.24,6.84,1.35,9.72l-40.69,40.69c-4.9,4.9-13.7,4.03-19.67-1.94l-13.32-13.32
		c-5.97-5.97-6.83-14.77-1.94-19.67l40.87-40.87c2.87-2.87,7.67-2.17,9.64,1.38C385.48,189.17,392.9,199.46,405.37,206.19z"/>
	<path class="st14" d="M526.45,170.48c2.05-3.35,3.15-7.4,3.15-11.55c0-10.74-7.39-19.57-16.38-19.57c-5.1,0-9.92,2.85-13.01,7.69
		l-57.23,102.29l-31.35-29.4c-2.96-3.55-6.8-5.51-10.78-5.51c-8.85,0-16.13,9.7-16.13,21.49c0,5.04,1.33,9.92,3.75,13.78
		l49.42,47.56c2.47,2.02,5.55,3.13,8.71,3.13c4.09,0,7.97-1.84,10.62-5.02L526.45,170.48z"/>
	<path class="st15" d="M770.06,568.94H21.48c-7.55,0-13.67-6.12-13.67-13.67V21.29c0-7.55,6.12-13.67,13.67-13.67h748.58
		c7.55,0,13.67,6.12,13.67,13.67v533.98C783.73,562.82,777.61,568.94,770.06,568.94z"/>
</g>
</svg>
