<?xml version="1.0" encoding="utf-8"?>
<!-- Generator: Adobe Illustrator 27.1.1, SVG Export Plug-In . SVG Version: 6.00 Build 0)  -->
<svg version="1.1" id="BackGround" xmlns="http://www.w3.org/2000/svg" xmlns:xlink="http://www.w3.org/1999/xlink" x="0px" y="0px"
	 viewBox="0 0 1920 1080" style="enable-background:new 0 0 1920 1080;" xml:space="preserve">
<style type="text/css">
	.st0{fill:#984C1E;}
	.st1{fill:#B35923;}
	.st2{fill:#C26024;}
	.st3{fill:#763317;}
	.st4{fill:#7A3519;}
	.st5{fill:none;stroke:#B1AE9C;stroke-linecap:round;stroke-linejoin:round;stroke-miterlimit:10;}
	.st6{fill:#FFF1E7;}
</style>
<rect x="0.55" y="-1.02" class="st0" width="1920" height="269"/>
<rect x="0.55" y="267.98" class="st1" width="1920" height="258.74"/>
<rect x="0.55" y="517.17" class="st2" width="1920" height="218.55"/>
<rect x="0.56" y="734.7" class="st3" width="1920.24" height="343.15"/>
<rect x="1.56" y="892" class="st4" width="1920.24" height="190.98"/>
<path class="st5" d="M918.79,678.87"/>
<g>
	<g>
		<path class="st6" d="M1005.6,146.9c3.22,0,3.22-5,0-5C1002.38,141.9,1002.37,146.9,1005.6,146.9L1005.6,146.9z"/>
	</g>
</g>
<g>
	<g>
		<path class="st6" d="M1115.89,321.54c3.22,0,3.22-5,0-5C1112.68,316.54,1112.67,321.54,1115.89,321.54L1115.89,321.54z"/>
	</g>
</g>
<g>
	<g>
		<path class="st6" d="M1737.85,202.05c3.22,0,3.22-5,0-5C1734.63,197.05,1734.63,202.05,1737.85,202.05L1737.85,202.05z"/>
	</g>
</g>
<g>
	<g>
		<path class="st6" d="M1799.13,474.73c3.22,0,3.22-5,0-5C1795.91,469.73,1795.91,474.73,1799.13,474.73L1799.13,474.73z"/>
	</g>
</g>
<g>
	<g>
		<path class="st6" d="M1290.53,425.71c3.22,0,3.22-5,0-5C1287.31,420.71,1287.31,425.71,1290.53,425.71L1290.53,425.71z"/>
	</g>
</g>
<g>
	<g>
		<path class="st6" d="M1311.98,214.31c3.22,0,3.22-5,0-5C1308.76,209.31,1308.76,214.31,1311.98,214.31L1311.98,214.31z"/>
	</g>
</g>
<g>
	<g>
		<path class="st6" d="M1391.64,431.84c3.22,0,3.22-5,0-5C1388.42,426.84,1388.42,431.84,1391.64,431.84L1391.64,431.84z"/>
	</g>
</g>
<g>
	<g>
		<path class="st6" d="M1027.04,480.86c3.22,0,3.22-5,0-5C1023.83,475.86,1023.82,480.86,1027.04,480.86L1027.04,480.86z"/>
	</g>
</g>
<g>
	<g>
		<path class="st6" d="M987.21,676.95c3.22,0,3.22-5,0-5C984,671.95,983.99,676.95,987.21,676.95L987.21,676.95z"/>
	</g>
</g>
<g>
	<g>
		<path class="st6" d="M1287.47,646.31c3.22,0,3.22-5,0-5C1284.25,641.31,1284.25,646.31,1287.47,646.31L1287.47,646.31z"/>
	</g>
</g>
<g>
	<g>
		<path class="st6" d="M1835.89,578.9c3.22,0,3.22-5,0-5C1832.68,573.9,1832.67,578.9,1835.89,578.9L1835.89,578.9z"/>
	</g>
</g>
<g>
	<g>
		<path class="st6" d="M1842.02,339.93c3.22,0,3.22-5,0-5C1838.8,334.93,1838.8,339.93,1842.02,339.93L1842.02,339.93z"/>
	</g>
</g>
<g>
	<g>
		<path class="st6" d="M1707.21,379.76c3.22,0,3.22-5,0-5C1704,374.76,1703.99,379.76,1707.21,379.76L1707.21,379.76z"/>
	</g>
</g>
<g>
	<g>
		<path class="st6" d="M1698.02,223.5c3.22,0,3.22-5,0-5C1694.8,218.5,1694.8,223.5,1698.02,223.5L1698.02,223.5z"/>
	</g>
</g>
<g>
	<g>
		<path class="st6" d="M1866.53,162.22c3.22,0,3.22-5,0-5C1863.31,157.22,1863.31,162.22,1866.53,162.22L1866.53,162.22z"/>
	</g>
</g>
<g>
	<g>
		<path class="st6" d="M1587.72,327.67c3.22,0,3.22-5,0-5C1584.51,322.67,1584.5,327.67,1587.72,327.67L1587.72,327.67z"/>
	</g>
</g>
<g>
	<g>
		<path class="st6" d="M1348.74,333.8c3.22,0,3.22-5,0-5C1345.53,328.8,1345.52,333.8,1348.74,333.8L1348.74,333.8z"/>
	</g>
</g>
<g>
	<g>
		<path class="st6" d="M941.26,395.07c3.22,0,3.22-5,0-5C938.04,390.07,938.03,395.07,941.26,395.07L941.26,395.07z"/>
	</g>
</g>
<g>
	<g>
		<path class="st6" d="M916.74,594.22c3.22,0,3.22-5,0-5C913.53,589.22,913.52,594.22,916.74,594.22L916.74,594.22z"/>
	</g>
</g>
<g>
	<g>
		<path class="st6" d="M760.49,159.16c3.22,0,3.22-5,0-5C757.27,154.16,757.27,159.16,760.49,159.16L760.49,159.16z"/>
	</g>
</g>
<g>
	<g>
		<path class="st6" d="M435.72,211.24c3.22,0,3.22-5,0-5C432.51,206.24,432.5,211.24,435.72,211.24L435.72,211.24z"/>
	</g>
</g>
<g>
	<g>
		<path class="st6" d="M37.43,373.63c3.22,0,3.22-5,0-5C34.21,368.63,34.2,373.63,37.43,373.63L37.43,373.63z"/>
	</g>
</g>
<g>
	<g>
		<path class="st6" d="M37.43,600.35c3.22,0,3.22-5,0-5C34.21,595.35,34.2,600.35,37.43,600.35L37.43,600.35z"/>
	</g>
</g>
<g>
	<g>
		<path class="st6" d="M867.72,373.63c3.22,0,3.22-5,0-5C864.51,368.63,864.5,373.63,867.72,373.63L867.72,373.63z"/>
	</g>
</g>
<g>
	<g>
		<path class="st6" d="M1269.09,94.82c3.22,0,3.22-5,0-5C1265.87,89.82,1265.86,94.82,1269.09,94.82L1269.09,94.82z"/>
	</g>
</g>
<g>
	<g>
		<path class="st6" d="M754.36,113.2c3.22,0,3.22-5,0-5C751.14,108.2,751.14,113.2,754.36,113.2L754.36,113.2z"/>
	</g>
</g>
<g>
	<g>
		<path class="st6" d="M441.85,122.39c3.22,0,3.22-5,0-5C438.63,117.39,438.63,122.39,441.85,122.39L441.85,122.39z"/>
	</g>
</g>
<g>
	<g>
		<path class="st6" d="M251.89,143.84c3.22,0,3.22-5,0-5C248.68,138.84,248.67,143.84,251.89,143.84L251.89,143.84z"/>
	</g>
</g>
<g>
	<g>
		<path class="st6" d="M101.77,143.84c3.22,0,3.22-5,0-5C98.55,138.84,98.54,143.84,101.77,143.84L101.77,143.84z"/>
	</g>
</g>
<g>
	<g>
		<path class="st6" d="M19.04,9.03c3.22,0,3.22-5,0-5C15.83,4.03,15.82,9.03,19.04,9.03L19.04,9.03z"/>
	</g>
</g>
<g>
	<g>
		<path class="st6" d="M1526.45,64.18c3.22,0,3.22-5,0-5C1523.23,59.18,1523.22,64.18,1526.45,64.18L1526.45,64.18z"/>
	</g>
</g>
<g>
	<g>
		<path class="st6" d="M935.13,284.78c3.22,0,3.22-5,0-5C931.91,279.78,931.91,284.78,935.13,284.78L935.13,284.78z"/>
	</g>
</g>
<g>
	<g>
		<path class="st6" d="M1118.96,195.93c3.22,0,3.22-5,0-5C1115.74,190.93,1115.73,195.93,1118.96,195.93L1118.96,195.93z"/>
	</g>
</g>
<g>
	<g>
		<path class="st6" d="M1247.64,306.22c3.22,0,3.22-5,0-5C1244.42,301.22,1244.42,306.22,1247.64,306.22L1247.64,306.22z"/>
	</g>
</g>
<g>
	<g>
		<path class="st6" d="M873.85,499.24c3.22,0,3.22-5,0-5C870.63,494.24,870.63,499.24,873.85,499.24L873.85,499.24z"/>
	</g>
</g>
<g>
	<g>
		<path class="st6" d="M1593.85,615.67c3.22,0,3.22-5,0-5C1590.63,610.67,1590.63,615.67,1593.85,615.67L1593.85,615.67z"/>
	</g>
</g>
<g>
	<g>
		<path class="st6" d="M1863.47,732.1c3.22,0,3.22-5,0-5C1860.25,727.1,1860.25,732.1,1863.47,732.1L1863.47,732.1z"/>
	</g>
</g>
<g>
	<g>
		<path class="st6" d="M1851.21,637.12c3.22,0,3.22-5,0-5C1848,632.12,1847.99,637.12,1851.21,637.12L1851.21,637.12z"/>
	</g>
</g>
<g>
	<g>
		<path class="st6" d="M1771.55,180.61c3.22,0,3.22-5,0-5C1768.34,175.61,1768.33,180.61,1771.55,180.61L1771.55,180.61z"/>
	</g>
</g>
<g>
	<g>
		<path class="st6" d="M1480.49,156.1c3.22,0,3.22-5,0-5C1477.27,151.1,1477.27,156.1,1480.49,156.1L1480.49,156.1z"/>
	</g>
</g>
<g>
	<g>
		<path class="st6" d="M1593.85,171.41c3.22,0,3.22-5,0-5C1590.63,166.41,1590.63,171.41,1593.85,171.41L1593.85,171.41z"/>
	</g>
</g>
<g>
	<g>
		<path class="st6" d="M1431.47,248.01c3.22,0,3.22-5,0-5C1428.25,243.01,1428.25,248.01,1431.47,248.01L1431.47,248.01z"/>
	</g>
</g>
<g>
	<g>
		<path class="st6" d="M1331.89,27.41c3.22,0,3.22-5,0-5C1328.68,22.41,1328.67,27.41,1331.89,27.41L1331.89,27.41z"/>
	</g>
</g>
<g>
	<g>
		<path class="st6" d="M1170.79,109.88c3.22,0,3.22-5,0-5C1167.57,104.88,1167.56,109.88,1170.79,109.88L1170.79,109.88z"/>
	</g>
</g>
<g>
	<g>
		<path class="st6" d="M901.94,40.95c3.22,0,3.22-5,0-5C898.72,35.95,898.71,40.95,901.94,40.95L901.94,40.95z"/>
	</g>
</g>
<g>
	<g>
		<path class="st6" d="M552.15,24.35c3.22,0,3.22-5,0-5C548.93,19.35,548.93,24.35,552.15,24.35L552.15,24.35z"/>
	</g>
</g>
<g>
	<g>
		<path class="st6" d="M340.74,15.16c3.22,0,3.22-5,0-5C337.53,10.16,337.52,15.16,340.74,15.16L340.74,15.16z"/>
	</g>
</g>
<g>
	<g>
		<path class="st6" d="M49.68,290.9c3.22,0,3.22-5,0-5C46.46,285.9,46.46,290.9,49.68,290.9L49.68,290.9z"/>
	</g>
</g>
<g>
	<g>
		<path class="st6" d="M98.7,465.54c3.22,0,3.22-5,0-5C95.48,460.54,95.48,465.54,98.7,465.54L98.7,465.54z"/>
	</g>
</g>
<g>
	<g>
		<path class="st6" d="M1802.19,695.33c3.22,0,3.22-5,0-5C1798.97,690.33,1798.97,695.33,1802.19,695.33L1802.19,695.33z"/>
	</g>
</g>
<g>
	<g>
		<path class="st6" d="M1269.09,585.03c3.22,0,3.22-5,0-5C1265.87,580.03,1265.86,585.03,1269.09,585.03L1269.09,585.03z"/>
	</g>
</g>
<g>
	<g>
		<path class="st6" d="M968.83,606.48c3.22,0,3.22-5,0-5C965.61,601.48,965.61,606.48,968.83,606.48L968.83,606.48z"/>
	</g>
</g>
<g>
	<g>
		<path class="st6" d="M993.34,456.35c3.22,0,3.22-5,0-5C990.12,451.35,990.12,456.35,993.34,456.35L993.34,456.35z"/>
	</g>
</g>
<g>
	<g>
		<path class="st6" d="M1069.94,254.14c3.22,0,3.22-5,0-5C1066.72,249.14,1066.71,254.14,1069.94,254.14L1069.94,254.14z"/>
	</g>
</g>
<g>
	<g>
		<path class="st6" d="M135.47,330.73c3.22,0,3.22-5,0-5C132.25,325.73,132.25,330.73,135.47,330.73L135.47,330.73z"/>
	</g>
</g>
<g>
	<g>
		<path class="st6" d="M163.04,39.67c3.22,0,3.22-5,0-5C159.83,34.67,159.82,39.67,163.04,39.67L163.04,39.67z"/>
	</g>
</g>
<g>
	<g>
		<path class="st6" d="M193.68,156.1c3.22,0,3.22-5,0-5C190.46,151.1,190.46,156.1,193.68,156.1L193.68,156.1z"/>
	</g>
</g>
<g>
	<g>
		<path class="st6" d="M43.55,208.18c3.22,0,3.22-5,0-5C40.34,203.18,40.33,208.18,43.55,208.18L43.55,208.18z"/>
	</g>
</g>
<g>
	<g>
		<path class="st6" d="M49.68,91.76c3.22,0,3.22-5,0-5C46.46,86.76,46.46,91.76,49.68,91.76L49.68,91.76z"/>
	</g>
</g>
<g>
	<g>
		<path class="st6" d="M595.04,131.59c3.22,0,3.22-5,0-5C591.83,126.59,591.82,131.59,595.04,131.59L595.04,131.59z"/>
	</g>
</g>
<g>
	<g>
		<path class="st6" d="M368.32,174.48c3.22,0,3.22-5,0-5C365.1,169.48,365.1,174.48,368.32,174.48L368.32,174.48z"/>
	</g>
</g>
<g>
	<g>
		<path class="st6" d="M454.11,336.86c3.22,0,3.22-5,0-5C450.89,331.86,450.88,336.86,454.11,336.86L454.11,336.86z"/>
	</g>
</g>
<g>
	<g>
		<path class="st6" d="M42.53,701.46c3.22,0,3.22-5,0-5C39.31,696.46,39.31,701.46,42.53,701.46L42.53,701.46z"/>
	</g>
</g>
<g>
	<g>
		<path class="st6" d="M331.55,502.31c3.22,0,3.22-5,0-5C328.34,497.31,328.33,502.31,331.55,502.31L331.55,502.31z"/>
	</g>
</g>
<g>
	<g>
		<path class="st6" d="M123.21,474.73c3.22,0,3.22-5,0-5C120,469.73,119.99,474.73,123.21,474.73L123.21,474.73z"/>
	</g>
</g>
<g>
	<g>
		<path class="st6" d="M236.57,542.14c3.22,0,3.22-5,0-5C233.36,537.14,233.35,542.14,236.57,542.14L236.57,542.14z"/>
	</g>
</g>
<g>
	<g>
		<path class="st6" d="M1002.53,419.59c3.22,0,3.22-5,0-5C999.31,414.59,999.31,419.59,1002.53,419.59L1002.53,419.59z"/>
	</g>
</g>
<g>
	<g>
		<path class="st6" d="M922.87,646.31c3.22,0,3.22-5,0-5C919.66,641.31,919.65,646.31,922.87,646.31L922.87,646.31z"/>
	</g>
</g>
<g>
	<g>
		<path class="st6" d="M558.28,425.71c3.22,0,3.22-5,0-5C555.06,420.71,555.05,425.71,558.28,425.71L558.28,425.71z"/>
	</g>
</g>
<g>
	<g>
		<path class="st6" d="M723.72,444.1c3.22,0,3.22-5,0-5C720.51,439.1,720.5,444.1,723.72,444.1L723.72,444.1z"/>
	</g>
</g>
<g>
	<g>
		<path class="st6" d="M555.21,349.12c3.22,0,3.22-5,0-5C552,344.12,551.99,349.12,555.21,349.12L555.21,349.12z"/>
	</g>
</g>
<g>
	<g>
		<path class="st6" d="M411.21,398.14c3.22,0,3.22-5,0-5C408,393.14,407.99,398.14,411.21,398.14L411.21,398.14z"/>
	</g>
</g>
<g>
	<g>
		<path class="st6" d="M337.68,327.67c3.22,0,3.22-5,0-5C334.46,322.67,334.46,327.67,337.68,327.67L337.68,327.67z"/>
	</g>
</g>
<g>
	<g>
		<path class="st6" d="M402.02,324.61c3.22,0,3.22-5,0-5C398.8,319.61,398.8,324.61,402.02,324.61L402.02,324.61z"/>
	</g>
</g>
<g>
	<g>
		<path class="st6" d="M506.19,220.44c3.22,0,3.22-5,0-5C502.97,215.44,502.97,220.44,506.19,220.44L506.19,220.44z"/>
	</g>
</g>
<g>
	<g>
		<path class="st6" d="M883.04,275.59c3.22,0,3.22-5,0-5C879.83,270.59,879.82,275.59,883.04,275.59L883.04,275.59z"/>
	</g>
</g>
<g>
	<g>
		<path class="st6" d="M677.77,162.22c3.22,0,3.22-5,0-5C674.55,157.22,674.54,162.22,677.77,162.22L677.77,162.22z"/>
	</g>
</g>
<g>
	<g>
		<path class="st6" d="M1073,140.78c3.22,0,3.22-5,0-5C1069.78,135.78,1069.78,140.78,1073,140.78L1073,140.78z"/>
	</g>
</g>
<g>
	<g>
		<path class="st6" d="M849.34,211.24c3.22,0,3.22-5,0-5C846.12,206.24,846.12,211.24,849.34,211.24L849.34,211.24z"/>
	</g>
</g>
<g>
	<g>
		<path class="st6" d="M935.13,76.44c3.22,0,3.22-5,0-5C931.91,71.44,931.91,76.44,935.13,76.44L935.13,76.44z"/>
	</g>
</g>
<g>
	<g>
		<path class="st6" d="M1098.79,21.8c3.22,0,3.22-5,0-5C1095.57,16.8,1095.56,21.8,1098.79,21.8L1098.79,21.8z"/>
	</g>
</g>
<g>
	<g>
		<path class="st6" d="M755.64,21.8c3.22,0,3.22-5,0-5C752.42,16.8,752.42,21.8,755.64,21.8L755.64,21.8z"/>
	</g>
</g>
<g>
	<g>
		<path class="st6" d="M1195.55,232.69c3.22,0,3.22-5,0-5C1192.34,227.69,1192.33,232.69,1195.55,232.69L1195.55,232.69z"/>
	</g>
</g>
<g>
	<g>
		<path class="st6" d="M1112.83,401.2c3.22,0,3.22-5,0-5C1109.61,396.2,1109.61,401.2,1112.83,401.2L1112.83,401.2z"/>
	</g>
</g>
<g>
	<g>
		<path class="st6" d="M999.47,352.18c3.22,0,3.22-5,0-5C996.25,347.18,996.25,352.18,999.47,352.18L999.47,352.18z"/>
	</g>
</g>
<g>
	<g>
		<path class="st6" d="M1299.72,327.67c3.22,0,3.22-5,0-5C1296.51,322.67,1296.5,327.67,1299.72,327.67L1299.72,327.67z"/>
	</g>
</g>
<g>
	<g>
		<path class="st6" d="M1238.45,551.33c3.22,0,3.22-5,0-5C1235.23,546.33,1235.22,551.33,1238.45,551.33L1238.45,551.33z"/>
	</g>
</g>
<g>
	<g>
		<path class="st6" d="M1382.45,621.8c3.22,0,3.22-5,0-5C1379.23,616.8,1379.22,621.8,1382.45,621.8L1382.45,621.8z"/>
	</g>
</g>
<g>
	<g>
		<path class="st6" d="M1348.74,480.86c3.22,0,3.22-5,0-5C1345.53,475.86,1345.52,480.86,1348.74,480.86L1348.74,480.86z"/>
	</g>
</g>
<g>
	<g>
		<path class="st6" d="M1290.53,514.56c3.22,0,3.22-5,0-5C1287.31,509.56,1287.31,514.56,1290.53,514.56L1290.53,514.56z"/>
	</g>
</g>
<g>
	<g>
		<path class="st6" d="M1033.17,689.2c3.22,0,3.22-5,0-5C1029.95,684.2,1029.95,689.2,1033.17,689.2L1033.17,689.2z"/>
	</g>
</g>
<g>
	<g>
		<path class="st6" d="M1054.62,447.16c3.22,0,3.22-5,0-5C1051.4,442.16,1051.39,447.16,1054.62,447.16L1054.62,447.16z"/>
	</g>
</g>
<g>
	<g>
		<path class="st6" d="M1103.64,511.5c3.22,0,3.22-5,0-5C1100.42,506.5,1100.42,511.5,1103.64,511.5L1103.64,511.5z"/>
	</g>
</g>
<g>
	<g>
		<path class="st6" d="M922.87,496.18c3.22,0,3.22-5,0-5C919.66,491.18,919.65,496.18,922.87,496.18L922.87,496.18z"/>
	</g>
</g>
<g>
	<g>
		<path class="st6" d="M996.4,539.07c3.22,0,3.22-5,0-5C993.19,534.07,993.18,539.07,996.4,539.07L996.4,539.07z"/>
	</g>
</g>
<g>
	<g>
		<path class="st6" d="M1333.43,174.48c3.22,0,3.22-5,0-5C1330.21,169.48,1330.2,174.48,1333.43,174.48L1333.43,174.48z"/>
	</g>
</g>
<g>
	<g>
		<path class="st6" d="M1266.02,388.95c3.22,0,3.22-5,0-5C1262.8,383.95,1262.8,388.95,1266.02,388.95L1266.02,388.95z"/>
	</g>
</g>
<g>
	<g>
		<path class="st6" d="M1714.87,286.31c3.22,0,3.22-5,0-5C1711.66,281.31,1711.65,286.31,1714.87,286.31L1714.87,286.31z"/>
	</g>
</g>
<g>
	<g>
		<path class="st6" d="M1819.04,220.44c3.22,0,3.22-5,0-5C1815.83,215.44,1815.82,220.44,1819.04,220.44L1819.04,220.44z"/>
	</g>
</g>
<g>
	<g>
		<path class="st6" d="M1900.23,21.29c3.22,0,3.22-5,0-5C1897.02,16.29,1897.01,21.29,1900.23,21.29L1900.23,21.29z"/>
	</g>
</g>
<g>
	<g>
		<path class="st6" d="M1657.38,95.63c3.22,0,3.22-5,0-5C1654.17,90.63,1654.16,95.63,1657.38,95.63L1657.38,95.63z"/>
	</g>
</g>
<g>
	<g>
		<path class="st6" d="M1610.45,25.63c3.22,0,3.22-5,0-5C1607.23,20.63,1607.22,25.63,1610.45,25.63L1610.45,25.63z"/>
	</g>
</g>
<g>
	<g>
		<path class="st6" d="M198.79,196.44c3.22,0,3.22-5,0-5C195.57,191.44,195.56,196.44,198.79,196.44L198.79,196.44z"/>
	</g>
</g>
<g>
	<g>
		<path class="st6" d="M186.53,554.9c3.22,0,3.22-5,0-5C183.31,549.9,183.31,554.9,186.53,554.9L186.53,554.9z"/>
	</g>
</g>
<g>
	<g>
		<path class="st6" d="M382.62,545.71c3.22,0,3.22-5,0-5C379.4,540.71,379.39,545.71,382.62,545.71L382.62,545.71z"/>
	</g>
</g>
<g>
	<g>
		<path class="st6" d="M232.49,478.31c3.22,0,3.22-5,0-5C229.27,473.31,229.27,478.31,232.49,478.31L232.49,478.31z"/>
	</g>
</g>
<g>
	<g>
		<path class="st6" d="M250.87,164.27c3.22,0,3.22-5,0-5C247.66,159.27,247.65,164.27,250.87,164.27L250.87,164.27z"/>
	</g>
</g>
<g>
	<g>
		<path class="st6" d="M240.15,47.84c3.22,0,3.22-5,0-5C236.93,42.84,236.93,47.84,240.15,47.84L240.15,47.84z"/>
	</g>
</g>
<g>
	<g>
		<path class="st6" d="M748.74,263.84c3.22,0,3.22-5,0-5C745.53,258.84,745.52,263.84,748.74,263.84L748.74,263.84z"/>
	</g>
</g>
<g>
	<g>
		<path class="st6" d="M747.21,349.63c3.22,0,3.22-5,0-5C744,344.63,743.99,349.63,747.21,349.63L747.21,349.63z"/>
	</g>
</g>
<g>
	<g>
		<path class="st6" d="M687.47,331.24c3.22,0,3.22-5,0-5C684.25,326.24,684.25,331.24,687.47,331.24L687.47,331.24z"/>
	</g>
</g>
<g>
	<g>
		<path class="st6" d="M609.34,541.12c3.22,0,3.22-5,0-5C606.12,536.12,606.12,541.12,609.34,541.12L609.34,541.12z"/>
	</g>
</g>
<g>
	<g>
		<path class="st6" d="M776.32,447.67c3.22,0,3.22-5,0-5C773.1,442.67,773.1,447.67,776.32,447.67L776.32,447.67z"/>
	</g>
</g>
<g>
	<g>
		<path class="st6" d="M730.36,505.88c3.22,0,3.22-5,0-5C727.14,500.88,727.14,505.88,730.36,505.88L730.36,505.88z"/>
	</g>
</g>
<g>
	<g>
		<path class="st6" d="M68.57,639.16c3.22,0,3.22-5,0-5C65.36,634.16,65.35,639.16,68.57,639.16L68.57,639.16z"/>
	</g>
</g>
<g>
	<g>
		<path class="st6" d="M11.89,496.69c3.22,0,3.22-5,0-5C8.68,491.69,8.67,496.69,11.89,496.69L11.89,496.69z"/>
	</g>
</g>
<g>
	<g>
		<path class="st6" d="M128.32,397.12c3.22,0,3.22-5,0-5C125.1,392.12,125.1,397.12,128.32,397.12L128.32,397.12z"/>
	</g>
</g>
<g>
	<g>
		<path class="st6" d="M1485.6,413.97c3.22,0,3.22-5,0-5C1482.38,408.97,1482.37,413.97,1485.6,413.97L1485.6,413.97z"/>
	</g>
</g>
<g>
	<g>
		<path class="st6" d="M1458.02,303.67c3.22,0,3.22-5,0-5C1454.8,298.67,1454.8,303.67,1458.02,303.67L1458.02,303.67z"/>
	</g>
</g>
<g>
	<g>
		<path class="st6" d="M1540.74,257.71c3.22,0,3.22-5,0-5C1537.53,252.71,1537.52,257.71,1540.74,257.71L1540.74,257.71z"/>
	</g>
</g>
<g>
	<g>
		<path class="st6" d="M1537.68,400.18c3.22,0,3.22-5,0-5C1534.46,395.18,1534.46,400.18,1537.68,400.18L1537.68,400.18z"/>
	</g>
</g>
<g>
	<g>
		<path class="st6" d="M1632.66,406.31c3.22,0,3.22-5,0-5C1629.44,401.31,1629.44,406.31,1632.66,406.31L1632.66,406.31z"/>
	</g>
</g>
<g>
	<g>
		<path class="st6" d="M1683.21,487.5c3.22,0,3.22-5,0-5C1680,482.5,1679.99,487.5,1683.21,487.5L1683.21,487.5z"/>
	</g>
</g>
<g>
	<g>
		<path class="st6" d="M1776.66,404.78c3.22,0,3.22-5,0-5C1773.44,399.78,1773.44,404.78,1776.66,404.78L1776.66,404.78z"/>
	</g>
</g>
<g>
	<g>
		<path class="st6" d="M1914.53,400.18c3.22,0,3.22-5,0-5C1911.31,395.18,1911.31,400.18,1914.53,400.18L1914.53,400.18z"/>
	</g>
</g>
<g>
	<g>
		<path class="st6" d="M1850.19,508.95c3.22,0,3.22-5,0-5C1846.97,503.95,1846.97,508.95,1850.19,508.95L1850.19,508.95z"/>
	</g>
</g>
<g>
	<g>
		<path class="st6" d="M1899.21,518.14c3.22,0,3.22-5,0-5C1896,513.14,1895.99,518.14,1899.21,518.14L1899.21,518.14z"/>
	</g>
</g>
<g>
	<g>
		<path class="st6" d="M1868.57,387.93c3.22,0,3.22-5,0-5C1865.36,382.93,1865.35,387.93,1868.57,387.93L1868.57,387.93z"/>
	</g>
</g>
<g>
	<g>
		<path class="st6" d="M1891.55,302.14c3.22,0,3.22-5,0-5C1888.34,297.14,1888.33,302.14,1891.55,302.14L1891.55,302.14z"/>
	</g>
</g>
<g>
	<g>
		<path class="st6" d="M1877.77,191.84c3.22,0,3.22-5,0-5C1874.55,186.84,1874.54,191.84,1877.77,191.84L1877.77,191.84z"/>
	</g>
</g>
<g>
	<g>
		<path class="st6" d="M1784.32,95.33c3.22,0,3.22-5,0-5C1781.1,90.33,1781.1,95.33,1784.32,95.33L1784.32,95.33z"/>
	</g>
</g>
<g>
	<g>
		<path class="st6" d="M1822.62,55.5c3.22,0,3.22-5,0-5C1819.4,50.5,1819.39,55.5,1822.62,55.5L1822.62,55.5z"/>
	</g>
</g>
<g>
	<g>
		<path class="st6" d="M1903.89,137.76c3.22,0,3.22-5,0-5C1900.68,132.76,1900.67,137.76,1903.89,137.76L1903.89,137.76z"/>
	</g>
</g>
<g>
	<g>
		<path class="st6" d="M1876.23,158.14c3.22,0,3.22-5,0-5C1873.02,153.14,1873.01,158.14,1876.23,158.14L1876.23,158.14z"/>
	</g>
</g>
<g>
	<g>
		<path class="st6" d="M1562.19,142.82c3.22,0,3.22-5,0-5C1558.97,137.82,1558.97,142.82,1562.19,142.82L1562.19,142.82z"/>
	</g>
</g>
<g>
	<g>
		<path class="st6" d="M1660.23,129.03c3.22,0,3.22-5,0-5C1657.02,124.03,1657.01,129.03,1660.23,129.03L1660.23,129.03z"/>
	</g>
</g>
<g>
	<g>
		<path class="st6" d="M1579.04,116.78c3.22,0,3.22-5,0-5C1575.83,111.78,1575.82,116.78,1579.04,116.78L1579.04,116.78z"/>
	</g>
</g>
<g>
	<g>
		<path class="st6" d="M1389.09,90.73c3.22,0,3.22-5,0-5C1385.87,85.73,1385.86,90.73,1389.09,90.73L1389.09,90.73z"/>
	</g>
</g>
<g>
	<g>
		<path class="st6" d="M1318.62,153.54c3.22,0,3.22-5,0-5C1315.4,148.54,1315.39,153.54,1318.62,153.54L1318.62,153.54z"/>
	</g>
</g>
<g>
	<g>
		<path class="st6" d="M1261.94,150.48c3.22,0,3.22-5,0-5C1258.72,145.48,1258.71,150.48,1261.94,150.48L1261.94,150.48z"/>
	</g>
</g>
<g>
	<g>
		<path class="st6" d="M1200.66,127.5c3.22,0,3.22-5,0-5C1197.44,122.5,1197.44,127.5,1200.66,127.5L1200.66,127.5z"/>
	</g>
</g>
<g>
	<g>
		<path class="st6" d="M1240.49,46.31c3.22,0,3.22-5,0-5C1237.27,41.31,1237.27,46.31,1240.49,46.31L1240.49,46.31z"/>
	</g>
</g>
<g>
	<g>
		<path class="st6" d="M1459.55,512.01c3.22,0,3.22-5,0-5C1456.34,507.01,1456.33,512.01,1459.55,512.01L1459.55,512.01z"/>
	</g>
</g>
<g>
	<g>
		<path class="st6" d="M1618.87,447.67c3.22,0,3.22-5,0-5C1615.66,442.67,1615.65,447.67,1618.87,447.67L1618.87,447.67z"/>
	</g>
</g>
<g>
	<g>
		<path class="st6" d="M1571.38,597.8c3.22,0,3.22-5,0-5C1568.17,592.8,1568.16,597.8,1571.38,597.8L1571.38,597.8z"/>
	</g>
</g>
<g>
	<g>
		<path class="st6" d="M1435.04,530.39c3.22,0,3.22-5,0-5C1431.83,525.39,1431.82,530.39,1435.04,530.39L1435.04,530.39z"/>
	</g>
</g>
<g>
	<g>
		<path class="st6" d="M1605.09,513.54c3.22,0,3.22-5,0-5C1601.87,508.54,1601.86,513.54,1605.09,513.54L1605.09,513.54z"/>
	</g>
</g>
<g>
	<g>
		<path class="st6" d="M1557.6,567.16c3.22,0,3.22-5,0-5C1554.38,562.16,1554.37,567.16,1557.6,567.16L1557.6,567.16z"/>
	</g>
</g>
<g>
	<g>
		<path class="st6" d="M1451.89,577.88c3.22,0,3.22-5,0-5C1448.68,572.88,1448.67,577.88,1451.89,577.88L1451.89,577.88z"/>
	</g>
</g>
<g>
	<g>
		<path class="st6" d="M1376.83,554.9c3.22,0,3.22-5,0-5C1373.61,549.9,1373.61,554.9,1376.83,554.9L1376.83,554.9z"/>
	</g>
</g>
<g>
	<g>
		<path class="st6" d="M1409,666.73c3.22,0,3.22-5,0-5C1405.78,661.73,1405.78,666.73,1409,666.73L1409,666.73z"/>
	</g>
</g>
<g>
	<g>
		<path class="st6" d="M1637.26,625.37c3.22,0,3.22-5,0-5C1634.04,620.37,1634.03,625.37,1637.26,625.37L1637.26,625.37z"/>
	</g>
</g>
<g>
	<g>
		<path class="st6" d="M1660.23,576.35c3.22,0,3.22-5,0-5C1657.02,571.35,1657.01,576.35,1660.23,576.35L1660.23,576.35z"/>
	</g>
</g>
<g>
	<g>
		<path class="st6" d="M1697,545.71c3.22,0,3.22-5,0-5C1693.78,540.71,1693.78,545.71,1697,545.71L1697,545.71z"/>
	</g>
</g>
<g>
	<g>
		<path class="st6" d="M1762.87,584.01c3.22,0,3.22-5,0-5C1759.66,579.01,1759.65,584.01,1762.87,584.01L1762.87,584.01z"/>
	</g>
</g>
<g>
	<g>
		<path class="st6" d="M1729.17,678.99c3.22,0,3.22-5,0-5C1725.95,673.99,1725.95,678.99,1729.17,678.99L1729.17,678.99z"/>
	</g>
</g>
<g>
	<g>
		<path class="st6" d="M1569.85,663.67c3.22,0,3.22-5,0-5C1566.63,658.67,1566.63,663.67,1569.85,663.67L1569.85,663.67z"/>
	</g>
</g>
<g>
	<g>
		<path class="st6" d="M1686.28,671.33c3.22,0,3.22-5,0-5C1683.06,666.33,1683.05,671.33,1686.28,671.33L1686.28,671.33z"/>
	</g>
</g>
<g>
	<g>
		<path class="st6" d="M1575.98,723.41c3.22,0,3.22-5,0-5C1572.76,718.41,1572.76,723.41,1575.98,723.41L1575.98,723.41z"/>
	</g>
</g>
<g>
	<g>
		<path class="st6" d="M1513.17,677.46c3.22,0,3.22-5,0-5C1509.95,672.46,1509.95,677.46,1513.17,677.46L1513.17,677.46z"/>
	</g>
</g>
<g>
	<g>
		<path class="st6" d="M1508.57,617.71c3.22,0,3.22-5,0-5C1505.36,612.71,1505.35,617.71,1508.57,617.71L1508.57,617.71z"/>
	</g>
</g>
<g>
	<g>
		<path class="st6" d="M1297.17,689.71c3.22,0,3.22-5,0-5C1293.95,684.71,1293.95,689.71,1297.17,689.71L1297.17,689.71z"/>
	</g>
</g>
<g>
	<g>
		<path class="st6" d="M1393.68,712.69c3.22,0,3.22-5,0-5C1390.46,707.69,1390.46,712.69,1393.68,712.69L1393.68,712.69z"/>
	</g>
</g>
<g>
	<g>
		<path class="st6" d="M1202.19,669.8c3.22,0,3.22-5,0-5C1198.97,664.8,1198.97,669.8,1202.19,669.8L1202.19,669.8z"/>
	</g>
</g>
<g>
	<g>
		<path class="st6" d="M1177.68,505.88c3.22,0,3.22-5,0-5C1174.46,500.88,1174.46,505.88,1177.68,505.88L1177.68,505.88z"/>
	</g>
</g>
<g>
	<g>
		<path class="st6" d="M1090.36,666.73c3.22,0,3.22-5,0-5C1087.14,661.73,1087.14,666.73,1090.36,666.73L1090.36,666.73z"/>
	</g>
</g>
<g>
	<g>
		<path class="st6" d="M1032.15,567.16c3.22,0,3.22-5,0-5C1028.93,562.16,1028.93,567.16,1032.15,567.16L1032.15,567.16z"/>
	</g>
</g>
<g>
	<g>
		<path class="st6" d="M1139.38,605.46c3.22,0,3.22-5,0-5C1136.17,600.46,1136.16,605.46,1139.38,605.46L1139.38,605.46z"/>
	</g>
</g>
<g>
	<g>
		<path class="st6" d="M1140.91,649.88c3.22,0,3.22-5,0-5C1137.7,644.88,1137.69,649.88,1140.91,649.88L1140.91,649.88z"/>
	</g>
</g>
<g>
	<g>
		<path class="st6" d="M1274.19,596.27c3.22,0,3.22-5,0-5C1270.97,591.27,1270.97,596.27,1274.19,596.27L1274.19,596.27z"/>
	</g>
</g>
<g>
	<g>
		<path class="st6" d="M1194.53,371.07c3.22,0,3.22-5,0-5C1191.31,366.07,1191.31,371.07,1194.53,371.07L1194.53,371.07z"/>
	</g>
</g>
<g>
	<g>
		<path class="st6" d="M1356.91,371.07c3.22,0,3.22-5,0-5C1353.7,366.07,1353.69,371.07,1356.91,371.07L1356.91,371.07z"/>
	</g>
</g>
<g>
	<g>
		<path class="st6" d="M1473.34,380.27c3.22,0,3.22-5,0-5C1470.12,375.27,1470.12,380.27,1473.34,380.27L1473.34,380.27z"/>
	</g>
</g>
<g>
	<g>
		<path class="st6" d="M471.47,52.44c3.22,0,3.22-5,0-5C468.25,47.44,468.25,52.44,471.47,52.44L471.47,52.44z"/>
	</g>
</g>
</svg>
