<?xml version="1.0" encoding="UTF-8" standalone="no"?>
<!-- Created with Inkscape (http://www.inkscape.org/) -->

<svg
   version="1.1"
   id="svg2"
   xml:space="preserve"
   width="528"
   height="192"
   viewBox="0 0 528 192"
   sodipodi:docname="Logo Text.ai"
   xmlns:inkscape="http://www.inkscape.org/namespaces/inkscape"
   xmlns:sodipodi="http://sodipodi.sourceforge.net/DTD/sodipodi-0.dtd"
   xmlns="http://www.w3.org/2000/svg"
   xmlns:svg="http://www.w3.org/2000/svg"><defs
     id="defs6"><clipPath
       clipPathUnits="userSpaceOnUse"
       id="clipPath28"><path
         d="M 0,144 H 396 V 0 H 0 Z"
         id="path26" /></clipPath><clipPath
       clipPathUnits="userSpaceOnUse"
       id="clipPath68"><path
         d="M 0,144 H 396 V 0 H 0 Z"
         id="path66" /></clipPath><clipPath
       clipPathUnits="userSpaceOnUse"
       id="clipPath88"><path
         d="M 0,144 H 396 V 0 H 0 Z"
         id="path86" /></clipPath><clipPath
       clipPathUnits="userSpaceOnUse"
       id="clipPath112"><path
         d="M 0,144 H 396 V 0 H 0 Z"
         id="path110" /></clipPath><clipPath
       clipPathUnits="userSpaceOnUse"
       id="clipPath132"><path
         d="M 0,144 H 396 V 0 H 0 Z"
         id="path130" /></clipPath></defs><sodipodi:namedview
     id="namedview4"
     pagecolor="#ffffff"
     bordercolor="#666666"
     borderopacity="1.0"
     inkscape:pageshadow="2"
     inkscape:pageopacity="0.0"
     inkscape:pagecheckerboard="0" /><g
     id="g8"
     inkscape:groupmode="layer"
     inkscape:label="Logo Text"
     transform="matrix(1.3333333,0,0,-1.3333333,0,192)"><g
       id="g10"
       transform="translate(105.8572,22.9439)"><path
         d="m 0,0 h -92.704 l 0.224,29.408 H 0.224 Z"
         style="fill:#efe8cc;fill-opacity:1;fill-rule:nonzero;stroke:none"
         id="path12" /></g><g
       id="g14"
       transform="translate(105.8572,22.9439)"><path
         d="m 0,0 h -92.704 l 0.224,29.408 H 0.224 Z"
         style="fill:none;stroke:#efe8cc;stroke-width:1;stroke-linecap:butt;stroke-linejoin:miter;stroke-miterlimit:10;stroke-dasharray:none;stroke-opacity:1"
         id="path16" /></g><g
       id="g18"
       transform="translate(13.1277,27.0334)"><path
         d="M 0,0 V 24.776"
         style="fill:none;stroke:#a9a695;stroke-width:1;stroke-linecap:butt;stroke-linejoin:miter;stroke-miterlimit:10;stroke-dasharray:none;stroke-opacity:1"
         id="path20" /></g><g
       id="g22"><g
         id="g24"
         clip-path="url(#clipPath28)"><g
           id="g30"
           transform="translate(106.0813,77.1841)"><path
             d="m 0,0 c 0,0 -7.802,40.043 -46.309,40.043 h 0.221 C -84.595,40.043 -92.397,0 -92.397,0"
             style="fill:#efe8cc;fill-opacity:1;fill-rule:nonzero;stroke:#b2af9c;stroke-width:1;stroke-linecap:butt;stroke-linejoin:miter;stroke-miterlimit:10;stroke-dasharray:none;stroke-opacity:1"
             id="path32" /></g><g
           id="g34"
           transform="translate(59.5864,35.9183)"><path
             d="m 0,0 c 44.322,0.53 47.051,15.891 47.051,15.891 v 19.731 c 0,20.113 -20.81,36.417 -46.481,36.417 H 0.023 c -25.671,0 -46.482,-16.304 -46.482,-36.417 V 15.891 c 0,0 2.729,-15.361 47.051,-15.891"
             style="fill:#efe8cc;fill-opacity:1;fill-rule:nonzero;stroke:#b2af9c;stroke-width:1;stroke-linecap:butt;stroke-linejoin:miter;stroke-miterlimit:10;stroke-dasharray:none;stroke-opacity:1"
             id="path36" /></g><g
           id="g38"
           transform="translate(59.871,16.2372)"><path
             d="m 0,0 c 27.283,0.411 38.658,2.845 43.491,4.106 3.875,1.011 3.275,3.437 3.275,3.437 v 3.253 c 0,0 -16.288,-4.416 -46.309,-4.089 H -0.434 C -30.455,6.38 -46.743,10.796 -46.743,10.796 V 7.543 c 0,0 -0.6,-2.426 3.275,-3.437 C -38.635,2.845 -27.26,0.411 0.023,0"
             style="fill:#efe8cc;fill-opacity:1;fill-rule:nonzero;stroke:#b2af9c;stroke-width:1;stroke-linecap:butt;stroke-linejoin:miter;stroke-miterlimit:10;stroke-dasharray:none;stroke-opacity:1"
             id="path40" /></g><g
           id="g42"
           transform="translate(106.6375,27.0334)"><path
             d="M 0,0 V 24.776"
             style="fill:none;stroke:#a9a695;stroke-width:1;stroke-linecap:butt;stroke-linejoin:miter;stroke-miterlimit:10;stroke-dasharray:none;stroke-opacity:1"
             id="path44" /></g><g
           id="g46"
           transform="translate(59.9931,38.9543)"><path
             d="m 0,0 c -41.062,0.491 -43.59,14.722 -43.59,14.722 v 18.28 c 0,18.633 19.279,33.738 43.062,33.738 h 0.835 c 23.782,0 43.062,-15.105 43.062,-33.738 v -18.28 c 0,0 -2.528,-14.231 -43.59,-14.722"
             style="fill:#2a190c;fill-opacity:1;fill-rule:nonzero;stroke:none"
             id="path48" /></g><g
           id="g50"
           transform="translate(59.709,97.881)"><path
             d="M 0,0 8.144,-16.502 26.356,-19.149 13.178,-31.994 16.289,-50.132 0,-41.568 l -16.289,-8.564 3.111,18.138 -13.178,12.845 18.212,2.647 z"
             style="fill:#fff1e7;fill-opacity:1;fill-rule:nonzero;stroke:none"
             id="path52" /></g><g
           id="g54"
           transform="translate(59.709,97.881)"><path
             d="M 0,0 8.144,-16.502 26.356,-19.149 13.178,-31.994 16.289,-50.132 0,-41.568 l -16.289,-8.564 3.111,18.138 -13.178,12.845 18.212,2.647 z"
             style="fill:none;stroke:#fff1e7;stroke-width:4;stroke-linecap:round;stroke-linejoin:round;stroke-miterlimit:10;stroke-dasharray:none;stroke-opacity:1"
             id="path56" /></g></g></g><text
       transform="matrix(1,0,0,-1,117.0024,52.8418)"
       style="font-variant:normal;font-weight:normal;font-stretch:expanded;font-size:36px;font-family:'OCR A Extended';-inkscape-font-specification:OCRAExtended;writing-mode:lr-tb;fill:#fff1e7;fill-opacity:1;fill-rule:nonzero;stroke:none"
       id="text60"><tspan
         x="0 22.643999"
         y="0"
         sodipodi:role="line"
         id="tspan58">TO</tspan></text><g
       id="g62"><g
         id="g64"
         clip-path="url(#clipPath68)"><g
           id="g70"
           transform="translate(121.0366,71.1318)"><path
             d="m 0,0 c 0.287,-0.287 0.636,-0.431 1.046,-0.431 0.41,0 0.759,0.144 1.046,0.431 0.287,0.287 0.43,0.636 0.43,1.046 v 1.037 h 2.989 v -18.896 c 0,-0.411 0.146,-0.759 0.439,-1.046 0.293,-0.287 0.651,-0.431 1.072,-0.431 0.399,0 0.745,0.144 1.038,0.431 0.293,0.287 0.439,0.635 0.439,1.046 V 2.083 h 2.988 V 1.011 c 0,-0.399 0.15,-0.744 0.449,-1.037 0.298,-0.293 0.653,-0.44 1.063,-0.44 0.398,0 0.744,0.144 1.037,0.431 0.293,0.287 0.44,0.636 0.44,1.046 V 5.036 H -0.431 V 1.046 C -0.431,0.636 -0.287,0.287 0,0 Z"
             style="fill:none;stroke:#fff1e8;stroke-width:0.75;stroke-linecap:butt;stroke-linejoin:miter;stroke-miterlimit:10;stroke-dasharray:none;stroke-opacity:1"
             id="path72" /></g><g
           id="g74"
           transform="translate(150.7031,76.2031)"><path
             d="m 0,0 c -1.617,0 -2.795,-0.721 -3.533,-2.162 l -3.27,-6.627 c -0.433,-0.867 -0.65,-1.846 -0.65,-2.936 0,-1.089 0.217,-2.062 0.65,-2.918 l 3.27,-6.556 c 0.316,-0.621 0.788,-1.137 1.415,-1.547 0.627,-0.41 1.333,-0.615 2.118,-0.615 1.652,0 2.824,0.72 3.516,2.162 l 3.252,6.556 c 0.457,0.914 0.685,1.887 0.685,2.918 0,1.055 -0.228,2.034 -0.685,2.936 L 3.516,-2.162 C 2.813,-0.721 1.641,0 0,0 Z m 0,-2.953 c 0.422,0 0.732,-0.229 0.932,-0.686 l 3.093,-6.222 c 0.293,-0.575 0.44,-1.184 0.44,-1.828 0,-0.61 -0.147,-1.225 -0.44,-1.846 l -3.164,-6.293 c -0.199,-0.387 -0.486,-0.58 -0.861,-0.58 -0.434,0 -0.732,0.193 -0.896,0.58 l -3.147,6.293 c -0.281,0.586 -0.422,1.201 -0.422,1.846 0,0.597 0.141,1.207 0.422,1.828 l 3.059,6.222 c 0.234,0.457 0.562,0.686 0.984,0.686 z"
             style="fill:none;stroke:#fff1e8;stroke-width:0.75;stroke-linecap:butt;stroke-linejoin:miter;stroke-miterlimit:10;stroke-dasharray:none;stroke-opacity:1"
             id="path76" /></g></g></g><text
       transform="matrix(1,0,0,-1,180.4345,52.8418)"
       style="font-variant:normal;font-weight:normal;font-stretch:expanded;font-size:36px;font-family:'OCR A Extended';-inkscape-font-specification:OCRAExtended;writing-mode:lr-tb;fill:#fff1e7;fill-opacity:1;fill-rule:nonzero;stroke:none"
       id="text80"><tspan
         x="0 22.643999 45.287998"
         y="0"
         sodipodi:role="line"
         id="tspan78">THE</tspan></text><g
       id="g82"><g
         id="g84"
         clip-path="url(#clipPath88)"><g
           id="g90"
           transform="translate(184.4692,71.1318)"><path
             d="m 0,0 c 0.287,-0.287 0.636,-0.431 1.046,-0.431 0.41,0 0.759,0.144 1.046,0.431 0.287,0.287 0.43,0.636 0.43,1.046 v 1.037 h 2.989 v -18.896 c 0,-0.411 0.146,-0.759 0.439,-1.046 0.293,-0.287 0.651,-0.431 1.072,-0.431 0.399,0 0.745,0.144 1.038,0.431 0.293,0.287 0.439,0.635 0.439,1.046 V 2.083 h 2.988 V 1.011 c 0,-0.399 0.15,-0.744 0.449,-1.037 0.298,-0.293 0.653,-0.44 1.063,-0.44 0.398,0 0.744,0.144 1.037,0.431 0.293,0.287 0.44,0.636 0.44,1.046 V 5.036 H -0.431 V 1.046 C -0.431,0.636 -0.287,0.287 0,0 Z"
             style="fill:none;stroke:#fff1e8;stroke-width:0.75;stroke-linecap:butt;stroke-linejoin:miter;stroke-miterlimit:10;stroke-dasharray:none;stroke-opacity:1"
             id="path92" /></g><g
           id="g94"
           transform="translate(207.0869,53.2725)"><path
             d="m 0,0 c 0.293,-0.287 0.639,-0.431 1.037,-0.431 0.41,0 0.765,0.147 1.064,0.44 0.298,0.293 0.448,0.638 0.448,1.037 V 9.8 h 8.965 V 1.046 c 0,-0.41 0.14,-0.759 0.422,-1.046 0.281,-0.287 0.632,-0.431 1.054,-0.431 0.387,0 0.73,0.147 1.029,0.44 0.298,0.293 0.448,0.638 0.448,1.037 v 20.373 c 0,0.422 -0.144,0.779 -0.431,1.072 -0.287,0.293 -0.636,0.44 -1.046,0.44 -0.41,0 -0.759,-0.147 -1.046,-0.44 -0.287,-0.293 -0.43,-0.638 -0.43,-1.037 v -8.701 h -9 v 8.701 c 0,0.399 -0.147,0.744 -0.44,1.037 -0.293,0.293 -0.638,0.44 -1.037,0.44 -0.41,0 -0.759,-0.147 -1.046,-0.44 -0.287,-0.293 -0.43,-0.638 -0.43,-1.037 V 1.046 C -0.439,0.636 -0.293,0.287 0,0 Z"
             style="fill:none;stroke:#fff1e8;stroke-width:0.75;stroke-linecap:butt;stroke-linejoin:miter;stroke-miterlimit:10;stroke-dasharray:none;stroke-opacity:1"
             id="path96" /></g><g
           id="g98"
           transform="translate(243.8198,73.6543)"><path
             d="M 0,0 C 0.299,0.293 0.448,0.639 0.448,1.037 0.448,1.447 0.299,1.802 0,2.101 -0.299,2.399 -0.653,2.549 -1.063,2.549 h -13.395 v -23.361 h 13.395 c 0.41,0 0.764,0.143 1.063,0.43 0.299,0.287 0.448,0.636 0.448,1.046 0,0.41 -0.146,0.759 -0.439,1.046 -0.293,0.287 -0.639,0.431 -1.037,0.431 h -10.477 v 7.242 h 4.5 c 0.41,0 0.759,0.146 1.046,0.439 0.287,0.293 0.431,0.651 0.431,1.073 0,0.398 -0.147,0.744 -0.44,1.037 -0.293,0.293 -0.638,0.439 -1.037,0.439 h -4.5 v 7.19 h 10.442 c 0.41,0 0.764,0.146 1.063,0.439 z"
             style="fill:none;stroke:#fff1e8;stroke-width:0.75;stroke-linecap:butt;stroke-linejoin:miter;stroke-miterlimit:10;stroke-dasharray:none;stroke-opacity:1"
             id="path100" /></g></g></g><text
       transform="matrix(1,0,0,-1,266.5112,52.8418)"
       style="font-variant:normal;font-weight:normal;font-stretch:expanded;font-size:36px;font-family:'OCR A Extended';-inkscape-font-specification:OCRAExtended;writing-mode:lr-tb;fill:#fff1e7;fill-opacity:1;fill-rule:nonzero;stroke:none"
       id="text104"><tspan
         x="0 22.643999"
         y="0"
         sodipodi:role="line"
         id="tspan102">ST</tspan></text><g
       id="g106"><g
         id="g108"
         clip-path="url(#clipPath112)"><g
           id="g114"
           transform="translate(271.1001,75.1924)"><path
             d="m 0,0 c -0.657,-0.674 -0.985,-1.468 -0.985,-2.382 0,-0.785 0.258,-1.512 0.775,-2.179 l 10.962,-14 c 0.153,-0.188 0.225,-0.341 0.216,-0.46 0,-0.251 -0.158,-0.376 -0.475,-0.376 H 3.146 c -0.329,0 -0.601,0.105 -0.818,0.316 -0.217,0.211 -0.325,0.475 -0.325,0.791 0,0.387 -0.141,0.724 -0.422,1.011 -0.281,0.287 -0.621,0.43 -1.019,0.43 -1.032,0 -1.547,-0.55 -1.547,-1.652 0,-0.961 0.389,-1.843 1.169,-2.645 0.779,-0.803 1.696,-1.205 2.751,-1.205 h 7.962 c 0.786,0 1.498,0.334 2.136,1.002 0.639,0.668 0.958,1.442 0.958,2.321 0,0.773 -0.264,1.499 -0.793,2.178 l -10.98,14 c -0.153,0.188 -0.224,0.353 -0.215,0.496 0,0.228 0.176,0.341 0.528,0.341 H 9.84 c 0.587,0 0.966,-0.31 1.136,-0.931 0.17,-0.621 0.349,-1.046 0.537,-1.275 0.187,-0.228 0.533,-0.343 1.037,-0.343 0.363,0 0.694,0.147 0.993,0.44 0.299,0.293 0.448,0.65 0.448,1.072 0,1.125 -0.419,2.083 -1.258,2.874 -0.839,0.791 -1.728,1.187 -2.667,1.187 H 2.376 C 1.449,1.011 0.657,0.674 0,0 Z"
             style="fill:none;stroke:#fff1e8;stroke-width:0.75;stroke-linecap:butt;stroke-linejoin:miter;stroke-miterlimit:10;stroke-dasharray:none;stroke-opacity:1"
             id="path116" /></g><g
           id="g118"
           transform="translate(293.1899,71.1318)"><path
             d="m 0,0 c 0.287,-0.287 0.636,-0.431 1.046,-0.431 0.41,0 0.759,0.144 1.046,0.431 0.287,0.287 0.43,0.636 0.43,1.046 v 1.037 h 2.989 v -18.896 c 0,-0.411 0.146,-0.759 0.439,-1.046 0.293,-0.287 0.651,-0.431 1.072,-0.431 0.399,0 0.745,0.144 1.038,0.431 0.293,0.287 0.439,0.635 0.439,1.046 V 2.083 h 2.988 V 1.011 c 0,-0.399 0.15,-0.744 0.449,-1.037 0.298,-0.293 0.653,-0.44 1.063,-0.44 0.398,0 0.744,0.144 1.037,0.431 0.293,0.287 0.44,0.636 0.44,1.046 V 5.036 H -0.431 V 1.046 C -0.431,0.636 -0.287,0.287 0,0 Z"
             style="fill:none;stroke:#fff1e8;stroke-width:0.75;stroke-linecap:butt;stroke-linejoin:miter;stroke-miterlimit:10;stroke-dasharray:none;stroke-opacity:1"
             id="path120" /></g></g></g><text
       transform="matrix(1,0,0,-1,334.4438,52.8418)"
       style="font-variant:normal;font-weight:normal;font-stretch:expanded;font-size:36px;font-family:'OCR A Extended';-inkscape-font-specification:OCRAExtended;writing-mode:lr-tb;fill:#fff1e7;fill-opacity:1;fill-rule:nonzero;stroke:none"
       id="text124"><tspan
         x="0 22.643999"
         y="0"
         sodipodi:role="line"
         id="tspan122">RS</tspan></text><g
       id="g126"><g
         id="g128"
         clip-path="url(#clipPath132)"><g
           id="g134"
           transform="translate(338.5483,53.2725)"><path
             d="m 0,0 c 0.287,-0.287 0.636,-0.431 1.046,-0.431 0.41,0 0.765,0.144 1.063,0.431 0.299,0.287 0.449,0.636 0.449,1.046 V 12.313 H 4.691 L 11.605,0.356 c 0.303,-0.527 0.749,-0.79 1.337,-0.787 0.388,0 0.734,0.144 1.04,0.431 0.306,0.287 0.458,0.63 0.458,1.028 0,0.305 -0.093,0.61 -0.28,0.914 L 8.13,12.313 h 1.881 c 1.218,0 2.261,0.437 3.129,1.31 0.867,0.873 1.3,1.925 1.3,3.155 v 1.688 c 0,1.219 -0.436,2.267 -1.309,3.146 -0.873,0.879 -1.913,1.319 -3.12,1.319 H -0.431 V 1.046 C -0.431,0.636 -0.287,0.287 0,0 Z m 2.522,19.942 h 7.489 c 0.41,0 0.759,-0.143 1.046,-0.43 0.287,-0.287 0.43,-0.636 0.43,-1.046 v -1.723 c 0,-0.41 -0.143,-0.759 -0.43,-1.046 -0.287,-0.287 -0.636,-0.43 -1.046,-0.43 H 2.522 Z"
             style="fill:none;stroke:#fff1e8;stroke-width:0.75;stroke-linecap:butt;stroke-linejoin:miter;stroke-miterlimit:10;stroke-dasharray:none;stroke-opacity:1"
             id="path136" /></g><g
           id="g138"
           transform="translate(361.6768,75.1924)"><path
             d="m 0,0 c -0.657,-0.674 -0.985,-1.468 -0.985,-2.382 0,-0.785 0.258,-1.512 0.775,-2.179 l 10.962,-14 c 0.153,-0.188 0.225,-0.341 0.216,-0.46 0,-0.251 -0.158,-0.376 -0.475,-0.376 H 3.146 c -0.329,0 -0.601,0.105 -0.818,0.316 -0.217,0.211 -0.325,0.475 -0.325,0.791 0,0.387 -0.141,0.724 -0.422,1.011 -0.281,0.287 -0.621,0.43 -1.019,0.43 -1.032,0 -1.547,-0.55 -1.547,-1.652 0,-0.961 0.389,-1.843 1.169,-2.645 0.779,-0.803 1.696,-1.205 2.751,-1.205 h 7.962 c 0.786,0 1.498,0.334 2.136,1.002 0.639,0.668 0.958,1.442 0.958,2.321 0,0.773 -0.264,1.499 -0.793,2.178 l -10.98,14 c -0.153,0.188 -0.224,0.353 -0.215,0.496 0,0.228 0.176,0.341 0.528,0.341 H 9.84 c 0.587,0 0.966,-0.31 1.136,-0.931 0.17,-0.621 0.349,-1.046 0.537,-1.275 0.187,-0.228 0.533,-0.343 1.037,-0.343 0.363,0 0.694,0.147 0.993,0.44 0.299,0.293 0.448,0.65 0.448,1.072 0,1.125 -0.42,2.083 -1.258,2.874 -0.839,0.791 -1.728,1.187 -2.667,1.187 H 2.376 C 1.449,1.011 0.657,0.674 0,0 Z"
             style="fill:none;stroke:#fff1e8;stroke-width:0.75;stroke-linecap:butt;stroke-linejoin:miter;stroke-miterlimit:10;stroke-dasharray:none;stroke-opacity:1"
             id="path140" /></g><g
           id="g142"
           transform="translate(321.6659,75.7485)"><path
             d="m 0,0 3.671,-7.438 8.208,-1.193 -5.939,-5.79 1.402,-8.175 -7.342,3.86 -7.342,-3.86 1.402,8.175 -5.939,5.79 8.208,1.193 z"
             style="fill:none;stroke:#fff1e7;stroke-width:2;stroke-linecap:round;stroke-linejoin:round;stroke-miterlimit:10;stroke-dasharray:none;stroke-opacity:1"
             id="path144" /></g></g></g></g></svg>
