<?xml version="1.0" encoding="utf-8"?>
<!-- Generator: Adobe Illustrator 27.1.1, SVG Export Plug-In . SVG Version: 6.00 Build 0)  -->
<svg version="1.1" id="Layer_1" xmlns="http://www.w3.org/2000/svg" xmlns:xlink="http://www.w3.org/1999/xlink" x="0px" y="0px"
	 viewBox="0 0 36 36" style="enable-background:new 0 0 36 36;" xml:space="preserve">
<style type="text/css">
	.st0{fill:#984D23;}
	.st1{fill:#FFFFFF;}
</style>
<g>
	<g>
		<path class="st0" d="M15.29,15.02V5.95c0-0.8,0.29-1.48,0.88-2.04s1.3-0.84,2.14-0.84c0.8,0,1.48,0.28,2.04,0.84
			s0.84,1.24,0.84,2.04v9.07h9.07c0.82,0,1.53,0.29,2.13,0.86c0.6,0.57,0.9,1.27,0.9,2.09c0,0.82-0.3,1.52-0.9,2.09
			s-1.31,0.86-2.13,0.86h-9V30c0,0.84-0.3,1.56-0.9,2.14s-1.31,0.88-2.13,0.88s-1.52-0.29-2.09-0.88s-0.86-1.3-0.86-2.14v-9.07H6.22
			c-0.8,0-1.49-0.29-2.07-0.86s-0.88-1.27-0.88-2.09c0-0.8,0.29-1.49,0.88-2.07c0.59-0.59,1.28-0.88,2.07-0.88H15.29z"/>
	</g>
</g>
<rect x="4.79" y="2.15" class="st1" width="26.26" height="12.89"/>
<rect x="3.38" y="20.93" class="st1" width="29.48" height="13.23"/>
</svg>
