<?xml version="1.0" encoding="utf-8"?>
<!-- Generator: Adobe Illustrator 27.1.1, SVG Export Plug-In . SVG Version: 6.00 Build 0)  -->
<svg version="1.1" id="Layer_1" xmlns="http://www.w3.org/2000/svg" xmlns:xlink="http://www.w3.org/1999/xlink" x="0px" y="0px"
	 viewBox="0 0 792 576" style="enable-background:new 0 0 792 576;" xml:space="preserve">
<style type="text/css">
	.st0{fill:#E68D5D;}
	.st1{fill:#EFE8CC;stroke:#B1AE9C;stroke-width:7;stroke-linecap:round;stroke-linejoin:round;stroke-miterlimit:10;}
	.st2{fill:#C98372;stroke:#91463A;stroke-width:4;stroke-miterlimit:10;}
	.st3{fill:#91463A;stroke:#91463A;stroke-width:4;stroke-miterlimit:10;}
	.st4{fill:#D23C27;stroke:#A53A23;stroke-miterlimit:10;}
	.st5{fill:#EFE8CC;stroke:#B5956A;stroke-miterlimit:10;}
	.st6{fill:#EFE8CC;stroke:#EFE8CC;stroke-miterlimit:10;}
	.st7{fill:none;stroke:#A8A694;stroke-miterlimit:10;}
	.st8{fill:none;stroke:#A5391D;stroke-miterlimit:10;}
	.st9{fill:#EFE8CC;stroke:#B1AE9C;stroke-miterlimit:10;}
	.st10{fill:#DC7038;stroke:#A5391D;stroke-miterlimit:10;}
	.st11{fill:#EFE8CC;stroke:#B5956A;stroke-linecap:round;stroke-linejoin:round;stroke-miterlimit:10;}
	.st12{fill:#2B190D;stroke:#A8A694;stroke-miterlimit:10;}
	.st13{fill:none;stroke:#91463A;stroke-width:3;stroke-linecap:round;stroke-linejoin:round;stroke-miterlimit:10;}
	.st14{fill:none;stroke:#C36C59;stroke-width:12;stroke-linecap:round;stroke-linejoin:round;stroke-miterlimit:10;}
	.st15{fill:#2B190D;}
	.st16{fill:#FFF1E7;stroke:#FFF1E7;stroke-width:4;stroke-linecap:round;stroke-linejoin:round;stroke-miterlimit:10;}
	.st17{fill:#FFF1E7;}
	.st18{fill:none;stroke:#FFF1E7;stroke-linecap:round;stroke-linejoin:round;stroke-miterlimit:10;}
	.st19{fill:none;stroke:#612A20;stroke-width:4;stroke-miterlimit:10;}
	.st20{fill:none;stroke:#612A20;stroke-width:15;stroke-miterlimit:10;}
	.st21{fill:#EFE8CC;}
	.st22{fill:#C98372;}
	.st23{fill:none;stroke:#91463A;stroke-width:4;stroke-miterlimit:10;}
	.st24{fill:none;stroke:#B1AE9C;stroke-width:7;stroke-linecap:round;stroke-linejoin:round;stroke-miterlimit:10;}
	.st25{fill:none;stroke:#984C1E;stroke-width:5;stroke-miterlimit:10;}
</style>
<path class="st0" d="M771.48,570.23H21.11c-7.05,0-12.77-5.72-12.77-12.77V21.69c0-7.05,5.72-12.77,12.77-12.77h750.38
	c7.05,0,12.77,5.72,12.77,12.77v535.78C784.26,564.52,778.54,570.23,771.48,570.23z"/>
<path class="st1" d="M783.67,314.07c-0.26-17.63-0.56-35.26-0.75-52.89L493.03,445.85c-2.4,2.91-4.25,4.41-4.25,4.41
	c-41.34,46.15-52.65,85.93-52.25,116.14c13.42-1.4,27.24-0.74,39.77-0.14c7.67,0.37,15.32,0.94,22.97,1.53
	c6.46,0.5,12.93,0.72,19.41,0.85c0.86-0.01,1.72-0.02,2.59-0.03c45.97-0.55,91.96-0.29,137.91-1.44c39.52-0.99,79.08-2.51,118.59-1
	c2.5-33.54-0.3-67.22,3.14-100.75c0.66-6.42,1.21-12.85,1.69-19.29C781.95,402.11,782.83,358.09,783.67,314.07z"/>
<path class="st2" d="M490.19,447.47l-358.03,72.95c-12.85,2.62-25.39-5.68-28.01-18.53L37.98,177.09
	c-2.62-12.85,5.68-25.39,18.53-28.01l591.1-120.43c12.85-2.62,25.39,5.68,28.01,18.53l66.18,324.81
	c2.62,12.85-5.68,25.39-18.53,28.01L490.19,447.47"/>
<path class="st3" d="M89.27,211.63l156.37-31.86c7.67-1.56,15.15,3.39,16.71,11.05l38.52,189.06c1.56,7.67-3.39,15.15-11.05,16.71
	l-156.37,31.86c-7.67,1.56-15.15-3.39-16.71-11.05L78.21,228.34C76.65,220.67,81.6,213.19,89.27,211.63z"/>
<path class="st4" d="M299.58,374.11c-0.83-3.6-1.74-7.18-2.25-10.84c-0.48-3.45-1.41-6.7-2.17-10.08l-33.08-1.46l-6.91-0.17
	c-1.76,0.32-1.23,1.27-1.23,1.27c0.46,2.44,0.79,5.61,0.31,8.78l-2.21,34.84l-0.01,0.08c-0.16,1.54-1.3,2.73-2.81,3.04
	c-0.57,0.12-1.06,0.12-1.62-0.05l-0.11-0.03l-36.83-10.22l-2.26,2.77l-3.16-1.67l-29.85,23.82l-1.6,0.74
	c-1.52,0.31-3.07-0.41-3.82-1.76l-0.08-0.19l-15.66-31.2c-1.83-2.97-2.78-6.32-3.28-8.83l-0.16-0.9l-9.37,4.25l-30.05,14.37
	c0.32,0.71,0.49,1.53,0.48,2.46c0,0.07,0.01,0.14,0.01,0.21c0.26,0.5,0.47,1.04,0.58,1.68c0.47,2.68,0.93,5.39,1.41,8.11
	c0.18,0.29,0.34,0.62,0.42,1.02c0.95,4.29,2.03,8.56,2.49,12.94c0.02,0.19,0.05,0.37,0.07,0.56c0.2,0.19,0.35,0.44,0.42,0.78
	c0.14,0.67,0.26,1.35,0.45,2.01c0.07,0.09,0.14,0.18,0.19,0.28c0.17,0.34,0.37,0.67,0.58,0.99c0.49,0.68,1.05,1.3,1.68,1.84
	c0.16,0.13,0.29,0.28,0.39,0.47c0.04,0.13,0.09,0.25,0.13,0.38c0.01,0.04,0.01,0.08,0.01,0.12c0.71,0.6,1.42,1.21,2.1,1.84
	c0.76,0.44,1.54,0.88,2.35,1.16c1.35,0.47,2.81,0.56,4.22,0.72c1.37,0.15,2.69,0.2,4.01,0.18c0.02-0.02,0.02-0.04,0.04-0.06
	c0.12-0.16,0.26-0.28,0.45-0.36c0.14-0.09,0.29-0.14,0.45-0.19c0.15-0.05,0.29-0.1,0.44-0.13c0.22-0.04,0.44-0.05,0.66-0.05
	c0.09,0,0.19,0,0.28,0.01c0.26,0.03,0.53,0.08,0.79,0.14c1.37-0.39,2.76-0.58,4.18-0.81c0.93-0.35,1.87-0.68,2.84-0.92
	c1.89-0.47,3.83-0.85,5.77-1.06c0.51-0.05,1.03-0.1,1.55-0.15c0.23-0.04,0.47-0.08,0.7-0.12c1.41-0.36,2.83-0.69,4.25-0.93
	c0.16-0.03,0.31-0.02,0.45,0c0.45-0.08,0.9-0.15,1.34-0.22c0.33-0.24,0.71-0.42,1.11-0.52c0.42-0.39,0.96-0.72,1.46-0.76
	c0.28-0.02,0.56-0.03,0.85-0.05c0.36-0.27,0.77-0.47,1.21-0.56c3.73-0.75,7.5-1.24,11.24-1.95c0.64-0.12,1.25-0.04,1.79,0.18
	c6.36-1.62,12.74-3.14,19.18-4.04c0.37-0.31,0.8-0.53,1.3-0.59c1.99-0.24,4-0.49,6.01-0.76c0.32-0.26,0.69-0.42,1.11-0.49l2.89-0.59
	c0.49-0.1,0.96-0.06,1.43,0.06c0.96-0.21,1.93-0.43,2.89-0.62c0.32-0.21,0.68-0.36,1.05-0.44c0.82-0.16,1.66-0.25,2.5-0.31
	c0.16-0.06,0.33-0.12,0.51-0.16c0.07-0.01,0.13-0.01,0.19-0.02c0.01,0,0.01,0,0.01,0c0.23-0.11,0.47-0.21,0.75-0.27
	c0.18-0.04,0.35-0.05,0.52-0.06l0.05-0.01c0.29-0.06,0.57-0.07,0.86-0.05c5.39-1.42,10.81-2.57,16.28-3.68
	c0.38-0.08,0.73-0.07,1.05-0.03c0.33-0.06,0.66-0.12,1-0.17c3.54-0.6,6.98-1.46,10.48-2.01c0.38-0.28,0.81-0.5,1.25-0.59
	c2.38-0.48,4.78-0.83,7.15-1.31c0.28-0.06,0.55-0.06,0.81-0.04c1.59-0.38,3.19-0.74,4.8-1.03c1.42-0.26,2.84-0.5,4.26-0.73
	c0.3-0.19,0.65-0.34,1.07-0.42c9.1-1.77,18.18-3.64,27.27-5.52c0.32-0.12,0.62-0.23,0.93-0.34c0.14-0.21,0.32-0.39,0.54-0.52
	c0.87-0.53,1.78-0.97,2.66-1.49c0.06-0.06,0.11-0.12,0.17-0.17c0.37-0.37,0.75-0.72,1.14-1.05c0.72-0.84,1.34-1.77,1.95-2.68
	c0.08-0.12,0.14-0.23,0.21-0.35c0.17-0.37,0.33-0.73,0.41-1.13c0.04-0.13,0.1-0.26,0.18-0.38l0.09-0.1
	c0.06-0.19,0.12-0.37,0.17-0.56c0.19-0.62,0.37-1.25,0.55-1.87c-0.02-0.42-0.04-0.84-0.03-1.26c0-0.19,0.06-0.38,0.14-0.55
	c0-0.02,0-0.04,0-0.06c0.01-0.19,0.06-0.37,0.14-0.53c-0.03-0.61-0.09-1.22-0.21-1.84c-0.05-0.25-0.04-0.48,0.02-0.68
	C300.52,378.35,300.06,376.23,299.58,374.11z"/>
<path class="st5" d="M297.33,363.27c-0.47-3.38-1.38-6.57-2.13-9.88l-10.65-0.42c0.54,0.76,0.9,1.19,0.9,1.19l9.55,9.51
	c0,0,1.35,1.87,3.09,3.82C297.79,366.09,297.52,364.69,297.33,363.27z"/>
<path class="st5" d="M299.78,375.05c-0.26-0.68-0.82-1.66-1.81-3.07c-5.56-7.98-17.02-16.55-17.02-16.55l-0.46-0.33
	c-0.56-0.87-1.11-1.68-1.66-2.43l-3.36-0.15l-7.69-0.34l-11.84-0.29c0,0-2.41-0.33-2.12,0.43c0.29,0.76,0.64,5.31,0.64,5.31
	l-1.38,22.21c1.67,1.37,2.94,2.14,2.94,2.14s4.2,20.19,21.04,13.91c12.3-4.58,6.68-0.13,2.76,2.61c4.03-0.82,8.06-1.65,12.08-2.48
	c0.31-0.11,0.61-0.22,0.91-0.32c0.14-0.21,0.32-0.39,0.55-0.53c0.04-0.02,0.08-0.05,0.13-0.07c0.35-0.32,0.7-0.65,1.1-1
	c0,0,7.27-15.41-0.93-9.63c-8.2,5.79-16.03,2.68-16.03,2.68s-7.18-7.12,5.61-5.2c0,0,11.9-0.73,4.32-3.29c0,0-11.31-2.05-5.56-4.06
	c0,0,2.14-1.16,9.22,2.14c7.08,3.3-7.19-6.99-7.19-6.99s-3.92-4.26,2.92-1.97l8.77,6.74c0,0,4.11,2.87,4.23,1.39
	C299.91,375.61,299.85,375.33,299.78,375.05z"/>
<polygon class="st6" points="264.24,328.74 131.16,355.85 122.88,313.57 255.96,286.46 "/>
<path class="st7" d="M256.92,287.08"/>
<line class="st7" x1="129.93" y1="349.99" x2="122.68" y2="314.42"/>
<path class="st8" d="M153.15,358.76l-2.75,10.93c0,0,0.16,0.7,0.33,1.86"/>
<path class="st9" d="M248.7,250.81c0,0-22.91-55.2-78.19-43.94l0.32-0.06c-55.28,11.26-54.76,71.03-54.76,71.03"/>
<path class="st9" d="M194.02,323.65c63.47-13.72,62.89-36.57,62.89-36.57l-5.77-28.32c-5.88-28.87-40.52-46.19-77.37-38.68
	l-0.79,0.16c-36.85,7.51-61.95,37-56.07,65.87l5.77,28.32c0,0,8.41,21.25,72.19,9.05"/>
<path class="st10" d="M230.25,342.69c-2.32,12.97-7.95,32.95-21.48,48.92l-1.01,0.11c-18.69-9.39-31.63-25.54-38.8-36.54
	L230.25,342.69z"/>
<path class="st8" d="M245.98,339.49l6.81,8.98c0,0,0.65,2.25,1.04,3.85"/>
<path class="st4" d="M168.96,355.18c6.75,10.35,18.6,25.25,35.53,34.8l0.75,0.41l-29.85,23.82l-1.6,0.74
	c-1.52,0.31-3.07-0.41-3.82-1.76l-0.08-0.19l-15.66-31.2c-1.83-2.97-2.78-6.32-3.28-8.83l-0.16-0.9l-0.06-0.52
	c-0.16-1.17-0.33-1.86-0.33-1.86l2.75-10.93L168.96,355.18z"/>
<path class="st4" d="M245.98,339.49l6.81,8.98c0,0,0.65,2.25,1.04,3.85l0.1,0.52c0.46,2.44,0.79,5.61,0.31,8.78l-2.21,34.84
	l-0.01,0.08c-0.16,1.54-1.3,2.73-2.81,3.04c-0.57,0.12-1.06,0.12-1.62-0.05l-0.11-0.03l-36.83-10.22l0.63-0.8
	c13.53-15.96,16.64-32.82,18.96-45.78L245.98,339.49z"/>
<path class="st9" d="M200.19,351.82c39.04-8.57,54.66-15.39,61.23-18.61c5.27-2.58,3.7-5.89,3.7-5.89l-0.95-4.67
	c0,0-22.09,11.1-65.28,19.41l-1.28,0.26c-43,9.25-67.67,7.67-67.67,7.67l0.95,4.67c0,0-0.15,3.66,5.71,3.98
	c7.31,0.4,24.35,0.56,63.63-6.83"/>
<line class="st7" x1="264.16" y1="322.64" x2="256.92" y2="287.08"/>
<path class="st7" d="M176.14,233.63"/>
<path class="st7" d="M176.14,233.63"/>
<path class="st8" d="M299.58,374.11c-0.83-3.6-1.74-7.18-2.25-10.84c-0.48-3.45-1.41-6.7-2.17-10.08l-33.08-1.46l-6.91-0.17
	c-1.76,0.32-1.23,1.27-1.23,1.27c0.46,2.44,0.79,5.61,0.31,8.78l-2.21,34.84l-0.01,0.08c-0.16,1.54-1.3,2.73-2.81,3.04
	c-0.57,0.12-1.06,0.12-1.62-0.05l-0.11-0.03l-36.83-10.22l-2.26,2.77l-3.16-1.67l-29.85,23.82l-1.6,0.74
	c-1.52,0.31-3.07-0.41-3.82-1.76l-0.08-0.19l-15.66-31.2c-1.83-2.97-2.78-6.32-3.28-8.83l-0.16-0.9l-9.37,4.25l-30.05,14.37
	c0.32,0.71,0.49,1.53,0.48,2.46c0,0.07,0.01,0.14,0.01,0.21c0.26,0.5,0.47,1.04,0.58,1.68c0.47,2.68,0.93,5.39,1.41,8.11
	c0.18,0.29,0.34,0.62,0.42,1.02c0.95,4.29,2.03,8.56,2.49,12.94c0.02,0.19,0.05,0.37,0.07,0.56c0.2,0.19,0.35,0.44,0.42,0.78
	c0.14,0.67,0.26,1.35,0.45,2.01c0.07,0.09,0.14,0.18,0.19,0.28c0.17,0.34,0.37,0.67,0.58,0.99c0.49,0.68,1.05,1.3,1.68,1.84
	c0.16,0.13,0.29,0.28,0.39,0.47c0.04,0.13,0.09,0.25,0.13,0.38c0.01,0.04,0.01,0.08,0.01,0.12c0.71,0.6,1.42,1.21,2.1,1.84
	c0.76,0.44,1.54,0.88,2.35,1.16c1.35,0.47,2.81,0.56,4.22,0.72c1.37,0.15,2.69,0.2,4.01,0.18c0.02-0.02,0.02-0.04,0.04-0.06
	c0.12-0.16,0.26-0.28,0.45-0.36c0.14-0.09,0.29-0.14,0.45-0.19c0.15-0.05,0.29-0.1,0.44-0.13c0.22-0.04,0.44-0.05,0.66-0.05
	c0.09,0,0.19,0,0.28,0.01c0.26,0.03,0.53,0.08,0.79,0.14c1.37-0.39,2.76-0.58,4.18-0.81c0.93-0.35,1.87-0.68,2.84-0.92
	c1.89-0.47,3.83-0.85,5.77-1.06c0.51-0.05,1.03-0.1,1.55-0.15c0.23-0.04,0.47-0.08,0.7-0.12c1.41-0.36,2.83-0.69,4.25-0.93
	c0.16-0.03,0.31-0.02,0.45,0c0.45-0.08,0.9-0.15,1.34-0.22c0.33-0.24,0.71-0.42,1.11-0.52c0.42-0.39,0.96-0.72,1.46-0.76
	c0.28-0.02,0.56-0.03,0.85-0.05c0.36-0.27,0.77-0.47,1.21-0.56c3.73-0.75,7.5-1.24,11.24-1.95c0.64-0.12,1.25-0.04,1.79,0.18
	c6.36-1.62,12.74-3.14,19.18-4.04c0.37-0.31,0.8-0.53,1.3-0.59c1.99-0.24,4-0.49,6.01-0.76c0.32-0.26,0.69-0.42,1.11-0.49l2.89-0.59
	c0.49-0.1,0.96-0.06,1.43,0.06c0.96-0.21,1.93-0.43,2.89-0.62c0.32-0.21,0.68-0.36,1.05-0.44c0.82-0.16,1.66-0.25,2.5-0.31
	c0.16-0.06,0.33-0.12,0.51-0.16c0.07-0.01,0.13-0.01,0.19-0.02c0.01,0,0.01,0,0.01,0c0.23-0.11,0.47-0.21,0.75-0.27
	c0.18-0.04,0.35-0.05,0.52-0.06l0.05-0.01c0.29-0.06,0.57-0.07,0.86-0.05c5.39-1.42,10.81-2.57,16.28-3.68
	c0.38-0.08,0.73-0.07,1.05-0.03c0.33-0.06,0.66-0.12,1-0.17c3.54-0.6,6.98-1.46,10.48-2.01c0.38-0.28,0.81-0.5,1.25-0.59
	c2.38-0.48,4.78-0.83,7.15-1.31c0.28-0.06,0.55-0.06,0.81-0.04c1.59-0.38,3.19-0.74,4.8-1.03c1.42-0.26,2.84-0.5,4.26-0.73
	c0.3-0.19,0.65-0.34,1.07-0.42c9.1-1.77,18.18-3.64,27.27-5.52c0.32-0.12,0.62-0.23,0.93-0.34c0.14-0.21,0.32-0.39,0.54-0.52
	c0.87-0.53,1.78-0.97,2.66-1.49c0.06-0.06,0.11-0.12,0.17-0.17c0.37-0.37,0.75-0.72,1.14-1.05c0.72-0.84,1.34-1.77,1.95-2.68
	c0.08-0.12,0.14-0.23,0.21-0.35c0.17-0.37,0.33-0.73,0.41-1.13c0.04-0.13,0.1-0.26,0.18-0.38l0.09-0.1
	c0.06-0.19,0.12-0.37,0.17-0.56c0.19-0.62,0.37-1.25,0.55-1.87c-0.02-0.42-0.04-0.84-0.03-1.26c0-0.19,0.06-0.38,0.14-0.55
	c0-0.02,0-0.04,0-0.06c0.01-0.19,0.06-0.37,0.14-0.53c-0.03-0.61-0.09-1.22-0.21-1.84c-0.05-0.25-0.04-0.48,0.02-0.68
	C300.52,378.35,300.06,376.23,299.58,374.11z"/>
<path class="st11" d="M142.98,406.13c-7.64-11.49-14.65-9.5-14.65-9.5s-1.67,1.18-10.46-0.45c-1.84-0.34-3.53,0.09-5.05,0.96
	c0.34,1.99,0.7,4.02,1.05,6.03c0.18,0.29,0.33,0.62,0.42,1.01c0.33,1.5,0.67,3,1.01,4.5c1.14-0.23,2.01,0.1,2.26,1.42
	c0.32,1.65-0.25,3-1.18,4.07c0.16,0.98,0.3,1.96,0.41,2.95c0.02,0.19,0.05,0.37,0.07,0.56c0.2,0.19,0.35,0.44,0.41,0.77
	c0.06,0.31,0.12,0.62,0.19,0.93c5.38-1.87,5.94,2.69,5.94,2.69s1.12,0.41-2.74,2.24c0.01,0.04,0.03,0.08,0.04,0.11
	c0.01,0.04,0.01,0.08,0.01,0.12c0.71,0.6,1.42,1.21,2.1,1.84c0.76,0.44,1.54,0.88,2.35,1.16c1.35,0.47,2.81,0.56,4.22,0.72
	c0.06,0.01,0.13,0.01,0.19,0.02c1.86-0.44,3.45-0.74,3.45-0.74l0.47,0.27c0.13,0.07,0.26,0.13,0.39,0.2
	c0.14-0.08,0.28-0.13,0.44-0.19c0.15-0.05,0.29-0.1,0.44-0.13c0.22-0.04,0.44-0.05,0.66-0.05c0.09,0,0.19,0,0.28,0.01
	c0.26,0.03,0.53,0.08,0.79,0.14c1.37-0.39,2.76-0.58,4.18-0.81c0.93-0.35,1.87-0.68,2.84-0.92c1.61-0.4,3.25-0.73,4.9-0.95
	c0.42-0.87,0.59-1.5,0.59-1.5S150.62,417.62,142.98,406.13z"/>
<g>
	<g>
		<path class="st12" d="M193.72,319.17c-59.09,11.31-66.88-8.38-66.88-8.38l-5.35-26.24c-5.45-26.75,17.81-54.07,51.95-61.03
			c1.2-0.24,1.2-0.24,1.2-0.24c34.14-6.96,66.23,9.09,71.68,35.84l5.35,26.24c0,0,0.53,21.17-58.27,33.88"/>
	</g>
</g>
<line class="st13" x1="274.5" y1="133.27" x2="315.29" y2="124.96"/>
<line class="st13" x1="281.99" y1="170.06" x2="307.14" y2="164.93"/>
<line class="st13" x1="332.74" y1="199.39" x2="382.24" y2="189.31"/>
<line class="st13" x1="339.23" y1="231.28" x2="356.33" y2="227.79"/>
<line class="st13" x1="345.98" y1="264.39" x2="359.72" y2="261.59"/>
<line class="st13" x1="352.72" y1="297.5" x2="372.89" y2="293.39"/>
<line class="st13" x1="359.47" y1="330.61" x2="375.17" y2="327.41"/>
<line class="st13" x1="365.97" y1="362.49" x2="381.66" y2="359.29"/>
<line class="st13" x1="372.96" y1="396.83" x2="414.66" y2="388.33"/>
<line class="st14" x1="284.01" y1="149.96" x2="373.97" y2="131.63"/>
<line class="st14" x1="291.51" y1="186.74" x2="350.69" y2="174.69"/>
<line class="st14" x1="341.92" y1="214.79" x2="382.98" y2="206.42"/>
<line class="st14" x1="348.42" y1="246.67" x2="358.31" y2="244.66"/>
<line class="st14" x1="354.91" y1="278.56" x2="358.1" y2="277.91"/>
<line class="st14" x1="361.66" y1="311.67" x2="488.74" y2="285.78"/>
<line class="st14" x1="368.41" y1="344.78" x2="378.29" y2="342.76"/>
<line class="st14" x1="399.06" y1="338.53" x2="420.49" y2="334.17"/>
<line class="st14" x1="442.84" y1="329.61" x2="473.57" y2="323.35"/>
<line class="st13" x1="323.55" y1="123.27" x2="364.35" y2="114.96"/>
<line class="st13" x1="372.6" y1="113.28" x2="413.4" y2="104.97"/>
<line class="st13" x1="316.36" y1="163.06" x2="343.93" y2="157.44"/>
<line class="st13" x1="353.15" y1="155.56" x2="393.48" y2="147.34"/>
<line class="st13" x1="402.2" y1="145.57" x2="444.61" y2="136.92"/>
<line class="st13" x1="391.6" y1="187.4" x2="441.1" y2="177.31"/>
<line class="st13" x1="450.46" y1="175.41" x2="512.17" y2="162.84"/>
<line class="st13" x1="366.21" y1="225.78" x2="371.69" y2="224.66"/>
<line class="st13" x1="380.93" y1="222.78" x2="397.12" y2="219.48"/>
<line class="st13" x1="406.68" y1="217.54" x2="422.87" y2="214.24"/>
<line class="st13" x1="433.66" y1="212.04" x2="439.59" y2="210.83"/>
<line class="st13" x1="449.6" y1="208.79" x2="494.63" y2="199.62"/>
<line class="st13" x1="504.78" y1="197.55" x2="529.28" y2="192.56"/>
<line class="st13" x1="539.12" y1="190.55" x2="543.04" y2="189.75"/>
<line class="st13" x1="553.84" y1="187.55" x2="604.51" y2="177.23"/>
<line class="st13" x1="368.05" y1="259.89" x2="387.67" y2="255.89"/>
<line class="st13" x1="396.26" y1="254.14" x2="415.88" y2="250.15"/>
<line class="st13" x1="383.38" y1="291.25" x2="387.42" y2="290.43"/>
<line class="st13" x1="396.87" y1="288.5" x2="414.28" y2="284.96"/>
<line class="st13" x1="425.08" y1="282.76" x2="440.51" y2="279.61"/>
<line class="st13" x1="449.6" y1="277.76" x2="455.6" y2="276.54"/>
<line class="st13" x1="466.77" y1="274.26" x2="511.2" y2="265.21"/>
<line class="st13" x1="521.95" y1="263.02" x2="546.13" y2="258.09"/>
<line class="st13" x1="555.07" y1="256.27" x2="563.45" y2="254.56"/>
<line class="st13" x1="572.23" y1="252.77" x2="621.57" y2="242.72"/>
<line class="st13" x1="386.45" y1="325.11" x2="390.13" y2="324.36"/>
<line class="st13" x1="399.94" y1="322.36" x2="419.89" y2="318.3"/>
<line class="st13" x1="430.6" y1="316.12" x2="447.26" y2="312.72"/>
<line class="st13" x1="457.57" y1="310.62" x2="462.34" y2="309.65"/>
<line class="st13" x1="472.29" y1="307.62" x2="519.62" y2="297.98"/>
<line class="st13" x1="529.96" y1="295.87" x2="554.82" y2="290.81"/>
<line class="st13" x1="564.3" y1="288.88" x2="570.2" y2="287.67"/>
<line class="st13" x1="580.24" y1="285.63" x2="633.06" y2="274.86"/>
<line class="st13" x1="391.72" y1="357.25" x2="396.62" y2="356.25"/>
<line class="st13" x1="406.43" y1="354.25" x2="449.61" y2="345.45"/>
<line class="st13" x1="460.39" y1="343.25" x2="476.94" y2="339.88"/>
<line class="st13" x1="487.37" y1="337.76" x2="542.6" y2="326.5"/>
<line class="st13" x1="551.14" y1="324.76" x2="578.76" y2="319.14"/>
<line class="st13" x1="586.7" y1="317.52" x2="594.02" y2="316.03"/>
<line class="st13" x1="602.64" y1="314.27" x2="652.13" y2="304.19"/>
<line class="st13" x1="422.01" y1="386.84" x2="459.63" y2="379.17"/>
<line class="st13" x1="467.39" y1="377.59" x2="514.95" y2="367.9"/>
<line class="st14" x1="403.24" y1="202.3" x2="444.3" y2="193.93"/>
<line class="st14" x1="464.55" y1="189.8" x2="470.56" y2="188.58"/>
<line class="st14" x1="490.31" y1="184.56" x2="545.44" y2="173.32"/>
<line class="st14" x1="379.08" y1="240.43" x2="403.03" y2="235.55"/>
<line class="st14" x1="425.68" y1="230.93" x2="455.43" y2="224.87"/>
<line class="st14" x1="511.27" y1="281.18" x2="538.77" y2="275.58"/>
<line class="st14" x1="566.45" y1="269.94" x2="608.21" y2="261.43"/>
<line class="st14" x1="375.15" y1="377.89" x2="385.04" y2="375.87"/>
<line class="st14" x1="404.58" y1="371.89" x2="429.43" y2="366.83"/>
<line class="st14" x1="449.96" y1="362.65" x2="480.32" y2="356.46"/>
<line class="st14" x1="381.65" y1="409.77" x2="417.54" y2="402.46"/>
<line class="st14" x1="439.29" y1="398.03" x2="482.63" y2="389.2"/>
<line class="st14" x1="503.05" y1="385.04" x2="593.55" y2="366.6"/>
<line class="st14" x1="612.2" y1="362.8" x2="618.42" y2="361.53"/>
<line class="st14" x1="637.95" y1="357.55" x2="673.18" y2="350.37"/>
<polygon class="st6" points="670.96,78.82 627.59,87.65 624.89,73.87 668.26,65.04 "/>
<path class="st7" d="M668.57,65.24"/>
<line class="st7" x1="627.19" y1="85.74" x2="624.83" y2="74.15"/>
<path class="st9" d="M665.89,53.42c0,0-7.47-17.99-25.48-14.32l0.1-0.02c-18.01,3.67-17.85,23.15-17.85,23.15"/>
<path class="st9" d="M648.08,77.16c20.68-4.47,20.5-11.92,20.5-11.92l-1.88-9.23c-1.92-9.41-13.21-15.05-25.21-12.61l-0.26,0.05
	c-12.01,2.45-20.19,12.06-18.27,21.47l1.88,9.23c0,0,2.74,6.93,23.53,2.95"/>
<path class="st9" d="M650.08,86.34c12.72-2.79,17.81-5.02,19.95-6.07c1.72-0.84,1.2-1.92,1.2-1.92l-0.31-1.52
	c0,0-7.2,3.62-21.27,6.33l-0.42,0.08c-14.01,3.01-22.05,2.5-22.05,2.5l0.31,1.52c0,0-0.05,1.19,1.86,1.3
	c2.38,0.13,7.93,0.18,20.74-2.22"/>
<line class="st7" x1="670.93" y1="76.83" x2="668.57" y2="65.24"/>
<path class="st7" d="M642.78,49.05"/>
<path class="st7" d="M642.78,49.05"/>
<g>
	<g>
		<path class="st15" d="M647.98,75.7c-19.26,3.68-21.79-2.73-21.79-2.73l-1.74-8.55c-1.78-8.72,5.8-17.62,16.93-19.89
			c0.39-0.08,0.39-0.08,0.39-0.08c11.13-2.27,21.58,2.96,23.36,11.68l1.74,8.55c0,0,0.17,6.9-18.99,11.04"/>
	</g>
</g>
<polygon class="st16" points="642.23,48.16 647.61,55.1 656.38,54.6 651.44,61.87 654.63,70.06 646.19,67.6 639.39,73.16 
	639.11,64.38 631.72,59.63 639.99,56.66 "/>
<g>
	<path class="st17" d="M494.81,90.76l-0.38-1.87l6.97-1.42l0.38,1.88c0.04,0.19,0,0.37-0.11,0.53c-0.11,0.16-0.26,0.26-0.44,0.3
		c-0.19,0.04-0.37,0-0.54-0.1c-0.17-0.11-0.27-0.26-0.31-0.44l-0.1-0.5l-1.4,0.29l1.8,8.84c0.04,0.19,0,0.37-0.11,0.53
		c-0.11,0.16-0.26,0.26-0.44,0.3c-0.2,0.04-0.38,0.01-0.54-0.1c-0.16-0.11-0.27-0.26-0.31-0.45l-1.8-8.84l-1.4,0.28l0.1,0.49
		c0.04,0.19,0,0.37-0.1,0.53c-0.11,0.16-0.26,0.26-0.45,0.3c-0.19,0.04-0.37,0-0.53-0.1C494.95,91.1,494.85,90.95,494.81,90.76z"/>
	<path class="st17" d="M510.35,86.68l2.15,2.79c0.3,0.38,0.5,0.81,0.6,1.31c0.1,0.48,0.08,0.96-0.04,1.43l-0.9,3.38
		c-0.19,0.74-0.67,1.19-1.44,1.35c-0.37,0.07-0.72,0.05-1.05-0.09c-0.33-0.13-0.6-0.33-0.81-0.59l-2.15-2.76
		c-0.28-0.36-0.48-0.79-0.58-1.3c-0.1-0.51-0.1-0.99,0.02-1.44l0.9-3.41c0.21-0.74,0.69-1.19,1.45-1.35
		C509.27,85.85,509.89,86.07,510.35,86.68z M508.39,87.8l-0.84,3.2c-0.07,0.32-0.08,0.62-0.02,0.9c0.06,0.3,0.19,0.58,0.37,0.82
		l2.07,2.64c0.11,0.17,0.27,0.23,0.47,0.19c0.17-0.04,0.29-0.15,0.35-0.35l0.88-3.24c0.08-0.32,0.09-0.62,0.03-0.91
		c-0.06-0.3-0.19-0.57-0.38-0.81l-2.04-2.62c-0.14-0.19-0.3-0.27-0.5-0.23C508.59,87.43,508.46,87.56,508.39,87.8z"/>
	<path class="st17" d="M524.48,84.71l-0.38-1.87l6.97-1.42l0.38,1.88c0.04,0.19,0,0.37-0.11,0.53c-0.11,0.16-0.26,0.26-0.44,0.3
		c-0.19,0.04-0.37,0-0.54-0.1c-0.17-0.11-0.27-0.26-0.31-0.44l-0.1-0.5l-1.4,0.29l1.8,8.84c0.04,0.19,0,0.37-0.11,0.53
		c-0.11,0.16-0.26,0.26-0.44,0.3c-0.2,0.04-0.38,0.01-0.54-0.1c-0.16-0.11-0.27-0.26-0.31-0.45l-1.8-8.84l-1.4,0.28l0.1,0.49
		c0.04,0.19,0,0.37-0.1,0.53c-0.11,0.16-0.26,0.26-0.45,0.3c-0.19,0.04-0.37,0.01-0.53-0.1C524.62,85.05,524.52,84.9,524.48,84.71z"
		/>
	<path class="st17" d="M536.76,90.91l-1.94-9.55c-0.04-0.19,0-0.36,0.1-0.53c0.11-0.16,0.25-0.27,0.45-0.3
		c0.19-0.04,0.36,0,0.53,0.11c0.16,0.11,0.27,0.26,0.3,0.44l0.83,4.07l4.21-0.86l-0.83-4.07c-0.04-0.19,0-0.36,0.1-0.53
		c0.11-0.16,0.25-0.27,0.45-0.31c0.19-0.04,0.37,0,0.53,0.11c0.16,0.11,0.26,0.26,0.3,0.46l1.94,9.53c0.04,0.19,0,0.36-0.11,0.53
		c-0.11,0.17-0.26,0.27-0.44,0.3c-0.2,0.04-0.38,0.01-0.54-0.1c-0.16-0.11-0.26-0.26-0.3-0.45l-0.83-4.1l-4.19,0.85l0.83,4.1
		c0.04,0.19,0,0.36-0.11,0.53c-0.11,0.17-0.26,0.27-0.46,0.31c-0.19,0.04-0.36,0-0.53-0.1C536.9,91.25,536.8,91.1,536.76,90.91z"/>
	<path class="st17" d="M551.85,78.63l-4.88,1l0.68,3.36l2.11-0.43c0.19-0.04,0.36,0,0.53,0.11c0.17,0.11,0.27,0.26,0.3,0.44
		c0.04,0.2,0.01,0.38-0.1,0.54c-0.11,0.17-0.26,0.27-0.45,0.31l-2.11,0.43l0.69,3.39l4.9-1c0.19-0.04,0.36,0,0.53,0.1
		c0.17,0.11,0.27,0.25,0.31,0.45c0.04,0.19,0,0.37-0.11,0.53c-0.11,0.16-0.26,0.26-0.46,0.3l-6.27,1.28l-2.23-10.93l6.27-1.28
		c0.19-0.04,0.37,0,0.54,0.11s0.27,0.26,0.31,0.45c0.04,0.19,0,0.36-0.11,0.53C552.2,78.49,552.04,78.59,551.85,78.63z"/>
	<path class="st17" d="M565.94,74.3l3.6-0.73c0.44-0.09,0.89,0.01,1.36,0.3c0.47,0.29,0.76,0.7,0.86,1.22c0.04,0.2,0,0.38-0.11,0.54
		c-0.11,0.17-0.25,0.27-0.42,0.3c-0.24,0.05-0.41,0.03-0.52-0.06c-0.11-0.09-0.23-0.27-0.37-0.54c-0.14-0.27-0.34-0.38-0.62-0.33
		l-3.42,0.7c-0.17,0.03-0.24,0.1-0.21,0.21c0.01,0.07,0.06,0.14,0.15,0.21l6.47,5.5c0.31,0.27,0.5,0.58,0.58,0.94
		c0.08,0.41,0.01,0.8-0.23,1.18c-0.24,0.37-0.54,0.6-0.9,0.67l-3.73,0.76c-0.49,0.1-0.96,0-1.4-0.3c-0.44-0.3-0.71-0.68-0.8-1.13
		c-0.1-0.52,0.08-0.82,0.57-0.92c0.19-0.04,0.36,0,0.52,0.1s0.26,0.25,0.29,0.43c0.03,0.15,0.11,0.26,0.23,0.34
		c0.12,0.08,0.26,0.1,0.41,0.07l3.44-0.7c0.15-0.03,0.21-0.1,0.19-0.22c-0.01-0.06-0.06-0.12-0.14-0.19l-6.46-5.5
		c-0.3-0.26-0.5-0.58-0.57-0.95c-0.09-0.43-0.01-0.83,0.23-1.21S565.5,74.39,565.94,74.3z"/>
	<path class="st17" d="M575.34,74.35l-0.38-1.87l6.97-1.42l0.38,1.88c0.04,0.19,0,0.37-0.11,0.53c-0.11,0.16-0.26,0.26-0.44,0.3
		c-0.19,0.04-0.37,0-0.54-0.1c-0.17-0.11-0.27-0.26-0.31-0.44l-0.1-0.5l-1.4,0.28l1.8,8.84c0.04,0.19,0,0.37-0.11,0.53
		c-0.11,0.16-0.26,0.26-0.44,0.3c-0.2,0.04-0.38,0.01-0.54-0.1c-0.16-0.11-0.27-0.26-0.31-0.45l-1.8-8.84l-1.4,0.28l0.1,0.49
		c0.04,0.19,0,0.37-0.1,0.53c-0.11,0.16-0.26,0.26-0.45,0.3c-0.19,0.04-0.37,0-0.53-0.1C575.48,74.69,575.38,74.54,575.34,74.35z"/>
	<path class="st17" d="M598.26,78.38l-2.08-10.24l4.88-1c0.57-0.12,1.09-0.01,1.59,0.32c0.49,0.33,0.8,0.78,0.91,1.35l0.16,0.79
		c0.12,0.58,0.02,1.11-0.31,1.6c-0.32,0.49-0.77,0.79-1.34,0.91l-0.88,0.18l3.81,4.28c0.12,0.12,0.19,0.26,0.22,0.4
		c0.04,0.19,0,0.36-0.12,0.53c-0.12,0.16-0.26,0.26-0.44,0.3c-0.28,0.06-0.51-0.02-0.7-0.24l-4.37-4.93l-1,0.2l1.07,5.27
		c0.04,0.19,0,0.37-0.11,0.53c-0.11,0.16-0.26,0.26-0.46,0.3c-0.19,0.04-0.37,0.01-0.53-0.1C598.4,78.72,598.3,78.57,598.26,78.38z
		 M598.29,71.45l3.5-0.71c0.19-0.04,0.34-0.14,0.45-0.3c0.11-0.16,0.14-0.34,0.1-0.53l-0.16-0.81c-0.04-0.19-0.14-0.34-0.3-0.45
		c-0.16-0.11-0.34-0.14-0.53-0.1l-3.5,0.71L598.29,71.45z"/>
	<path class="st17" d="M608.31,65.67l3.6-0.73c0.44-0.09,0.89,0.01,1.36,0.3c0.47,0.29,0.75,0.7,0.86,1.22
		c0.04,0.2,0,0.38-0.11,0.54c-0.11,0.17-0.25,0.27-0.42,0.3c-0.24,0.05-0.41,0.03-0.52-0.06c-0.11-0.09-0.23-0.27-0.37-0.54
		s-0.35-0.38-0.62-0.33l-3.42,0.7c-0.17,0.03-0.24,0.1-0.21,0.21c0.01,0.07,0.06,0.14,0.15,0.21l6.47,5.5
		c0.31,0.27,0.5,0.58,0.58,0.94c0.08,0.41,0.01,0.8-0.23,1.18c-0.24,0.37-0.54,0.6-0.9,0.67l-3.73,0.76c-0.49,0.1-0.96,0-1.4-0.3
		c-0.44-0.3-0.71-0.68-0.8-1.13c-0.1-0.52,0.08-0.82,0.57-0.92c0.19-0.04,0.36,0,0.52,0.1s0.26,0.25,0.29,0.43
		c0.03,0.15,0.11,0.26,0.23,0.34c0.12,0.08,0.26,0.1,0.41,0.07l3.44-0.7c0.15-0.03,0.21-0.1,0.19-0.22
		c-0.01-0.06-0.06-0.12-0.14-0.19l-6.46-5.5c-0.3-0.26-0.5-0.58-0.57-0.95c-0.09-0.43-0.01-0.83,0.23-1.21
		C607.54,65.99,607.88,65.76,608.31,65.67z"/>
</g>
<polygon class="st18" points="588.7,69.36 591.12,72.49 595.08,72.27 592.85,75.54 594.29,79.23 590.48,78.13 587.42,80.63 
	587.29,76.68 583.96,74.53 587.69,73.19 "/>
<path class="st19" d="M89.27,211.63l156.37-31.86c7.67-1.56,15.15,3.39,16.71,11.05l38.52,189.06c1.56,7.67-3.39,15.15-11.05,16.71
	l-156.37,31.86c-7.67,1.56-15.15-3.39-16.71-11.05L78.21,228.34C76.65,220.67,81.6,213.19,89.27,211.63z"/>
<path class="st20" d="M286.22,351.16l16.02,20.66c0.54,0.69,1.38,1.08,2.26,1.03l26.1-1.48c2.21-0.13,3.6,2.33,2.36,4.16
	l-14.7,21.62c-0.49,0.73-0.6,1.65-0.28,2.47l9.48,24.37c0.8,2.06-1.11,4.14-3.23,3.53l-25.1-7.3c-0.84-0.25-1.75-0.06-2.43,0.5
	l-20.25,16.54c-1.71,1.4-4.28,0.23-4.35-1.98l-0.81-26.13c-0.03-0.88-0.48-1.68-1.22-2.16l-21.99-14.14c-1.86-1.2-1.54-4,0.54-4.75
	l24.6-8.85c0.83-0.3,1.45-0.98,1.68-1.83l6.66-25.28C282.1,349.98,284.87,349.41,286.22,351.16z"/>
<path class="st16" d="M286.22,351.16l16.02,20.66c0.54,0.69,1.38,1.08,2.26,1.03l26.1-1.48c2.21-0.13,3.6,2.33,2.36,4.16
	l-14.7,21.62c-0.49,0.73-0.6,1.65-0.28,2.47l9.48,24.37c0.8,2.06-1.11,4.14-3.23,3.53l-25.1-7.3c-0.84-0.25-1.75-0.06-2.43,0.5
	l-20.25,16.54c-1.71,1.4-4.28,0.23-4.35-1.98l-0.81-26.13c-0.03-0.88-0.48-1.68-1.22-2.16l-21.99-14.14c-1.86-1.2-1.54-4,0.54-4.75
	l24.6-8.85c0.83-0.3,1.45-0.98,1.68-1.83l6.66-25.28C282.1,349.98,284.87,349.41,286.22,351.16z"/>
<path class="st1" d="M578.76,429.52c6.52-7.67,11.95-15,16.41-21.68c13.68-20.48,18.41-34.97,18.41-34.97
	c12.3-111.59-88.36-129.64-88.36-129.64s-25.02-7.78-64.97,31.99s-1.08,68.41-1.08,68.41c63.24,53.95,43.81,90.17,33.86,102.23"/>
<path class="st1" d="M580.76,429.02c-5.39,5.05-8.55,7.87-8.55,7.87l-17.26,17.07c9.21-8.3,17.09-16.55,23.81-24.45"/>
<path class="st1" d="M493.03,445.85c-2.4,2.91-7.3,7.86-7.3,7.86"/>
<g>
	<g>
		<path class="st21" d="M511.23,437.97c-0.31,0.81-0.4,1.04-0.76,1.8c-0.35,0.74-0.72,1.48-1.13,2.19
			c-0.38,0.68-0.78,1.34-1.21,1.99c-0.2,0.31-0.41,0.61-0.62,0.91c-0.13,0.19-0.27,0.37-0.4,0.56c-0.03,0.04-0.35,0.46-0.19,0.26
			c1.39,0.37,2.79,0.74,4.18,1.1c-0.37-1.15-0.45-1.86-0.34-3.1c0.08-0.98-0.7-1.93-1.54-2.28c-0.97-0.41-1.95-0.15-2.73,0.52
			c-1.17,1-2.16,2.22-2.96,3.53c1.55,0.42,3.11,0.84,4.66,1.26c0-0.5,0.01-0.99,0.04-1.49c0.03-0.46,0.07-0.8,0.13-1.11
			c0.18-1.07-0.11-2.27-1.15-2.82c-0.94-0.5-2.28-0.46-3.03,0.39c-1.46,1.66-2.92,3.32-4.39,4.98c1.39,0.81,2.79,1.62,4.18,2.43
			c0.17-0.93,0.34-1.86,0.51-2.78c0.19-1.06-0.12-2.28-1.15-2.82c-0.92-0.49-2.3-0.47-3.03,0.39c-1.16,1.39-2.36,2.74-3.61,4.05
			c1.31,1.01,2.62,2.02,3.93,3.03c0.37-0.72,0.77-1.42,1.21-2.1c0.2-0.3,0.41-0.59,0.61-0.89c0.16-0.22,0.29-0.39,0.61-0.76
			c-1.31-1.01-2.62-2.02-3.93-3.03c-0.9,1.55-1.64,2.5-2.94,3.75c1.31,1.01,2.62,2.02,3.93,3.03c0.21-0.43,0.43-0.85,0.7-1.25
			c0.01-0.02,0.46-0.62,0.17-0.26c0.15-0.19,0.31-0.37,0.47-0.54c0.32-0.35,0.67-0.68,1.05-0.97c-0.28,0.21,0.05-0.02,0.17-0.1
			c0.23-0.15,0.47-0.29,0.72-0.43c1.14-0.64,1.62-2.3,0.9-3.42c-0.75-1.16-2.2-1.58-3.42-0.9c-2.17,1.21-4,3.1-5.07,5.35
			c-0.54,1.14-0.39,2.42,0.64,3.23c0.99,0.76,2.38,0.68,3.28-0.2c1.45-1.4,2.71-3.02,3.72-4.77c0.63-1.08,0.33-2.47-0.64-3.23
			c-0.91-0.71-2.48-0.76-3.28,0.2c-1.24,1.48-2.34,3.05-3.22,4.76c-0.57,1.12-0.37,2.44,0.64,3.23c0.95,0.74,2.42,0.72,3.28-0.2
			c1.24-1.31,2.44-2.66,3.61-4.05c-1.39-0.81-2.79-1.62-4.18-2.43c-0.17,0.93-0.34,1.86-0.51,2.78c-0.19,1.06,0.12,2.28,1.15,2.82
			c0.94,0.5,2.28,0.46,3.03-0.39c1.46-1.66,2.92-3.32,4.39-4.98c-1.39-0.81-2.79-1.62-4.18-2.43c-0.21,1.31-0.35,2.61-0.34,3.93
			c0.02,2.5,3.37,3.38,4.66,1.26c0.37-0.61,0.5-0.81,0.85-1.22c0.41-0.47,0.85-0.9,1.33-1.3c-1.42-0.59-2.85-1.18-4.27-1.77
			c-0.13,1.49,0.06,3.01,0.52,4.43c0.27,0.84,0.88,1.51,1.75,1.75c0.78,0.21,1.91,0.04,2.43-0.64c2.36-3.04,4.21-6.3,5.58-9.91
			c0.47-1.23-0.51-2.79-1.75-3.08C512.88,435.9,511.73,436.66,511.23,437.97L511.23,437.97z"/>
	</g>
</g>
<g>
	<g>
		<path class="st21" d="M510,441.3c0.4,2.04,1.16,3.99,2.19,5.79c0.65,1.14,2.29,1.62,3.42,0.9c1.88-1.2,3.76-2.4,5.64-3.6
			c0.94-0.6,1.45-1.73,1.15-2.82c-0.27-0.97-1.34-1.96-2.41-1.84c-1.69,0.2-3.37,0.4-5.06,0.6c0.22,1.64,0.44,3.27,0.66,4.91
			c6.17-2.49,12.67-3.85,19.33-3.96c-0.22-1.64-0.44-3.27-0.66-4.91c-3.45,0.72-6.9,1.45-10.35,2.17c0.44,1.61,0.89,3.21,1.33,4.82
			c8.27-2.65,16.94-3.42,25.49-4.72c4.27-0.65,8.53-1.44,12.67-2.7c3.61-1.09,7.26-2.63,9.78-5.55c0.81-0.94,1.01-2.27,0.2-3.28
			c-0.7-0.88-2.22-1.41-3.23-0.64c-1.36,1.03-2.72,2.06-4.08,3.09c-0.99,0.75-1.56,1.89-1.02,3.12c0.49,1.13,1.72,1.79,2.95,1.45
			c1.46-0.4,2.72-1.14,3.79-2.2c2.29-2.26-1.24-5.8-3.54-3.54c-0.47,0.47-0.95,0.74-1.59,0.91c0.64,1.52,1.28,3.05,1.93,4.57
			c1.36-1.03,2.72-2.06,4.08-3.09c-1.01-1.31-2.02-2.62-3.03-3.93c-2.29,2.65-5.63,3.74-8.91,4.65c-4.02,1.12-8.13,1.84-12.26,2.45
			c-8.24,1.22-16.59,2.03-24.57,4.58c-3.08,0.98-1.82,5.48,1.33,4.82c3.45-0.72,6.9-1.45,10.35-2.17c2.78-0.58,2.13-4.96-0.66-4.91
			c-7.07,0.12-14.09,1.49-20.66,4.14c-1.15,0.47-1.99,1.42-1.79,2.74c0.17,1.11,1.2,2.32,2.46,2.17c1.69-0.2,3.37-0.4,5.06-0.6
			c-0.42-1.55-0.84-3.11-1.26-4.66c-1.88,1.2-3.76,2.4-5.64,3.6c1.14,0.3,2.28,0.6,3.42,0.9c-0.83-1.46-1.36-2.95-1.69-4.6
			c-0.26-1.33-1.84-2.08-3.08-1.75C510.36,438.6,509.74,439.97,510,441.3L510,441.3z"/>
	</g>
</g>
<path class="st1" d="M771.15,421.37c0,0,4.4-3.54,11.21-10.16c0.05-32.43,0.69-64.85,1.3-97.28c-0.34-23.23-0.76-46.46-0.88-69.69
	c-0.4-4.02-0.68-8.05-0.81-12.09c-0.49-14.55,0.13-29.1-0.59-43.65c-1.58-31.71,0.47-63.28,0.67-94.97
	c-25.32-14.78-62.28-24.18-93.33,16.35c0,0-43.96,30.32,14.77,93.99c9.18,9.95,12.28,22.48,10.98,36.54"/>
<g>
	<g>
		<path class="st22" d="M701.93,215.73c0.46,2.31,2.04,4.09,2.72,6.29c0.79,2.57,0.91,5.4,1.49,8.04
			c1.24,5.66,2.76,11.27,4.16,16.89c0.78,3.12,5.6,1.8,4.82-1.33c-1.4-5.62-2.92-11.23-4.16-16.89c-0.57-2.58-0.71-5.3-1.43-7.83
			c-0.65-2.29-2.31-4.16-2.78-6.5c-0.27-1.32-1.84-2.09-3.08-1.75C702.3,213.04,701.67,214.41,701.93,215.73L701.93,215.73z"/>
	</g>
</g>
<g>
	<g>
		<path class="st21" d="M720.08,263.32c1.53,8.31,3.91,16.45,7.15,24.26c0.41,0.99,0.83,1.97,1.26,2.95
			c0.22,0.5,0.44,0.99,0.67,1.48c0.08,0.17,0.34,1.12,0.48,1.22c0-0.66,0.26-1.03,0.79-1.11c0.01,0,0.02,0,0.03,0.01
			c-0.02-0.08-0.33-0.45-0.31-0.42c-0.45-0.65-0.77-1.41-1.03-2.15c-1.3-3.63-1.32-7.51-1.35-11.32c-1.64,0.22-3.27,0.44-4.91,0.66
			c0.52,2.75,1.04,5.49,1.55,8.24c0.54,2.84,4.85,2.07,4.91-0.66c0.1-4.31-0.06-8.62-0.48-12.91c-0.13-1.34-1.06-2.5-2.5-2.5
			c-1.25,0-2.63,1.15-2.5,2.5c0.42,4.29,0.58,8.6,0.48,12.91c1.64-0.22,3.27-0.44,4.91-0.66c-0.52-2.75-1.04-5.49-1.55-8.24
			c-0.53-2.81-4.93-2.11-4.91,0.66c0.03,3.82,0.09,7.74,1.14,11.45c0.93,3.29,2.97,7.99,7.17,7.37c2.2-0.33,3.69-2.19,3.48-4.41
			c-0.19-2.04-1.52-4.05-2.3-5.91c-1.55-3.65-2.89-7.4-4.05-11.19c-1.36-4.45-2.45-8.97-3.3-13.54c-0.24-1.33-1.85-2.08-3.08-1.75
			C720.43,260.63,719.84,261.99,720.08,263.32L720.08,263.32z"/>
	</g>
</g>
<path class="st23" d="M715.51,243.01l26.9,132.04c2.27,11.15-6.3,22.32-19.15,24.93"/>
<line class="st23" x1="675.61" y1="47.17" x2="687.55" y2="105.78"/>
<path class="st24" d="M779.66,91.46c-19-11.23-42-13.23-63-6.23c-15,10-30,21-39,37c-16,31,7,61,28,83c9,10,10,23,8.81,35.2"/>
<path class="st24" d="M731.34,457.44c3.32-2.69,46.37-41.54,49.53-44.42"/>
<path class="st25" d="M769.32,570.23H20.74c-7.55,0-13.67-6.12-13.67-13.67V22.58c0-7.55,6.12-13.67,13.67-13.67h748.58
	c7.55,0,13.67,6.12,13.67,13.67v533.98C782.99,564.11,776.87,570.23,769.32,570.23z"/>
</svg>
