<?xml version="1.0" encoding="utf-8"?>
<!-- Generator: Adobe Illustrator 27.1.1, SVG Export Plug-In . SVG Version: 6.00 Build 0)  -->
<svg version="1.1" id="Layer_1" xmlns="http://www.w3.org/2000/svg" xmlns:xlink="http://www.w3.org/1999/xlink" x="0px" y="0px"
	 viewBox="0 0 792 576" style="enable-background:new 0 0 792 576;" xml:space="preserve">
<style type="text/css">
	.st0{fill:#E9C4A5;}
	.st1{opacity:0.19;fill:#FFFFFF;}
	.st2{fill:none;stroke:#984C1E;stroke-width:5;stroke-miterlimit:10;}
	.st3{fill:#321915;stroke:#E9C4A5;stroke-width:5;stroke-miterlimit:10;}
	.st4{fill:#EFE8CC;stroke:#B1AE9C;stroke-width:3;stroke-miterlimit:10;}
	.st5{fill:none;stroke:#B1AE9B;stroke-width:3;stroke-miterlimit:10;}
	.st6{fill:#EFE8CC;stroke:#EFE8CC;stroke-miterlimit:10;}
	.st7{fill:none;stroke:#A8A694;stroke-miterlimit:10;}
	.st8{fill:none;stroke:#A8A694;stroke-width:2;stroke-miterlimit:10;}
	.st9{fill:#EFE8CC;stroke:#B1AE9C;stroke-width:2;stroke-miterlimit:10;}
	.st10{fill:#2B190D;}
	.st11{opacity:0.19;fill:#321915;stroke:#FFFFFF;stroke-width:5;stroke-miterlimit:10;}
	.st12{fill:#FDC48C;stroke:#E6B581;stroke-width:4;stroke-miterlimit:10;}
	.st13{fill:#E59544;stroke:#9F5825;stroke-width:4;stroke-miterlimit:10;}
	.st14{fill:none;stroke:#9F5825;stroke-width:4;stroke-miterlimit:10;}
	.st15{fill:#331814;stroke:#200C0C;stroke-width:4;stroke-miterlimit:10;}
</style>
<path class="st0" d="M769.94,571.67H20.58c-7.33,0-13.28-5.94-13.28-13.28V23.63c0-7.33,5.94-13.28,13.28-13.28h749.36
	c7.33,0,13.28,5.94,13.28,13.28v534.76C783.22,565.72,777.28,571.67,769.94,571.67z"/>
<path class="st1" d="M769.94,571.67H20.58c-7.33,0-13.28-5.94-13.28-13.28V23.63c0-7.33,5.94-13.28,13.28-13.28h749.36
	c7.33,0,13.28,5.94,13.28,13.28v534.76C783.22,565.72,777.28,571.67,769.94,571.67z"/>
<path class="st2" d="M496.1,186.23h-95.23c-5.77,0-10.45-4.68-10.45-10.45V80.56c0-5.77,4.68-10.45,10.45-10.45h95.23
	c5.77,0,10.45,4.68,10.45,10.45v95.23C506.55,181.55,501.87,186.23,496.1,186.23z"/>
<path class="st2" d="M496.1,346.23h-95.23c-5.77,0-10.45-4.68-10.45-10.45v-95.23c0-5.77,4.68-10.45,10.45-10.45h95.23
	c5.77,0,10.45,4.68,10.45,10.45v95.23C506.55,341.55,501.87,346.23,496.1,346.23z"/>
<path class="st2" d="M496.1,506.23h-95.23c-5.77,0-10.45-4.68-10.45-10.45v-95.23c0-5.77,4.68-10.45,10.45-10.45h95.23
	c5.77,0,10.45,4.68,10.45,10.45v95.23C506.55,501.55,501.87,506.23,496.1,506.23z"/>
<path class="st3" d="M506.8,82.38c1.56-2.51,2.4-5.54,2.4-8.65c0-8.04-5.62-14.66-12.46-14.66c-3.88,0-7.54,2.13-9.9,5.76
	l-43.52,76.59l-23.84-22.01c-2.25-2.66-5.17-4.13-8.2-4.13c-6.73,0-12.26,7.26-12.26,16.09c0,3.77,1.01,7.43,2.85,10.32l37.58,35.61
	c1.88,1.52,4.22,2.34,6.63,2.34c3.11,0,6.06-1.38,8.08-3.76L506.8,82.38z"/>
<path class="st3" d="M506.8,242.38c1.56-2.51,2.4-5.54,2.4-8.65c0-8.04-5.62-14.66-12.46-14.66c-3.88,0-7.54,2.13-9.9,5.76
	l-43.52,76.59l-23.84-22.01c-2.25-2.66-5.17-4.13-8.2-4.13c-6.73,0-12.26,7.26-12.26,16.09c0,3.77,1.01,7.43,2.85,10.32l37.58,35.61
	c1.88,1.52,4.22,2.34,6.63,2.34c3.11,0,6.06-1.38,8.08-3.76L506.8,242.38z"/>
<path class="st4" d="M622.99,296.71c0,0-7.61,40.03,31.55,48.95c0,0,19.58,2.39,18.71-14.14c0,0,2.61-9.79-13.71-11.75
	c-16.32-1.96-9.74-49.8-9.74-49.8l0.39-4.59c-0.61,4.6-0.49,8.54-0.13,11.61c0.55,4.64,1.65,7.32,1.65,7.32
	c11.97,17.62,28.72,7.83,28.72,7.83s4.57-1.96,5.44-12.62s-8.27-10.01-8.27-10.01c-19.58,0-17.4-11.75-17.4-11.75
	c0.65-26.98-17.4-29.64-17.4-29.64h-43.92c0,0-23.74,0.48-19.39,80.54c0,0,10.66,24.15,39.16,25.89c0,0,10.08,7.62,17.66,2.13"/>
<path class="st5" d="M596.08,327.37c0,0-6.55-12.65-6.55-23.52"/>
<path class="st5" d="M618.64,334.57c0,0-12.62-7.83-14.79-29.59"/>
<polygon class="st6" points="683.38,178.26 573.58,178.26 573.84,143.43 683.64,143.43 "/>
<path class="st7" d="M684.3,144.07"/>
<line class="st8" x1="573.55" y1="173.41" x2="573.55" y2="144.07"/>
<path class="st9" d="M683.64,114.01c0,0-9.24-47.43-54.85-47.43h0.26c-45.61,0-54.85,47.43-54.85,47.43"/>
<path class="st9" d="M628.57,162.89c52.5-0.63,55.73-18.82,55.73-18.82V120.7c0-23.82-24.65-43.13-55.05-43.13h-0.65
	c-30.4,0-55.05,19.31-55.05,43.13v23.37c0,0,3.23,18.19,55.73,18.82"/>
<path class="st9" d="M628.91,186.2c32.31-0.49,45.79-3.37,51.51-4.86c4.59-1.2,3.88-4.07,3.88-4.07v-3.85c0,0-19.29,5.23-54.85,4.84
	h-1.06c-35.56,0.39-54.85-4.84-54.85-4.84v3.85c0,0-0.71,2.87,3.88,4.07c5.72,1.49,19.2,4.38,51.51,4.86"/>
<line class="st8" x1="684.3" y1="173.41" x2="684.3" y2="144.07"/>
<path class="st7" d="M629.62,91.94"/>
<path class="st7" d="M629.62,91.94"/>
<g>
	<g>
		<path class="st10" d="M629.05,159.29c-48.63-0.58-51.63-17.44-51.63-17.44v-21.65c0-22.07,22.83-39.96,51-39.96
			c0.99,0,0.99,0,0.99,0c28.17,0,51,17.89,51,39.96v21.65c0,0-2.99,16.86-51.63,17.44"/>
	</g>
</g>
<path class="st4" d="M607.19,421.27l6.78-8.51h53.57c13.93,21.66,6.41,62.11,6.41,62.11c-8.62,12.16-33.6,14.15-33.6,14.15
	s-64.33,3.98-75.37-7.96s0-34.06,0-34.06c6.73-15.49,23.36-25.73,41.78-25.73c18.31,0,34.86,10.12,41.66,25.47"/>
<path class="st11" d="M506.8,242.38c1.56-2.51,2.4-5.54,2.4-8.65c0-8.04-5.62-14.66-12.46-14.66c-3.88,0-7.54,2.13-9.9,5.76
	l-43.52,76.59l-23.84-22.01c-2.25-2.66-5.17-4.13-8.2-4.13c-6.73,0-12.26,7.26-12.26,16.09c0,3.77,1.01,7.43,2.85,10.32l37.58,35.61
	c1.88,1.52,4.22,2.34,6.63,2.34c3.11,0,6.06-1.38,8.08-3.76L506.8,242.38z"/>
<path class="st11" d="M506.8,82.38c1.56-2.51,2.4-5.54,2.4-8.65c0-8.04-5.62-14.66-12.46-14.66c-3.88,0-7.54,2.13-9.9,5.76
	l-43.52,76.59l-23.84-22.01c-2.25-2.66-5.17-4.13-8.2-4.13c-6.73,0-12.26,7.26-12.26,16.09c0,3.77,1.01,7.43,2.85,10.32l37.58,35.61
	c1.88,1.52,4.22,2.34,6.63,2.34c3.11,0,6.06-1.38,8.08-3.76L506.8,82.38z"/>
<path class="st12" d="M257.22,317.36l30.66-128.68l-44.04-31.99l-114.05,62.03C129.78,218.71,174.66,318.63,257.22,317.36z"/>
<path class="st13" d="M8.46,374.06L126.4,221.4c1.71-2.21,4.19-3.69,6.94-4.14l13.87-2.28c2.79-0.46,5.42,1.47,5.82,4.27l4.59,32.29
	c0.43,3.03,3.35,5.05,6.33,4.39l41.2-9.06c3.01-0.66,5.9,1.5,6.12,4.57l3.84,53.03c0.14,1.95,2.08,3.26,3.94,2.66l31.56-10.16
	c2.08-0.67,4.25,0.74,4.49,2.91l1.72,15.68c0.26,2.37-0.41,4.75-1.87,6.63L62.57,570.24l-39.26,0.38c0,0-12.77-0.84-13.48-10.71
	S8.46,374.06,8.46,374.06z"/>
<line class="st14" x1="160.32" y1="255.34" x2="9.04" y2="450.46"/>
<line class="st14" x1="14.67" y1="567.7" x2="216.69" y2="306.69"/>
<path class="st15" d="M287.79,188.91c-31.37-0.86-43.9-32.03-43.9-32.03l-0.06-0.19l32.58-17.72c10.16-5.53,22.39,3.84,19.71,15.1
	l-8.25,34.62L287.79,188.91z"/>
<path class="st2" d="M22.69,570.51h748.58c7.55,0,13.67-6.12,13.67-13.67V22.86c0-7.55-6.12-13.67-13.67-13.67H22.69
	c-7.55,0-13.67,6.12-13.67,13.67v533.98C9.02,564.39,15.14,570.51,22.69,570.51z"/>
</svg>
