<?xml version="1.0" encoding="utf-8"?>
<!-- Generator: Adobe Illustrator 27.1.1, SVG Export Plug-In . SVG Version: 6.00 Build 0)  -->
<svg version="1.1" id="Layer_1" xmlns="http://www.w3.org/2000/svg" xmlns:xlink="http://www.w3.org/1999/xlink" x="0px" y="0px"
	 viewBox="0 0 792 576" style="enable-background:new 0 0 792 576;" xml:space="preserve">
<style type="text/css">
	.st0{fill:#B26B37;}
	.st1{fill:#D23C27;stroke:#A53A23;stroke-width:4;stroke-miterlimit:10;}
	.st2{fill:#EFE8CC;stroke:#B5956A;stroke-width:4;stroke-miterlimit:10;}
	.st3{fill:none;stroke:#3D52A4;stroke-linecap:round;stroke-linejoin:round;stroke-miterlimit:10;}
	.st4{fill:#EFE8CC;stroke:#B5956A;stroke-width:4;stroke-linecap:round;stroke-linejoin:round;stroke-miterlimit:10;}
	.st5{fill:none;stroke:#B5956A;stroke-width:4;stroke-miterlimit:10;}
	.st6{fill:#EFE8CC;stroke:#EFE8CC;stroke-miterlimit:10;}
	.st7{fill:none;stroke:#A8A694;stroke-miterlimit:10;}
	.st8{fill:none;stroke:#A8A694;stroke-width:4;stroke-miterlimit:10;}
	.st9{fill:none;stroke:#A5391D;stroke-miterlimit:10;}
	.st10{fill:#EFE8CC;stroke:#B1AE9C;stroke-width:4;stroke-miterlimit:10;}
	.st11{fill:#DC7038;stroke:#A5391D;stroke-miterlimit:10;}
	.st12{fill:#D23C27;stroke:#A53A23;stroke-miterlimit:10;}
	.st13{fill:none;stroke:#A5391D;stroke-width:4;stroke-miterlimit:10;}
	.st14{fill:#2B190D;stroke:#A8A694;stroke-miterlimit:10;}
	.st15{fill:#4F231A;stroke:#321915;stroke-width:4;stroke-miterlimit:10;}
	.st16{fill:#E58327;stroke:#DE7426;stroke-width:4;stroke-miterlimit:10;}
	.st17{fill:#E58327;stroke:#DE7426;stroke-miterlimit:10;}
	.st18{fill:none;stroke:#DE7426;stroke-width:9;stroke-miterlimit:10;}
	.st19{fill:none;stroke:#E58327;stroke-width:4;stroke-miterlimit:10;}
	.st20{fill:#4F231A;stroke:#DE7426;stroke-width:0.25;stroke-miterlimit:10;}
	.st21{fill:none;stroke:#984C1E;stroke-width:5;stroke-miterlimit:10;}
</style>
<path class="st0" d="M768.39,569.4H21.03c-7.89,0-14.28-6.39-14.28-14.28V22.36c0-7.89,6.39-14.28,14.28-14.28h747.36
	c7.89,0,14.28,6.39,14.28,14.28v532.76C782.67,563.01,776.28,569.4,768.39,569.4z"/>
<path class="st1" d="M753.38,557.69L563.8,510.27l-18.24-4.18c-0.1-0.02-0.21-0.04-0.31-0.04c-4.18-0.03-3.95,2.14-3.85,2.63
	c0.02,0.09,0.02,0.17,0.02,0.26c-0.1,6.74-0.98,15.32-3.94,23.45c-0.01,0.03-0.02,0.06-0.03,0.09l-9.64,35.62
	c-0.23,0.85,0.41,1.69,1.3,1.69c58.27-0.05,116.55-0.5,174.82-0.5c1.72,0,3.36,0.23,4.93,0.61c0.12,0.03,0.25,0.04,0.37,0.04
	c14.44-0.8,28.91-1.27,43.33-0.18c0.05,0,0.11,0,0.16,0c2.09-0.13,4.19-0.18,6.29-0.2c0.08,0,0.17-0.01,0.25-0.03
	c1.4-0.32,2.84-0.5,4.28-0.5c2.26,0,4.29-0.82,6.29-0.16l2.19-0.52c1.37-1.42-5.58-8.84-0.65-2.45c0.34,0.44,2.44,1.7,2.58,1.16
	c0-0.01-1.16-0.77-1.16-0.77c0.16-0.61,4.74,0.68,4.16,0.41C769.95,563.4,762.13,560.34,753.38,557.69z"/>
<path class="st1" d="M258.96,531.94c-0.01-0.03-0.02-0.07-0.03-0.1c-3.25-8.93-3.99-18.39-3.95-25.37l0.01-0.58
	c0.02-0.97-0.87-1.69-1.81-1.48l-25.52,5.85L38.07,557.69c-7.7,2.34-14.67,4.99-21.02,7.84c0.41,1.92,0.34,1.57,0.75,3.49
	c15.58-0.03,31.16-0.1,46.74-0.17c68.19-0.32,136.36,0.74,204.55,0.71c0.01,0,0.03,0,0.04,0L258.96,531.94z"/>
<path class="st2" d="M645.34,560.14c0,0,1.91,4.2,4.7,9.27c4.71-0.02,9.41-0.03,14.12-0.04c-2.75-4.8-5.61-8.69-5.61-8.69
	s-3.16-18.91-2.03-26.69l-33.28-8.16c1.03,2.33,1.74,3.68,1.74,3.68L645.34,560.14z"/>
<path class="st2" d="M673.12,569.35c2.82-0.01,5.64-0.01,8.46-0.01c0.01-0.09,0.01-0.14,0.01-0.14s-1.86-15.38,4.77-27.75
	l-21.24-5.31c1.77,4.43,2.08,12.48,6.68,28.8C672.26,566.58,672.7,568.03,673.12,569.35z"/>
<path class="st2" d="M770.29,564.24c-17.72-7.59-66.29-18.38-66.29-18.38c-0.82,2.01-1.46,3.35-1.46,3.35s-5.47,9.24-10.06,20.1
	c3.82,0,7.63-0.02,11.45-0.02c1.78,0,3.49,0.25,5.12,0.66c14.53-0.81,29.09-1.29,43.6-0.18c2.16-0.13,4.33-0.19,6.5-0.21
	c1.44-0.34,2.92-0.53,4.4-0.53c1.06,0,2.09,0.1,3.1,0.25c0.6-0.76,1.21-1.54,1.83-2.36C769.15,566.03,771.26,564.65,770.29,564.24z"
	/>
<path class="st2" d="M527.34,569.8c28.32-0.02,56.64-0.13,84.96-0.25c-1.46-2.79-5.05-11.15,9.35-2.84l2.42,2.79
	c5.7-0.02,11.4-0.04,17.11-0.07c-12.05-20.09-28.89-39-28.89-39l-1.04-1.14c-1.02-2.63-2.05-5.1-3.1-7.41l-8.91-2.23l-20.38-5.1
	l-31.52-7.24c0,0-6.28-2.19-5.91,0c0.37,2.19-1.19,14.56-1.19,14.56L527.34,569.8z"/>
<path class="st3" d="M617.64,531.45"/>
<path class="st4" d="M27.1,568.99c0.17-0.03,0.32-0.06,0.5-0.08c0.41-0.04,0.84-0.01,1.27,0.08c7.63-0.02,15.26-0.05,22.89-0.09
	c-0.68-3.96-1.28-8.21-1.63-12.44l-26.39,8.82V569C24.86,568.99,25.98,568.99,27.1,568.99z"/>
<path class="st4" d="M64.55,568.84c1.77-0.01,3.55-0.01,5.32-0.01l4.63-17.39l-16.06,2.95c0.5,4.4,1.19,9.73,2,14.48
	C61.81,568.85,63.18,568.85,64.55,568.84z"/>
<path class="st4" d="M95.53,545.59c0,0-11.81,13.17-12.31,17.59s-1.9,3.45-1.9,3.45s-4.37-9.23-1.43-16.32
	c0.17-0.4,0.3-0.77,0.41-1.1L95.53,545.59z"/>
<path class="st5" d="M35.57,561.37c2.23,3.45,5.65,7.37,5.81-0.65"/>
<path class="st4" d="M100.83,568.8c6.4-10.71,14.81-21.55,25.84-31.48l-16.84,4.21c-9.57,9.2-17.09,18.42-23.05,27.26
	C91.47,568.79,96.15,568.79,100.83,568.8z"/>
<polygon class="st6" points="584.71,449.93 211.37,449.93 212.28,332.32 585.61,332.32 "/>
<path class="st7" d="M585.24,334.49"/>
<line class="st8" x1="211.27" y1="433.58" x2="211.27" y2="334.49"/>
<path class="st9" d="M268.61,469.69l-13.31,27.73c0,0,0.06,1.95-0.14,5.16"/>
<path class="st10" d="M583.01,233.01c0,0-31.2-160.14-185.2-160.14h0.88c-154,0-185.2,160.14-185.2,160.14"/>
<path class="st10" d="M397.07,398.04c177.25-2.12,188.17-63.55,188.17-63.55v-78.91c0-80.43-83.23-145.64-185.89-145.64h-2.19
	c-102.66,0-185.89,65.2-185.89,145.64v78.91c0,0,10.91,61.43,188.17,63.55"/>
<path class="st11" d="M388.81,568.92c10.51-0.03,21.03,0.06,31.54,0.21c32.31-32.89,52.19-72.54,63.26-100.39l-170.78,0
	c11.02,27.83,30.83,67.44,63.18,100.3C380.27,568.98,384.54,568.93,388.81,568.92z"/>
<path class="st9" d="M527.43,468.73l13.31,27.73c0,0,0.52,6.37,0.7,10.86"/>
<path class="st12" d="M227.65,510.27"/>
<path class="st1" d="M312.83,468.74l-44.23,0.95l-13.31,27.73c0,0,0.06,1.95-0.14,5.16l-0.12,1.42l-0.05,2.49
	c-0.04,6.99,0.7,16.47,3.97,25.41l10.19,37.66c0.79,0,1.56,0.05,2.32,0.14c12.14-0.37,24.31-0.01,36.45,0.15
	c22.72,0.3,45.4-0.49,68.11-0.8C343.67,536.18,323.85,496.57,312.83,468.74z"/>
<path class="st1" d="M485.82,569.81c2.24-0.84,4.62-1.29,7.02-1.29c10.07,0.03,20.13,0.5,30.19,0.77c1.45,0.04,2.85,0.21,4.2,0.51
	c0.04,0,0.09,0,0.13,0l10.11-37.36c3-8.22,3.87-16.89,3.96-23.66l0.01-1.46c-0.18-4.48-0.7-10.86-0.7-10.86l-13.31-27.73l-43.82,0
	c-11.84,29.8-27.06,67.54-62.06,100.41c15.32,0.23,30.64,0.6,45.95,0.95C473.47,569.1,479.85,569.48,485.82,569.81z"/>
<path class="st10" d="M398.21,476.75c109.11-1.64,154.6-11.38,173.93-16.42c15.5-4.04,13.1-13.74,13.1-13.74v-13.01
	c0,0-65.14,17.66-185.2,16.35h-3.56c-120.06,1.31-185.2-16.35-185.2-16.35v13.01c0,0-2.4,9.7,13.1,13.74
	c19.33,5.04,64.82,14.78,173.93,16.42"/>
<line class="st8" x1="585.24" y1="433.58" x2="585.24" y2="334.49"/>
<path class="st7" d="M398.74,153.92"/>
<path class="st3" d="M617.64,531.45"/>
<path class="st4" d="M24.06,568.99l0.02-3.86l-8.07,3.87C18.69,569.01,21.37,569,24.06,568.99z"/>
<path class="st7" d="M398.74,153.92"/>
<path class="st13" d="M753.38,557.69L563.8,510.27l-18.39-4.21c0,0,0,0,0,0c-4.86-0.1-3.99,2.7-3.98,2.73c0,0,0,0,0,0
	c-0.09,6.77-0.96,15.45-3.96,23.66c0,0,0,0,0,0l-10.1,37.34c0,0.01,0,0.02,0.01,0.02c58.85-0.04,117.7-0.51,176.56-0.51
	c1.78,0,3.49,0.25,5.11,0.66c0,0,0,0,0,0c14.53-0.81,29.09-1.29,43.6-0.18c0,0,0,0,0,0c2.16-0.13,4.32-0.19,6.5-0.21c0,0,0,0,0,0
	c1.44-0.34,2.92-0.53,4.4-0.53c2.26,0,4.68-0.43,6.68,0.23l2.45-0.39c1.48-0.23,1.61-1.05,0.65-2.19c-2.61-3.11-3.55,0.96,0.9,1.94
	l0.65-0.77c0-0.01,1.55-1.55,1.55-1.55C769.14,562.81,762.55,560.47,753.38,557.69z"/>
<path class="st13" d="M258.96,531.93c-0.01-0.03-0.02-0.06-0.03-0.08c-3.25-8.93-3.99-18.4-3.95-25.37l0.02-0.86
	c0.02-0.83-0.75-1.45-1.55-1.26l-25.79,5.91L38.07,557.69c-8.08,2.45-15.36,5.25-21.96,8.26c0.37,1.68,0.31,1.39,0.68,3.07
	c15.92-0.03,31.83-0.1,47.75-0.17c68.19-0.32,136.36,0.74,204.55,0.71c0.01,0,0.03,0,0.04,0L258.96,531.93z"/>
<path class="st4" d="M202.92,569.32c-11.06-12.62-21.36-11.86-21.36-11.86s-5.11,2.24-27.74-6.9c-14.24-5.75-28.54,7.59-37.19,18.27
	C145.39,568.92,174.15,569.14,202.92,569.32z"/>
<g>
	<g>
		<path class="st14" d="M398.7,385.9c-164.22-1.96-174.33-58.88-174.33-58.88v-73.11c0-74.52,77.1-134.93,172.22-134.93
			c3.34,0,3.34,0,3.34,0c95.11,0,172.22,60.41,172.22,134.93v73.11c0,0-10.11,56.91-174.33,58.88"/>
	</g>
</g>
<path class="st15" d="M230.26,159.2c0,0-85.16-53.03-47.61-93.29s217.94-37.16,217.94-37.16h0.5c0,0,180.39-3.1,217.94,37.16
	c37.55,40.26-47.61,93.29-47.61,93.29"/>
<path class="st15" d="M229.1,180.32l-0.1,0.07c-2.79,1.86-5.23,4.24-7.01,7.08c-5.16,8.24-7.14,23.5,40.02,31.17
	c66.58,10.84,138.19,6.97,138.19,6.97l0,0c0.82,0,1.63,0.02,2.45,0.06c9.53,0.44,75.43,3,137.02-7.03
	c47.16-7.68,45.18-22.93,40.02-31.17c-1.78-2.84-4.22-5.22-7.01-7.08l-0.1-0.07"/>
<polyline class="st15" points="228.99,180.39 400.19,151.07 572.67,180.39 "/>
<path class="st16" d="M403.02,161.91c77.7,0,155.07,15.79,168.04,18.56c1.23,0.26,2.42-0.53,2.68-1.76
	c1.22-5.72-1.92-14.93-3.08-18.05c-0.25-0.67-0.8-1.18-1.49-1.37c-45.76-12.59-166.53-19.83-166.53-19.83l-1.02-0.06
	c-0.86-0.05-1.73-0.03-2.59,0.06l0,0c0,0-120.78,7.24-166.53,19.83c-0.69,0.19-1.24,0.7-1.49,1.37c-1.16,3.11-4.3,12.32-3.08,18.05
	c0.26,1.23,1.45,2.02,2.68,1.76c12.97-2.77,90.34-18.56,168.04-18.56H403.02z"/>
<path class="st17" d="M359.74,71.52H318.8c-2.08,0-3.76-1.37-3.76-3.06v0c0-1.69,1.69-3.06,3.76-3.06h43.69"/>
<path class="st17" d="M356.71,80.03h-32.68c-1.66,0-3-1.26-3-2.81v0c0-1.55,1.35-2.81,3-2.81h34.87"/>
<path class="st17" d="M358.12,98.07h-18.84c-0.96,0-1.73-1.17-1.73-2.61v0c0-1.44,0.78-2.61,1.73-2.61h20.1"/>
<path class="st17" d="M440.66,71.52h40.95c2.08,0,3.76-1.37,3.76-3.06v0c0-1.69-1.69-3.06-3.76-3.06h-43.69"/>
<path class="st17" d="M443.69,80.03h32.68c1.66,0,3-1.26,3-2.81v0c0-1.55-1.35-2.81-3-2.81H441.5"/>
<path class="st17" d="M442.29,98.07h18.84c0.96,0,1.73-1.17,1.73-2.61v0c0-1.44-0.78-2.61-1.73-2.61h-20.1"/>
<path class="st17" d="M444.05,89.07h24.55c1.25,0,2.26-1.17,2.26-2.61v0c0-1.44-1.01-2.61-2.26-2.61H442.4"/>
<path class="st17" d="M438.29,107.33h18.84c0.96,0,1.73-1.17,1.73-2.61v0c0-1.44-0.78-2.61-1.73-2.61h-20.1"/>
<path class="st17" d="M356.36,89.07h-24.55c-1.25,0-2.26-1.17-2.26-2.61v0c0-1.44,1.01-2.61,2.26-2.61H358"/>
<path class="st17" d="M362.11,107.33h-18.84c-0.96,0-1.73-1.17-1.73-2.61v0c0-1.44,0.78-2.61,1.73-2.61h20.1"/>
<ellipse class="st18" cx="400.26" cy="86.29" rx="39.81" ry="39.75"/>
<ellipse class="st19" cx="400.26" cy="86.29" rx="39.81" ry="39.75"/>
<polyline class="st17" points="394.29,108.2 391.65,114.07 410.42,114.1 407.79,108.22 "/>
<path class="st17" d="M400.89,55.65c-28.13,28.48-6.81,52.48-6.81,52.48l13.53,0.02c0,0,21.38-23.95-6.68-52.5"/>
<circle class="st17" cx="400.91" cy="81.66" r="7.62"/>
<circle class="st20" cx="400.91" cy="81.56" r="5.83"/>
<path class="st17" d="M387.36,77.87c0,0-11.66,11.83-4.09,29.28l6.03-7.02c-3.32-6.67-3.91-14.19-2.01-22.14"/>
<path class="st17" d="M414.25,77.9c0,0,11.63,11.86,4.01,29.29l-6.01-7.03c3.34-6.66,3.95-14.18,2.07-22.14"/>
<path class="st21" d="M769,569.4H20.42c-7.55,0-13.67-6.12-13.67-13.67V21.75c0-7.55,6.12-13.67,13.67-13.67H769
	c7.55,0,13.67,6.12,13.67,13.67v533.98C782.67,563.28,776.55,569.4,769,569.4z"/>
</svg>
