<?xml version="1.0" encoding="UTF-8" standalone="no"?>
<!-- Created with Inkscape (http://www.inkscape.org/) -->

<svg
   version="1.1"
   id="svg2"
   xml:space="preserve"
   width="1152"
   height="1152"
   viewBox="0 0 1152 1152"
   sodipodi:docname="Rocket with Liftoff.ai"
   xmlns:inkscape="http://www.inkscape.org/namespaces/inkscape"
   xmlns:sodipodi="http://sodipodi.sourceforge.net/DTD/sodipodi-0.dtd"
   xmlns="http://www.w3.org/2000/svg"
   xmlns:svg="http://www.w3.org/2000/svg"><defs
     id="defs6"><clipPath
       clipPathUnits="userSpaceOnUse"
       id="clipPath16"><path
         d="M 0,864 H 864 V 0 H 0 Z"
         id="path14" /></clipPath></defs><sodipodi:namedview
     id="namedview4"
     pagecolor="#ffffff"
     bordercolor="#666666"
     borderopacity="1.0"
     inkscape:pageshadow="2"
     inkscape:pageopacity="0.0"
     inkscape:pagecheckerboard="0" /><g
     id="g8"
     inkscape:groupmode="layer"
     inkscape:label="Rocket with Liftoff"
     transform="matrix(1.3333333,0,0,-1.3333333,0,1152)"><g
       id="g10"><g
         id="g12"
         clip-path="url(#clipPath16)"><g
           id="g18"
           transform="translate(420.117,696.5369)"><path
             d="M 0,0 C -306.383,-310.979 -73.532,-572.425 -73.532,-572.425 H 74.03 c 0,0 232.851,261.446 -73.532,572.425"
             style="fill:#efe8cc;fill-opacity:1;fill-rule:nonzero;stroke:#b2af9c;stroke-width:4;stroke-linecap:round;stroke-linejoin:round;stroke-miterlimit:10;stroke-dasharray:none;stroke-opacity:1"
             id="path20" /></g><g
           id="g22"
           transform="translate(503.8192,412.8348)"><path
             d="m 0,0 c 0,-45.898 -37.208,-83.106 -83.106,-83.106 -45.899,0 -83.107,37.208 -83.107,83.106 0,45.898 37.208,83.106 83.107,83.106 C -37.208,83.106 0,45.898 0,0"
             style="fill:#b2af9c;fill-opacity:1;fill-rule:nonzero;stroke:none"
             id="path24" /></g><g
           id="g26"
           transform="translate(503.8192,412.8348)"><path
             d="m 0,0 c 0,-45.898 -37.208,-83.106 -83.106,-83.106 -45.899,0 -83.107,37.208 -83.107,83.106 0,45.898 37.208,83.106 83.107,83.106 C -37.208,83.106 0,45.898 0,0 Z"
             style="fill:none;stroke:#9b9989;stroke-width:1;stroke-linecap:butt;stroke-linejoin:miter;stroke-miterlimit:10;stroke-dasharray:none;stroke-opacity:1"
             id="path28" /></g><g
           id="g30"
           transform="translate(484.2872,413.9838)"><path
             d="m 0,0 c 0,-35.111 -28.463,-63.574 -63.574,-63.574 -35.112,0 -63.575,28.463 -63.575,63.574 0,35.111 28.463,63.574 63.575,63.574 C -28.463,63.574 0,35.111 0,0"
             style="fill:#2a190c;fill-opacity:1;fill-rule:nonzero;stroke:none"
             id="path32" /></g><g
           id="g34"
           transform="translate(484.2872,413.9838)"><path
             d="m 0,0 c 0,-35.111 -28.463,-63.574 -63.574,-63.574 -35.112,0 -63.575,28.463 -63.575,63.574 0,35.111 28.463,63.574 63.575,63.574 C -28.463,63.574 0,35.111 0,0 Z"
             style="fill:none;stroke:#a9a695;stroke-width:4;stroke-linecap:butt;stroke-linejoin:miter;stroke-miterlimit:10;stroke-dasharray:none;stroke-opacity:1"
             id="path36" /></g><g
           id="g38"
           transform="translate(347.5851,124.1114)"><path
             d="M 0,0 -28.687,-64.06 H 176 L 147.313,0"
             style="fill:#2a190c;fill-opacity:1;fill-rule:nonzero;stroke:#000000;stroke-width:2;stroke-linecap:butt;stroke-linejoin:miter;stroke-miterlimit:10;stroke-dasharray:none;stroke-opacity:1"
             id="path40" /></g><g
           id="g42"
           transform="translate(272.7881,454.0471)"><path
             d="m 0,0 c 0,0 -126.959,-129.217 -44.176,-319.404 l 65.623,76.595 c -36.336,72.651 -42.868,154.643 -22.262,241.438"
             style="fill:#d23c27;fill-opacity:1;fill-rule:nonzero;stroke:#a53a23;stroke-width:3;stroke-linecap:round;stroke-linejoin:round;stroke-miterlimit:10;stroke-dasharray:none;stroke-opacity:1"
             id="path44" /></g><g
           id="g46"
           transform="translate(566.0309,454.0471)"><path
             d="m 0,0 c 0,0 126.959,-129.217 44.176,-319.404 l -65.623,76.595 c 36.336,72.651 42.868,154.643 22.262,241.438"
             style="fill:#d23c27;fill-opacity:1;fill-rule:nonzero;stroke:#a53a23;stroke-width:3;stroke-linecap:round;stroke-linejoin:round;stroke-miterlimit:10;stroke-dasharray:none;stroke-opacity:1"
             id="path48" /></g><g
           id="g50"
           transform="translate(739.3747,799.8135)"><path
             d="m 0,0 h -82.723 c -3.254,0 -5.892,-2.638 -5.892,-5.891 v -725.402 c 0,-3.253 2.638,-5.891 5.892,-5.891 H 0 c 3.254,0 5.891,2.638 5.891,5.891 V -5.891 C 5.891,-2.638 3.254,0 0,0 Z"
             style="fill:none;stroke:#2b0000;stroke-width:10;stroke-linecap:butt;stroke-linejoin:miter;stroke-miterlimit:10;stroke-dasharray:none;stroke-opacity:1"
             id="path52" /></g><g
           id="g54"
           transform="translate(159.266,794.1152)"><path
             d="m 0,0 v -82.723 c 0,-3.254 2.638,-5.892 5.891,-5.892 h 573.812 c 3.254,0 5.891,2.638 5.891,5.892 V 0 c 0,3.254 -2.637,5.891 -5.891,5.891 H 5.891 C 2.638,5.891 0,3.254 0,0 Z"
             style="fill:none;stroke:#2b0000;stroke-width:10;stroke-linecap:butt;stroke-linejoin:miter;stroke-miterlimit:10;stroke-dasharray:none;stroke-opacity:1"
             id="path56" /></g><g
           id="g58"
           transform="translate(650.0106,801.3455)"><path
             d="M 0,0 96.511,-96.511"
             style="fill:none;stroke:#2b0000;stroke-width:10;stroke-linecap:butt;stroke-linejoin:miter;stroke-miterlimit:10;stroke-dasharray:none;stroke-opacity:1"
             id="path60" /></g><g
           id="g62"
           transform="translate(746.5213,801.3455)"><path
             d="M 0,0 -96.511,-96.511"
             style="fill:none;stroke:#2b0000;stroke-width:10;stroke-linecap:butt;stroke-linejoin:miter;stroke-miterlimit:10;stroke-dasharray:none;stroke-opacity:1"
             id="path64" /></g><g
           id="g66"
           transform="translate(650.0106,707.3455)"><path
             d="M 0,0 96.511,-96.511"
             style="fill:none;stroke:#2b0000;stroke-width:10;stroke-linecap:butt;stroke-linejoin:miter;stroke-miterlimit:10;stroke-dasharray:none;stroke-opacity:1"
             id="path68" /></g><g
           id="g70"
           transform="translate(746.5213,707.3455)"><path
             d="M 0,0 -96.511,-96.511"
             style="fill:none;stroke:#2b0000;stroke-width:10;stroke-linecap:butt;stroke-linejoin:miter;stroke-miterlimit:10;stroke-dasharray:none;stroke-opacity:1"
             id="path72" /></g><g
           id="g74"
           transform="translate(650.0106,607.3455)"><path
             d="M 0,0 96.511,-96.511"
             style="fill:none;stroke:#2b0000;stroke-width:10;stroke-linecap:butt;stroke-linejoin:miter;stroke-miterlimit:10;stroke-dasharray:none;stroke-opacity:1"
             id="path76" /></g><g
           id="g78"
           transform="translate(746.5213,607.3455)"><path
             d="M 0,0 -96.511,-96.511"
             style="fill:none;stroke:#2b0000;stroke-width:10;stroke-linecap:butt;stroke-linejoin:miter;stroke-miterlimit:10;stroke-dasharray:none;stroke-opacity:1"
             id="path80" /></g><g
           id="g82"
           transform="translate(650.0106,513.3455)"><path
             d="M 0,0 96.511,-96.511"
             style="fill:none;stroke:#2b0000;stroke-width:10;stroke-linecap:butt;stroke-linejoin:miter;stroke-miterlimit:10;stroke-dasharray:none;stroke-opacity:1"
             id="path84" /></g><g
           id="g86"
           transform="translate(746.5213,513.3455)"><path
             d="M 0,0 -96.511,-96.511"
             style="fill:none;stroke:#2b0000;stroke-width:10;stroke-linecap:butt;stroke-linejoin:miter;stroke-miterlimit:10;stroke-dasharray:none;stroke-opacity:1"
             id="path88" /></g><g
           id="g90"
           transform="translate(650.0106,413.3455)"><path
             d="M 0,0 96.511,-96.511"
             style="fill:none;stroke:#2b0000;stroke-width:10;stroke-linecap:butt;stroke-linejoin:miter;stroke-miterlimit:10;stroke-dasharray:none;stroke-opacity:1"
             id="path92" /></g><g
           id="g94"
           transform="translate(746.5213,413.3455)"><path
             d="M 0,0 -96.511,-96.511"
             style="fill:none;stroke:#2b0000;stroke-width:10;stroke-linecap:butt;stroke-linejoin:miter;stroke-miterlimit:10;stroke-dasharray:none;stroke-opacity:1"
             id="path96" /></g><g
           id="g98"
           transform="translate(650.0106,312.3455)"><path
             d="M 0,0 96.511,-96.511"
             style="fill:none;stroke:#2b0000;stroke-width:10;stroke-linecap:butt;stroke-linejoin:miter;stroke-miterlimit:10;stroke-dasharray:none;stroke-opacity:1"
             id="path100" /></g><g
           id="g102"
           transform="translate(746.5213,312.3455)"><path
             d="M 0,0 -96.511,-96.511"
             style="fill:none;stroke:#2b0000;stroke-width:10;stroke-linecap:butt;stroke-linejoin:miter;stroke-miterlimit:10;stroke-dasharray:none;stroke-opacity:1"
             id="path104" /></g><g
           id="g106"
           transform="translate(650.0106,212.3455)"><path
             d="M 0,0 96.511,-96.511"
             style="fill:none;stroke:#2b0000;stroke-width:10;stroke-linecap:butt;stroke-linejoin:miter;stroke-miterlimit:10;stroke-dasharray:none;stroke-opacity:1"
             id="path108" /></g><g
           id="g110"
           transform="translate(746.5213,212.3455)"><path
             d="M 0,0 -96.511,-96.511"
             style="fill:none;stroke:#2b0000;stroke-width:10;stroke-linecap:butt;stroke-linejoin:miter;stroke-miterlimit:10;stroke-dasharray:none;stroke-opacity:1"
             id="path112" /></g><g
           id="g114"
           transform="translate(650.0106,118.3455)"><path
             d="M 0,0 56.447,-56.447"
             style="fill:none;stroke:#2b0000;stroke-width:10;stroke-linecap:butt;stroke-linejoin:miter;stroke-miterlimit:10;stroke-dasharray:none;stroke-opacity:1"
             id="path116" /></g><g
           id="g118"
           transform="translate(746.5213,118.3455)"><path
             d="M 0,0 -56.043,-56.043"
             style="fill:none;stroke:#2b0000;stroke-width:10;stroke-linecap:butt;stroke-linejoin:miter;stroke-miterlimit:10;stroke-dasharray:none;stroke-opacity:1"
             id="path120" /></g><g
           id="g122"
           transform="translate(650.3936,801.8348)"><path
             d="M 0,0 -96.511,-96.511"
             style="fill:none;stroke:#2b0000;stroke-width:10;stroke-linecap:butt;stroke-linejoin:miter;stroke-miterlimit:10;stroke-dasharray:none;stroke-opacity:1"
             id="path124" /></g><g
           id="g126"
           transform="translate(650.3936,705.3241)"><path
             d="M 0,0 -96.511,96.511"
             style="fill:none;stroke:#2b0000;stroke-width:10;stroke-linecap:butt;stroke-linejoin:miter;stroke-miterlimit:10;stroke-dasharray:none;stroke-opacity:1"
             id="path128" /></g><g
           id="g130"
           transform="translate(550.3936,801.8348)"><path
             d="M 0,0 -96.511,-96.511"
             style="fill:none;stroke:#2b0000;stroke-width:10;stroke-linecap:butt;stroke-linejoin:miter;stroke-miterlimit:10;stroke-dasharray:none;stroke-opacity:1"
             id="path132" /></g><g
           id="g134"
           transform="translate(550.3936,705.3242)"><path
             d="M 0,0 -96.511,96.511"
             style="fill:none;stroke:#2b0000;stroke-width:10;stroke-linecap:butt;stroke-linejoin:miter;stroke-miterlimit:10;stroke-dasharray:none;stroke-opacity:1"
             id="path136" /></g><g
           id="g138"
           transform="translate(456.3936,801.8348)"><path
             d="M 0,0 -96.511,-96.511"
             style="fill:none;stroke:#2b0000;stroke-width:10;stroke-linecap:butt;stroke-linejoin:miter;stroke-miterlimit:10;stroke-dasharray:none;stroke-opacity:1"
             id="path140" /></g><g
           id="g142"
           transform="translate(456.3936,705.3242)"><path
             d="M 0,0 -96.511,96.511"
             style="fill:none;stroke:#2b0000;stroke-width:10;stroke-linecap:butt;stroke-linejoin:miter;stroke-miterlimit:10;stroke-dasharray:none;stroke-opacity:1"
             id="path144" /></g><g
           id="g146"
           transform="translate(356.3936,801.8348)"><path
             d="M 0,0 -96.511,-96.511"
             style="fill:none;stroke:#2b0000;stroke-width:10;stroke-linecap:butt;stroke-linejoin:miter;stroke-miterlimit:10;stroke-dasharray:none;stroke-opacity:1"
             id="path148" /></g><g
           id="g150"
           transform="translate(356.3936,705.3242)"><path
             d="M 0,0 -96.511,96.511"
             style="fill:none;stroke:#2b0000;stroke-width:10;stroke-linecap:butt;stroke-linejoin:miter;stroke-miterlimit:10;stroke-dasharray:none;stroke-opacity:1"
             id="path152" /></g><g
           id="g154"
           transform="translate(255.3936,801.8348)"><path
             d="M 0,0 -96.511,-96.511"
             style="fill:none;stroke:#2b0000;stroke-width:10;stroke-linecap:butt;stroke-linejoin:miter;stroke-miterlimit:10;stroke-dasharray:none;stroke-opacity:1"
             id="path156" /></g><g
           id="g158"
           transform="translate(255.3936,705.3242)"><path
             d="M 0,0 -96.511,96.511"
             style="fill:none;stroke:#2b0000;stroke-width:10;stroke-linecap:butt;stroke-linejoin:miter;stroke-miterlimit:10;stroke-dasharray:none;stroke-opacity:1"
             id="path160" /></g></g></g></g></svg>
