<?xml version="1.0" encoding="utf-8"?>
<!-- Generator: Adobe Illustrator 27.1.1, SVG Export Plug-In . SVG Version: 6.00 Build 0)  -->
<svg version="1.1" id="Layer_1" xmlns="http://www.w3.org/2000/svg" xmlns:xlink="http://www.w3.org/1999/xlink" x="0px" y="0px"
	 viewBox="0 0 792 576" style="enable-background:new 0 0 792 576;" xml:space="preserve">
<style type="text/css">
	.st0{fill:#411900;}
	.st1{fill:#FFF1E7;}
	.st2{fill:#E15D25;}
	.st3{fill:#F68B44;}
	.st4{fill:#F9A369;}
	.st5{fill:#EFE8CC;stroke:#B1AE9C;stroke-width:4;stroke-linecap:round;stroke-linejoin:round;stroke-miterlimit:10;}
	.st6{fill:#B1AE9C;stroke:#9B9989;stroke-miterlimit:10;}
	.st7{fill:#2B190D;stroke:#A8A694;stroke-width:4;stroke-miterlimit:10;}
	.st8{fill:#2B190D;stroke:#000000;stroke-width:2;stroke-miterlimit:10;}
	.st9{fill:#D23C27;stroke:#A53A23;stroke-width:3;stroke-linecap:round;stroke-linejoin:round;stroke-miterlimit:10;}
	.st10{fill:none;stroke:#984C1E;stroke-width:5;stroke-miterlimit:10;}
</style>
<g>
	<path class="st0" d="M764.22,570.48H25.2c-10.19,0-18.45-8.26-18.45-18.45V27.61c0-10.19,8.26-18.45,18.45-18.45h739.01
		c10.19,0,18.45,8.26,18.45,18.45v524.41C782.67,562.22,774.41,570.48,764.22,570.48z"/>
	<g>
		<g>
			<path class="st1" d="M24.02,175.81c3.22,0,3.22-5,0-5C20.8,170.81,20.8,175.81,24.02,175.81L24.02,175.81z"/>
		</g>
	</g>
	<g>
		<g>
			<path class="st1" d="M51.74,96.51c3.22,0,3.22-5,0-5C48.52,91.51,48.52,96.51,51.74,96.51L51.74,96.51z"/>
		</g>
	</g>
	<g>
		<g>
			<path class="st1" d="M707.25,329c3.22,0,3.22-5,0-5C704.04,324,704.03,329,707.25,329L707.25,329z"/>
		</g>
	</g>
	<g>
		<g>
			<path class="st1" d="M220.1,68.58c3.22,0,3.22-5,0-5C216.89,63.58,216.88,68.58,220.1,68.58L220.1,68.58z"/>
		</g>
	</g>
	<g>
		<g>
			<path class="st1" d="M299.76,286.11c3.22,0,3.22-5,0-5C296.55,281.11,296.54,286.11,299.76,286.11L299.76,286.11z"/>
		</g>
	</g>
	<g>
		<g>
			<path class="st1" d="M323.1,38.06c3.22,0,3.22-5,0-5C319.88,33.06,319.87,38.06,323.1,38.06L323.1,38.06z"/>
		</g>
	</g>
	<g>
		<g>
			<path class="st1" d="M195.59,510.58c3.22,0,3.22-5,0-5C192.38,505.58,192.37,510.58,195.59,510.58L195.59,510.58z"/>
		</g>
	</g>
	<g>
		<g>
			<path class="st1" d="M744.02,433.17c3.22,0,3.22-5,0-5C740.8,428.17,740.8,433.17,744.02,433.17L744.02,433.17z"/>
		</g>
	</g>
	<g>
		<g>
			<path class="st1" d="M750.15,194.19c3.22,0,3.22-5,0-5C746.93,189.19,746.92,194.19,750.15,194.19L750.15,194.19z"/>
		</g>
	</g>
	<g>
		<g>
			<path class="st1" d="M615.34,234.02c3.22,0,3.22-5,0-5C612.12,229.02,612.12,234.02,615.34,234.02L615.34,234.02z"/>
		</g>
	</g>
	<g>
		<g>
			<path class="st1" d="M606.15,77.77c3.22,0,3.22-5,0-5C602.93,72.77,602.92,77.77,606.15,77.77L606.15,77.77z"/>
		</g>
	</g>
	<g>
		<g>
			<path class="st1" d="M100.9,307.87c3.22,0,3.22-5,0-5C97.69,302.87,97.68,307.87,100.9,307.87L100.9,307.87z"/>
		</g>
	</g>
	<g>
		<g>
			<path class="st1" d="M495.85,181.94c3.22,0,3.22-5,0-5C492.63,176.94,492.63,181.94,495.85,181.94L495.85,181.94z"/>
		</g>
	</g>
	<g>
		<g>
			<path class="st1" d="M256.87,188.07c3.22,0,3.22-5,0-5C253.65,183.07,253.65,188.07,256.87,188.07L256.87,188.07z"/>
		</g>
	</g>
	<g>
		<g>
			<path class="st1" d="M406.32,33.8c3.22,0,3.22-5,0-5C403.11,28.8,403.1,33.8,406.32,33.8L406.32,33.8z"/>
		</g>
	</g>
	<g>
		<g>
			<path class="st1" d="M34.71,39.22c3.22,0,3.22-5,0-5C31.49,34.22,31.49,39.22,34.71,39.22L34.71,39.22z"/>
		</g>
	</g>
	<g>
		<g>
			<path class="st1" d="M155.76,160.49c3.22,0,3.22-5,0-5C152.55,155.49,152.54,160.49,155.76,160.49L155.76,160.49z"/>
		</g>
	</g>
	<g>
		<g>
			<path class="st1" d="M542.58,478.97c3.22,0,3.22-5,0-5C539.36,473.97,539.36,478.97,542.58,478.97L542.58,478.97z"/>
		</g>
	</g>
	<g>
		<g>
			<path class="st1" d="M759.34,491.39c3.22,0,3.22-5,0-5C756.12,486.39,756.12,491.39,759.34,491.39L759.34,491.39z"/>
		</g>
	</g>
	<g>
		<g>
			<path class="st1" d="M679.68,34.87c3.22,0,3.22-5,0-5C676.46,29.87,676.46,34.87,679.68,34.87L679.68,34.87z"/>
		</g>
	</g>
	<g>
		<g>
			<path class="st1" d="M501.98,25.68c3.22,0,3.22-5,0-5C498.76,20.68,498.75,25.68,501.98,25.68L501.98,25.68z"/>
		</g>
	</g>
	<g>
		<g>
			<path class="st1" d="M339.59,102.28c3.22,0,3.22-5,0-5C336.38,97.28,336.37,102.28,339.59,102.28L339.59,102.28z"/>
		</g>
	</g>
	<g>
		<g>
			<path class="st1" d="M255.35,115.09c3.22,0,3.22-5,0-5C252.14,110.09,252.13,115.09,255.35,115.09L255.35,115.09z"/>
		</g>
	</g>
	<g>
		<g>
			<path class="st1" d="M710.32,549.6c3.22,0,3.22-5,0-5C707.1,544.6,707.09,549.6,710.32,549.6L710.32,549.6z"/>
		</g>
	</g>
	<g>
		<g>
			<path class="st1" d="M177.21,439.3c3.22,0,3.22-5,0-5C173.99,434.3,173.99,439.3,177.21,439.3L177.21,439.3z"/>
		</g>
	</g>
	<g>
		<g>
			<path class="st1" d="M178.71,108.13c3.22,0,3.22-5,0-5C175.49,103.13,175.49,108.13,178.71,108.13L178.71,108.13z"/>
		</g>
	</g>
	<g>
		<g>
			<path class="st1" d="M50.19,412.38c3.22,0,3.22-5,0-5C46.98,407.38,46.97,412.38,50.19,412.38L50.19,412.38z"/>
		</g>
	</g>
	<g>
		<g>
			<path class="st1" d="M20.96,255.47c3.22,0,3.22-5,0-5C17.74,250.47,17.73,255.47,20.96,255.47L20.96,255.47z"/>
		</g>
	</g>
	<g>
		<g>
			<path class="st1" d="M624.37,378.58c3.22,0,3.22-5,0-5C621.15,373.58,621.14,378.58,624.37,378.58L624.37,378.58z"/>
		</g>
	</g>
	<g>
		<g>
			<path class="st1" d="M146.57,405.6c3.22,0,3.22-5,0-5C143.36,400.6,143.35,405.6,146.57,405.6L146.57,405.6z"/>
		</g>
	</g>
	<g>
		<g>
			<path class="st1" d="M290.57,486.07c3.22,0,3.22-5,0-5C287.36,481.07,287.35,486.07,290.57,486.07L290.57,486.07z"/>
		</g>
	</g>
	<g>
		<g>
			<path class="st1" d="M256.87,335.13c3.22,0,3.22-5,0-5C253.65,330.13,253.65,335.13,256.87,335.13L256.87,335.13z"/>
		</g>
	</g>
	<g>
		<g>
			<path class="st1" d="M198.66,368.83c3.22,0,3.22-5,0-5C195.44,363.83,195.43,368.83,198.66,368.83L198.66,368.83z"/>
		</g>
	</g>
	<g>
		<g>
			<path class="st1" d="M11.76,365.77c3.22,0,3.22-5,0-5C8.55,360.77,8.54,365.77,11.76,365.77L11.76,365.77z"/>
		</g>
	</g>
	<g>
		<g>
			<path class="st1" d="M241.55,28.75c3.22,0,3.22-5,0-5C238.33,23.75,238.33,28.75,241.55,28.75L241.55,28.75z"/>
		</g>
	</g>
	<g>
		<g>
			<path class="st1" d="M174.15,243.22c3.22,0,3.22-5,0-5C170.93,238.22,170.92,243.22,174.15,243.22L174.15,243.22z"/>
		</g>
	</g>
	<g>
		<g>
			<path class="st1" d="M623,140.58c3.22,0,3.22-5,0-5C619.78,135.58,619.78,140.58,623,140.58L623,140.58z"/>
		</g>
	</g>
	<g>
		<g>
			<path class="st1" d="M727.17,74.7c3.22,0,3.22-5,0-5C723.95,69.7,723.95,74.7,727.17,74.7L727.17,74.7z"/>
		</g>
	</g>
	<g>
		<g>
			<path class="st1" d="M571.23,52.38c3.22,0,3.22-5,0-5C568.01,47.38,568,52.38,571.23,52.38L571.23,52.38z"/>
		</g>
	</g>
	<g>
		<g>
			<path class="st1" d="M696.65,484.38c3.22,0,3.22-5,0-5C693.43,479.38,693.42,484.38,696.65,484.38L696.65,484.38z"/>
		</g>
	</g>
	<g>
		<g>
			<path class="st1" d="M393.72,268.24c3.22,0,3.22-5,0-5C390.5,263.24,390.5,268.24,393.72,268.24L393.72,268.24z"/>
		</g>
	</g>
	<g>
		<g>
			<path class="st1" d="M366.15,157.94c3.22,0,3.22-5,0-5C362.93,152.94,362.92,157.94,366.15,157.94L366.15,157.94z"/>
		</g>
	</g>
	<g>
		<g>
			<path class="st1" d="M448.87,111.98c3.22,0,3.22-5,0-5C445.65,106.98,445.65,111.98,448.87,111.98L448.87,111.98z"/>
		</g>
	</g>
	<g>
		<g>
			<path class="st1" d="M445.81,254.45c3.22,0,3.22-5,0-5C442.59,249.45,442.58,254.45,445.81,254.45L445.81,254.45z"/>
		</g>
	</g>
	<g>
		<g>
			<path class="st1" d="M540.79,260.58c3.22,0,3.22-5,0-5C537.57,255.58,537.56,260.58,540.79,260.58L540.79,260.58z"/>
		</g>
	</g>
	<g>
		<g>
			<path class="st1" d="M591.34,341.77c3.22,0,3.22-5,0-5C588.12,336.77,588.12,341.77,591.34,341.77L591.34,341.77z"/>
		</g>
	</g>
	<g>
		<g>
			<path class="st1" d="M684.79,259.04c3.22,0,3.22-5,0-5C681.57,254.04,681.56,259.04,684.79,259.04L684.79,259.04z"/>
		</g>
	</g>
	<g>
		<g>
			<path class="st1" d="M758.32,363.22c3.22,0,3.22-5,0-5C755.1,358.22,755.09,363.22,758.32,363.22L758.32,363.22z"/>
		</g>
	</g>
	<g>
		<g>
			<path class="st1" d="M776.7,242.19c3.22,0,3.22-5,0-5C773.48,237.19,773.48,242.19,776.7,242.19L776.7,242.19z"/>
		</g>
	</g>
	<g>
		<g>
			<path class="st1" d="M26.97,559.48c3.22,0,3.22-5,0-5C23.75,554.48,23.75,559.48,26.97,559.48L26.97,559.48z"/>
		</g>
	</g>
	<g>
		<g>
			<path class="st1" d="M345.94,201.03c3.22,0,3.22-5,0-5C342.72,196.03,342.71,201.03,345.94,201.03L345.94,201.03z"/>
		</g>
	</g>
	<g>
		<g>
			<path class="st1" d="M417.94,368.26c3.22,0,3.22-5,0-5C414.72,363.26,414.71,368.26,417.94,368.26L417.94,368.26z"/>
		</g>
	</g>
	<g>
		<g>
			<path class="st1" d="M92.77,149.93c3.22,0,3.22-5,0-5C89.56,144.93,89.55,149.93,92.77,149.93L92.77,149.93z"/>
		</g>
	</g>
	<g>
		<g>
			<path class="st1" d="M367.68,366.28c3.22,0,3.22-5,0-5C364.46,361.28,364.46,366.28,367.68,366.28L367.68,366.28z"/>
		</g>
	</g>
	<g>
		<g>
			<path class="st1" d="M527,301.94c3.22,0,3.22-5,0-5C523.78,296.94,523.78,301.94,527,301.94L527,301.94z"/>
		</g>
	</g>
	<g>
		<g>
			<path class="st1" d="M479.51,452.07c3.22,0,3.22-5,0-5C476.29,447.07,476.29,452.07,479.51,452.07L479.51,452.07z"/>
		</g>
	</g>
	<g>
		<g>
			<path class="st1" d="M343.17,384.66c3.22,0,3.22-5,0-5C339.95,379.66,339.95,384.66,343.17,384.66L343.17,384.66z"/>
		</g>
	</g>
	<g>
		<g>
			<path class="st1" d="M513.21,367.81c3.22,0,3.22-5,0-5C509.99,362.81,509.99,367.81,513.21,367.81L513.21,367.81z"/>
		</g>
	</g>
	<g>
		<g>
			<path class="st1" d="M767.1,37.67c3.22,0,3.22-5,0-5C763.88,32.67,763.87,37.67,767.1,37.67L767.1,37.67z"/>
		</g>
	</g>
	<g>
		<g>
			<path class="st1" d="M360.02,432.15c3.22,0,3.22-5,0-5C356.8,427.15,356.8,432.15,360.02,432.15L360.02,432.15z"/>
		</g>
	</g>
	<g>
		<g>
			<path class="st1" d="M284.96,409.17c3.22,0,3.22-5,0-5C281.74,404.17,281.73,409.17,284.96,409.17L284.96,409.17z"/>
		</g>
	</g>
	<g>
		<g>
			<path class="st1" d="M375.35,531.61c3.22,0,3.22-5,0-5C372.14,526.61,372.13,531.61,375.35,531.61L375.35,531.61z"/>
		</g>
	</g>
	<g>
		<g>
			<path class="st1" d="M539.48,550.19c3.22,0,3.22-5,0-5C536.27,545.19,536.26,550.19,539.48,550.19L539.48,550.19z"/>
		</g>
	</g>
	<g>
		<g>
			<path class="st1" d="M568.36,430.62c3.22,0,3.22-5,0-5C565.14,425.62,565.14,430.62,568.36,430.62L568.36,430.62z"/>
		</g>
	</g>
	<g>
		<g>
			<path class="st1" d="M644.77,317.93c3.22,0,3.22-5,0-5C641.56,312.93,641.55,317.93,644.77,317.93L644.77,317.93z"/>
		</g>
	</g>
	<g>
		<g>
			<path class="st1" d="M671,438.28c3.22,0,3.22-5,0-5C667.78,433.28,667.78,438.28,671,438.28L671,438.28z"/>
		</g>
	</g>
	<g>
		<g>
			<path class="st1" d="M637.3,533.26c3.22,0,3.22-5,0-5C634.08,528.26,634.07,533.26,637.3,533.26L637.3,533.26z"/>
		</g>
	</g>
	<g>
		<g>
			<path class="st1" d="M477.98,517.94c3.22,0,3.22-5,0-5C474.76,512.94,474.75,517.94,477.98,517.94L477.98,517.94z"/>
		</g>
	</g>
	<g>
		<g>
			<path class="st1" d="M627.74,477.42c3.22,0,3.22-5,0-5C624.52,472.42,624.52,477.42,627.74,477.42L627.74,477.42z"/>
		</g>
	</g>
	<g>
		<g>
			<path class="st1" d="M437.29,553.29c3.22,0,3.22-5,0-5C434.07,548.29,434.07,553.29,437.29,553.29L437.29,553.29z"/>
		</g>
	</g>
	<g>
		<g>
			<path class="st1" d="M416.7,471.98c3.22,0,3.22-5,0-5C413.48,466.98,413.48,471.98,416.7,471.98L416.7,471.98z"/>
		</g>
	</g>
	<g>
		<g>
			<path class="st1" d="M158.58,562.58c3.22,0,3.22-5,0-5C155.36,557.58,155.36,562.58,158.58,562.58L158.58,562.58z"/>
		</g>
	</g>
	<g>
		<g>
			<path class="st1" d="M292.52,558.71c3.22,0,3.22-5,0-5C289.3,553.71,289.29,558.71,292.52,558.71L292.52,558.71z"/>
		</g>
	</g>
	<g>
		<g>
			<path class="st1" d="M110.32,524.07c3.22,0,3.22-5,0-5C107.1,519.07,107.09,524.07,110.32,524.07L110.32,524.07z"/>
		</g>
	</g>
	<g>
		<g>
			<path class="st1" d="M47.51,459.73c3.22,0,3.22-5,0-5C44.29,454.73,44.29,459.73,47.51,459.73L47.51,459.73z"/>
		</g>
	</g>
	<g>
		<g>
			<path class="st1" d="M49.04,504.15c3.22,0,3.22-5,0-5C45.82,499.15,45.82,504.15,49.04,504.15L49.04,504.15z"/>
		</g>
	</g>
	<g>
		<g>
			<path class="st1" d="M182.32,450.53c3.22,0,3.22-5,0-5C179.1,445.53,179.09,450.53,182.32,450.53L182.32,450.53z"/>
		</g>
	</g>
	<g>
		<g>
			<path class="st1" d="M102.66,225.34c3.22,0,3.22-5,0-5C99.44,220.34,99.43,225.34,102.66,225.34L102.66,225.34z"/>
		</g>
	</g>
	<g>
		<g>
			<path class="st1" d="M265.04,225.34c3.22,0,3.22-5,0-5C261.82,220.34,261.82,225.34,265.04,225.34L265.04,225.34z"/>
		</g>
	</g>
	<g>
		<g>
			<path class="st1" d="M381.47,234.53c3.22,0,3.22-5,0-5C378.25,229.53,378.24,234.53,381.47,234.53L381.47,234.53z"/>
		</g>
	</g>
	<path class="st2" d="M317.57,251.8c0,0-1.41,0.05-3.96,0.19c-18.44,1.01-96.67,6.91-135.53,35.62c-3.98,2.94-3.01,9.14,1.68,10.69
		l0,0c5.53,1.83,5.58,9.65,0.07,11.53c-29.64,10.14-88,34.77-114.71,78.39c-1.98,3.23-0.61,7.45,2.9,8.86l7.84,3.15
		c3.96,1.59,5.1,6.65,2.2,9.78c-15.41,16.65-54.54,61.52-52.55,85.77c2.51,30.57,100.86-0.62,126.7-13.12
		c3.39-1.64,7.43,0.18,8.48,3.79l2.64,9.07c0.96,3.31,4.47,5.16,7.74,4.08c14.4-4.73,52.2-17.84,85.49-35.35
		c4.59-2.42,9.9,1.69,8.75,6.75l-0.22,0.97c-1.21,5.32,4.64,9.43,9.22,6.48c20.79-13.39,64.32-47.54,102.54-117.2L317.57,251.8z"/>
	<path class="st3" d="M360.57,333.03c-15.59,38.78-70.11,83.51-91.3,99.85c-2.75,2.12-6.62-0.48-5.69-3.83l0,0
		c0.86-3.09-2.45-5.68-5.25-4.11c-32.48,18.11-48.69,21.81-54.94,22.51c-1.79,0.2-3.45-0.97-3.88-2.72l-0.91-3.67
		c-0.51-2.07-2.7-3.24-4.71-2.54c-46.44,16.24-61.45,18.28-73.1,10.19c-9.72-6.75,18.23-41.54,29.05-54.34
		c1.79-2.12,0.62-5.38-2.11-5.88l-4.91-0.91c-2.4-0.44-3.7-3.1-2.54-5.26c15.96-29.65,52.52-43.86,72.02-49.55
		c3.47-1.01,3.48-5.92,0.01-6.94l-3.62-1.07c-3-0.88-3.55-4.92-0.88-6.54c45.24-27.5,127.76-32.25,127.76-32.25L360.57,333.03z"/>
	<path class="st4" d="M354.26,321.41c-4.65,12.93-34.79,37.15-45.35,45.34c-1.15,0.89-2.76-0.21-2.35-1.61l0.01-0.02
		c0.4-1.34-1.1-2.43-2.27-1.66c-11.28,7.44-20.64,10.84-24.41,12.03c-0.91,0.29-1.85-0.35-1.93-1.3l-0.18-2.09
		c-0.09-1.02-1.16-1.66-2.1-1.24c-21.53,9.65-31.38,10.38-36.42,7.77c-4.33-2.25,9.86-19.59,14.67-25.26
		c0.71-0.84,0.31-2.12-0.75-2.41l-2.6-0.7c-0.84-0.23-1.3-1.11-1.03-1.93c3.16-9.57,24.63-20.27,33.6-24.38
		c1.28-0.59,1.11-2.46-0.26-2.81l-0.07-0.02c-1.28-0.33-1.53-2.01-0.42-2.72c19.26-12.3,52.96-17.17,59.12-17.98
		c0.6-0.08,1.18,0.21,1.48,0.73l11.11,19.03C354.35,320.55,354.41,321,354.26,321.41z"/>
	<path class="st5" d="M749.45,91.46C449.52,2.12,362.34,237.47,362.34,237.47l49.64,93.41c0,0,243.84,59.46,337.64-239.11"/>
	<circle class="st6" cx="570.05" cy="187.27" r="59.58"/>
	<circle class="st7" cx="570.78" cy="186.89" r="45.57"/>
	<polyline class="st8" points="362.68,238.1 312.47,241.49 381.33,371.07 412.23,331.36 	"/>
	<path class="st9" d="M546.38,79.77c0,0-124.51-36.9-217.06,79.48l70.56,15.78c33.77-47.44,83.48-79.16,145.35-95.31"/>
	<path class="st9" d="M645.02,265.4c0,0-39.09,123.84-187.34,135.41l26.41-67.31c58.21-1.44,112.32-24.88,160.33-67.13"/>
	<path class="st10" d="M769,570.48H20.42c-7.55,0-13.67-6.12-13.67-13.67V22.83c0-7.55,6.12-13.67,13.67-13.67H769
		c7.55,0,13.67,6.12,13.67,13.67v533.98C782.67,564.36,776.55,570.48,769,570.48z"/>
	<g>
		<g>
			<path class="st1" d="M134.58,40.32c3.22,0,3.22-5,0-5C131.36,35.32,131.36,40.32,134.58,40.32L134.58,40.32z"/>
		</g>
	</g>
</g>
</svg>
