<?xml version="1.0" encoding="utf-8"?>
<!-- Generator: Adobe Illustrator 27.1.1, SVG Export Plug-In . SVG Version: 6.00 Build 0)  -->
<svg version="1.1" id="Layer_1" xmlns="http://www.w3.org/2000/svg" xmlns:xlink="http://www.w3.org/1999/xlink" x="0px" y="0px"
	 viewBox="0 0 396 144" style="enable-background:new 0 0 396 144;" xml:space="preserve">
<style type="text/css">
	.st0{fill:#EFE8CC;stroke:#EFE8CC;stroke-miterlimit:10;}
	.st1{fill:none;stroke:#A8A694;stroke-miterlimit:10;}
	.st2{fill:#EFE8CC;stroke:#B1AE9C;stroke-miterlimit:10;}
	.st3{fill:#2B190D;}
	.st4{fill:#FFF1E7;stroke:#FFF1E7;stroke-width:4;stroke-linecap:round;stroke-linejoin:round;stroke-miterlimit:10;}
	.st5{fill:#FFF1E7;stroke:#FFF1E7;stroke-miterlimit:10;}
	.st6{fill:none;stroke:#FFF1E7;stroke-width:2;stroke-linecap:round;stroke-linejoin:round;stroke-miterlimit:10;}
</style>
<polygon class="st0" points="110.88,115.77 18.18,115.77 18.4,86.36 111.11,86.36 "/>
<path class="st1" d="M111.66,86.9"/>
<line class="st1" x1="18.15" y1="111.68" x2="18.15" y2="86.9"/>
<path class="st2" d="M111.11,61.53c0,0-7.8-40.04-46.31-40.04h0.22c-38.51,0-46.31,40.04-46.31,40.04"/>
<path class="st2" d="M64.61,102.8c44.32-0.53,47.05-15.89,47.05-15.89V67.17c0-20.11-20.81-36.42-46.48-36.42h-0.55
	c-25.67,0-46.48,16.3-46.48,36.42V86.9c0,0,2.73,15.36,47.05,15.89"/>
<path class="st2" d="M64.9,122.48c27.28-0.41,38.66-2.84,43.49-4.11c3.87-1.01,3.28-3.44,3.28-3.44v-3.25c0,0-16.29,4.42-46.31,4.09
	h-0.89c-30.02,0.33-46.31-4.09-46.31-4.09v3.25c0,0-0.6,2.43,3.28,3.44c4.83,1.26,16.21,3.7,43.49,4.11"/>
<line class="st1" x1="111.66" y1="111.68" x2="111.66" y2="86.9"/>
<path class="st1" d="M65.49,42.9"/>
<path class="st1" d="M65.49,42.9"/>
<g>
	<g>
		<path class="st3" d="M65.02,99.76c-41.06-0.49-43.59-14.72-43.59-14.72V66.76c0-18.63,19.28-33.74,43.06-33.74
			c0.83,0,0.83,0,0.83,0c23.78,0,43.06,15.11,43.06,33.74v18.28c0,0-2.53,14.23-43.59,14.72"/>
	</g>
</g>
<polygon class="st4" points="64.73,40.83 72.88,57.34 91.09,59.98 77.91,72.83 81.02,90.96 64.73,82.4 48.44,90.96 51.56,72.83 
	38.38,59.98 56.59,57.34 "/>
<g>
	<path class="st5" d="M125.63,66.54v-3.99h14.91v4.03c0,0.41-0.15,0.76-0.44,1.05s-0.64,0.43-1.04,0.43c-0.41,0-0.76-0.15-1.06-0.44
		s-0.45-0.64-0.45-1.04V65.5h-2.99v18.9c0,0.41-0.15,0.76-0.44,1.05s-0.64,0.43-1.04,0.43c-0.42,0-0.78-0.14-1.07-0.43
		s-0.44-0.64-0.44-1.05V65.5h-2.99v1.04c0,0.41-0.14,0.76-0.43,1.05s-0.64,0.43-1.05,0.43s-0.76-0.14-1.05-0.43
		S125.63,66.95,125.63,66.54z"/>
	<path class="st5" d="M159.24,64.67l3.25,6.63c0.46,0.9,0.69,1.88,0.69,2.94c0,1.03-0.23,2-0.69,2.92l-3.25,6.56
		c-0.69,1.44-1.86,2.16-3.52,2.16c-0.79,0-1.49-0.21-2.12-0.62s-1.1-0.93-1.42-1.55l-3.27-6.56c-0.43-0.86-0.65-1.83-0.65-2.92
		s0.22-2.07,0.65-2.94l3.27-6.63c0.74-1.44,1.92-2.16,3.53-2.16C157.37,62.51,158.54,63.23,159.24,64.67z M154.74,66.15l-3.06,6.22
		c-0.28,0.62-0.42,1.23-0.42,1.83c0,0.64,0.14,1.26,0.42,1.85l3.15,6.29c0.16,0.39,0.46,0.58,0.9,0.58c0.38,0,0.66-0.19,0.86-0.58
		l3.16-6.29c0.29-0.62,0.44-1.24,0.44-1.85c0-0.64-0.15-1.25-0.44-1.83l-3.09-6.22c-0.2-0.46-0.51-0.69-0.93-0.69
		S154.98,65.69,154.74,66.15z"/>
	<path class="st5" d="M189.06,66.54v-3.99h14.91v4.03c0,0.41-0.15,0.76-0.44,1.05s-0.64,0.43-1.04,0.43c-0.41,0-0.76-0.15-1.06-0.44
		s-0.45-0.64-0.45-1.04V65.5h-2.99v18.9c0,0.41-0.15,0.76-0.44,1.05s-0.64,0.43-1.04,0.43c-0.42,0-0.78-0.14-1.07-0.43
		S195,84.81,195,84.4V65.5h-2.99v1.04c0,0.41-0.14,0.76-0.43,1.05s-0.64,0.43-1.05,0.43s-0.76-0.14-1.05-0.43
		S189.06,66.95,189.06,66.54z"/>
	<path class="st5" d="M211.67,84.4V63.99c0-0.4,0.14-0.74,0.43-1.04s0.64-0.44,1.05-0.44c0.4,0,0.74,0.15,1.04,0.44
		s0.44,0.64,0.44,1.04v8.7h9v-8.7c0-0.4,0.14-0.74,0.43-1.04s0.64-0.44,1.05-0.44s0.76,0.15,1.05,0.44s0.43,0.65,0.43,1.07V84.4
		c0,0.4-0.15,0.74-0.45,1.04s-0.64,0.44-1.03,0.44c-0.42,0-0.77-0.14-1.05-0.43s-0.42-0.64-0.42-1.05v-8.75h-8.96v8.75
		c0,0.4-0.15,0.74-0.45,1.04s-0.65,0.44-1.06,0.44c-0.4,0-0.74-0.14-1.04-0.43S211.67,84.81,211.67,84.4z"/>
	<path class="st5" d="M247.78,65.5h-10.44v7.19h4.5c0.4,0,0.74,0.15,1.04,0.44s0.44,0.64,0.44,1.04c0,0.42-0.14,0.78-0.43,1.07
		s-0.64,0.44-1.05,0.44h-4.5v7.24h10.48c0.4,0,0.74,0.14,1.04,0.43s0.44,0.64,0.44,1.05s-0.15,0.76-0.45,1.05s-0.65,0.43-1.06,0.43
		h-13.39V62.51h13.39c0.41,0,0.76,0.15,1.06,0.45s0.45,0.65,0.45,1.06c0,0.4-0.15,0.74-0.45,1.04S248.19,65.5,247.78,65.5z"/>
	<path class="st5" d="M278.5,62.51h7.69c0.94,0,1.83,0.4,2.67,1.19c0.84,0.79,1.26,1.75,1.26,2.87c0,0.42-0.15,0.78-0.45,1.07
		s-0.63,0.44-0.99,0.44c-0.5,0-0.85-0.11-1.04-0.34s-0.37-0.65-0.54-1.27s-0.55-0.93-1.14-0.93h-7.31c-0.35,0-0.53,0.11-0.53,0.34
		c-0.01,0.14,0.06,0.31,0.21,0.5l10.98,14c0.53,0.68,0.79,1.41,0.79,2.18c0,0.88-0.32,1.65-0.96,2.32s-1.35,1-2.14,1h-7.96
		c-1.05,0-1.97-0.4-2.75-1.2s-1.17-1.68-1.17-2.65c0-1.1,0.52-1.65,1.55-1.65c0.4,0,0.74,0.14,1.02,0.43s0.42,0.62,0.42,1.01
		c0,0.32,0.11,0.58,0.33,0.79s0.49,0.32,0.82,0.32h7.35c0.32,0,0.47-0.12,0.47-0.38c0.01-0.12-0.06-0.27-0.22-0.46l-10.96-14
		c-0.52-0.67-0.78-1.39-0.78-2.18c0-0.91,0.33-1.71,0.99-2.38C276.78,62.85,277.57,62.51,278.5,62.51z"/>
	<path class="st5" d="M297.78,66.54v-3.99h14.91v4.03c0,0.41-0.15,0.76-0.44,1.05s-0.64,0.43-1.04,0.43c-0.41,0-0.76-0.15-1.06-0.44
		s-0.45-0.64-0.45-1.04V65.5h-2.99v18.9c0,0.41-0.15,0.76-0.44,1.05s-0.64,0.43-1.04,0.43c-0.42,0-0.78-0.14-1.07-0.43
		s-0.44-0.64-0.44-1.05V65.5h-2.99v1.04c0,0.41-0.14,0.76-0.43,1.05s-0.64,0.43-1.05,0.43s-0.76-0.14-1.05-0.43
		S297.78,66.95,297.78,66.54z"/>
	<path class="st5" d="M343.14,84.4V62.51h10.44c1.21,0,2.25,0.44,3.12,1.32s1.31,1.93,1.31,3.15v1.69c0,1.23-0.43,2.28-1.3,3.16
		s-1.91,1.31-3.13,1.31h-1.88l6.03,10.37c0.19,0.3,0.28,0.61,0.28,0.91c0,0.4-0.15,0.74-0.46,1.03s-0.65,0.43-1.04,0.43
		c-0.59,0-1.03-0.26-1.34-0.79l-6.91-11.96h-2.13V84.4c0,0.41-0.15,0.76-0.45,1.05s-0.65,0.43-1.06,0.43s-0.76-0.14-1.05-0.43
		S343.14,84.81,343.14,84.4z M346.1,70.18h7.49c0.41,0,0.76-0.14,1.05-0.43s0.43-0.64,0.43-1.05v-1.72c0-0.41-0.14-0.76-0.43-1.05
		s-0.64-0.43-1.05-0.43h-7.49V70.18z"/>
	<path class="st5" d="M369.08,62.51h7.69c0.94,0,1.83,0.4,2.67,1.19c0.84,0.79,1.26,1.75,1.26,2.87c0,0.42-0.15,0.78-0.45,1.07
		s-0.63,0.44-0.99,0.44c-0.5,0-0.85-0.11-1.04-0.34s-0.37-0.65-0.54-1.27s-0.55-0.93-1.14-0.93h-7.31c-0.35,0-0.53,0.11-0.53,0.34
		c-0.01,0.14,0.06,0.31,0.21,0.5l10.98,14c0.53,0.68,0.79,1.41,0.79,2.18c0,0.88-0.32,1.65-0.96,2.32s-1.35,1-2.14,1h-7.96
		c-1.05,0-1.97-0.4-2.75-1.2s-1.17-1.68-1.17-2.65c0-1.1,0.52-1.65,1.55-1.65c0.4,0,0.74,0.14,1.02,0.43s0.42,0.62,0.42,1.01
		c0,0.32,0.11,0.58,0.33,0.79s0.49,0.32,0.82,0.32h7.35c0.32,0,0.47-0.12,0.47-0.38c0.01-0.12-0.06-0.27-0.22-0.46l-10.96-14
		c-0.52-0.67-0.78-1.39-0.78-2.18c0-0.91,0.33-1.71,0.99-2.38C367.36,62.85,368.15,62.51,369.08,62.51z"/>
</g>
<polygon class="st6" points="326.69,62.97 330.36,70.4 338.57,71.6 332.63,77.39 334.03,85.56 326.69,81.7 319.35,85.56 
	320.75,77.39 314.81,71.6 323.02,70.4 "/>
</svg>
